<svg width="250" height="190" viewBox="0 0 250 190" fill="none" xmlns="http://www.w3.org/2000/svg">
<g clip-path="url(#clip0)">
<path d="M120.953 167.808C67.1433 163.713 2.97319 122.02 6.24018 79.0895C9.50718 36.1593 71.6566 -3.80519 125.466 0.289699C179.275 4.38458 210.25 84.614 206.983 127.544C203.716 170.474 174.762 171.903 120.953 167.808Z" fill="#F2F2F2"/>
<path d="M125.465 174.704C187.501 174.704 237.791 171.623 237.791 167.822C237.791 164.021 187.501 160.94 125.465 160.94C63.4299 160.94 13.1402 164.021 13.1402 167.822C13.1402 171.623 63.4299 174.704 125.465 174.704Z" fill="#3F3D56"/>
<path opacity="0.1" d="M125.465 172.262C178.306 172.262 221.142 170.224 221.142 167.711C221.142 165.198 178.306 163.16 125.465 163.16C72.6249 163.16 29.7892 165.198 29.7892 167.711C29.7892 170.224 72.6249 172.262 125.465 172.262Z" fill="black"/>
<path d="M47.1041 189.799C73.119 189.799 94.2083 187.96 94.2083 185.692C94.2083 183.424 73.119 181.585 47.1041 181.585C21.0892 181.585 0 183.424 0 185.692C0 187.96 21.0892 189.799 47.1041 189.799Z" fill="#3F3D56"/>
<path opacity="0.1" d="M47.1041 188.341C69.2631 188.341 87.2265 187.126 87.2265 185.626C87.2265 184.126 69.2631 182.91 47.1041 182.91C24.9452 182.91 6.98185 184.126 6.98185 185.626C6.98185 187.126 24.9452 188.341 47.1041 188.341Z" fill="black"/>
<path d="M210.486 35.9619H43.5524V166.934H210.486V35.9619Z" fill="#3F3D56"/>
<path d="M125.12 53.8605H83.9377C83.872 53.8606 83.8069 53.8478 83.7461 53.8227C83.6854 53.7977 83.6301 53.7609 83.5836 53.7144C83.5371 53.668 83.5002 53.6129 83.475 53.5522C83.4498 53.4915 83.4369 53.4264 83.4369 53.3607C83.4369 53.2949 83.4498 53.2299 83.475 53.1692C83.5002 53.1085 83.5371 53.0533 83.5836 53.0069C83.6301 52.9605 83.6854 52.9237 83.7461 52.8986C83.8069 52.8736 83.872 52.8607 83.9377 52.8609H125.12C125.253 52.8612 125.379 52.9139 125.473 53.0076C125.566 53.1013 125.619 53.2283 125.619 53.3607C125.619 53.493 125.566 53.62 125.473 53.7137C125.379 53.8074 125.253 53.8602 125.12 53.8605Z" fill="#F2F2F2"/>
<path d="M170.201 59.3581H105.429C105.296 59.3581 105.169 59.3054 105.075 59.2117C104.981 59.118 104.929 58.9909 104.929 58.8583C104.929 58.7258 104.981 58.5986 105.075 58.5049C105.169 58.4112 105.296 58.3585 105.429 58.3585H170.201C170.267 58.3585 170.332 58.3714 170.392 58.3966C170.453 58.4217 170.508 58.4585 170.554 58.5049C170.601 58.5513 170.638 58.6064 170.663 58.667C170.688 58.7277 170.701 58.7927 170.701 58.8583C170.701 58.9239 170.688 58.9889 170.663 59.0496C170.638 59.1102 170.601 59.1653 170.554 59.2117C170.508 59.2581 170.453 59.2949 170.392 59.3201C170.332 59.3452 170.267 59.3581 170.201 59.3581Z" fill="#F2F2F2"/>
<path d="M125.32 64.8558H84.1376C84.0051 64.8558 83.8779 64.8031 83.7842 64.7094C83.6905 64.6157 83.6378 64.4885 83.6378 64.356C83.6378 64.2234 83.6905 64.0963 83.7842 64.0026C83.8779 63.9089 84.0051 63.8562 84.1376 63.8562H125.32C125.453 63.8562 125.58 63.9089 125.673 64.0026C125.767 64.0963 125.82 64.2234 125.82 64.356C125.82 64.4885 125.767 64.6157 125.673 64.7094C125.58 64.8031 125.453 64.8558 125.32 64.8558Z" fill="#F2F2F2"/>
<path d="M170.201 64.9557H129.019C128.886 64.9557 128.759 64.9031 128.665 64.8093C128.571 64.7156 128.519 64.5885 128.519 64.4559C128.519 64.3234 128.571 64.1963 128.665 64.1025C128.759 64.0088 128.886 63.9561 129.019 63.9561H170.201C170.334 63.9561 170.461 64.0088 170.554 64.1025C170.648 64.1963 170.701 64.3234 170.701 64.4559C170.701 64.5885 170.648 64.7156 170.554 64.8093C170.461 64.9031 170.334 64.9557 170.201 64.9557Z" fill="#F2F2F2"/>
<path d="M125.42 70.3534H84.2376C84.105 70.3534 83.9779 70.3008 83.8842 70.207C83.7904 70.1133 83.7378 69.9862 83.7378 69.8536C83.7378 69.7211 83.7904 69.594 83.8842 69.5002C83.9779 69.4065 84.105 69.3539 84.2376 69.3539H125.42C125.553 69.3539 125.68 69.4065 125.773 69.5002C125.867 69.594 125.92 69.7211 125.92 69.8536C125.92 69.9862 125.867 70.1133 125.773 70.207C125.68 70.3008 125.553 70.3534 125.42 70.3534Z" fill="#F2F2F2"/>
<path d="M125.52 75.8511H84.3375C84.205 75.8511 84.0778 75.7984 83.9841 75.7047C83.8904 75.611 83.8377 75.4838 83.8377 75.3513C83.8377 75.2187 83.8904 75.0916 83.9841 74.9979C84.0778 74.9042 84.205 74.8515 84.3375 74.8515H125.52C125.653 74.8515 125.78 74.9042 125.873 74.9979C125.967 75.0916 126.02 75.2187 126.02 75.3513C126.02 75.4838 125.967 75.611 125.873 75.7047C125.78 75.7984 125.653 75.8511 125.52 75.8511Z" fill="#F2F2F2"/>
<path d="M144.212 53.9604H132.417C132.284 53.9604 132.157 53.9078 132.064 53.814C131.97 53.7203 131.917 53.5932 131.917 53.4606C131.917 53.3281 131.97 53.201 132.064 53.1072C132.157 53.0135 132.284 52.9608 132.417 52.9608H144.212C144.345 52.9608 144.472 53.0135 144.565 53.1072C144.659 53.201 144.712 53.3281 144.712 53.4606C144.712 53.5932 144.659 53.7203 144.565 53.814C144.472 53.9078 144.345 53.9604 144.212 53.9604Z" fill="#F2F2F2"/>
<path d="M144.212 70.3534H132.417C132.284 70.3534 132.157 70.3008 132.064 70.207C131.97 70.1133 131.917 69.9862 131.917 69.8536C131.917 69.7211 131.97 69.594 132.064 69.5002C132.157 69.4065 132.284 69.3539 132.417 69.3539H144.212C144.345 69.3539 144.472 69.4065 144.565 69.5002C144.659 69.594 144.712 69.7211 144.712 69.8536C144.712 69.9862 144.659 70.1133 144.565 70.207C144.472 70.3008 144.345 70.3534 144.212 70.3534Z" fill="#F2F2F2"/>
<path d="M144.212 75.7511H132.417C132.351 75.7512 132.286 75.7384 132.225 75.7134C132.165 75.6883 132.109 75.6515 132.063 75.6051C132.016 75.5587 131.98 75.5035 131.954 75.4428C131.929 75.3821 131.916 75.3171 131.916 75.2513C131.916 75.1856 131.929 75.1205 131.954 75.0598C131.98 74.9991 132.016 74.944 132.063 74.8976C132.109 74.8511 132.165 74.8144 132.225 74.7893C132.286 74.7642 132.351 74.7514 132.417 74.7516H144.212C144.278 74.7514 144.343 74.7642 144.404 74.7893C144.464 74.8144 144.52 74.8511 144.566 74.8976C144.613 74.944 144.65 74.9991 144.675 75.0598C144.7 75.1205 144.713 75.1856 144.713 75.2513C144.713 75.3171 144.7 75.3821 144.675 75.4428C144.65 75.5035 144.613 75.5587 144.566 75.6051C144.52 75.6515 144.464 75.6883 144.404 75.7134C144.343 75.7384 144.278 75.7512 144.212 75.7511Z" fill="#F2F2F2"/>
<path d="M164.004 75.7511H152.209C152.076 75.7508 151.949 75.698 151.856 75.6044C151.762 75.5107 151.71 75.3837 151.71 75.2513C151.71 75.119 151.762 74.992 151.856 74.8983C151.949 74.8046 152.076 74.7518 152.209 74.7516H164.004C164.069 74.7514 164.134 74.7642 164.195 74.7893C164.256 74.8144 164.311 74.8511 164.358 74.8976C164.404 74.944 164.441 74.9991 164.466 75.0598C164.491 75.1205 164.504 75.1856 164.504 75.2513C164.504 75.3171 164.491 75.3821 164.466 75.4428C164.441 75.5035 164.404 75.5587 164.358 75.6051C164.311 75.6515 164.256 75.6883 164.195 75.7134C164.134 75.7384 164.069 75.7512 164.004 75.7511Z" fill="#F2F2F2"/>
<path d="M95.6327 59.3581H83.8377C83.7052 59.3581 83.5781 59.3054 83.4843 59.2117C83.3906 59.118 83.338 58.9909 83.338 58.8583C83.338 58.7258 83.3906 58.5986 83.4843 58.5049C83.5781 58.4112 83.7052 58.3585 83.8377 58.3585H95.6327C95.7653 58.3585 95.8924 58.4112 95.9861 58.5049C96.0799 58.5986 96.1325 58.7258 96.1325 58.8583C96.1325 58.9909 96.0799 59.118 95.9861 59.2117C95.8924 59.3054 95.7653 59.3581 95.6327 59.3581Z" fill="#F2F2F2"/>
<path d="M125.17 134.826H83.9877C83.8551 134.826 83.728 134.773 83.6343 134.68C83.5405 134.586 83.4879 134.459 83.4879 134.326C83.4879 134.194 83.5405 134.067 83.6343 133.973C83.728 133.879 83.8551 133.826 83.9877 133.826H125.17C125.303 133.826 125.43 133.879 125.524 133.973C125.617 134.067 125.67 134.194 125.67 134.326C125.67 134.459 125.617 134.586 125.524 134.68C125.43 134.773 125.303 134.826 125.17 134.826Z" fill="#F2F2F2"/>
<path d="M124.97 145.821H83.7878C83.6552 145.821 83.5281 145.769 83.4344 145.675C83.3406 145.581 83.288 145.454 83.288 145.321C83.288 145.189 83.3406 145.062 83.4344 144.968C83.5281 144.874 83.6552 144.822 83.7878 144.822H124.97C125.103 144.822 125.23 144.874 125.324 144.968C125.417 145.062 125.47 145.189 125.47 145.321C125.47 145.454 125.417 145.581 125.324 145.675C125.23 145.769 125.103 145.821 124.97 145.821Z" fill="#F2F2F2"/>
<path d="M125.07 151.319H83.8877C83.822 151.319 83.7569 151.306 83.6961 151.281C83.6354 151.256 83.5802 151.219 83.5336 151.173C83.4871 151.126 83.4502 151.071 83.425 151.011C83.3998 150.95 83.3869 150.885 83.3869 150.819C83.3869 150.753 83.3998 150.688 83.425 150.628C83.4502 150.567 83.4871 150.512 83.5336 150.465C83.5802 150.419 83.6354 150.382 83.6961 150.357C83.7569 150.332 83.822 150.319 83.8877 150.319H125.07C125.136 150.319 125.201 150.332 125.262 150.357C125.323 150.382 125.378 150.419 125.424 150.465C125.471 150.512 125.508 150.567 125.533 150.628C125.558 150.688 125.571 150.753 125.571 150.819C125.571 150.885 125.558 150.95 125.533 151.011C125.508 151.071 125.471 151.126 125.424 151.173C125.378 151.219 125.323 151.256 125.262 151.281C125.201 151.306 125.136 151.319 125.07 151.319Z" fill="#F2F2F2"/>
<path d="M142.663 145.921H130.868C130.735 145.921 130.608 145.869 130.514 145.775C130.421 145.681 130.368 145.554 130.368 145.421C130.368 145.289 130.421 145.162 130.514 145.068C130.608 144.974 130.735 144.922 130.868 144.922H142.663C142.795 144.922 142.922 144.974 143.016 145.068C143.11 145.162 143.162 145.289 143.162 145.421C143.162 145.554 143.11 145.681 143.016 145.775C142.922 145.869 142.795 145.921 142.663 145.921Z" fill="#F2F2F2"/>
<path d="M142.663 151.319H130.868C130.735 151.319 130.608 151.266 130.514 151.173C130.421 151.079 130.368 150.952 130.368 150.819C130.368 150.687 130.421 150.559 130.514 150.466C130.608 150.372 130.735 150.319 130.868 150.319H142.663C142.795 150.319 142.922 150.372 143.016 150.466C143.11 150.559 143.162 150.687 143.162 150.819C143.162 150.952 143.11 151.079 143.016 151.173C142.922 151.266 142.795 151.319 142.663 151.319Z" fill="#F2F2F2"/>
<path d="M162.454 145.921H150.659C150.527 145.921 150.4 145.869 150.306 145.775C150.212 145.681 150.16 145.554 150.16 145.421C150.16 145.289 150.212 145.162 150.306 145.068C150.4 144.974 150.527 144.922 150.659 144.922H162.454C162.587 144.922 162.714 144.974 162.808 145.068C162.901 145.162 162.954 145.289 162.954 145.421C162.954 145.554 162.901 145.681 162.808 145.775C162.714 145.869 162.587 145.921 162.454 145.921Z" fill="#F2F2F2"/>
<path d="M170.251 140.324H105.479C105.346 140.324 105.219 140.271 105.125 140.177C105.031 140.083 104.979 139.956 104.979 139.824C104.979 139.691 105.031 139.564 105.125 139.47C105.219 139.377 105.346 139.324 105.479 139.324H170.251C170.384 139.324 170.511 139.377 170.604 139.47C170.698 139.564 170.751 139.691 170.751 139.824C170.751 139.956 170.698 140.083 170.604 140.177C170.511 140.271 170.384 140.324 170.251 140.324Z" fill="#F2F2F2"/>
<path d="M95.6827 140.324H83.8877C83.7552 140.324 83.628 140.271 83.5343 140.177C83.4406 140.083 83.3879 139.956 83.3879 139.824C83.3879 139.691 83.4406 139.564 83.5343 139.47C83.628 139.377 83.7552 139.324 83.8877 139.324H95.6827C95.8153 139.324 95.9424 139.377 96.0361 139.47C96.1298 139.564 96.1825 139.691 96.1825 139.824C96.1825 139.956 96.1298 140.083 96.0361 140.177C95.9424 140.271 95.8153 140.324 95.6827 140.324Z" fill="#F2F2F2"/>
<path d="M170.251 156.917H105.479C105.413 156.917 105.348 156.904 105.287 156.879C105.226 156.854 105.171 156.817 105.124 156.771C105.078 156.724 105.041 156.669 105.016 156.608C104.991 156.548 104.978 156.483 104.978 156.417C104.978 156.351 104.991 156.286 105.016 156.225C105.041 156.165 105.078 156.109 105.124 156.063C105.171 156.017 105.226 155.98 105.287 155.955C105.348 155.93 105.413 155.917 105.479 155.917H170.251C170.384 155.917 170.511 155.97 170.604 156.063C170.698 156.157 170.751 156.284 170.751 156.417C170.751 156.549 170.698 156.676 170.604 156.77C170.511 156.864 170.384 156.917 170.251 156.917Z" fill="#F2F2F2"/>
<path d="M95.6827 156.917H83.8877C83.822 156.917 83.7569 156.904 83.6961 156.879C83.6354 156.854 83.5802 156.817 83.5336 156.771C83.4871 156.724 83.4502 156.669 83.425 156.608C83.3998 156.548 83.3869 156.483 83.3869 156.417C83.3869 156.351 83.3998 156.286 83.425 156.225C83.4502 156.165 83.4871 156.109 83.5336 156.063C83.5802 156.017 83.6354 155.98 83.6961 155.955C83.7569 155.93 83.822 155.917 83.8877 155.917H95.6827C95.7484 155.917 95.8135 155.93 95.8743 155.955C95.935 155.98 95.9903 156.017 96.0368 156.063C96.0833 156.109 96.1202 156.165 96.1454 156.225C96.1706 156.286 96.1835 156.351 96.1835 156.417C96.1835 156.483 96.1706 156.548 96.1454 156.608C96.1202 156.669 96.0833 156.724 96.0368 156.771C95.9903 156.817 95.935 156.854 95.8743 156.879C95.8135 156.904 95.7484 156.917 95.6827 156.917Z" fill="#F2F2F2"/>
<path d="M115.224 89.0455L99.2312 104.839L115.224 120.632L118.823 117.034L106.728 104.939L118.923 92.7438L115.224 89.0455Z" fill="#85B3FF"/>
<path d="M138.814 89.0455L154.808 104.839L138.814 120.632L135.216 117.034L147.311 104.939L135.116 92.7438L138.814 89.0455Z" fill="#85B3FF"/>
<path d="M47.9921 41.2895C49.0955 41.2895 49.99 40.395 49.99 39.2916C49.99 38.1882 49.0955 37.2938 47.9921 37.2938C46.8887 37.2938 45.9942 38.1882 45.9942 39.2916C45.9942 40.395 46.8887 41.2895 47.9921 41.2895Z" fill="#85B3FF"/>
<path d="M53.3198 41.2895C54.4232 41.2895 55.3176 40.395 55.3176 39.2916C55.3176 38.1882 54.4232 37.2938 53.3198 37.2938C52.2164 37.2938 51.3219 38.1882 51.3219 39.2916C51.3219 40.395 52.2164 41.2895 53.3198 41.2895Z" fill="#85B3FF"/>
<path d="M58.6475 41.2895C59.7509 41.2895 60.6453 40.395 60.6453 39.2916C60.6453 38.1882 59.7509 37.2938 58.6475 37.2938C57.5441 37.2938 56.6496 38.1882 56.6496 39.2916C56.6496 40.395 57.5441 41.2895 58.6475 41.2895Z" fill="#85B3FF"/>
<path opacity="0.1" d="M210.486 42.6215H43.5524V43.2874H210.486V42.6215Z" fill="black"/>
<path d="M250 134.847C250 149.003 241.584 153.946 231.203 153.946C220.822 153.946 212.406 149.003 212.406 134.847C212.406 120.69 231.203 102.681 231.203 102.681C231.203 102.681 250 120.69 250 134.847Z" fill="#F2F2F2"/>
<path d="M230.518 151.78L230.711 139.933L238.723 125.276L230.741 138.074L230.828 132.747L236.349 122.143L230.85 131.337L231.006 121.756L236.919 113.314L231.03 120.25L231.128 102.681L230.517 125.939L230.567 124.979L224.555 115.778L230.47 126.821L229.91 137.521L229.894 137.237L222.963 127.554L229.873 138.241L229.803 139.579L229.79 139.599L229.796 139.709L228.375 166.857H230.273L230.501 152.835L237.393 142.174L230.518 151.78Z" fill="#3F3D56"/>
<path d="M27.2204 166.732C26.6436 167.053 26.0353 167.314 25.4049 167.51C24.2775 167.818 23.0725 167.705 21.9337 167.968C21.4675 168.075 20.96 168.301 20.8117 168.755C20.703 169.089 20.8213 169.45 20.9346 169.782C22.1929 173.471 22.9514 177.388 24.9581 180.73C25.8015 182.134 26.8483 183.405 28.0643 184.501C28.5205 184.912 29.0375 185.315 29.6483 185.379C29.9298 185.409 30.2141 185.364 30.4726 185.249C30.7311 185.133 30.9546 184.952 31.1206 184.723C31.2865 184.493 31.3891 184.224 31.4178 183.943C31.4466 183.661 31.4006 183.377 31.2845 183.119C31.1045 182.719 30.77 182.409 30.5543 182.028C30.3204 181.542 30.1833 181.014 30.1504 180.476C29.9522 178.898 29.7612 177.249 30.3079 175.755C30.6746 174.754 31.3473 173.9 31.9076 172.992C32.468 172.085 32.9336 171.045 32.8089 169.986C32.7238 169.263 32.3712 168.601 31.9987 167.976C31.6254 167.349 30.8877 165.665 30.1378 165.456C29.3593 165.239 27.8992 166.384 27.2204 166.732Z" fill="#2F2E41"/>
<path d="M47.7397 179.476C47.7514 179.833 47.7016 180.19 47.5925 180.53C47.3577 181.15 46.7753 181.574 46.4745 182.165C46.056 182.986 46.2457 183.979 46.5229 184.859C46.6967 185.41 46.9247 185.984 47.3914 186.324C47.7906 186.572 48.2445 186.717 48.7131 186.748C52.7169 187.302 56.7841 186.984 60.8244 187.1C61.5608 187.121 62.3404 187.147 62.9832 186.787C63.6261 186.427 64.0235 185.523 63.5863 184.93C63.1937 184.397 62.4174 184.402 61.7566 184.371C60.0359 184.283 58.3973 183.608 57.1142 182.458C56.8612 182.242 56.6418 181.99 56.4631 181.709C56.3257 181.46 56.2116 181.198 56.1225 180.928C55.5561 179.394 54.8823 177.901 54.106 176.462C53.8888 176.059 53.6428 175.639 53.239 175.424C52.9434 175.289 52.6226 175.219 52.2979 175.218C51.2909 175.153 48.6832 174.81 47.9046 175.593C47.1851 176.317 47.7557 178.557 47.7397 179.476Z" fill="#2F2E41"/>
<path d="M53.9363 90.059C57.4886 90.059 60.3683 87.1792 60.3683 83.6269C60.3683 80.0746 57.4886 77.1949 53.9363 77.1949C50.3839 77.1949 47.5042 80.0746 47.5042 83.6269C47.5042 87.1792 50.3839 90.059 53.9363 90.059Z" fill="#FBBEBE"/>
<path d="M48.128 88.9381C47.7454 89.9623 47.0965 90.9242 46.1522 91.4754L55.0482 93.29C54.7256 91.9916 54.6831 90.6394 54.9235 89.3233C55.0118 89.0048 55.03 88.6709 54.9768 88.3446C54.8095 87.6992 54.0829 87.3885 53.4329 87.2403C51.8092 86.8702 50.3734 86.6717 48.8646 85.9547C48.4034 86.7442 48.468 88.0278 48.128 88.9381Z" fill="#FBBEBE"/>
<path d="M46.0779 89.067C47.0349 88.634 48.0776 88.4232 49.1277 88.4507C50.1777 88.4781 51.208 88.743 52.141 89.2254C53.2816 89.8265 54.2259 90.7337 55.1537 91.6288C56.009 92.4538 56.9213 93.3985 56.982 94.5853C57.0114 95.1603 56.832 95.7225 56.7414 96.291C56.5785 97.4668 56.7855 98.6641 57.3336 99.7169C57.8817 100.77 58.7438 101.626 59.8003 102.167C60.5071 103.344 60.6529 104.771 60.6637 106.144C60.7048 111.346 59.0634 116.613 60.2352 121.682C60.5103 122.872 60.9371 124.024 61.1747 125.223C61.4826 126.775 61.4674 128.37 61.6285 129.944C61.8031 131.649 62.1843 133.325 62.7635 134.938C62.3764 135.554 61.5707 135.79 60.8451 135.74C60.1194 135.69 59.4409 135.375 58.7935 135.044C55.6583 133.439 52.7867 131.324 49.5395 129.96C47.3912 129.058 45.1026 128.496 43.0185 127.455C40.9344 126.413 38.9961 124.759 38.3588 122.518C38.0833 121.549 38.0663 120.528 38.0513 119.521C37.988 115.278 37.9291 110.988 38.8527 106.846C39.6671 103.194 41.2371 99.6999 41.5796 95.9734C41.6911 94.7604 41.6935 93.4619 42.3712 92.4497C43.3292 91.0191 45.3975 90.6486 46.0779 89.067Z" fill="#2F2E41"/>
<path d="M50.2781 83.7177C50.6571 83.2234 51.3881 83.156 51.9936 83.3022C52.5991 83.4484 53.1574 83.7605 53.7689 83.879C53.9079 83.9185 54.0536 83.9285 54.1967 83.9084C54.3398 83.8883 54.4771 83.8386 54.5999 83.7623C54.8136 83.5518 54.9415 83.2693 54.9585 82.9698C55.1727 81.6953 55.2227 80.3987 55.1074 79.1115C55.0756 78.931 55.0877 78.7454 55.1427 78.5705C55.2941 78.2057 55.7559 78.1188 56.1332 78.0018C56.7556 77.7914 57.2901 77.3797 57.6525 76.8317C58.0148 76.2836 58.1842 75.6305 58.1339 74.9754C58.1245 74.6612 57.9925 74.3632 57.7662 74.1451C57.5053 73.9325 57.1401 73.9194 56.8036 73.9167C55.0746 73.9028 53.3456 73.9033 51.6165 73.918C50.9766 73.9234 50.3045 73.9392 49.7498 74.2582C49.3396 74.4941 49.0346 74.8738 48.6664 75.1709C47.706 75.9459 46.407 76.1036 45.2386 76.5008C44.6683 76.6632 44.1503 76.9721 43.7363 77.3967C43.3478 77.8406 43.161 78.5006 43.405 79.0377C43.5303 79.2616 43.6702 79.4769 43.8238 79.6823C44.513 80.7843 44.0542 82.2137 44.1571 83.5093C44.2856 85.1272 46.68 87.7518 48.3036 88.1347C50.9247 88.7528 49.4104 84.7798 50.2781 83.7177Z" fill="#2F2E41"/>
<path d="M46.647 154.654C46.8124 155.836 47.0245 157.021 46.9678 158.213C46.8887 159.876 46.2887 161.479 46.1778 163.14C46.095 164.382 46.2866 165.636 46.1142 166.868C46.0039 167.657 45.7467 168.417 45.5874 169.197C45.3352 170.469 45.3424 171.779 45.6083 173.048C45.8743 174.316 46.3937 175.519 47.1354 176.582C47.2443 176.764 47.3992 176.914 47.5845 177.017C47.7623 177.083 47.9525 177.108 48.1412 177.091C50.0133 177.053 51.8804 176.883 53.7287 176.583C53.864 176.578 53.9922 176.521 54.0875 176.425C54.1292 176.361 54.1558 176.289 54.1654 176.213C54.5081 174.451 53.7266 172.685 53.5278 170.901C53.3156 168.997 53.7726 167.088 54.2262 165.226C54.4319 164.308 54.6889 163.402 54.996 162.512C55.2152 161.913 55.48 161.331 55.67 160.722C55.9392 159.766 56.1031 158.783 56.1589 157.791C56.2908 156.226 56.3607 154.658 56.3686 153.085C56.4134 151.595 56.2894 150.105 55.9989 148.643C55.5821 146.792 54.7283 145.074 53.8821 143.376C53.4296 143.484 53.0048 143.686 52.635 143.968C51.5445 144.675 50.4059 145.304 49.2275 145.851C48.4358 146.219 46.8918 146.48 46.3893 147.246C45.8938 148.002 46.2135 149.544 46.2513 150.377C46.3163 151.808 46.4482 153.234 46.647 154.654Z" fill="#2F2E41"/>
<path opacity="0.1" d="M46.647 154.654C46.8124 155.836 47.0245 157.021 46.9678 158.213C46.8887 159.876 46.2887 161.479 46.1778 163.14C46.095 164.382 46.2866 165.636 46.1142 166.868C46.0039 167.657 45.7467 168.417 45.5874 169.197C45.3352 170.469 45.3424 171.779 45.6083 173.048C45.8743 174.316 46.3937 175.519 47.1354 176.582C47.2443 176.764 47.3992 176.914 47.5845 177.017C47.7623 177.083 47.9525 177.108 48.1412 177.091C50.0133 177.053 51.8804 176.883 53.7287 176.583C53.864 176.578 53.9922 176.521 54.0875 176.425C54.1292 176.361 54.1558 176.289 54.1654 176.213C54.5081 174.451 53.7266 172.685 53.5278 170.901C53.3156 168.997 53.7726 167.088 54.2262 165.226C54.4319 164.308 54.6889 163.402 54.996 162.512C55.2152 161.913 55.48 161.331 55.67 160.722C55.9392 159.766 56.1031 158.783 56.1589 157.791C56.2908 156.226 56.3607 154.658 56.3686 153.085C56.4134 151.595 56.2894 150.105 55.9989 148.643C55.5821 146.792 54.7283 145.074 53.8821 143.376C53.4296 143.484 53.0048 143.686 52.635 143.968C51.5445 144.675 50.4059 145.304 49.2275 145.851C48.4358 146.219 46.8918 146.48 46.3893 147.246C45.8938 148.002 46.2135 149.544 46.2513 150.377C46.3163 151.808 46.4482 153.234 46.647 154.654Z" fill="black"/>
<path d="M37.9511 129.422C37.097 131.722 38.3525 134.207 39.4433 136.404C42.1307 141.818 43.9969 147.594 45.8531 153.346C45.9921 153.776 46.131 154.246 45.976 154.672C45.8422 154.974 45.6249 155.232 45.3496 155.415C44.0698 156.387 42.4401 156.733 40.9155 157.242C39.4421 157.733 38.0309 158.395 36.7105 159.213C35.6057 159.898 34.5708 160.688 33.5379 161.477L30.2498 163.988C30.0369 164.132 29.8509 164.312 29.7002 164.52C29.3831 165.017 29.513 165.667 29.6709 166.235C30.089 167.741 30.6274 169.21 31.2808 170.629C31.3883 170.94 31.5929 171.208 31.8646 171.394C32.3778 171.67 33.0055 171.304 33.3974 170.873C33.7893 170.442 34.1283 169.905 34.6808 169.72C35.2326 169.536 35.8399 169.759 36.4162 169.678C37.3482 169.548 37.967 168.689 38.6389 168.03C41.3838 165.337 45.9667 165.532 48.9862 163.151C49.4227 162.761 49.8848 162.4 50.3694 162.071C50.8799 161.769 51.4588 161.603 51.9884 161.337C53.5993 160.525 54.612 158.849 55.1545 157.128C55.697 155.408 55.8517 153.593 56.2415 151.832C56.443 150.921 56.7083 150.021 56.798 149.093C56.8556 148.23 56.8368 147.363 56.7418 146.503L55.6523 133.025C55.5636 131.928 55.4747 130.829 55.3025 129.742C52.0666 129.857 48.8331 129.988 45.5955 130.026C43.0192 130.056 40.3956 130.236 37.9511 129.422Z" fill="#2F2E41"/>
<path d="M36.7616 132.575C37.2005 133.281 38.2689 133.266 39.0046 132.879C39.7403 132.492 40.3118 131.842 41.0492 131.458C42.0401 130.943 43.2127 130.962 44.3293 130.994C46.0971 131.044 47.8867 131.097 49.5875 131.581C51.3467 132.082 53.0593 133.047 54.8783 132.855C55.1949 132.821 55.541 132.73 55.7132 132.463C55.8142 132.269 55.8617 132.052 55.8508 131.833L55.9103 130.244C55.9467 129.969 55.9028 129.69 55.7838 129.439C55.6311 129.231 55.4219 129.071 55.1809 128.978C52.5918 127.724 49.6391 127.491 46.7642 127.392C45.3029 127.342 43.8409 127.322 42.3783 127.331C41.1372 127.338 39.6472 127.159 38.4406 127.49C36.8211 127.935 35.94 131.254 36.7616 132.575Z" fill="#2F2E41"/>
<path d="M53.0191 90.9536C49.6267 90.9236 46.5524 88.6844 43.1603 88.6298C42.7505 88.6015 42.3399 88.6723 41.9632 88.8364C41.4905 89.0745 41.1798 89.5349 40.8207 89.9237C39.8177 91.0099 38.3653 91.5898 37.3348 92.6499C36.3687 93.644 35.8314 95.125 36.2128 96.4577C36.5942 97.7904 38.0339 98.8126 39.3825 98.4922C39.9259 96.7334 41.0474 95.2097 42.5651 94.1681C43.3549 93.6615 44.1871 93.2246 45.0526 92.8623C46.5772 92.1716 48.282 91.4676 49.8736 91.9854C50.4606 92.2071 51.0141 92.5089 51.5184 92.8823L54.172 94.6649C53.8628 93.4453 53.5848 92.0775 53.0191 90.9536Z" fill="#85B3FF"/>
<path d="M38.9918 97.3132C38.5413 97.8752 39.1903 98.6894 39.0909 99.4028C39.0249 99.8768 38.6349 100.239 38.4725 100.689C38.3042 101.155 38.3934 101.672 38.3296 102.163C38.2656 102.521 38.1709 102.872 38.0466 103.213C37.7608 104.232 37.5613 105.274 37.4502 106.327L36.8565 110.761C36.7534 111.428 36.6907 112.101 36.6687 112.776C36.6986 113.28 36.6649 113.787 36.5683 114.283C36.4368 114.767 36.1457 115.191 35.9498 115.653C35.7539 116.116 35.6632 116.675 35.9277 117.102C35.0417 117.84 34.7782 119.289 35.3978 120.262C35.5157 120.413 35.608 120.583 35.6709 120.765C35.7051 121.018 35.6632 121.276 35.5506 121.506L34.9502 123.106C34.7965 123.515 34.7479 124.139 35.1752 124.232C34.8213 124.6 34.5455 125.035 34.3646 125.512C34.2769 125.752 34.2507 126.01 34.2884 126.262C34.3261 126.514 34.4265 126.753 34.5805 126.957C34.7297 127.087 34.8567 127.242 34.9566 127.413C35.0154 127.652 35.0002 127.903 34.9132 128.133C34.8234 128.482 34.8061 128.846 34.8623 129.203C34.9185 129.559 35.0471 129.9 35.2401 130.205C35.4401 130.506 35.7234 130.741 36.0553 130.884C36.3872 131.026 36.7533 131.068 37.1089 131.006C38.31 130.735 39.3892 130.307 40.6002 130.53C43.2077 131.008 45.8235 131.489 48.349 132.295C51.2312 133.215 54.0221 134.565 57.0344 134.848C57.2326 134.888 57.4387 134.856 57.6152 134.757C57.7687 134.612 57.8642 134.416 57.8838 134.205C58.1942 132.75 58.5045 131.295 58.8148 129.84C59.19 128.227 59.4757 126.595 59.6707 124.95C59.7766 123.889 59.8069 122.821 59.837 121.755L60.0769 113.268C60.1894 112.018 60.0225 110.757 59.5886 109.579L58.2084 105.173C57.4207 102.659 55.6138 100.429 54.9705 97.8737C54.5634 96.2565 54.2626 94.5211 53.1707 93.2606C51.614 91.4636 48.9208 91.1841 46.5635 91.4931C45.4986 91.6327 44.4245 91.8735 43.5034 92.4258C42.4382 93.0644 41.6536 94.0704 40.8944 95.0533C40.2688 95.8634 39.632 96.5146 38.9918 97.3132Z" fill="#85B3FF"/>
<path d="M44.4959 122.275C44.6901 123.113 45.098 123.885 45.3477 124.708C45.766 126.086 45.7305 127.57 46.148 128.949C46.3232 129.527 46.5771 130.083 46.7029 130.674C46.9961 132.053 46.5679 133.479 46.0361 134.785C45.5043 136.09 44.8566 137.377 44.684 138.776C44.5624 139.761 44.737 140.874 45.4965 141.513C46.2849 142.177 47.4307 142.132 48.4575 142.044C48.8262 142.033 49.1901 141.957 49.5322 141.82C50.3175 141.448 50.6483 140.519 50.8319 139.67C51.447 136.824 51.2713 133.875 51.0925 130.969L50.625 123.369C50.535 121.906 50.4385 120.413 49.9877 119.008C49.8237 118.497 49.5379 117.464 49.0711 117.138C48.6088 116.815 47.2885 116.8 46.7161 116.774C44.0306 116.647 44.0607 120.396 44.4959 122.275Z" fill="#FBBEBE"/>
<path d="M47.4715 94.2164C46.923 93.9291 46.232 94.053 45.7018 94.3727C45.1899 94.7233 44.7416 95.1585 44.3761 95.6599C43.191 97.1065 41.9363 98.7665 42.1121 100.628C42.178 101.326 42.4453 101.987 42.6265 102.664C43.4211 105.635 42.5425 108.776 42.6433 111.849C42.7015 113.624 43.0879 115.371 43.4727 117.105C43.5512 117.459 43.677 117.869 44.0194 117.988C44.2766 118.078 44.5545 117.963 44.8091 117.866C45.7575 117.515 46.7764 117.398 47.7795 117.525C48.7827 117.651 49.7407 118.017 50.5725 118.592C51.2085 118.253 50.9702 117.18 50.8276 116.473C50.404 114.374 50.979 112.208 51.6775 110.183C52.3759 108.158 53.2115 106.136 53.3272 103.998C53.4583 101.574 52.6549 99.2091 51.8622 96.9155C51.6891 96.4148 51.5 95.8898 51.0988 95.544C50.7554 95.2886 50.3618 95.1087 49.9438 95.0163C49.1018 94.7674 48.2493 94.6237 47.4715 94.2164Z" fill="#2F2E41"/>
</g>
<defs>
<clipPath id="clip0">
<rect width="250" height="189.799" fill="white"/>
</clipPath>
</defs>
</svg>
