<svg width="250" height="161" viewBox="0 0 250 161" fill="none" xmlns="http://www.w3.org/2000/svg">
<g clip-path="url(#clip0)">
<path d="M181.392 151.028L180.093 134.883L176.382 151.956C176.382 151.956 176.431 156.263 176.554 160.981H181.309C181.469 155.587 181.392 151.028 181.392 151.028Z" fill="#F2F2F2"/>
<path d="M114.603 156.769C114.237 155.26 113.979 153.726 113.83 152.18L113.311 146.595C113.092 145.065 112.868 143.718 112.642 142.528C110.988 134.046 109.28 133.74 109.28 133.74C109.206 133.796 109.135 133.858 109.062 133.922C108.861 134.105 108.674 134.302 108.502 134.512C105.782 137.97 103.937 146.937 102.967 152.886C102.432 156.172 102.165 158.537 102.165 158.537C102.165 158.537 102.408 159.544 102.738 160.981H115.151C115.104 159.563 114.921 158.152 114.603 156.769Z" fill="#F2F2F2"/>
<path d="M212.212 0H37.7877C17.0045 0 0 17.0045 0 37.7877V123.193C0 143.976 17.0045 160.981 37.7877 160.981H93.0708L92.3575 157.622C92.3575 157.622 90.5225 145.781 92.3575 136.549C92.95 133.653 93.3565 130.721 93.5746 127.773C93.8042 124.444 94.3483 121.145 95.1996 117.919C95.2481 117.733 95.3026 117.548 95.3532 117.363C94.9058 117.241 94.7001 117.144 94.8041 117.082C95.0908 116.913 95.2485 116.394 95.327 115.736C95.8158 111.38 96.7478 107.085 98.1088 102.918C96.2547 104.082 95.0236 104.205 94.2177 103.754C91.3857 102.981 92.5614 96.6114 92.5614 96.6114C92.5614 96.6114 94.3213 82.8348 94.906 77.8466C95.2421 74.9793 99.5487 73.3546 103.361 72.4723C103.763 71.6107 104.052 70.7426 103.868 69.8317C103.856 69.7704 103.838 69.711 103.822 69.6511C103.337 68.5745 102.352 67.6887 101.982 66.5738C101.818 66.2737 101.703 65.9496 101.64 65.6135C101.313 63.702 103.1 62.0507 103.615 60.2123C103.09 59.7045 102.697 59.0751 102.472 58.3796C101.687 56.7689 102.07 54.8355 104.592 53.3429C105.095 53.0449 105.629 52.7818 106.171 52.5295C106.369 52.4012 106.585 52.3022 106.812 52.2356C108.616 51.4194 110.43 50.6296 111.51 49.0405C111.788 48.6312 112.032 48.1565 112.482 47.9413C112.694 47.8506 112.921 47.7998 113.151 47.7915C116.628 47.5245 119.776 50.5061 123.237 50.0788C124.285 49.9494 125.355 49.5087 126.361 49.8259C127.022 50.0343 127.538 50.5422 127.983 51.0673C129.192 52.511 130.068 54.2038 130.547 56.025C131.027 57.8462 131.099 59.7508 130.757 61.6029C130.318 63.8824 129.252 66.232 130.02 68.4252C130.585 70.0367 132.098 71.3446 132.108 73.0494C132.117 74.4521 131.122 75.5714 130.16 76.6629C130.285 76.7908 130.407 76.9222 130.525 77.0571C132.876 79.7357 132.432 82.0219 132.1 82.9372L132.101 82.9377L130.892 94.6045L129.872 102.432C129.872 102.432 129.62 105.644 127.246 106.348C126.554 106.668 125.648 106.752 124.457 106.39C123.684 106.155 123.033 105.92 122.48 105.691C123.002 107.36 123.902 110.766 123.756 114.072C123.552 118.688 124.163 119.089 124.163 119.089C124.125 119.136 124.081 119.179 124.034 119.217C126.456 124.568 126.478 130.058 123.959 135.546C121.105 141.767 124.163 156.217 124.163 156.217C124.163 156.217 124.381 158.471 124.479 160.981H168.266C167.569 154.338 166.733 147.688 166.361 146.945C165.748 145.72 166.526 125.531 166.817 118.519C166.688 118.486 166.561 118.453 166.443 118.419C166.236 118.359 166.05 118.297 165.878 118.234C165.869 118.591 165.907 118.947 165.99 119.295C166.248 119.896 165.629 120.338 164.579 120.64C165.19 123.621 165.945 129.169 163.392 130.243C160.766 131.349 160.713 124.633 160.857 121.132C160.526 121.144 160.194 121.15 159.866 121.15C156.711 121.15 160.794 84.5924 160.608 82.1799C160.423 79.7675 162.093 69.9321 162.093 69.9321C162.093 69.9321 162.649 67.8908 164.32 67.5196C165.99 67.1485 173.969 62.5091 173.969 62.5091C174.418 61.8786 174.986 61.3416 175.64 60.928V60.6534C175.848 60.4596 176.069 60.2805 176.302 60.1174C176.205 58.4959 175.985 56.4041 175.825 54.9908C174.928 54.0768 174.322 52.9174 174.084 51.6592C173.742 51.3923 173.418 51.1039 173.112 50.7958C172.346 49.9173 171.907 48.8012 171.868 47.636C171.834 46.4788 172.001 45.3244 172.363 44.2246C172.457 43.8591 172.602 43.5085 172.793 43.1828C173.055 42.8052 173.384 42.4788 173.764 42.2196C173.877 42.1361 173.993 42.0578 174.109 41.979C174.355 41.501 174.716 41.0915 175.159 40.7872C176.106 40.1653 177.325 40.2161 178.458 40.2444C178.475 40.2448 178.492 40.2447 178.509 40.2448C178.719 40.211 178.93 40.183 179.142 40.1609C179.265 40.1364 179.379 40.0763 179.469 39.988C179.56 39.8997 179.622 39.7871 179.649 39.6639C179.802 39.8112 179.956 39.9585 180.109 40.1057C180.339 40.1024 180.569 40.1064 180.799 40.1176C180.9 39.8847 181.02 39.6601 181.156 39.4456C181.24 39.6853 181.324 39.9251 181.408 40.1648C181.639 40.1894 181.869 40.2203 182.098 40.2601C182.278 40.1167 182.459 39.9734 182.639 39.8301C182.679 39.7983 182.823 40.2679 182.895 40.4291C183.019 40.461 183.143 40.4949 183.266 40.5329C183.458 40.5241 183.671 40.4882 183.789 40.4902C184.442 40.4681 185.088 40.6291 185.654 40.9551C186.148 41.3147 186.554 41.7827 186.839 42.3233C187.568 43.4768 188.021 44.7831 188.162 46.1403C188.517 46.6311 188.766 47.1894 188.896 47.7807C189.203 49.6435 187.432 51.2002 187.082 53.0552C186.894 54.0449 187.108 55.1409 186.604 56.0129C186.383 56.364 186.094 56.6671 185.754 56.9042C185.553 57.0542 185.343 57.1924 185.126 57.3179C185.137 58.4401 185.266 59.558 185.51 60.6534L185.748 61.5689C186.12 61.8366 186.52 62.146 186.96 62.5091C186.96 62.5091 192.156 64.736 194.011 65.8495C195.643 66.8283 197.416 66.9478 197.948 68.2229L198.094 68.2619C198.094 68.2619 199.95 88.8606 200.135 92.3865C200.321 95.9124 202.548 117.624 202.177 118.552C202.039 118.896 201.164 119.29 200.107 119.603C200.724 122.422 201.72 128.551 199.022 129.687C196.287 130.838 196.343 123.505 196.506 120.157C196.142 120.124 195.903 120.028 195.867 119.851C195.837 119.701 195.74 119.019 195.6 117.98C195.369 118.016 195.13 118.053 194.874 118.092C194.823 118.1 194.769 118.108 194.717 118.116C197.07 125.517 191.859 145.144 190.857 148.986C190.333 150.994 189.768 155.958 189.259 160.981H212.212C232.996 160.981 250 143.976 250 123.193V37.7877C250 17.0045 232.996 0 212.212 0Z" fill="#F2F2F2"/>
<path d="M55.9701 68.0838C69.9539 68.0838 81.29 57.768 81.29 45.0428C81.29 32.3175 69.9539 22.0017 55.9701 22.0017C41.9864 22.0017 30.6503 32.3175 30.6503 45.0428C30.6503 57.768 41.9864 68.0838 55.9701 68.0838Z" fill="#3F3D56"/>
<path d="M97.6812 120.336C97.6812 120.336 106.21 114.472 106.21 111.807C106.21 109.142 112.074 91.8176 115.272 99.5469C118.47 107.276 110.741 118.204 110.741 118.204C110.741 118.204 102.212 133.662 97.1482 136.327C92.0842 138.992 87.8198 137.393 87.8198 137.393V130.197L92.6924 122.986C93.2437 122.17 93.9869 121.501 94.8567 121.039C95.7265 120.577 96.6963 120.336 97.6812 120.336Z" fill="#FFB9B9"/>
<path d="M73.4391 79.5139C73.4391 79.5139 86.2207 83.5554 87.5533 85.4211C88.8859 87.2868 89.419 84.0885 93.1503 96.3486C96.8816 108.609 97.8145 120.469 97.8145 120.469C97.8145 120.469 88.6194 123.534 89.6855 135.528C90.7516 147.521 88.0863 160.581 88.0863 160.581H84.759L77.4253 137.926L86.2207 103.545C86.2207 103.545 73.7173 82.402 73.4391 79.5139Z" fill="#575A89"/>
<path d="M69.1631 68.3636C77.995 68.3636 85.1546 61.2039 85.1546 52.3721C85.1546 43.5402 77.995 36.3806 69.1631 36.3806C60.3313 36.3806 53.1716 43.5402 53.1716 52.3721C53.1716 61.2039 60.3313 68.3636 69.1631 68.3636Z" fill="#FFB9B9"/>
<path d="M75.2932 64.3658C75.2932 64.3658 70.7623 79.2912 74.7601 81.4233C78.758 83.5555 83.2889 93.1504 83.2889 93.1504L76.3593 100.88H60.3678L53.1716 92.8839L50.2399 79.2912L54.2377 76.0929C54.2377 76.0929 58.5021 65.4319 58.5021 59.8349C58.5021 54.2378 75.2932 64.3658 75.2932 64.3658Z" fill="#FFB9B9"/>
<path d="M76.6258 80.8902C76.6258 80.8902 73.4275 80.0906 75.2932 83.2889C77.1588 86.4872 79.0245 92.3508 72.3614 92.6173C65.6983 92.8838 59.0352 89.419 56.903 82.2228C54.7708 75.0267 53.9712 75.5597 53.1716 75.8262C52.3721 76.0928 43.8433 84.8881 43.8433 84.8881L46.7751 101.413L47.8412 160.581H86.7537C86.7537 160.581 88.3529 143.523 85.6876 139.526C83.0224 135.528 88.0863 125.4 88.0863 125.4C88.0863 125.4 92.6173 118.47 89.1524 105.144C85.6876 91.8177 77.9584 80.8902 76.6258 80.8902Z" fill="#85B3FF"/>
<path d="M55.0373 75.8261C55.0373 75.8261 51.0394 73.9604 47.5746 77.1587C44.1098 80.357 36.3806 83.0222 36.3806 84.6214C36.3806 86.2205 43.0437 131.796 38.5128 139.792C33.9819 147.788 29.1844 160.581 29.1844 160.581H51.4161C51.4161 160.581 55.0373 147.255 58.7687 140.058C62.5 132.862 62.2335 112.606 61.1674 106.476C60.1013 100.346 55.0373 75.8261 55.0373 75.8261Z" fill="#575A89"/>
<path d="M31.5832 146.455L32.8811 160.581H47.286L45.9755 142.99L31.5832 146.455Z" fill="#FFB9B9"/>
<path d="M97.1482 138.992L100.613 160.581H177.639L184.302 117.137L97.1482 138.992Z" fill="#3F3D56"/>
<path d="M187.233 114.206L188.033 118.204L88.3529 142.191V138.726L187.233 114.206Z" fill="#3F3D56"/>
<path d="M145.123 121.402L144.59 125.933L150.453 125.133L148.054 120.602L145.123 121.402Z" fill="#3F3D56"/>
<path d="M112.873 75.5597C112.873 75.5597 124.6 74.7602 127.799 83.822C130.997 92.8838 138.459 109.142 141.391 111.541C144.323 113.939 147.521 120.336 146.988 122.468" stroke="#3F3D56" stroke-width="5" stroke-miterlimit="10"/>
<path d="M114.606 75.4263C114.606 76.6775 113.275 77.6918 111.141 77.6918C109.006 77.6918 107.942 76.6775 107.942 75.4263C107.942 74.1752 109.006 73.1609 111.141 73.1609C113.275 73.1609 114.606 74.1752 114.606 75.4263Z" fill="#85B3FF"/>
<path d="M94.8827 117.004C94.8827 117.004 96.8817 108.609 93.1503 96.3486C89.419 84.0885 88.8859 87.2868 87.5533 85.4211C86.2207 83.5554 73.4391 79.5139 73.4391 79.5139C73.5305 80.4629 74.942 83.3831 76.796 86.8762C76.4623 85.6171 75.9566 84.41 75.2932 83.2889C73.4275 80.0906 76.6258 80.8902 76.6258 80.8902C77.9584 80.8902 85.6876 91.8177 89.1525 105.144C92.6173 118.47 88.0864 125.4 88.0864 125.4L94.8827 117.004Z" fill="#575A89"/>
<path d="M73.5608 79.4243C73.5608 79.4243 75.1387 85.4098 76.4819 86.2817C77.8252 87.1535 85.7915 95.4301 85.7915 95.4301L84.7548 88.7527L80.4904 82.3561L79.3562 81.5331L73.5608 79.4243Z" fill="#575A89"/>
<path opacity="0.1" d="M38.113 97.8146L38.4846 84.0886C38.4846 84.0886 29.7175 87.82 28.9179 103.811C28.1183 119.803 30.2505 149.92 33.1823 150.187C36.1141 150.453 49.9734 147.255 49.9734 147.255C49.9734 147.255 52.1056 108.609 51.306 103.545C50.5064 98.4809 38.113 97.8146 38.113 97.8146Z" fill="black"/>
<path d="M38.7793 84.0886H36.6189C36.6189 84.0886 27.8518 87.82 27.0522 103.811C26.2527 119.803 28.3849 149.92 31.3166 150.187C34.2484 150.453 48.1077 147.255 48.1077 147.255C48.1077 147.255 50.2399 108.609 49.4403 103.545C48.6407 98.4809 38.7793 84.0886 38.7793 84.0886Z" fill="#575A89"/>
<path d="M50.1066 66.6311C59.2329 66.6311 66.6311 58.3379 66.6311 48.1077C66.6311 37.8775 59.2329 29.5842 50.1066 29.5842C40.9804 29.5842 33.5821 37.8775 33.5821 48.1077C33.5821 58.3379 40.9804 66.6311 50.1066 66.6311Z" fill="#3F3D56"/>
<path d="M61.967 63.1663C63.8069 63.1663 65.2985 60.9588 65.2985 58.2356C65.2985 55.5125 63.8069 53.3049 61.967 53.3049C60.127 53.3049 58.6354 55.5125 58.6354 58.2356C58.6354 60.9588 60.127 63.1663 61.967 63.1663Z" fill="#FFB9B9"/>
<path d="M33.5821 43.177C41.0892 43.177 47.1748 37.0913 47.1748 29.5842C47.1748 22.0771 41.0892 15.9915 33.5821 15.9915C26.075 15.9915 19.9893 22.0771 19.9893 29.5842C19.9893 37.0913 26.075 43.177 33.5821 43.177Z" fill="#3F3D56"/>
<path d="M35.339 40.4736C33.3643 41.4783 31.174 41.9851 28.9586 41.9498C26.7433 41.9145 24.5702 41.3381 22.6286 40.2709C20.687 39.2038 19.0356 37.6781 17.8184 35.8268C16.6012 33.9755 15.855 31.8548 15.6449 29.6492C15.3546 31.5531 15.4723 33.4969 15.9901 35.3519C16.5079 37.2068 17.414 38.9306 18.6484 40.4089C19.8828 41.8872 21.4172 43.0862 23.1501 43.9266C24.8829 44.767 26.7746 45.2295 28.6997 45.2836C30.6248 45.3376 32.5395 44.9818 34.3167 44.2399C36.094 43.498 37.6932 42.3869 39.0086 40.9801C40.3239 39.5734 41.3252 37.9031 41.9462 36.0801C42.5672 34.2571 42.7937 32.3229 42.6106 30.4057C42.2872 32.5415 41.4587 34.5691 40.194 36.3202C38.9292 38.0713 37.2648 39.4952 35.339 40.4736Z" fill="#3F3D56"/>
<path d="M26.1249 31.831C24.76 30.0858 23.8424 28.0333 23.4521 25.8524C23.0617 23.6715 23.2104 21.4282 23.8853 19.3179C24.5601 17.2075 25.7406 15.2942 27.324 13.7444C28.9073 12.1947 30.8455 11.0555 32.9698 10.426C31.0456 10.5064 29.1605 10.9948 27.4393 11.8589C25.7182 12.723 24.2003 13.943 22.9863 15.438C21.7723 16.9331 20.8899 18.6691 20.3976 20.531C19.9052 22.3929 19.8142 24.3381 20.1305 26.2379C20.4469 28.1376 21.1633 29.9484 22.2324 31.5503C23.3015 33.1522 24.6989 34.5086 26.3318 35.5296C27.9648 36.5506 29.7961 37.2129 31.7044 37.4726C33.6127 37.7323 35.5544 37.5835 37.4008 37.036C35.2427 37.1284 33.0938 36.7043 31.1326 35.799C29.1714 34.8937 27.4546 33.5333 26.1249 31.831Z" fill="#3F3D56"/>
<path d="M70.0959 46.9083C75.3951 46.9083 79.6908 43.8058 79.6908 39.9787C79.6908 36.1516 75.3951 33.0491 70.0959 33.0491C64.7968 33.0491 60.5011 36.1516 60.5011 39.9787C60.5011 43.8058 64.7968 46.9083 70.0959 46.9083Z" fill="#3F3D56"/>
</g>
<defs>
<clipPath id="clip0">
<rect width="250" height="160.981" fill="white"/>
</clipPath>
</defs>
</svg>
