<svg width="250" height="189" viewBox="0 0 250 189" fill="none" xmlns="http://www.w3.org/2000/svg">
<g clip-path="url(#clip0)">
<path opacity="0.1" d="M243.305 128.985C243.07 129.145 242.831 129.299 242.588 129.448C241.685 130.007 240.748 130.509 239.782 130.95C234.682 133.308 228.402 134.459 222.285 135.242C208.559 136.998 194.547 137.339 180.596 137.673C142.898 138.58 105.101 139.488 67.5024 137.395C52.6473 136.569 37.4596 135.187 23.9952 130.95C22.0655 130.343 20.1734 129.675 18.3191 128.946C14.5683 127.466 10.9632 125.663 7.96869 123.514C5.14369 121.497 2.86847 119.18 1.50377 116.547C-1.34079 111.062 0.165156 104.901 3.41391 99.5228C4.77941 97.3302 6.3047 95.2412 7.97738 93.273C10.4764 90.2546 13.2428 87.3057 15.7657 84.2895C24.7449 73.5218 30.6035 59.9249 22.3154 48.8965C19.925 45.7281 16.4915 42.9466 14.551 39.637C12.0715 35.4082 12.2649 30.71 13.0515 26.1465C13.1537 25.5706 13.2688 24.9947 13.3753 24.4254C14.7313 17.6584 17.263 10.3786 25.0556 6.14326C33.1591 1.75364 44.6677 1.97529 54.7291 3.53557C70.3753 5.97811 84.8089 11.0783 99.3859 15.6874C113.963 20.2965 129.227 24.5036 145.257 24.9643C159.411 25.362 175.917 22.3718 185.31 14.5922C194.436 7.04075 211.582 6.46488 223.947 11.0284C232.422 14.1576 238.759 19.8011 241.427 26.1465C241.966 27.4098 242.357 28.7311 242.592 30.0841C242.808 31.3087 242.881 32.5543 242.809 33.7957C242.77 34.4107 242.698 35.017 242.592 35.6168C240.525 48.1381 225.662 58.0125 216.624 69.1996C212.208 74.6627 209.092 81.2232 212.128 87.1166C216.758 96.0936 232.861 99.2859 242.592 105.966C244.461 107.246 246.095 108.658 247.373 110.269C252.071 116.208 250.33 124.248 243.305 128.985Z" fill="#85B3FF"/>
<path d="M64.0864 70.5926C64.0864 70.5926 54.0902 52.8776 39.0264 47.7752C32.7049 45.6325 27.1874 41.6036 23.415 36.0971C21.6286 33.4821 20.0865 30.7085 18.808 27.8111" stroke="#535461" stroke-width="2" stroke-miterlimit="10"/>
<path d="M9.33556 24.5363C11.0523 26.2009 19.0449 27.9241 19.0449 27.9241C19.0449 27.9241 17.0891 19.9859 15.368 18.3213C14.5407 17.5379 13.438 17.112 12.2989 17.136C11.1598 17.16 10.076 17.632 9.28241 18.4496C8.48884 19.2671 8.04942 20.3645 8.05937 21.5038C8.06932 22.6432 8.52784 23.7327 9.33556 24.5363Z" fill="#85B3FF"/>
<path d="M13.8577 38.8982C16.2025 39.3632 23.8539 36.4665 23.8539 36.4665C23.8539 36.4665 17.8953 30.8686 15.5484 30.4036C14.433 30.2072 13.285 30.4555 12.3505 31.0954C11.416 31.7352 10.7693 32.7157 10.5491 33.8267C10.3288 34.9376 10.5525 36.0906 11.1722 37.0386C11.7919 37.9866 12.7583 38.6542 13.8642 38.8982H13.8577Z" fill="#85B3FF"/>
<path d="M30.3188 54.4401C32.5788 53.6578 37.7073 47.2971 37.7073 47.2971C37.7073 47.2971 29.7364 45.4739 27.4786 46.2562C26.9246 46.4283 26.4108 46.71 25.9678 47.0845C25.5247 47.4589 25.1614 47.9186 24.8994 48.4362C24.6374 48.9538 24.4821 49.5187 24.4426 50.0975C24.4031 50.6762 24.4803 51.257 24.6696 51.8054C24.8589 52.3538 25.1564 52.8585 25.5445 53.2897C25.9326 53.7208 26.4034 54.0696 26.9289 54.3154C27.4544 54.5611 28.0239 54.6988 28.6036 54.7202C29.1833 54.7416 29.7614 54.6464 30.3036 54.4401H30.3188Z" fill="#85B3FF"/>
<path d="M45.424 63.4018C47.7839 63.0128 53.9207 57.6127 53.9207 57.6127C53.9207 57.6127 46.3823 54.4596 44.0136 54.8485C42.8794 55.0356 41.8659 55.6655 41.1962 56.5998C40.5264 57.534 40.2552 58.6961 40.4422 59.8303C40.6292 60.9646 41.2591 61.9781 42.1934 62.6478C43.1277 63.3176 44.2897 63.5888 45.424 63.4018Z" fill="#85B3FF"/>
<path d="M30.5188 30.2645C30.5188 32.6549 26.1944 39.5914 26.1944 39.5914C26.1944 39.5914 21.8612 32.6592 21.8591 30.2688C21.8461 29.6921 21.9486 29.1185 22.1604 28.5819C22.3722 28.0453 22.689 27.5564 23.0924 27.1439C23.4957 26.7314 23.9774 26.4037 24.5092 26.1799C25.0409 25.9561 25.612 25.8409 26.1889 25.8409C26.7658 25.8409 27.3369 25.9561 27.8687 26.1799C28.4004 26.4037 28.8821 26.7314 29.2855 27.1439C29.6888 27.5564 30.0057 28.0453 30.2175 28.5819C30.4293 29.1185 30.5317 29.6921 30.5188 30.2688V30.2645Z" fill="#85B3FF"/>
<path d="M48.0446 40.9604C47.3297 43.2421 41.1255 48.5662 41.1255 48.5662C41.1255 48.5662 39.0655 40.654 39.7782 38.3723C40.1578 37.3226 40.928 36.46 41.9282 35.9644C42.9283 35.4688 44.0812 35.3785 45.1464 35.7123C46.2115 36.0462 47.1066 36.7783 47.645 37.7561C48.1833 38.7339 48.3234 39.8818 48.0359 40.9604H48.0446Z" fill="#85B3FF"/>
<path d="M63.6561 53.6947C63.3323 56.0634 58.1169 62.361 58.1169 62.361C58.1169 62.361 54.7486 54.9117 55.0746 52.5408C55.1424 51.9705 55.3229 51.4194 55.6057 50.9195C55.8885 50.4196 56.2679 49.9809 56.7218 49.629C57.1758 49.2772 57.6951 49.0191 58.2497 48.8698C58.8043 48.7206 59.3831 48.6831 59.9523 48.7596C60.5215 48.8361 61.0698 49.0251 61.5653 49.3155C62.0608 49.606 62.4936 49.992 62.8385 50.4513C63.1834 50.9106 63.4335 51.4338 63.5742 51.9907C63.7149 52.5475 63.7435 53.1268 63.6583 53.6947H63.6561Z" fill="#85B3FF"/>
<path opacity="0.25" d="M9.33556 24.5363C11.0523 26.2009 19.0449 27.9241 19.0449 27.9241C19.0449 27.9241 17.0891 19.9859 15.368 18.3213C14.5407 17.5379 13.438 17.112 12.2989 17.136C11.1598 17.16 10.076 17.632 9.28241 18.4496C8.48884 19.2671 8.04942 20.3645 8.05937 21.5038C8.06932 22.6432 8.52784 23.7327 9.33556 24.5363Z" fill="black"/>
<path opacity="0.25" d="M13.8577 38.8982C16.2025 39.3632 23.8539 36.4665 23.8539 36.4665C23.8539 36.4665 17.8953 30.8686 15.5484 30.4036C14.433 30.2072 13.285 30.4555 12.3505 31.0954C11.416 31.7352 10.7693 32.7157 10.5491 33.8267C10.3288 34.9376 10.5525 36.0906 11.1722 37.0386C11.7919 37.9866 12.7583 38.6542 13.8642 38.8982H13.8577Z" fill="black"/>
<path opacity="0.25" d="M30.3188 54.4401C32.5788 53.6578 37.7073 47.2971 37.7073 47.2971C37.7073 47.2971 29.7364 45.4739 27.4786 46.2562C26.9246 46.4283 26.4108 46.71 25.9678 47.0845C25.5247 47.4589 25.1614 47.9186 24.8994 48.4362C24.6374 48.9538 24.4821 49.5187 24.4426 50.0975C24.4031 50.6762 24.4803 51.257 24.6696 51.8054C24.8589 52.3538 25.1564 52.8585 25.5445 53.2897C25.9326 53.7208 26.4034 54.0696 26.9289 54.3154C27.4544 54.5611 28.0239 54.6988 28.6036 54.7202C29.1833 54.7416 29.7614 54.6464 30.3036 54.4401H30.3188Z" fill="black"/>
<path opacity="0.25" d="M45.424 63.4018C47.7839 63.0128 53.9207 57.6127 53.9207 57.6127C53.9207 57.6127 46.3823 54.4596 44.0136 54.8485C42.8794 55.0356 41.8659 55.6655 41.1962 56.5998C40.5264 57.534 40.2552 58.6961 40.4422 59.8303C40.6292 60.9646 41.2591 61.9781 42.1934 62.6478C43.1277 63.3176 44.2897 63.5888 45.424 63.4018Z" fill="black"/>
<path opacity="0.25" d="M30.5188 30.2645C30.5188 32.6549 26.1944 39.5914 26.1944 39.5914C26.1944 39.5914 21.8612 32.6592 21.8591 30.2688C21.8461 29.6921 21.9486 29.1185 22.1604 28.5819C22.3722 28.0453 22.689 27.5564 23.0924 27.1439C23.4957 26.7314 23.9774 26.4037 24.5092 26.1799C25.0409 25.9561 25.612 25.8409 26.1889 25.8409C26.7658 25.8409 27.3369 25.9561 27.8687 26.1799C28.4004 26.4037 28.8821 26.7314 29.2855 27.1439C29.6888 27.5564 30.0057 28.0453 30.2175 28.5819C30.4293 29.1185 30.5317 29.6921 30.5188 30.2688V30.2645Z" fill="black"/>
<path opacity="0.25" d="M48.0446 40.9604C47.3297 43.2421 41.1255 48.5662 41.1255 48.5662C41.1255 48.5662 39.0655 40.654 39.7782 38.3723C40.1578 37.3226 40.928 36.46 41.9282 35.9644C42.9283 35.4688 44.0812 35.3785 45.1464 35.7123C46.2115 36.0462 47.1066 36.7783 47.645 37.7561C48.1833 38.7339 48.3234 39.8818 48.0359 40.9604H48.0446Z" fill="black"/>
<path opacity="0.25" d="M63.6561 53.6947C63.3323 56.0634 58.1169 62.361 58.1169 62.361C58.1169 62.361 54.7486 54.9117 55.0746 52.5408C55.1424 51.9705 55.3229 51.4194 55.6057 50.9195C55.8885 50.4196 56.2679 49.9809 56.7218 49.629C57.1758 49.2772 57.6951 49.0191 58.2497 48.8698C58.8043 48.7206 59.3831 48.6831 59.9523 48.7596C60.5215 48.8361 61.0698 49.0251 61.5653 49.3155C62.0608 49.606 62.4936 49.992 62.8385 50.4513C63.1834 50.9106 63.4335 51.4338 63.5742 51.9907C63.7149 52.5475 63.7435 53.1268 63.6583 53.6947H63.6561Z" fill="black"/>
<path d="M63.5104 70.2405C63.5104 70.2405 61.5547 49.9939 49.8461 39.2241C44.9371 34.7041 41.5254 28.7825 40.3063 22.2219C39.7341 19.1073 39.449 15.9467 39.4544 12.7799" stroke="#535461" stroke-width="2" stroke-miterlimit="10"/>
<path d="M32.1203 5.9499C33.0156 8.16645 39.6239 12.9863 39.6239 12.9863C39.6239 12.9863 41.0473 4.94594 40.1542 2.71853C39.7248 1.65231 38.8895 0.80032 37.8319 0.349997C36.7744 -0.100325 35.5813 -0.112096 34.515 0.317275C33.4488 0.746646 32.5968 1.58199 32.1465 2.63953C31.6962 3.69708 31.6844 4.8902 32.1138 5.95642L32.1203 5.9499Z" fill="#85B3FF"/>
<path d="M30.434 20.9116C32.3897 22.2871 40.554 22.7369 40.554 22.7369C40.554 22.7369 37.3726 15.205 35.4168 13.8273C34.4769 13.1845 33.3215 12.9377 32.2009 13.1404C31.0804 13.3432 30.0847 13.9791 29.4296 14.9105C28.7744 15.842 28.5125 16.994 28.7004 18.1171C28.8884 19.2403 29.5112 20.2442 30.434 20.9116Z" fill="#85B3FF"/>
<path d="M39.1872 41.7905C41.5776 41.9904 48.8444 38.2571 48.8444 38.2571C48.8444 38.2571 42.2969 33.3611 39.913 33.1612C39.3394 33.1001 38.7594 33.1542 38.207 33.3204C37.6546 33.4865 37.141 33.7613 36.6963 34.1287C36.2516 34.496 35.8847 34.9485 35.6172 35.4596C35.3498 35.9707 35.1871 36.53 35.1387 37.1048C35.0904 37.6796 35.1574 38.2583 35.3357 38.8068C35.514 39.3554 35.8002 39.8628 36.1773 40.2993C36.5544 40.7358 37.0149 41.0925 37.5318 41.3486C38.0486 41.6047 38.6115 41.7549 39.1872 41.7905Z" fill="#85B3FF"/>
<path d="M49.3659 56.0959C51.6824 56.6978 59.4816 54.2466 59.4816 54.2466C59.4816 54.2466 53.8555 48.3141 51.5412 47.7143C50.4297 47.4262 49.2493 47.5913 48.2596 48.1735C47.2699 48.7556 46.552 49.7071 46.2638 50.8186C45.9757 51.93 46.1408 53.1104 46.723 54.1001C47.3051 55.0898 48.2566 55.8077 49.3681 56.0959H49.3659Z" fill="#85B3FF"/>
<path d="M49.1594 19.7664C48.1924 21.9547 41.4255 26.542 41.4255 26.542C41.4255 26.542 40.2737 18.4473 41.2407 16.2612C41.7217 15.2363 42.5848 14.4404 43.6453 14.0441C44.7058 13.6477 45.8793 13.6823 46.9145 14.1406C47.9498 14.5988 48.7645 15.4443 49.184 16.4958C49.6036 17.5473 49.5948 18.7213 49.1594 19.7664Z" fill="#85B3FF"/>
<path d="M60.8528 36.649C59.2752 38.4462 51.4456 40.7996 51.4456 40.7996C51.4456 40.7996 52.7668 32.731 54.3466 30.9338C54.7178 30.4926 55.1733 30.13 55.6864 29.8672C56.1995 29.6043 56.76 29.4466 57.3349 29.4032C57.9098 29.3598 58.4876 29.4317 59.0344 29.6145C59.5811 29.7974 60.0859 30.0875 60.5191 30.468C60.9522 30.8485 61.305 31.3117 61.5568 31.8303C61.8087 32.349 61.9544 32.9127 61.9855 33.4884C62.0165 34.0641 61.9324 34.6402 61.7379 35.1829C61.5434 35.7257 61.2425 36.2241 60.8528 36.649Z" fill="#85B3FF"/>
<path d="M69.9667 54.6182C68.715 56.6566 61.3961 60.2986 61.3961 60.2986C61.3961 60.2986 61.3352 52.1235 62.5869 50.0852C63.188 49.1054 64.1537 48.4046 65.2716 48.1368C66.3895 47.8691 67.5679 48.0563 68.5477 48.6575C69.5274 49.2586 70.2283 50.2243 70.496 51.3422C70.7638 52.46 70.5765 53.6384 69.9754 54.6182H69.9667Z" fill="#85B3FF"/>
<path opacity="0.1" d="M139.075 188.291C179.283 188.291 211.878 186.653 211.878 184.634C211.878 182.614 179.283 180.976 139.075 180.976C98.8673 180.976 66.2725 182.614 66.2725 184.634C66.2725 186.653 98.8673 188.291 139.075 188.291Z" fill="#85B3FF"/>
<path d="M57.841 177.623C57.841 177.623 48.6532 177.069 49.7354 183.506C49.7354 183.506 49.5181 184.645 50.5524 185.162C50.5524 185.162 50.5677 184.684 51.4934 184.847C51.8236 184.901 52.1591 184.917 52.493 184.895C52.9434 184.863 53.3713 184.686 53.7121 184.39C53.7121 184.39 56.2959 183.323 57.2999 179.101C57.2999 179.101 58.043 178.182 58.0126 177.945L56.4632 178.597C56.4632 178.597 56.9935 179.714 56.5762 180.644C56.5762 180.644 56.5262 178.636 56.2285 178.688C56.1677 178.699 55.4223 179.075 55.4223 179.075C55.4223 179.075 56.3328 181.031 55.6396 182.441C55.6396 182.441 55.9004 180.04 55.1311 179.216L54.0446 179.853C54.0446 179.853 55.1094 181.867 54.3879 183.508C54.3879 183.508 54.5726 180.989 53.8142 180.009L52.8255 180.781C52.8255 180.781 53.8273 182.763 53.2166 184.125C53.2166 184.125 53.1362 181.194 52.6104 180.972C52.6104 180.972 51.7411 181.735 51.6151 182.059C51.6151 182.059 52.2996 183.497 51.8737 184.258C51.8737 184.258 51.6129 182.302 51.3999 182.302C51.3999 182.302 50.5307 183.595 50.4481 184.475C50.4481 184.475 50.4851 183.156 51.1913 182.172C50.6936 182.265 50.2342 182.502 49.8701 182.854C49.8701 182.854 50.0048 181.939 51.4043 181.859C51.4043 181.859 52.1171 180.879 52.3061 180.818C52.3061 180.818 50.9154 180.7 50.0722 181.076C50.0722 181.076 50.8154 180.207 52.5625 180.605L53.5383 179.807C53.5383 179.807 51.7063 179.557 50.9306 179.833C50.9306 179.833 51.8237 179.071 53.8012 179.627L54.8573 178.988C54.8573 178.988 53.297 178.653 52.367 178.771C52.367 178.771 53.347 178.243 55.1702 178.816L55.9286 178.475C55.9286 178.475 54.7856 178.258 54.4509 178.214C54.1163 178.171 54.0967 178.086 54.0967 178.086C54.8214 177.965 55.5655 178.048 56.2459 178.325C56.2459 178.325 57.867 177.723 57.841 177.623Z" fill="#85B3FF"/>
<path opacity="0.1" d="M51.5107 186.822C55.1016 186.822 58.0126 186.33 58.0126 185.722C58.0126 185.115 55.1016 184.623 51.5107 184.623C47.9198 184.623 45.0089 185.115 45.0089 185.722C45.0089 186.33 47.9198 186.822 51.5107 186.822Z" fill="#85B3FF"/>
<path d="M41.7428 177.967C41.7428 177.967 36.5643 177.654 37.1793 181.283C37.1478 181.467 37.1754 181.656 37.2582 181.824C37.3409 181.991 37.4746 182.128 37.64 182.215C37.64 182.215 37.64 181.948 38.1702 182.039C38.3562 182.07 38.5451 182.078 38.7331 182.065C38.9877 182.049 39.2299 181.949 39.4219 181.78C39.4219 181.78 40.8779 181.181 41.4429 178.799C41.4429 178.799 41.8623 178.282 41.8449 178.147L40.9757 178.521C40.9757 178.521 41.2734 179.151 41.0387 179.675C41.0387 179.675 41.0104 178.545 40.8431 178.571C40.8083 178.571 40.3889 178.788 40.3889 178.788C40.3889 178.788 40.904 179.888 40.515 180.685C40.515 180.685 40.6627 179.331 40.2281 178.869L39.6045 179.227C39.6045 179.227 40.2042 180.361 39.7979 181.287C39.7979 181.287 39.9022 179.868 39.4762 179.316L38.9178 179.751C38.9178 179.751 39.4828 180.868 39.1351 181.635C39.1351 181.635 39.0916 179.983 38.7939 179.857C38.5826 180.036 38.3943 180.241 38.2332 180.466C38.2332 180.466 38.6179 181.276 38.3788 181.704C38.3788 181.704 38.2332 180.605 38.1116 180.598C38.1116 180.598 37.6248 181.328 37.5748 181.828C37.5984 181.364 37.743 180.915 37.9942 180.524C37.7137 180.578 37.4547 180.711 37.2488 180.909C37.2488 180.909 37.3249 180.394 38.1181 180.348C38.1181 180.348 38.5201 179.796 38.6266 179.762C38.6266 179.762 37.8421 179.696 37.3684 179.907C37.3684 179.907 37.7856 179.42 38.77 179.642L39.322 179.192C39.322 179.192 38.2897 179.051 37.8508 179.208C37.8508 179.208 38.3549 178.773 39.4697 179.09L40.0695 178.732C39.608 178.631 39.1355 178.59 38.6635 178.61C38.6635 178.61 39.2177 178.312 40.2455 178.636L40.6801 178.443C40.6801 178.443 40.0282 178.317 39.8457 178.297C39.6631 178.277 39.6479 178.225 39.6479 178.225C40.056 178.156 40.4754 178.203 40.8583 178.36C40.8583 178.36 41.7602 178.023 41.7428 177.967Z" fill="#85B3FF"/>
<path opacity="0.1" d="M38.1745 183.152C40.1992 183.152 41.8405 182.874 41.8405 182.532C41.8405 182.19 40.1992 181.913 38.1745 181.913C36.1498 181.913 34.5085 182.19 34.5085 182.532C34.5085 182.874 36.1498 183.152 38.1745 183.152Z" fill="#85B3FF"/>
<path d="M51.5976 170.27C51.5976 170.27 45.3435 169.894 46.0802 174.277C46.0423 174.499 46.0757 174.728 46.1757 174.93C46.2756 175.132 46.4369 175.297 46.6365 175.402C46.6365 175.402 46.6473 175.077 47.2884 175.185C47.513 175.223 47.7414 175.234 47.9686 175.218C48.2731 175.198 48.563 175.08 48.7943 174.881C48.7943 174.881 50.5524 174.155 51.2369 171.282C51.2369 171.282 51.741 170.656 51.7215 170.493L50.6675 170.945C50.6675 170.945 51.0261 171.706 50.7436 172.338C50.7436 172.338 50.7088 170.974 50.5067 171.004C50.4654 171.004 49.9591 171.269 49.9591 171.269C49.9591 171.269 50.5784 172.595 50.1112 173.56C50.1112 173.56 50.2872 171.926 49.7635 171.365L49.0225 171.799C49.0225 171.799 49.7462 173.171 49.255 174.288C49.255 174.288 49.3811 172.573 48.8661 171.897L48.1924 172.423C48.1924 172.423 48.8726 173.773 48.4575 174.698C48.4575 174.698 48.4032 172.703 48.0468 172.554C48.0468 172.554 47.4579 173.073 47.3666 173.286C47.3666 173.286 47.8338 174.266 47.5448 174.783C47.5448 174.783 47.3666 173.453 47.221 173.447C47.221 173.447 46.6343 174.329 46.5691 174.931C46.5984 174.373 46.7729 173.832 47.0754 173.362C46.7364 173.427 46.4237 173.589 46.1758 173.829C46.1758 173.829 46.267 173.205 47.221 173.151C47.221 173.151 47.7056 172.482 47.8338 172.443C47.8338 172.443 46.8885 172.362 46.3127 172.617C46.3127 172.617 46.819 172.03 48.0077 172.297L48.6726 171.754C48.6726 171.754 47.4253 171.584 46.8972 171.771C46.8972 171.771 47.5057 171.252 48.853 171.632L49.5767 171.198C49.5767 171.198 48.514 170.98 47.8816 171.052C47.8816 171.052 48.5488 170.691 49.7896 171.082L50.3068 170.85C50.3068 170.85 49.5288 170.698 49.3007 170.674C49.0725 170.65 49.0595 170.585 49.0595 170.585C49.5526 170.503 50.0589 170.559 50.5219 170.748C50.5219 170.748 51.6237 170.339 51.5976 170.27Z" fill="#85B3FF"/>
<path opacity="0.1" d="M47.2949 176.532C49.7397 176.532 51.7215 176.198 51.7215 175.785C51.7215 175.372 49.7397 175.037 47.2949 175.037C44.8502 175.037 42.8684 175.372 42.8684 175.785C42.8684 176.198 44.8502 176.532 47.2949 176.532Z" fill="#85B3FF"/>
<path d="M147.113 179.673V181.372H96.8586V179.992C99.9233 178.857 102.582 176.837 104.499 174.19C106.415 171.543 107.503 168.386 107.625 165.12C107.747 161.854 106.897 158.626 105.182 155.843C103.468 153.06 100.967 150.849 97.9951 149.489H146.779C144.537 150.517 142.554 152.035 140.975 153.93C139.395 155.824 138.26 158.048 137.652 160.439C136.834 163.657 137.006 167.046 138.144 170.165C139.282 173.284 141.334 175.988 144.032 177.923C144.993 178.615 146.026 179.202 147.113 179.673Z" fill="#C8CAD7"/>
<path opacity="0.1" d="M146.779 149.489C144.537 150.517 142.554 152.035 140.975 153.93C139.395 155.824 138.26 158.048 137.652 160.439H107.126C106.518 158.048 105.383 155.824 103.804 153.93C102.224 152.035 100.241 150.517 97.9995 149.489H146.779Z" fill="black"/>
<path d="M39.3154 140.831V150.371C39.3154 155.638 43.1704 159.908 47.9273 159.908H195.779C200.536 159.908 204.391 155.638 204.391 150.371V140.831H39.3154Z" fill="#C8CAD7"/>
<path opacity="0.1" d="M147.113 179.673V181.372H96.8586V179.992C98.2369 179.479 99.5407 178.785 100.735 177.928H144.032C144.994 178.618 146.027 179.203 147.113 179.673Z" fill="black"/>
<path d="M161.653 178.458H82.3163C81.1761 178.458 80.2519 179.382 80.2519 180.522V181.428C80.2519 182.569 81.1761 183.493 82.3163 183.493H161.653C162.793 183.493 163.718 182.569 163.718 181.428V180.522C163.718 179.382 162.793 178.458 161.653 178.458Z" fill="#C8CAD7"/>
<path d="M204.391 36.2992C204.391 34.0152 203.484 31.8247 201.869 30.2096C200.254 28.5946 198.063 27.6873 195.779 27.6873H47.9273C45.6433 27.6873 43.4528 28.5946 41.8377 30.2096C40.2227 31.8247 39.3154 34.0152 39.3154 36.2992V142.687H204.391V36.2992Z" fill="#474157"/>
<path d="M199.887 40.1498V131.556C199.887 132.113 199.777 132.664 199.564 133.179C199.351 133.693 199.039 134.161 198.645 134.555C198.252 134.948 197.784 135.261 197.27 135.474C196.755 135.687 196.204 135.796 195.647 135.796H48.0577C47.5009 135.796 46.9494 135.687 46.4349 135.474C45.9204 135.261 45.4529 134.948 45.0591 134.555C44.6654 134.161 44.3531 133.693 44.1402 133.179C43.9272 132.664 43.8177 132.113 43.818 131.556V40.1498C43.818 39.0254 44.2647 37.947 45.0598 37.1519C45.8549 36.3568 46.9333 35.9102 48.0577 35.9102H195.647C196.771 35.9102 197.85 36.3568 198.645 37.1519C199.44 37.947 199.887 39.0254 199.887 40.1498Z" fill="#F4F4F7"/>
<path d="M121.853 33.7849C122.951 33.7849 123.842 32.8947 123.842 31.7965C123.842 30.6984 122.951 29.8082 121.853 29.8082C120.755 29.8082 119.865 30.6984 119.865 31.7965C119.865 32.8947 120.755 33.7849 121.853 33.7849Z" fill="white"/>
<path d="M121.853 155.671C124.561 155.671 126.756 153.476 126.756 150.768C126.756 148.061 124.561 145.866 121.853 145.866C119.146 145.866 116.951 148.061 116.951 150.768C116.951 153.476 119.146 155.671 121.853 155.671Z" fill="white"/>
<path d="M199.887 40.1498H43.8202C43.8199 39.5932 43.9293 39.0419 44.1421 38.5275C44.3549 38.0132 44.667 37.5458 45.0606 37.1521C45.4541 36.7583 45.9213 36.446 46.4356 36.2329C46.9498 36.0198 47.501 35.9102 48.0577 35.9102H195.647C196.204 35.9099 196.755 36.0193 197.27 36.2323C197.784 36.4453 198.252 36.7575 198.645 37.1513C199.039 37.545 199.351 38.0125 199.564 38.527C199.777 39.0416 199.887 39.593 199.887 40.1498Z" fill="white"/>
<path d="M48.0577 39.0829C48.6434 39.0829 49.1182 38.6081 49.1182 38.0224C49.1182 37.4368 48.6434 36.962 48.0577 36.962C47.472 36.962 46.9972 37.4368 46.9972 38.0224C46.9972 38.6081 47.472 39.0829 48.0577 39.0829Z" fill="#EDEDF4"/>
<path d="M51.2369 39.0829C51.8226 39.0829 52.2974 38.6081 52.2974 38.0224C52.2974 37.4368 51.8226 36.962 51.2369 36.962C50.6512 36.962 50.1764 37.4368 50.1764 38.0224C50.1764 38.6081 50.6512 39.0829 51.2369 39.0829Z" fill="#EDEDF4"/>
<path d="M54.4183 39.0829C55.004 39.0829 55.4787 38.6081 55.4787 38.0224C55.4787 37.4368 55.004 36.962 54.4183 36.962C53.8326 36.962 53.3578 37.4368 53.3578 38.0224C53.3578 38.6081 53.8326 39.0829 54.4183 39.0829Z" fill="#EDEDF4"/>
<path d="M184.469 51.8845H58.5124V125.491H184.469V51.8845Z" fill="white"/>
<path d="M80.0324 114.085H84.6763V114.954H80.0324V114.085ZM82.3554 111.762C82.4382 111.761 82.5199 111.743 82.595 111.708C82.6701 111.673 82.737 111.623 82.7911 111.561C82.8451 111.498 82.8852 111.424 82.9085 111.345C82.9319 111.266 82.938 111.182 82.9264 111.1C82.9148 111.018 82.8859 110.94 82.8414 110.87C82.797 110.8 82.7382 110.741 82.6689 110.695C82.5996 110.65 82.5214 110.62 82.4396 110.608C82.3578 110.595 82.2743 110.6 82.1946 110.623L80.9842 109.738L80.9125 109.804L81.7991 111.012C81.7833 111.067 81.7752 111.124 81.7752 111.181C81.7749 111.258 81.7897 111.333 81.8188 111.404C81.8479 111.474 81.8906 111.538 81.9445 111.592C81.9985 111.646 82.0625 111.689 82.133 111.718C82.2036 111.747 82.2792 111.762 82.3554 111.762Z" fill="#65617D"/>
<path d="M82.3555 107.407C81.6483 107.407 80.9553 107.605 80.3556 107.98C79.7558 108.355 79.2734 108.891 78.9633 109.526C78.6532 110.162 78.5279 110.872 78.6017 111.575C78.6754 112.279 78.9453 112.947 79.3806 113.504H80.4475L80.5214 113.431L80.9213 113.031L80.4997 112.616L80.0998 113.013C79.7396 112.574 79.5174 112.038 79.461 111.473H80.026V110.89H79.461C79.5174 110.325 79.7396 109.789 80.0998 109.349L80.4997 109.747L80.9147 109.332L80.5171 108.932C80.9565 108.572 81.4925 108.35 82.0578 108.293V108.858H82.638V108.293C83.2038 108.35 83.7404 108.573 84.1809 108.932L83.781 109.332L84.1983 109.747L84.5981 109.349C84.9574 109.789 85.1796 110.325 85.237 110.89H84.6698V111.473H85.237C85.1796 112.038 84.9574 112.573 84.5981 113.013L84.1983 112.616L83.781 113.031L84.1831 113.431L84.2548 113.504H85.3217C85.7569 112.947 86.0267 112.279 86.1006 111.576C86.1744 110.873 86.0493 110.163 85.7395 109.527C85.4297 108.892 84.9476 108.356 84.3481 107.981C83.7487 107.606 83.056 107.407 82.349 107.407H82.3555Z" fill="#65617D"/>
<path d="M82.3533 91.578C82.0831 91.5666 81.8182 91.4992 81.5753 91.3803C81.5533 91.3699 81.5289 91.3655 81.5046 91.3675C81.4803 91.3696 81.457 91.3779 81.437 91.3918C81.417 91.4057 81.401 91.4245 81.3905 91.4465C81.3801 91.4685 81.3756 91.4929 81.3775 91.5172L81.4406 92.4429C81.4418 92.4557 81.4464 92.4679 81.4539 92.4782C81.4615 92.4886 81.4716 92.4968 81.4834 92.5019C81.4952 92.507 81.5081 92.5088 81.5208 92.5072C81.5335 92.5057 81.5456 92.5007 81.5557 92.4929L81.8187 92.2929C81.8266 92.2873 81.8356 92.2833 81.8451 92.2812C81.8546 92.2791 81.8644 92.279 81.8739 92.2808C81.8835 92.2826 81.8926 92.2864 81.9006 92.2918C81.9087 92.2973 81.9156 92.3043 81.9208 92.3125L82.2924 92.8949C82.299 92.9047 82.3078 92.9128 82.3183 92.9184C82.3287 92.924 82.3403 92.927 82.3522 92.927C82.364 92.927 82.3757 92.924 82.3861 92.9184C82.3965 92.9128 82.4054 92.9047 82.4119 92.8949L82.7857 92.3125C82.7918 92.3048 82.7994 92.2985 82.808 92.2938C82.8167 92.2892 82.8262 92.2864 82.836 92.2856C82.8457 92.2847 82.8556 92.2859 82.8649 92.2891C82.8742 92.2922 82.8827 92.2972 82.89 92.3038L83.1529 92.5037C83.1631 92.5116 83.1752 92.5165 83.1879 92.5181C83.2006 92.5197 83.2135 92.5178 83.2253 92.5127C83.237 92.5076 83.2472 92.4995 83.2548 92.4891C83.2623 92.4787 83.2669 92.4665 83.2681 92.4538L83.3311 91.528C83.3324 91.5039 83.3275 91.4799 83.3169 91.4583C83.3063 91.4366 83.2903 91.4181 83.2705 91.4044C83.2507 91.3906 83.2277 91.3822 83.2037 91.3799C83.1797 91.3776 83.1555 91.3814 83.1334 91.3911C82.8904 91.5097 82.6256 91.577 82.3554 91.5889L82.3533 91.578Z" fill="#65617D"/>
<path d="M84.9241 89.2463L84.0548 88.3553C84.0548 85.489 82.3642 84.2264 82.3642 84.2264C82.3642 84.2264 80.6561 85.4977 80.6561 88.3553L79.7869 89.2463C79.7706 89.263 79.7584 89.2833 79.7513 89.3055C79.7441 89.3278 79.7422 89.3514 79.7456 89.3745L80.0803 91.4019C80.0828 91.4259 80.0915 91.4489 80.1056 91.4685C80.1196 91.4881 80.1385 91.5037 80.1605 91.5138C80.1824 91.5239 80.2065 91.5281 80.2306 91.526C80.2546 91.5239 80.2777 91.5156 80.2976 91.5019L81.5167 90.6761C81.7508 90.8922 82.0526 91.0205 82.3707 91.039C82.6842 91.0227 82.9812 90.8939 83.2073 90.6761L84.4243 91.5019C84.4441 91.5156 84.4672 91.5239 84.4912 91.526C84.5153 91.5281 84.5394 91.5239 84.5614 91.5138C84.5833 91.5037 84.6022 91.4881 84.6163 91.4685C84.6303 91.4489 84.639 91.4259 84.6416 91.4019L84.9784 89.3723C84.9793 89.3486 84.975 89.3249 84.9656 89.3031C84.9562 89.2813 84.942 89.2619 84.9241 89.2463ZM82.362 87.4122C82.2457 87.4174 82.1306 87.3877 82.0314 87.3268C81.9322 87.266 81.8535 87.1768 81.8055 87.0708C81.7574 86.9648 81.7422 86.8469 81.7619 86.7322C81.7815 86.6175 81.835 86.5113 81.9155 86.4273C81.9961 86.3433 82.0999 86.2854 82.2137 86.261C82.3275 86.2365 82.446 86.2468 82.5539 86.2903C82.6618 86.3339 82.7542 86.4087 82.8191 86.5053C82.8841 86.6018 82.9186 86.7156 82.9183 86.832C82.9212 86.9826 82.8643 87.1283 82.76 87.237C82.6558 87.3458 82.5126 87.4088 82.362 87.4122Z" fill="#65617D"/>
<path d="M85.25 69.3843H85.1587C85.0392 69.3843 84.9414 69.3691 84.9284 69.2496C84.6633 66.7853 83.1095 66.7375 83.1095 66.1573C83.1095 65.5771 84.6654 65.5293 84.9284 63.065C84.9414 62.9455 85.0392 62.9303 85.1587 62.9303H85.25C85.3163 62.931 85.3803 62.9065 85.4292 62.8617C85.478 62.8169 85.508 62.7551 85.5129 62.689C85.5144 62.6547 85.5089 62.6203 85.4968 62.5881C85.4847 62.5559 85.4663 62.5264 85.4425 62.5014C85.4188 62.4765 85.3903 62.4566 85.3587 62.4429C85.3271 62.4292 85.2931 62.422 85.2587 62.4218H79.4587C79.3928 62.4216 79.3293 62.4463 79.2809 62.4911C79.2325 62.5358 79.2029 62.5973 79.1979 62.663C79.1962 62.6974 79.2014 62.7319 79.2134 62.7643C79.2254 62.7966 79.2438 62.8262 79.2676 62.8512C79.2914 62.8762 79.3201 62.8962 79.3518 62.9097C79.3835 62.9233 79.4177 62.9303 79.4522 62.9303H79.5522C79.6695 62.9303 79.7695 62.9455 79.7825 63.065C80.0476 65.5293 81.6014 65.5771 81.6014 66.1573C81.6014 66.7375 80.0454 66.7853 79.7825 69.2496C79.7695 69.3691 79.6695 69.3843 79.5522 69.3843H79.4587C79.3928 69.3841 79.3293 69.4089 79.2809 69.4537C79.2325 69.4984 79.2029 69.5598 79.1979 69.6255C79.1962 69.66 79.2014 69.6945 79.2134 69.7268C79.2254 69.7592 79.2438 69.7888 79.2676 69.8138C79.2914 69.8388 79.3201 69.8587 79.3518 69.8723C79.3835 69.8859 79.4177 69.8929 79.4522 69.8928H85.2587C85.2932 69.8929 85.3274 69.8859 85.3591 69.8723C85.3908 69.8587 85.4195 69.8388 85.4432 69.8138C85.467 69.7888 85.4855 69.7592 85.4975 69.7268C85.5094 69.6945 85.5147 69.66 85.5129 69.6255C85.5075 69.5596 85.4774 69.4982 85.4286 69.4535C85.3799 69.4088 85.3161 69.3841 85.25 69.3843ZM80.6735 68.765C81.195 67.3155 82.1164 67.4916 82.1164 66.92V65.9117C82.1164 65.5597 81.4493 65.3141 81.0299 64.7426C81.0163 64.7214 81.0086 64.6969 81.0077 64.6717C81.0068 64.6466 81.0126 64.6216 81.0246 64.5994C81.0366 64.5773 81.0542 64.5587 81.0758 64.5457C81.0974 64.5326 81.122 64.5256 81.1472 64.5253H83.5593C83.5849 64.5248 83.6101 64.5313 83.6323 64.544C83.6545 64.5567 83.6728 64.5752 83.6853 64.5975C83.6977 64.6198 83.7039 64.6451 83.7032 64.6706C83.7025 64.6962 83.6948 64.7211 83.681 64.7426C83.2703 65.3163 82.5945 65.5619 82.5945 65.9139V66.9222C82.5945 67.4894 83.4811 67.3351 84.0418 68.7672C84.0939 68.8954 84.0548 69.0562 83.9179 69.0562H80.7995C80.6583 69.0518 80.6257 68.8954 80.6735 68.765Z" fill="#65617D"/>
<path opacity="0.2" d="M164.402 66.1551C164.404 66.7961 164.15 67.4115 163.698 67.8658C163.246 68.3201 162.631 68.5763 161.99 68.578H99.8944C99.5703 68.5877 99.2475 68.5323 98.9452 68.4149C98.6428 68.2976 98.3671 68.1208 98.1344 67.8949C97.9017 67.6691 97.7167 67.3988 97.5903 67.1001C97.464 66.8014 97.3989 66.4804 97.3989 66.1561C97.3989 65.8318 97.464 65.5108 97.5903 65.2122C97.7167 64.9135 97.9017 64.6432 98.1344 64.4174C98.3671 64.1915 98.6428 64.0147 98.9452 63.8973C99.2475 63.78 99.5703 63.7245 99.8944 63.7342H161.99C162.631 63.7365 163.244 63.9926 163.696 64.4463C164.149 64.9001 164.402 65.5145 164.402 66.1551Z" fill="#5A5773"/>
<path opacity="0.2" d="M164.402 88.5749C164.403 88.8925 164.341 89.2072 164.221 89.501C164.1 89.7947 163.922 90.0618 163.699 90.287C163.475 90.5122 163.208 90.6911 162.915 90.8134C162.622 90.9358 162.308 90.9992 161.99 91H99.8944C99.2646 90.9812 98.6669 90.7177 98.2282 90.2656C97.7894 89.8135 97.5439 89.2082 97.5439 88.5782C97.5439 87.9481 97.7894 87.3428 98.2282 86.8907C98.6669 86.4386 99.2646 86.1751 99.8944 86.1562H161.99C162.63 86.1591 163.243 86.4151 163.695 86.8682C164.147 87.3214 164.401 87.9349 164.402 88.5749Z" fill="#5A5773"/>
<path opacity="0.2" d="M164.402 111.181C164.402 111.822 164.148 112.436 163.696 112.889C163.244 113.343 162.631 113.598 161.99 113.6H99.8944C99.5703 113.61 99.2475 113.554 98.9452 113.437C98.6428 113.32 98.3671 113.143 98.1344 112.917C97.9017 112.691 97.7167 112.421 97.5903 112.122C97.464 111.823 97.3989 111.502 97.3989 111.178C97.3989 110.854 97.464 110.533 97.5903 110.234C97.7167 109.935 97.9017 109.665 98.1344 109.439C98.3671 109.213 98.6428 109.037 98.9452 108.919C99.2475 108.802 99.5703 108.747 99.8944 108.756H161.99C162.632 108.759 163.246 109.015 163.698 109.47C164.15 109.925 164.404 110.54 164.402 111.181Z" fill="#5A5773"/>
<path d="M151.94 63.7342V68.578H99.8944C99.5703 68.5877 99.2475 68.5323 98.9452 68.4149C98.6428 68.2976 98.3671 68.1208 98.1344 67.8949C97.9017 67.6691 97.7167 67.3988 97.5903 67.1001C97.464 66.8014 97.3989 66.4804 97.3989 66.1561C97.3989 65.8318 97.464 65.5108 97.5903 65.2122C97.7167 64.9135 97.9017 64.6432 98.1344 64.4174C98.3671 64.1915 98.6428 64.0147 98.9452 63.8973C99.2475 63.78 99.5703 63.7245 99.8944 63.7342H151.94Z" fill="#85B3FF"/>
<path d="M161.175 86.1519V91H99.8944C99.2646 90.9811 98.6669 90.7177 98.2282 90.2656C97.7894 89.8134 97.5439 89.2082 97.5439 88.5781C97.5439 87.9481 97.7894 87.3428 98.2282 86.8906C98.6669 86.4385 99.2646 86.1751 99.8944 86.1562L161.175 86.1519Z" fill="#85B3FF"/>
<path d="M138.467 108.761V113.6H99.8944C99.5703 113.61 99.2475 113.554 98.9452 113.437C98.6428 113.32 98.3671 113.143 98.1344 112.917C97.9017 112.691 97.7167 112.421 97.5903 112.122C97.464 111.823 97.3989 111.502 97.3989 111.178C97.3989 110.854 97.464 110.533 97.5903 110.234C97.7167 109.935 97.9017 109.665 98.1344 109.439C98.3671 109.213 98.6428 109.037 98.9452 108.919C99.2475 108.802 99.5703 108.747 99.8944 108.756L138.467 108.761Z" fill="#85B3FF"/>
<path d="M225.57 102.044C225.69 101.72 224.799 99.9183 224.799 99.8292C224.799 99.7401 223.875 98.7427 223.875 98.1755C223.875 97.6083 222.656 96.4023 222.656 96.4023C222.656 96.4023 221.02 95.7221 220.842 94.2466C220.663 92.771 218.886 92.7406 218.886 92.7406C218.886 92.7406 218.886 92.6059 218.886 92.4016C218.886 91.9409 218.873 91.1238 218.669 90.674C218.457 90.266 218.093 89.9582 217.656 89.8178C217.656 89.8178 217.478 88.6639 217.121 88.3097C216.922 88.1011 216.78 87.8451 216.707 87.566C216.634 87.2869 216.634 86.9939 216.706 86.7147C216.884 86.1562 216.469 84.7372 215.604 84.5416C214.74 84.346 213.762 84.0092 213.762 84.0092C213.762 84.0092 213.664 84.0287 213.523 84.0483L213.403 84.0092C213.197 84.048 212.989 84.0741 212.779 84.0874C212.597 84.0933 212.418 84.0339 212.275 83.9201C211.971 83.5833 209.581 82.9596 209.124 82.9596C208.668 82.9596 207.397 82.3663 207.397 82.3663L206.119 81.3928C205.76 81.119 205.098 80.0107 205.002 79.8499L204.989 79.8282C204.88 79.5759 204.79 79.3158 204.72 79.0502C205.154 78.5946 205.526 78.083 205.826 77.529C205.856 77.4725 205.882 77.4139 205.913 77.3552C205.977 77.355 206.042 77.3447 206.104 77.3248L206.184 77.2943C206.485 77.1348 206.711 76.8642 206.814 76.5403C206.838 76.4751 206.856 76.4099 206.873 76.3447L206.886 76.2795C206.886 76.2339 206.906 76.1883 206.914 76.1448L206.927 76.0687C206.927 76.0231 206.943 75.9796 206.947 75.934C206.951 75.8884 206.947 75.884 206.947 75.8601C206.947 75.8362 206.96 75.7471 206.969 75.6928C206.989 75.4841 207.02 75.2767 207.062 75.0713C207.24 74.2694 207.714 73.5914 208.064 72.8504C208.112 72.7439 208.16 72.6331 208.201 72.5266C208.242 72.4201 208.283 72.2897 208.318 72.168C208.318 72.1311 208.338 72.0942 208.346 72.0572C208.37 71.9681 208.39 71.8812 208.407 71.7899C208.407 71.7508 208.422 71.7117 208.429 71.6726C208.449 71.5509 208.466 71.427 208.477 71.3032C208.537 70.597 208.432 69.8865 208.17 69.2279C207.953 68.6737 207.616 68.1739 207.39 67.6198C207.049 66.7788 206.956 65.827 206.541 65.0273C205.841 63.6843 204.191 63.0107 202.846 63.517C202.194 63.7582 201.64 64.2254 200.984 64.4341C200.115 64.7144 199.163 64.5036 198.255 64.3776C197.346 64.2515 196.338 64.2406 195.608 64.8339C194.765 65.5184 194.534 66.8027 193.743 67.5546C193.411 67.8697 193 68.0718 192.657 68.363C192.41 68.56 192.22 68.8196 192.107 69.1149C192.099 69.1355 192.093 69.1565 192.087 69.1779C192.079 69.2026 192.072 69.2281 192.068 69.2539C192.068 69.2844 192.057 69.3126 192.053 69.343C192.048 69.3735 192.053 69.3843 192.053 69.4039C192.049 69.4567 192.049 69.5097 192.053 69.5625C192.057 69.6123 192.065 69.6616 192.077 69.7103C192.077 69.7255 192.077 69.7385 192.077 69.7516C192.077 69.7646 192.098 69.8342 192.113 69.8755V69.8994C192.129 69.945 192.148 69.9884 192.166 70.0341C192.183 70.0797 192.185 70.0775 192.196 70.1014C192.203 70.1199 192.211 70.1381 192.22 70.1558C192.335 70.3748 192.427 70.6048 192.496 70.8425C192.533 70.9932 192.523 71.1517 192.468 71.2966C192.388 71.4618 192.277 71.6095 192.14 71.7313C191.547 72.3464 191.09 73.0784 190.797 73.8804C190.762 73.9717 190.729 74.063 190.701 74.1564L190.74 74.1673C190.825 74.1934 190.913 74.2122 191.001 74.2238C191.051 74.2238 191.101 74.2368 191.151 74.239C191.354 74.2509 191.558 74.2355 191.757 74.1934L191.909 74.1586C192.115 74.1029 192.317 74.0302 192.511 73.9413C192.511 74.0021 192.511 74.0608 192.511 74.1216C192.511 74.1825 192.511 74.189 192.511 74.2238C192.514 75.5312 192.882 76.8119 193.573 77.9218C194.264 79.0316 195.251 79.9267 196.423 80.5062L196.449 80.6974L196.468 80.8582L196.388 80.7822C196.388 80.7822 195.851 80.5149 195.347 81.2841C194.975 81.786 194.47 82.1743 193.889 82.4054C193.889 82.4054 188.476 83.2616 188.267 83.9722L185.74 84.12C185.74 84.12 184.847 84.2373 184.758 86.0975C184.668 87.9577 184.193 88.1359 184.193 88.1359C184.193 88.1359 183.152 89.9678 183.241 90.9131C183.33 91.8583 182.417 92.3256 182.417 92.3256L182.298 94.0097C182.298 94.0097 181.315 93.8619 181.048 95.0137C180.781 96.1654 180.305 96.6978 180.305 96.6978C180.305 96.6978 178.669 98.056 178.58 99.2077L177.569 99.8292C177.569 99.8292 175.218 99.2968 174.683 98.3515L174.518 98.1972C174.513 98.1905 174.509 98.1832 174.505 98.1755C174.153 97.8452 173.408 97.1498 173.521 97.3063C173.59 97.4548 173.607 97.6227 173.568 97.7822L173.395 97.5866L172.927 97.0846C172.927 97.0846 169.431 93.0666 167.206 92.7841C166.97 92.8457 166.753 92.9674 166.578 93.1372C166.403 93.307 166.275 93.5192 166.206 93.7533C165.923 94.7138 165.628 96.3045 166.362 97.0868L169.878 100.844L169.97 100.911L170.735 101.894C170.606 102.202 170.498 102.502 170.407 102.774V102.8C170.387 102.858 170.37 102.917 170.352 102.971L170.333 103.03C170.315 103.087 170.3 103.141 170.283 103.193C170.265 103.245 170.265 103.258 170.254 103.291C170.244 103.324 170.254 103.328 170.239 103.347C170.154 103.643 170.102 103.871 170.074 103.999L169.876 103.939L170.07 104.021C170.069 104.031 170.069 104.041 170.07 104.052C170.064 104.072 170.06 104.093 170.057 104.115C170.115 104.141 170.176 104.169 170.239 104.193C171.28 104.647 176.48 106.929 176.758 107.274C177.056 107.659 179.021 108.78 180.805 107.835C182.589 106.89 182.978 105.444 182.978 105.444C182.978 105.444 184.703 103.054 184.762 102.698C184.821 102.341 186.159 101.931 186.159 101.931C186.159 101.931 186.279 105.888 185.594 107.335C184.91 108.782 183.638 115.193 183.638 115.193C183.722 115.176 183.808 115.171 183.893 115.178L183.817 115.547C183.921 115.528 184.028 115.528 184.132 115.547C184.036 116.275 183.48 119.659 183.48 119.659C183.48 119.659 183.299 121.195 183.004 121.727C182.708 122.26 182.676 125.035 182.676 125.035L182.2 127.043C182.2 127.043 182.263 127.182 182.38 127.39C182.38 127.39 182.891 128.523 183.751 129.159C183.712 129.474 183.63 129.783 183.51 130.076C183.325 130.525 183.244 131.011 183.273 131.495C183.273 131.495 182.767 133.768 182.828 134.42C182.889 135.072 182.5 136.665 182.5 136.665L181.965 141.804C181.965 141.804 181.609 146.264 181.787 147.476C181.965 148.689 181.667 150.34 181.667 150.34C181.667 150.34 182.024 153.856 181.935 154.239C181.846 154.621 181.4 156.277 181.667 157.192C181.935 158.107 181.787 160.619 181.787 160.619C181.787 160.619 181.965 163.929 182.172 164.991C182.378 166.054 182.113 167.414 182.113 167.414C182.113 167.414 181.896 169.687 181.815 169.687C181.735 169.687 180.946 171.252 182.528 172.788C184.11 174.325 183.126 174.092 183.126 174.092C183.126 174.092 181.876 173.473 182.024 174.744C182.165 175.954 182.361 175.637 182.378 175.613L182.083 176.585L182.3 176.613C182.243 176.68 182.187 176.75 182.126 176.83C181.946 177.056 181.746 177.265 181.528 177.454C181.17 177.719 181.139 178.308 181.139 178.308C181.139 178.308 178.94 180.698 176.887 181.911C175.8 182.55 174.877 183.089 174.47 183.536C174.103 183.936 174.164 184.26 174.924 184.512C176.53 185.044 179.355 185.31 181.378 184.632C182.584 184.228 183.669 183.527 184.532 182.593C184.532 182.593 185.809 181.941 187.059 182.178C188.308 182.415 190.807 180.79 190.807 180.79L190.762 180.372L190.629 179.164C190.544 179.063 190.481 178.945 190.443 178.819C190.406 178.692 190.395 178.559 190.412 178.427C190.428 178.07 190.392 177.712 190.308 177.365C190.286 177.247 190.264 177.132 190.242 177.021L190.471 176.98C190.471 176.98 190.173 175.474 190.71 175.176C191.246 174.879 191.094 171.013 191.094 171.013C191.094 171.013 190.412 170.126 190.053 169.978C189.695 169.831 190.023 167.999 190.084 167.764C190.145 167.529 190.594 162.929 190.594 162.929C190.594 162.929 190.416 161.484 190.653 160.862C190.89 160.241 190.355 157.85 190.355 157.85C190.355 157.85 190.177 157.555 190.505 157.199C190.834 156.842 190.712 153.685 190.712 153.685C190.712 153.685 190.684 152.09 190.684 151.675C190.684 151.26 191.04 149.756 191.366 149.254C191.692 148.752 191.485 147.187 191.485 147.187L191.503 147.068C191.503 147.024 191.52 146.968 191.531 146.903L191.557 146.744C191.701 145.879 191.895 145.022 192.137 144.18C192.524 142.939 192.97 140.755 192.97 140.755L195.738 133.527L195.769 133.442C195.769 133.442 197.046 135.805 197.046 137.993C197.046 137.993 197.375 140.62 197.285 141.329C197.196 142.037 197.555 145.375 197.555 145.375C197.555 145.375 197.94 150.156 197.94 150.373C197.94 150.59 198.415 154.271 198.713 154.832C199.011 155.393 198.415 157.107 198.237 157.283C198.059 157.459 198.296 161.803 198.296 161.803C198.296 161.803 197.85 165.228 197.761 165.932C197.672 166.636 197.316 169.359 197.614 170.422C197.911 171.484 197.792 171.632 197.792 171.632C197.792 171.632 198.863 172.719 198.226 172.814C197.999 172.864 197.784 172.962 197.597 173.102C197.411 173.241 197.256 173.419 197.143 173.623C197.03 173.827 196.962 174.052 196.944 174.285C196.925 174.517 196.957 174.751 197.036 174.97C197.406 176.049 197.841 177.105 198.339 178.132L198.833 178.028V178.38L198.867 180.14C198.867 180.14 199.085 181.824 198.959 182.209C198.837 182.969 198.756 183.736 198.715 184.506C198.694 184.758 198.681 184.927 198.681 184.927C198.681 184.927 198.681 186.492 201.984 186.014C205.287 185.536 205.886 184.247 205.886 184.247C205.886 184.247 205.886 184.186 205.913 184.084C205.96 183.786 206.067 183.152 206.156 182.8C206.275 182.326 205.204 180.192 205.204 180.192C205.204 180.192 205.026 178.745 204.728 178.419C204.603 178.233 204.522 178.021 204.489 177.799C204.461 177.68 204.437 177.556 204.417 177.434C204.496 177.446 204.568 177.459 204.635 177.473C204.635 177.473 204.454 176.441 205.141 176.115C205.828 175.789 205.645 175.111 205.556 174.811C205.467 174.512 205.823 172.856 205.823 172.856C205.776 172.691 205.773 172.517 205.815 172.351C205.857 172.184 205.942 172.032 206.062 171.91C206.48 171.497 206.806 168.603 206.806 168.603L206.864 157.438C206.864 157.438 207.082 155.458 206.836 154.66C206.591 153.863 206.36 152.329 206.686 151.914C207.012 151.499 206.717 149.58 206.717 149.58C206.717 149.58 206.717 145.533 207.162 144.53C207.608 143.526 207.46 137.176 207.46 137.176L207.579 133.01C207.579 133.01 208.551 132.091 208.32 127.297C209.357 127.232 210.526 127.195 210.711 127.338C211.039 127.603 213.149 128.964 214.405 128.105C214.672 127.988 215.891 126.954 215.891 126.954L215.368 118.098C215.694 118.592 215.894 118.92 215.894 118.92C215.894 117.679 219.403 113.663 219.403 113.663C219.403 113.663 222.674 109.439 223.388 108.937C224.103 108.435 225.499 105.775 225.499 105.775C225.705 105.268 225.944 104.775 226.214 104.299C226.531 103.786 225.444 102.37 225.57 102.044ZM217.897 105.145C217.006 105.234 215.131 107.272 215.103 107.715C215.036 108.008 214.901 108.28 214.707 108.508C214.692 108.33 214.677 108.15 214.664 107.965C214.446 105.358 214.229 102.174 214.329 101.865C214.507 101.335 214.446 98.9426 214.446 98.9426L214.479 98.897C215.079 100.751 216.941 102.937 216.941 102.937C216.941 102.937 217.269 103.882 217.656 103.91C218.043 103.939 217.897 105.145 217.897 105.145Z" fill="url(#paint0_linear)"/>
<path d="M170.209 104.473C170.209 104.473 171.295 98.7862 174.772 98.7579L177.321 104.004L175.622 105.177C175.622 105.177 171.939 105.292 170.209 104.473Z" fill="#65617D"/>
<path opacity="0.1" d="M177.332 104.001L175.631 105.175C175.631 105.175 173.023 105.258 171.176 104.799C170.843 104.723 170.519 104.613 170.209 104.471C170.209 104.471 170.209 104.438 170.228 104.38C170.228 104.372 170.228 104.365 170.228 104.358C170.386 103.645 170.604 102.946 170.88 102.27C170.987 102.013 171.098 101.75 171.241 101.487C171.752 100.505 172.469 99.5315 173.451 99.0642C173.814 98.8859 174.21 98.7824 174.614 98.76H174.718H174.77L174.824 98.8752L175.694 100.648L177.332 104.001Z" fill="black"/>
<path d="M206.295 127.629C206.295 127.629 209.959 127.277 210.28 127.54C210.602 127.803 212.684 129.153 213.916 128.303C215.148 127.453 214.327 124.492 214.327 124.374C214.327 124.257 214.209 120.065 214.209 120.065L212.01 117.105L209.255 111.916L203.626 111.36L203.772 119.596L203.744 123.814L206.295 127.629Z" fill="#65617D"/>
<path opacity="0.1" d="M206.295 127.629C206.295 127.629 209.959 127.277 210.28 127.54C210.602 127.803 212.684 129.153 213.916 128.303C215.148 127.453 214.327 124.492 214.327 124.374C214.327 124.257 214.209 120.065 214.209 120.065L212.01 117.105L209.255 111.916L203.626 111.36L203.772 119.596L203.744 123.814L206.295 127.629Z" fill="black"/>
<path d="M174.049 98.6058C174.049 98.6058 173.757 102.183 171.528 102.241C171.528 102.241 170.898 101.861 170.048 101.227C168.092 99.7597 164.985 96.9455 165.843 94.3248C167.073 90.5741 173.053 97.491 173.053 97.491L173.514 98.006L174.049 98.6058Z" fill="#FBBEBE"/>
<path opacity="0.1" d="M174.049 98.6058C174.049 98.6058 173.757 102.183 171.528 102.241C171.528 102.241 170.898 101.861 170.048 101.227L169.857 100.981C170.235 101.179 170.652 101.291 171.078 101.309C171.414 101.325 171.747 101.237 172.032 101.058C172.317 100.878 172.54 100.615 172.671 100.305C172.906 99.8461 173.113 99.3729 173.29 98.8883C173.395 98.6038 173.468 98.3086 173.508 98.0082L174.049 98.6058Z" fill="black"/>
<path d="M173.073 105.086L172.571 104.434L170.885 102.261L170.015 101.15C170.393 101.349 170.81 101.461 171.237 101.479C171.573 101.494 171.906 101.406 172.191 101.227C172.475 101.047 172.698 100.785 172.83 100.475C173.064 100.015 173.271 99.5409 173.447 99.0555C173.725 98.2645 173.721 97.8582 173.621 97.7213C173.521 97.5844 174.244 98.2515 174.59 98.5796L174.603 98.5927L174.766 98.747L174.824 98.8665L175.674 100.564C175.674 100.564 175.674 100.588 175.674 100.635C175.765 101.181 176.052 104.601 173.073 105.086Z" fill="#E7EFFD"/>
<path d="M190.642 180.531C190.642 180.531 188.178 182.143 186.948 181.907C185.718 181.67 184.456 182.319 184.456 182.319C183.608 183.246 182.538 183.942 181.348 184.343C179.355 185.016 176.567 184.751 174.987 184.223C174.238 183.973 174.179 183.652 174.54 183.254C174.94 182.819 175.859 182.276 176.93 181.644C178.94 180.451 181.113 178.078 181.113 178.078C181.113 178.078 181.144 177.491 181.496 177.228C181.71 177.04 181.908 176.833 182.087 176.611C182.402 176.237 182.698 175.848 182.698 175.848L189.938 176.085C189.938 176.085 190.06 176.606 190.156 177.139C190.239 177.484 190.273 177.84 190.258 178.195C190.24 178.325 190.249 178.457 190.284 178.583C190.32 178.709 190.381 178.826 190.464 178.927L190.592 180.125L190.642 180.531Z" fill="#65617D"/>
<path d="M205.795 182.563C205.708 182.913 205.604 183.541 205.556 183.836C205.541 183.936 205.532 183.999 205.532 183.999C205.532 183.999 204.946 185.288 201.692 185.757C198.439 186.227 198.433 184.671 198.433 184.671C198.433 184.671 198.446 184.503 198.468 184.251C198.516 183.488 198.603 182.728 198.728 181.974C198.843 181.591 198.639 179.92 198.639 179.92L198.604 178.182L198.581 176.967L203.979 176.402C204.012 176.806 204.07 177.207 204.152 177.604C204.187 177.823 204.267 178.032 204.387 178.219C204.683 178.543 204.859 179.977 204.859 179.977C204.859 179.977 205.913 182.091 205.795 182.563Z" fill="#65617D"/>
<path opacity="0.1" d="M189.938 176.085C189.938 176.085 190.06 176.606 190.156 177.139C189.373 177.284 185.953 177.876 185.099 177.46C184.132 176.991 182.056 176.728 182.056 176.728L182.091 176.611C182.406 176.237 182.702 175.848 182.702 175.848L189.938 176.085Z" fill="black"/>
<path opacity="0.1" d="M204.148 177.608C202.781 177.376 199.784 177.936 198.604 178.178L198.581 176.963L203.978 176.402C204.01 176.807 204.067 177.21 204.148 177.608Z" fill="black"/>
<path d="M207.201 133.169L207.086 137.297C207.086 137.297 207.232 143.599 206.793 144.597C206.354 145.594 206.358 149.61 206.358 149.61C206.358 149.61 206.651 151.514 206.328 151.924C206.004 152.335 206.238 153.858 206.475 154.649C206.712 155.44 206.504 157.407 206.504 157.407L206.445 168.49C206.445 168.49 206.123 171.36 205.713 171.773C205.594 171.894 205.509 172.044 205.467 172.208C205.425 172.372 205.427 172.545 205.474 172.708C205.474 172.708 205.121 174.348 205.208 174.642C205.295 174.935 205.474 175.611 204.8 175.933C204.126 176.254 204.3 177.28 204.3 177.28C202.69 176.9 198.115 177.932 198.115 177.932C197.622 176.914 197.191 175.867 196.825 174.796C196.746 174.579 196.714 174.348 196.732 174.117C196.75 173.887 196.816 173.663 196.927 173.461C197.038 173.258 197.191 173.081 197.376 172.943C197.561 172.804 197.773 172.706 197.998 172.656C198.613 172.569 197.564 171.484 197.564 171.484C197.564 171.484 197.681 171.337 197.387 170.283C197.094 169.229 197.446 166.53 197.533 165.826C197.62 165.122 198.063 161.721 198.063 161.721C198.063 161.721 197.829 157.411 198.005 157.235C198.181 157.059 198.767 155.358 198.474 154.802C198.181 154.245 197.711 150.581 197.711 150.375C197.711 150.169 197.331 145.42 197.331 145.42C197.331 145.42 196.977 142.109 197.062 141.415C197.146 140.722 196.825 138.101 196.825 138.101C196.825 135.928 195.566 133.588 195.566 133.588L195.534 133.673L192.809 140.829C192.809 140.829 192.374 143.002 191.99 144.227C191.749 145.064 191.557 145.915 191.416 146.774L191.39 146.931C191.39 146.996 191.37 147.052 191.364 147.096L191.346 147.213C191.346 147.213 191.551 148.767 191.229 149.267C190.907 149.767 190.555 151.259 190.555 151.67C190.555 152.081 190.584 153.663 190.584 153.663C190.584 153.663 190.701 156.799 190.379 157.14C190.286 157.217 190.221 157.323 190.194 157.441C190.168 157.559 190.181 157.682 190.232 157.792C190.232 157.792 190.76 160.167 190.525 160.782C190.29 161.397 190.468 162.833 190.468 162.833C190.468 162.833 189.999 167.377 189.94 167.614C189.882 167.851 189.558 169.665 189.91 169.813C190.262 169.961 190.936 170.839 190.936 170.839C190.936 170.839 191.083 174.679 190.555 174.968C190.027 175.257 190.321 176.756 190.321 176.756C190.321 176.756 186.07 177.578 185.105 177.108C184.14 176.639 182.063 176.374 182.063 176.374L182.354 175.409C182.337 175.444 182.137 175.757 182.004 174.557C181.859 173.297 183.091 173.905 183.091 173.905C183.091 173.905 184.058 174.14 182.504 172.616C180.95 171.093 181.713 169.537 181.8 169.537C181.887 169.537 182.093 167.282 182.093 167.282C182.093 167.282 182.358 165.932 182.152 164.876C181.946 163.82 181.765 160.539 181.765 160.539C181.765 160.539 181.911 158.048 181.648 157.138C181.385 156.227 181.824 154.589 181.911 154.206C181.998 153.824 181.648 150.336 181.648 150.336C181.648 150.336 181.941 148.695 181.765 147.496C181.589 146.296 181.941 141.867 181.941 141.867L182.469 136.765C182.469 136.765 182.85 135.183 182.791 134.538C182.732 133.892 183.226 131.637 183.226 131.637C183.197 131.155 183.278 130.674 183.46 130.228C183.754 129.644 183.873 127.708 183.873 127.708L186.685 121.258L188.067 115.582L206.682 115.406C206.682 115.406 206.749 115.897 206.862 116.794C206.975 117.692 207.134 119.017 207.31 120.656C207.473 122.142 207.651 123.894 207.825 125.841C208.375 132.054 207.201 133.169 207.201 133.169Z" fill="#3F3D56"/>
<path d="M205.474 81.8405L201.127 86.4735C201.127 86.4735 195.56 84.2439 196.145 83.4833C196.362 83.1878 196.336 82.2577 196.205 81.2298C195.988 79.6065 195.553 77.7377 195.553 77.7377C195.553 77.7377 205.285 76.1535 204.463 77.7942C204.163 78.394 204.215 79.098 204.402 79.75C204.644 80.5 205.006 81.206 205.474 81.8405Z" fill="#FBBEBE"/>
<path opacity="0.1" d="M204.476 77.7941C204.176 78.3939 204.042 78.446 204.22 79.0979C202.949 80.4626 201.33 81.9555 199.317 81.9555C198.239 81.9559 197.176 81.7044 196.212 81.221C195.995 79.5977 195.56 77.7289 195.56 77.7289C195.56 77.7289 205.298 76.1534 204.476 77.7941Z" fill="black"/>
<path d="M206.295 74.804C206.295 76.6546 205.56 78.4294 204.251 79.738C202.943 81.0466 201.168 81.7818 199.317 81.7818C197.467 81.7818 195.692 81.0466 194.383 79.738C193.075 78.4294 192.34 76.6546 192.34 74.804C192.34 74.7714 192.34 74.7388 192.34 74.704C192.382 72.8734 193.143 71.1329 194.457 69.858C195.771 68.583 197.534 67.8759 199.365 67.889C201.196 67.9021 202.949 68.6345 204.245 69.9281C205.541 71.2217 206.276 72.973 206.293 74.804H206.295Z" fill="#FBBEBE"/>
<path opacity="0.1" d="M207.303 120.832C206.38 120.832 203.303 120.865 199.865 120.919H199.821L198.687 120.939H198.65C194.571 121.004 190.553 120.206 188.941 120.358C185.512 120.68 190.171 117.192 190.171 117.192C192.73 117.813 195.362 118.079 197.994 117.981L198.98 117.931C202.097 117.755 205.228 117.462 206.864 116.97C206.973 117.877 207.127 119.194 207.303 120.832Z" fill="black"/>
<path d="M207.303 120.656C206.38 120.656 203.303 120.689 199.865 120.743H199.821L198.687 120.763H198.65C194.571 120.828 190.553 120.03 188.941 120.182C185.512 120.504 190.171 117.016 190.171 117.016C192.73 117.638 195.362 117.904 197.994 117.807L198.98 117.755C202.097 117.579 205.228 117.286 206.864 116.795C206.973 117.701 207.127 119.018 207.303 120.656Z" fill="#E3A79F"/>
<path opacity="0.1" d="M197.442 83.7766L192.048 86.2974L187.885 118.483C187.885 118.483 190.347 117.368 191.755 118.072C193.163 118.776 197.501 118.131 197.501 118.131C197.501 118.131 200.667 117.955 201.134 118.307C201.601 118.659 207.114 116.84 207.114 116.84C207.114 116.84 208.112 114.613 207.349 114.261C206.586 113.909 207.584 110.451 207.584 110.451L207.114 87.234L206.178 84.2438L203.657 82.7227L201.075 84.774L199.845 84.9501L197.442 83.7766Z" fill="black"/>
<path d="M197.442 83.4247L192.048 85.9454L187.885 118.131C187.885 118.131 190.347 117.016 191.761 117.729C193.176 118.442 197.507 117.788 197.507 117.788C197.507 117.788 200.673 117.612 201.14 117.964C201.608 118.316 207.121 116.499 207.121 116.499C207.121 116.499 208.118 114.269 207.355 113.919C206.593 113.57 207.59 110.108 207.59 110.108L207.121 86.8907L206.184 83.9006L203.663 82.3794L201.082 84.4308L199.852 84.6068L197.442 83.4247Z" fill="#E7EFFD"/>
<path opacity="0.1" d="M197.353 84.9153C197.353 84.9153 198.907 86.7602 198.874 87.1427C198.841 87.5252 198.785 88.4313 198.785 88.4313L197.629 90.8109C197.629 90.8109 196.977 93.7706 196.977 94.3877C196.977 95.0049 195.947 100.344 195.947 100.344L194.715 108.552L193.161 119.311L194.745 122.036L196.62 120.454L199.113 101.283L199.639 97.5018C199.639 97.5018 200.197 90.7 200.197 89.9959C200.197 89.2919 199.874 87.4469 199.874 87.4469C199.874 87.4469 200.256 85.6867 201.829 85.2738C203.403 84.861 201.712 85.1869 201.712 85.1869L200.804 84.4546L200.019 84.7719C200.019 84.7719 197.822 84.0982 197.353 84.9153Z" fill="black"/>
<path d="M197.177 84.7436C197.177 84.7436 198.73 86.5886 198.698 86.971C198.665 87.3535 198.609 88.2597 198.609 88.2597L197.438 90.6349C197.438 90.6349 196.786 93.5946 196.786 94.2118C196.786 94.8289 195.76 100.162 195.76 100.162L194.528 108.369L192.974 119.128L194.569 121.858L196.444 120.276L198.933 101.1L199.461 97.3193C199.461 97.3193 200.017 90.5175 200.017 89.8134C200.017 89.1094 199.693 87.2644 199.693 87.2644C199.693 87.2644 200.076 85.5042 201.649 85.0913C203.222 84.6784 201.532 85.0022 201.532 85.0022L200.623 84.2699L199.832 84.5915C199.832 84.5915 197.646 83.9222 197.177 84.7436Z" fill="#3F3D56"/>
<path opacity="0.1" d="M196.151 81.6558C196.151 81.6558 195.916 81.8318 195.858 83.0052C195.799 84.1787 194.988 86.8147 194.988 86.8147C194.988 86.8147 198.031 84.7046 199.552 84.9393L196.151 81.6558Z" fill="black"/>
<path d="M196.151 81.3124C196.151 81.3124 195.916 81.4884 195.858 82.6619C195.799 83.8353 194.988 86.4734 194.988 86.4734C194.988 86.4734 198.031 84.3612 199.552 84.5959L196.151 81.3124Z" fill="#E7EFFD"/>
<path opacity="0.1" d="M204.476 80.7278L199.669 84.9479C199.669 84.9479 203.716 87.3513 204.233 87.9381C204.75 88.5248 205.289 82.1924 205.289 82.1924L204.476 80.7278Z" fill="black"/>
<path d="M204.652 80.3757L199.845 84.5958C199.845 84.5958 203.889 86.9993 204.409 87.586C204.928 88.1727 205.465 81.8404 205.465 81.8404L204.652 80.3757Z" fill="#E7EFFD"/>
<path opacity="0.1" d="M196.325 81.6557C196.325 81.6557 195.797 81.3928 195.299 82.1555C194.933 82.6529 194.436 83.0382 193.863 83.2682C193.863 83.2682 188.528 84.1178 188.324 84.8219L185.831 84.9697C185.831 84.9697 184.951 85.087 184.864 86.9255C184.777 88.7639 184.308 88.9486 184.308 88.9486C184.308 88.9486 183.286 90.7827 183.371 91.7193C183.456 92.6559 182.58 93.1274 182.58 93.1274L186.244 102.654C186.244 102.654 186.361 106.581 185.688 108.017C185.014 109.454 183.751 115.814 183.751 115.814C183.751 115.814 184.279 115.697 184.251 116.049C184.223 116.401 183.599 120.241 183.599 120.241C183.599 120.241 183.423 121.762 183.13 122.292C182.837 122.823 182.808 125.576 182.808 125.576L182.339 127.571C182.339 127.571 183.452 130.061 185.164 129.709C186.876 129.357 189.945 122.703 189.945 122.703L191.9 115.532L193.422 108.439L193.856 103.632L194.56 92.984L195.586 85.9497C195.586 85.9497 196.738 82.1642 196.325 81.6557Z" fill="black"/>
<path d="M196.151 81.3123C196.151 81.3123 195.623 81.0494 195.125 81.8122C194.759 82.3095 194.262 82.6949 193.689 82.9248C193.689 82.9248 188.354 83.7766 188.15 84.4785L185.657 84.6263C185.657 84.6263 184.788 84.7436 184.69 86.5821C184.592 88.4205 184.134 88.6096 184.134 88.6096C184.134 88.6096 183.108 90.4284 183.195 91.365C183.282 92.3016 182.404 92.7732 182.404 92.7732L186.068 102.3C186.068 102.3 186.185 106.227 185.512 107.663C184.838 109.1 183.575 115.46 183.575 115.46C183.575 115.46 184.103 115.345 184.075 115.695C184.047 116.045 183.423 119.887 183.423 119.887C183.423 119.887 183.247 121.408 182.954 121.94C182.661 122.473 182.632 125.222 182.632 125.222L182.163 127.217C182.163 127.217 183.276 129.707 184.977 129.355C186.679 129.003 189.758 122.349 189.758 122.349L191.714 115.178L193.235 108.083L193.669 103.276L194.373 92.6276L195.399 85.5933C195.399 85.5933 196.562 81.8122 196.151 81.3123Z" fill="#65617D"/>
<path opacity="0.1" d="M177.332 104.002L175.631 105.175C175.631 105.175 173.023 105.258 171.176 104.799L170.228 104.38L170.039 104.297L170.235 104.358C171.213 104.649 171.973 104.643 172.58 104.44C174.985 103.632 174.72 99.6597 174.627 98.76C174.627 98.671 174.611 98.6123 174.607 98.5884C174.611 98.5961 174.615 98.6034 174.62 98.6101C174.653 98.6643 174.69 98.7158 174.731 98.7644C174.764 98.8035 174.8 98.8426 174.837 98.8796L175.687 100.577C175.687 100.577 175.687 100.601 175.687 100.648L177.332 104.002Z" fill="black"/>
<path d="M183.223 92.5406L182.404 92.7753L182.287 94.4464C182.287 94.4464 181.32 94.2987 181.055 95.4417C180.79 96.5848 180.322 97.1128 180.322 97.1128C180.322 97.1128 178.71 98.4623 178.623 99.6053L177.636 100.22C177.636 100.22 175.32 99.6923 174.794 98.7557C174.794 98.7557 175.848 106.318 170.231 104.471C170.231 104.471 176.532 107.226 176.826 107.607C177.119 107.987 179.053 109.102 180.813 108.165C182.574 107.229 182.954 105.79 182.954 105.79C182.954 105.79 184.653 103.415 184.712 103.063C184.771 102.711 186.09 102.302 186.09 102.302L188.589 96.2153L183.223 92.5406Z" fill="#65617D"/>
<path opacity="0.1" d="M203.802 84.2438L204.652 80.3757C204.652 80.3757 205.035 81.6361 205.415 81.9295L206.675 82.8965C206.675 82.8965 207.936 83.4832 208.375 83.4832C208.814 83.4832 211.189 84.0982 211.482 84.4198C211.776 84.7415 212.949 84.5089 212.949 84.5089C212.949 84.5089 213.916 84.8306 214.766 85.037C215.615 85.2434 216.026 86.6472 215.852 87.2101C215.781 87.487 215.782 87.7774 215.853 88.0541C215.925 88.3308 216.066 88.5847 216.263 88.7921C216.615 89.1441 216.791 90.2872 216.791 90.2872C217.221 90.4287 217.579 90.7339 217.786 91.1368C218.08 91.7888 218.004 93.1904 218.004 93.1904L213.636 99.3446C213.636 99.3446 213.694 101.72 213.518 102.248C213.342 102.776 214.133 111.744 214.133 111.744L215.042 127.173C215.042 127.173 213.84 128.199 213.577 128.316C213.314 128.433 213.049 122.864 213.049 122.666C213.049 122.468 206.265 112.513 206.265 112.513C206.265 112.513 205.356 111.049 205.356 110.725C205.356 110.401 204.507 107.441 204.507 107.441L203.216 101.726L203.802 84.2438Z" fill="black"/>
<path d="M218.353 92.8492C218.353 93.0513 218.353 93.1839 218.353 93.1839L213.988 99.3359C213.988 99.3359 214.046 101.711 213.87 102.239C213.768 102.543 213.992 105.699 214.199 108.291C214.346 110.16 214.485 111.735 214.485 111.735L214.872 118.276L215.394 127.156C215.394 127.156 214.192 128.181 213.929 128.299C213.666 128.416 213.401 122.846 213.401 122.649C213.401 122.451 206.617 112.513 206.617 112.513C206.617 112.513 205.708 111.047 205.708 110.725C205.708 110.403 204.859 107.441 204.859 107.441L203.568 101.726L204.155 84.2547L204.652 80.3866C204.652 80.3866 205.385 81.647 205.767 81.9382C206.149 82.2294 207.027 82.9074 207.027 82.9074C207.027 82.9074 208.288 83.4941 208.727 83.4941C209.166 83.4941 211.541 84.1091 211.834 84.4307C212.128 84.7523 213.301 84.5198 213.301 84.5198C213.301 84.5198 214.268 84.8414 215.118 85.0479C215.967 85.2543 216.378 86.6603 216.204 87.2209C216.133 87.4982 216.133 87.789 216.205 88.066C216.277 88.3431 216.418 88.5974 216.615 88.8051C216.965 89.1572 217.141 90.3002 217.141 90.3002C217.573 90.4418 217.931 90.7479 218.138 91.152C218.34 91.578 218.36 92.3907 218.353 92.8492Z" fill="#65617D"/>
<path opacity="0.1" d="M182.522 170.954C182.667 170.954 188.823 171.189 188.706 172.184C188.589 173.179 182.522 170.954 182.522 170.954Z" fill="black"/>
<path opacity="0.1" d="M183.899 172.625C183.899 172.625 188.028 173.299 186.942 173.914C185.855 174.529 183.899 172.625 183.899 172.625Z" fill="black"/>
<path opacity="0.1" d="M199.259 170.317C199.259 170.317 206.119 170.904 205.093 171.665C204.068 172.425 201.634 172.545 201.516 172.575C201.399 172.606 199.259 170.317 199.259 170.317Z" fill="black"/>
<path opacity="0.1" d="M198.437 173.327C198.437 173.327 202.249 173.979 202.366 174.705C202.483 175.431 198.437 173.327 198.437 173.327Z" fill="black"/>
<path opacity="0.1" d="M200.549 155.682C200.549 155.682 204.026 156.503 204.244 157.059L200.549 155.682Z" fill="black"/>
<path opacity="0.1" d="M187.094 158.203C187.094 158.203 185.277 158.731 187.035 159.785C188.793 160.839 187.094 158.203 187.094 158.203Z" fill="black"/>
<path opacity="0.1" d="M195.156 130.033C195.36 130.033 198.554 128.977 199.669 129.446C200.467 129.744 201.31 129.903 202.162 129.916L195.156 130.033Z" fill="black"/>
<path opacity="0.1" d="M195.566 133.375L195.534 133.666L192.809 140.822C192.809 140.822 192.374 142.995 191.99 144.221C191.749 145.058 191.557 145.908 191.416 146.768L193.835 131.773L195.566 133.375Z" fill="black"/>
<path d="M199.821 120.743L198.687 120.763H198.65L197.985 117.807L198.972 117.755L199.821 120.743Z" fill="#3F3D56"/>
<path d="M213.651 117.164L212.923 117.766L210.487 119.772C210.487 119.772 203.889 123.29 202.073 119.948C200.471 117.003 207.94 114.902 209.75 114.443L210.135 114.35L213.651 117.164Z" fill="#FBBEBE"/>
<path opacity="0.1" d="M185.481 88.3488C185.481 88.3488 186.772 88.9355 187.065 89.7547C187.359 90.574 185.481 88.3488 185.481 88.3488Z" fill="black"/>
<path opacity="0.1" d="M181.496 97.1432C181.496 97.1432 179.618 99.4293 180.381 100.307C181.144 101.185 181.496 97.1432 181.496 97.1432Z" fill="black"/>
<path opacity="0.1" d="M215.029 89.6375C215.029 89.6375 213.271 89.8135 213.212 91.339L215.029 89.6375Z" fill="black"/>
<path opacity="0.1" d="M198.73 113.676C198.907 113.5 202.953 107.52 203.889 108.048L198.73 113.676Z" fill="black"/>
<path opacity="0.1" d="M206.295 74.804C206.296 75.9535 206.013 77.0854 205.469 78.0984H205.417C204.982 78.005 204.746 77.49 204.407 77.1662C204.198 76.9696 203.934 76.8429 203.65 76.804C203.367 76.765 203.078 76.8157 202.825 76.9489C202.568 77.1024 202.359 77.3244 202.222 77.5901C202.084 77.8557 202.024 78.1544 202.047 78.4526C201.829 77.5139 201.895 76.5164 201.675 75.5755C201.456 74.6345 200.806 73.6827 199.904 73.6675C199.517 73.6675 199.065 73.8109 198.785 73.5197C198.615 73.3459 198.581 73.0699 198.455 72.857C197.803 71.8182 195.858 72.3441 195.06 72.8765C194.263 73.4089 193.335 74.2608 192.342 74.7171C192.384 72.8865 193.145 71.146 194.459 69.871C195.774 68.5961 197.536 67.8889 199.368 67.902C201.199 67.9152 202.951 68.6475 204.247 69.9412C205.543 71.2348 206.279 72.986 206.295 74.8171V74.804Z" fill="black"/>
<path d="M198.455 72.6679C198.581 72.8852 198.615 73.1568 198.785 73.3307C199.063 73.6219 199.515 73.4719 199.904 73.4784C200.801 73.4936 201.458 74.4455 201.675 75.3864C201.892 76.3273 201.823 77.3248 202.047 78.2657C202.023 77.9675 202.084 77.6686 202.221 77.4028C202.359 77.1371 202.568 76.9151 202.825 76.762C203.078 76.6294 203.367 76.5791 203.65 76.618C203.934 76.657 204.198 76.7832 204.407 76.9793C204.746 77.3031 204.976 77.8181 205.417 77.9094C205.858 78.0006 206.286 77.579 206.445 77.114C206.604 76.649 206.595 76.1361 206.699 75.6537C206.897 74.7388 207.495 73.9891 207.825 73.1199C208.218 72.0617 208.207 70.8957 207.794 69.845C207.577 69.2953 207.247 68.7998 207.025 68.25C206.688 67.4134 206.591 66.4702 206.189 65.6749C205.5 64.3428 203.872 63.6757 202.538 64.1776C201.899 64.4167 201.347 64.8795 200.699 65.0882C199.83 65.3663 198.907 65.1577 198.011 65.0317C197.116 64.9056 196.123 64.8948 195.404 65.4858C194.573 66.1638 194.347 67.4416 193.567 68.1848C193.239 68.4977 192.833 68.6977 192.481 68.9867C192.129 69.2757 191.829 69.7081 191.879 70.1775C191.929 70.7838 192.531 71.3358 192.313 71.8986C192.235 72.0638 192.124 72.2116 191.987 72.3332C191.334 73.0176 190.849 73.844 190.568 74.7475C192.137 75.2386 193.828 73.5089 195.062 72.6918C195.858 72.155 197.811 71.6291 198.455 72.6679Z" fill="#3F3D56"/>
<path opacity="0.1" d="M213.651 117.164L212.923 117.766C212.271 116.694 209.637 114.554 209.637 114.554L209.75 114.443L210.135 114.35L213.651 117.164Z" fill="black"/>
<path d="M214.361 116.079C214.361 116.079 214.101 116.731 213.829 117.296C213.557 117.861 213.262 118.383 213.249 117.948C213.218 117.127 209.82 114.371 209.82 114.371L210.28 113.924L210.815 113.404L214.361 116.079Z" fill="#E7EFFD"/>
<path opacity="0.1" d="M214.472 111.74L214.859 118.281C213.946 116.866 211.447 113.235 209.841 113.352L213.74 108.867C213.902 108.687 214.05 108.496 214.185 108.296C214.333 110.164 214.472 111.74 214.472 111.74Z" fill="black"/>
<path opacity="0.1" d="M214.362 116.08C214.362 116.08 214.101 116.731 213.829 117.296C212.808 115.895 211.402 114.239 210.28 113.93L210.815 113.411L214.362 116.08Z" fill="black"/>
<path d="M217.286 92.3646L218.343 93.186C218.343 93.186 220.101 93.2143 220.277 94.6811C220.453 96.148 222.065 96.8194 222.065 96.8194C222.065 96.8194 223.267 98.0212 223.267 98.5796C223.267 99.1381 224.175 100.133 224.175 100.22C224.175 100.307 225.044 102.096 224.938 102.419C224.831 102.743 225.874 104.158 225.553 104.675C225.288 105.149 225.053 105.639 224.849 106.142C224.849 106.142 223.471 108.78 222.769 109.278C222.067 109.775 218.84 113.969 218.84 113.969C218.84 113.969 215.381 117.955 215.381 119.185C215.381 119.185 212.01 113.556 210.018 113.702L213.927 109.219C213.927 109.219 214.601 108.487 214.631 108.048C214.661 107.609 216.506 105.586 217.386 105.497C217.386 105.497 217.532 104.295 217.152 104.267C216.771 104.238 216.448 103.297 216.448 103.297C216.448 103.297 213.868 100.255 213.84 98.3145C213.812 96.374 217.286 92.3646 217.286 92.3646Z" fill="#65617D"/>
<path opacity="0.1" d="M218.84 95.1484C218.84 95.1484 216.378 96.9673 216.906 97.5519C217.434 98.1364 218.84 95.1484 218.84 95.1484Z" fill="black"/>
<path opacity="0.1" d="M218.958 102.654C218.958 102.654 223.521 101.187 223.999 102.654H218.958Z" fill="black"/>
<path opacity="0.1" d="M190.642 180.531C190.642 180.531 188.178 182.143 186.948 181.907C185.718 181.67 184.456 182.319 184.456 182.319C183.608 183.246 182.538 183.942 181.348 184.343C179.355 185.016 176.567 184.751 174.987 184.223C174.238 183.973 174.179 183.652 174.54 183.254C176.259 183.597 180.105 184.28 181.144 183.784C182.491 183.132 184.425 181.733 184.425 181.733C184.425 181.733 186.948 181.4 187.3 181.4C187.55 181.4 189.497 180.596 190.595 180.135L190.642 180.531Z" fill="black"/>
<path opacity="0.1" d="M205.556 183.836C205.541 183.936 205.532 183.999 205.532 183.999C205.532 183.999 204.946 185.288 201.692 185.757C198.439 186.227 198.433 184.671 198.433 184.671C198.433 184.671 198.446 184.503 198.468 184.251C199.5 184.645 201.758 185.081 205.556 183.836Z" fill="black"/>
<path opacity="0.1" d="M186.698 94.7964C186.698 94.7964 186.698 101.481 186.127 102.141C185.555 102.802 186.698 94.7964 186.698 94.7964Z" fill="black"/>
<path opacity="0.1" d="M213.125 96.952L213.975 99.3424C213.975 99.3424 214.311 96.9955 213.125 96.952Z" fill="black"/>
<g opacity="0.1">
<path opacity="0.1" d="M192.396 71.3292C192.613 70.7794 192.05 70.2427 191.977 69.6494C191.901 69.8155 191.869 69.9979 191.883 70.1796C191.92 70.6251 192.248 71.038 192.335 71.4487C192.359 71.4107 192.379 71.3707 192.396 71.3292Z" fill="black"/>
<path opacity="0.1" d="M202.125 77.6442C201.908 76.7184 201.977 75.7406 201.764 74.8192C201.551 73.8978 200.895 72.9264 199.991 72.9112C199.604 72.9112 199.152 73.0546 198.872 72.7634C198.702 72.5896 198.67 72.3136 198.541 72.1006C197.89 71.0619 195.947 71.5878 195.147 72.1202C193.948 72.9177 192.3 74.5845 190.764 74.2064C190.69 74.3846 190.621 74.5627 190.564 74.7475C192.133 75.2386 193.824 73.5088 195.058 72.6917C195.858 72.1593 197.811 71.6334 198.455 72.6722C198.581 72.8895 198.615 73.1611 198.785 73.3349C199.063 73.6261 199.515 73.4762 199.904 73.4827C200.801 73.4979 201.458 74.4497 201.675 75.3907C201.892 76.3316 201.823 77.3291 202.047 78.27C202.033 78.0583 202.059 77.8459 202.125 77.6442Z" fill="black"/>
<path opacity="0.1" d="M206.538 76.5445C206.378 77.0096 205.96 77.4355 205.508 77.3399C205.056 77.2443 204.837 76.7336 204.5 76.4098C204.292 76.2138 204.027 76.0875 203.744 76.0486C203.46 76.0096 203.172 76.0599 202.918 76.1925C202.673 76.3378 202.472 76.5461 202.335 76.7957C202.198 77.0453 202.131 77.327 202.14 77.6115C202.257 77.2535 202.502 76.9515 202.829 76.764C203.083 76.6315 203.371 76.5812 203.655 76.6201C203.938 76.659 204.203 76.7853 204.411 76.9813C204.75 77.3051 204.98 77.8201 205.421 77.9114C205.863 78.0027 206.291 77.5811 206.449 77.1161C206.534 76.8417 206.587 76.559 206.61 76.2729C206.592 76.3648 206.568 76.4555 206.538 76.5445Z" fill="black"/>
<path opacity="0.1" d="M207.912 72.5504C207.582 73.4197 206.986 74.1694 206.786 75.0842C206.747 75.269 206.723 75.458 206.701 75.6471C206.901 74.7366 207.495 73.9868 207.825 73.122C207.971 72.7307 208.062 72.3212 208.097 71.905C208.051 72.1243 207.989 72.34 207.912 72.5504Z" fill="black"/>
</g>
</g>
<defs>
<linearGradient id="paint0_linear" x1="196.077" y1="186.109" x2="196.077" y2="63.3432" gradientUnits="userSpaceOnUse">
<stop stop-color="#808080" stop-opacity="0.25"/>
<stop offset="0.54" stop-color="#808080" stop-opacity="0.12"/>
<stop offset="1" stop-color="#808080" stop-opacity="0.1"/>
</linearGradient>
<clipPath id="clip0">
<rect width="250" height="188.291" fill="white"/>
</clipPath>
</defs>
</svg>
