<svg width="34" height="30" viewBox="0 0 34 30" fill="none" xmlns="http://www.w3.org/2000/svg">
<path d="M31.1667 0H2.83333C1.2691 0 0 1.25977 0 2.8125V21.5625C0 23.1152 1.2691 24.375 2.83333 24.375H14.1667L13.2222 27.1875H8.97222C8.18715 27.1875 7.55556 27.8145 7.55556 28.5938C7.55556 29.373 8.18715 30 8.97222 30H25.0278C25.8128 30 26.4444 29.373 26.4444 28.5938C26.4444 27.8145 25.8128 27.1875 25.0278 27.1875H20.7778L19.8333 24.375H31.1667C32.7309 24.375 34 23.1152 34 21.5625V2.8125C34 1.25977 32.7309 0 31.1667 0ZM30.2222 20.625H3.77778V3.75H30.2222V20.625Z" fill="#444444"/>
</svg>
