<svg width="31" height="35" viewBox="0 0 31 35" fill="none" xmlns="http://www.w3.org/2000/svg">
<path d="M28.7857 2.1875H2.20737C0.989509 2.1875 0 3.17871 0 4.39551V30.6045C0 31.8213 0.989509 32.8125 2.20737 32.8125H28.7857C30.0036 32.8125 31 31.8213 31 30.6045V4.39551C31 3.17871 30.0036 2.1875 28.7857 2.1875ZM9.3692 28.4375H4.77455V13.8223H9.37612V28.4375H9.3692ZM7.07187 11.8262C5.59799 11.8262 4.40781 10.6436 4.40781 9.19434C4.40781 7.74512 5.59799 6.5625 7.07187 6.5625C8.53884 6.5625 9.73594 7.74512 9.73594 9.19434C9.73594 10.6504 8.54576 11.8262 7.07187 11.8262ZM26.5922 28.4375H21.9975V21.3281C21.9975 19.6328 21.9629 17.4521 19.6103 17.4521C17.2161 17.4521 16.8493 19.2979 16.8493 21.2051V28.4375H12.2547V13.8223H16.6625V15.8184H16.7248C17.3406 14.6699 18.8422 13.46 21.0772 13.46C25.7272 13.46 26.5922 16.4883 26.5922 20.4258V28.4375Z" fill="#444444"/>
</svg>
