<svg width="250" height="178" viewBox="0 0 250 178" fill="none" xmlns="http://www.w3.org/2000/svg">
<g clip-path="url(#clip0)">
<path opacity="0.1" d="M197.731 152.877C226.064 152.877 249.032 148.415 249.032 142.912C249.032 137.408 226.064 132.947 197.731 132.947C169.399 132.947 146.431 137.408 146.431 142.912C146.431 148.415 169.399 152.877 197.731 152.877Z" fill="#85B3FF"/>
<g opacity="0.5">
<path opacity="0.5" d="M153.79 26.0726C153.098 26.2691 152.251 26.7809 151.833 28.1806C151.016 30.9241 152.916 32.7895 152.29 35.6495C152.116 36.4081 151.785 37.1221 151.319 37.7454C150.554 38.7812 149.724 39.2712 148.918 39.9965C147.896 40.9231 147.164 42.1251 146.809 43.458C146.421 44.9291 146.388 46.4716 146.715 47.9578C147.001 49.1998 147.489 50.1046 147.916 51.1113C148.447 52.3953 148.862 53.7243 149.156 55.0822C149.318 55.7435 149.409 56.42 149.428 57.1005C149.416 58.0045 149.335 58.9062 149.185 59.7979L148.023 67.9048C147.846 68.9647 147.74 70.0352 147.705 71.1092C147.72 72.1855 147.844 73.2575 148.076 74.3088C148.484 76.4531 148.923 78.6751 149.858 79.8104C150.792 80.9456 152.384 80.5381 153.363 78.2409C154.292 76.0432 154.314 73.1104 155.134 70.7623C156.428 67.063 158.998 66.5658 160.426 63.0363C161.795 59.6402 161.375 55.497 162.069 51.6352C162.554 48.8674 163.625 46.3447 164.253 43.6108C165.156 39.6738 165.066 35.5864 164.345 32.5591C163.797 30.0717 162.611 27.7695 160.904 25.8786C160.299 25.2115 159.651 24.6172 158.892 24.5565C158.083 24.4935 157.377 25.5098 156.579 25.8155C155.656 26.1769 154.729 25.8058 153.79 26.0726Z" fill="#85B3FF"/>
<path opacity="0.5" d="M158.166 24.7629C158.166 24.7629 156.797 59.7763 151.04 80.4219" stroke="#535461" stroke-width="2" stroke-miterlimit="10"/>
<path opacity="0.5" d="M151.799 28.3455C151.799 28.3455 157.952 33.9441 156.785 44.598" stroke="#535461" stroke-width="2" stroke-miterlimit="10"/>
<path opacity="0.5" d="M146.637 44.2778C146.637 44.2778 156.736 46.3082 155.986 52.3459" stroke="#535461" stroke-width="2" stroke-miterlimit="10"/>
<path opacity="0.5" d="M164.362 32.4863C164.362 32.4863 160.275 36.0619 156.634 46.1894" stroke="#535461" stroke-width="2" stroke-miterlimit="10"/>
<path opacity="0.5" d="M160.37 63.0944C160.37 63.0944 157.581 65.2776 155.343 57.634" stroke="#535461" stroke-width="2" stroke-miterlimit="10"/>
<path opacity="0.5" d="M148.336 67.5604C148.336 67.5604 154.023 66.8181 154.547 63.2595" stroke="#535461" stroke-width="2" stroke-miterlimit="10"/>
</g>
<path d="M167.537 2.5889C166.129 2.79752 164.435 3.45005 163.739 5.461C162.372 9.40527 166.525 12.3914 165.569 16.5127C165.283 17.6469 164.683 18.6772 163.836 19.4843C162.379 20.9179 160.714 21.5438 159.137 22.5165C157.559 23.4892 155.921 25.0199 155.181 27.368C154.469 29.6264 154.778 32.12 155.518 33.983C156.258 35.846 157.377 37.236 158.377 38.769C159.592 40.656 160.608 42.664 161.409 44.7607C161.812 45.7163 162.083 46.7226 162.214 47.7516C162.343 49.013 162.18 50.369 162.018 51.6959L160.574 63.519C160.382 65.0909 160.188 66.6871 160.297 68.2007C160.421 69.9448 160.938 71.4682 161.447 72.9552C162.545 76.1621 163.719 79.5048 165.79 81.2707C167.86 83.0367 171.108 82.6582 172.858 79.3738C174.523 76.247 174.217 71.9315 175.637 68.5719C177.874 63.2764 183.137 62.8471 185.668 57.8209C188.095 52.9985 186.738 46.8298 187.714 41.2263C188.413 37.2117 190.306 33.6216 191.277 29.67C192.678 23.9768 192.005 17.9488 190.156 13.4175C188.306 8.88616 185.382 5.65506 182.243 3.17351C180.913 2.11831 179.503 1.16498 177.923 0.990329C176.243 0.803546 174.901 2.21533 173.287 2.57192C171.409 2.96247 169.447 2.30509 167.537 2.5889Z" fill="#85B3FF"/>
<path d="M176.44 1.17725C176.44 1.17725 177.765 52.5766 168.294 82.2994" stroke="#535461" stroke-width="2" stroke-miterlimit="10"/>
<path d="M163.685 5.70825C163.685 5.70825 177.083 14.6835 175.935 30.2472" stroke="#535461" stroke-width="2" stroke-miterlimit="10"/>
<path d="M154.892 28.5518C154.892 28.5518 176.037 32.7386 175.202 41.5392" stroke="#535461" stroke-width="2" stroke-miterlimit="10"/>
<path d="M190.18 13.2864C190.18 13.2864 182.144 18.0675 175.814 32.5493" stroke="#535461" stroke-width="2" stroke-miterlimit="10"/>
<path d="M185.542 57.8886C185.542 57.8886 180.032 60.7995 174.491 49.2505" stroke="#535461" stroke-width="2" stroke-miterlimit="10"/>
<path d="M161.166 63.0337C161.166 63.0337 172.848 62.614 173.513 57.4351" stroke="#535461" stroke-width="2" stroke-miterlimit="10"/>
<path d="M16.3227 141.303C16.3227 141.303 18.3566 143.972 15.3833 147.974C12.4101 151.977 9.95378 155.377 10.9513 157.881C10.9513 157.881 15.4367 150.426 19.0872 150.322C22.7376 150.218 20.3396 145.786 16.3227 141.303Z" fill="#85B3FF"/>
<path opacity="0.1" d="M16.3227 141.303C16.5041 141.56 16.648 141.841 16.7498 142.138C20.3129 146.32 22.2085 150.223 18.7862 150.322C15.5969 150.414 11.7717 156.112 10.8543 157.553C10.8845 157.664 10.921 157.774 10.9635 157.881C10.9635 157.881 15.4489 150.426 19.0993 150.322C22.7498 150.218 20.3396 145.786 16.3227 141.303Z" fill="black"/>
<path d="M20.1042 144.692C20.1042 145.628 19.9998 146.39 19.8615 146.39C19.7231 146.39 19.6187 145.631 19.6187 144.692C19.6187 143.753 19.7498 144.207 19.8784 144.207C20.0071 144.207 20.1042 143.756 20.1042 144.692Z" fill="#FFD037"/>
<path d="M21.4027 145.808C20.5799 146.257 19.8639 146.536 19.8032 146.413C19.7425 146.289 20.3566 145.842 21.1794 145.396C22.0022 144.949 21.677 145.274 21.7401 145.396C21.8032 145.517 22.2231 145.359 21.4027 145.808Z" fill="#FFD037"/>
<path d="M5.58491 141.303C5.58491 141.303 3.55095 143.972 6.52422 147.974C9.49749 151.977 11.9489 155.375 10.9562 157.878C10.9562 157.878 6.47082 150.424 2.82037 150.32C-0.830079 150.215 1.5631 145.786 5.58491 141.303Z" fill="#85B3FF"/>
<path opacity="0.1" d="M5.58491 141.303C5.40767 141.56 5.26792 141.841 5.16986 142.138C1.60679 146.32 -0.288822 150.223 3.13348 150.322C6.32276 150.414 10.148 156.112 11.0654 157.553C11.0352 157.664 10.9987 157.774 10.9562 157.881C10.9562 157.881 6.47082 150.426 2.82037 150.322C-0.830079 150.218 1.5631 145.786 5.58491 141.303Z" fill="black"/>
<path d="M1.79852 144.692C1.79852 145.628 1.90289 146.39 2.04124 146.39C2.17958 146.39 2.28395 145.631 2.28395 144.692C2.28395 143.753 2.15288 144.207 2.02425 144.207C1.89561 144.207 1.79852 143.756 1.79852 144.692Z" fill="#FFD037"/>
<path d="M0.500004 145.808C1.32281 146.257 2.03882 146.536 2.0995 146.413C2.16018 146.289 1.54611 145.842 0.723303 145.396C-0.0995049 144.949 0.225735 145.274 0.162629 145.396C0.0995229 145.517 -0.320376 145.359 0.500004 145.808Z" fill="#FFD037"/>
<path d="M2.44659 157.532C2.44659 157.532 8.13342 157.357 9.847 156.137C11.5606 154.917 18.5848 153.468 19.0192 155.409C19.4537 157.35 27.5653 165.139 21.1454 165.19C14.7256 165.241 6.2281 164.19 4.51695 163.15C2.80581 162.109 2.44659 157.532 2.44659 157.532Z" fill="#A8A8A8"/>
<path opacity="0.2" d="M21.2595 164.515C14.8397 164.566 6.34218 163.516 4.63103 162.475C3.32765 161.682 2.80823 158.837 2.6359 157.524H2.44659C2.44659 157.524 2.80581 162.109 4.51695 163.15C6.2281 164.19 14.7256 165.243 21.1454 165.19C22.9998 165.175 23.6381 164.515 23.6042 163.54C23.3469 164.137 22.6406 164.506 21.2595 164.515Z" fill="black"/>
<path d="M238.435 140.2C238.879 139.837 239.204 139.348 239.364 138.797C239.486 138.24 239.248 137.572 238.714 137.369C238.117 137.141 237.478 137.553 236.995 137.973C236.512 138.392 235.956 138.868 235.323 138.778C235.649 138.483 235.892 138.109 236.03 137.692C236.168 137.275 236.195 136.829 236.109 136.398C236.082 136.22 236.006 136.052 235.891 135.913C235.558 135.559 234.959 135.712 234.561 135.991C233.299 136.879 232.947 138.591 232.939 140.134C232.813 139.579 232.92 138.999 232.915 138.436C232.91 137.873 232.755 137.223 232.274 136.927C231.976 136.767 231.642 136.688 231.304 136.697C230.736 136.675 230.105 136.733 229.716 137.148C229.231 137.662 229.359 138.528 229.779 139.089C230.199 139.649 230.835 140.01 231.423 140.403C231.893 140.683 232.295 141.065 232.597 141.522C232.633 141.585 232.662 141.652 232.685 141.721H236.24C237.037 141.315 237.775 140.803 238.435 140.2Z" fill="#85B3FF"/>
<path opacity="0.1" d="M35.6137 117.465C43.337 127.28 40.337 141.619 35.4293 153.1C33.7861 156.945 31.9269 161.013 32.621 165.134C33.4681 170.175 37.9608 173.867 42.6986 175.807C51.315 179.368 61.6305 178.519 69.5454 173.597C76.3876 169.343 81.2881 162.424 88.2467 158.364C99.8971 151.572 114.717 154.136 127.363 158.815C136.309 162.126 146.091 166.434 154.982 162.973C161.236 160.547 165.562 154.611 167.918 148.328C169.057 145.294 169.882 142.021 172.044 139.596C173.336 138.167 175.02 137.15 176.748 136.297C192.525 128.483 212.428 132.658 227.738 124.003C238.08 118.152 244.702 107.112 247.641 95.6021C250.58 84.0918 250.231 72.0213 249.485 60.169C248.956 51.7444 248.007 42.7521 242.621 36.2487C236.925 29.3717 227.146 26.8125 218.309 28.12C209.471 29.4274 201.457 34.1092 194.418 39.5962C185.61 46.4538 177.442 54.9949 166.627 57.7748C159.263 59.6669 151.516 58.6311 143.919 58.2745C131.22 57.6754 118.518 59.0023 105.89 60.4577C93.8001 61.8549 81.6181 63.3929 70.1061 67.3226C61.9557 70.1049 55.4218 75.1529 47.7253 78.68C42.7083 80.9796 37.2375 81.6152 32.49 84.543C26.6381 88.1501 21.2765 94.4256 22.7813 101.766C24.1939 108.755 31.5118 112.257 35.6137 117.465Z" fill="#85B3FF"/>
<path opacity="0.1" d="M134.064 117.461C191.393 117.461 237.867 112.999 237.867 107.496C237.867 101.992 191.393 97.5305 134.064 97.5305C76.7357 97.5305 30.2618 101.992 30.2618 107.496C30.2618 112.999 76.7357 117.461 134.064 117.461Z" fill="#85B3FF"/>
<path opacity="0.1" d="M54.2859 174.951C82.6183 174.951 105.586 170.489 105.586 164.986C105.586 159.482 82.6183 155.021 54.2859 155.021C25.9534 155.021 2.9854 159.482 2.9854 164.986C2.9854 170.489 25.9534 174.951 54.2859 174.951Z" fill="#85B3FF"/>
<path d="M106.727 104.388L105.914 105.569C105.914 105.569 106.8 106.751 106.885 106.899C106.97 107.047 109.47 106.826 109.47 106.826L109.691 105.94L109.322 104.907L106.727 104.388Z" fill="#E6E6F0"/>
<path d="M79.39 103.723L77.7638 104.017L78.7978 106.013L79.907 106.603L80.941 107.34L81.2371 106.53L80.4968 104.977L79.39 103.723Z" fill="#FDC2CC"/>
<path d="M105.989 84.5235C105.989 84.5235 114.635 86.5903 116.259 88.8899C116.259 88.8899 117.737 90.1464 116.259 92.4339C114.78 94.7214 112.712 99.8931 112.712 99.8931C112.712 99.8931 111.234 104.914 110.645 105.283C110.055 105.652 106.654 105.948 106.358 104.555C106.358 104.555 108.278 101.528 108.278 100.124C108.278 98.719 111.455 92.0749 111.455 92.0749C111.455 92.0749 104.215 91.2623 101.924 91.779C99.6325 92.2957 102.96 83.7109 105.989 84.5235Z" fill="#565171"/>
<path opacity="0.1" d="M105.989 84.5235C105.989 84.5235 114.635 86.5903 116.259 88.8899C116.259 88.8899 117.737 90.1464 116.259 92.4339C114.78 94.7214 112.712 99.8931 112.712 99.8931C112.712 99.8931 111.234 104.914 110.645 105.283C110.055 105.652 106.654 105.948 106.358 104.555C106.358 104.555 108.278 101.528 108.278 100.124C108.278 98.719 111.455 92.0749 111.455 92.0749C111.455 92.0749 104.215 91.2623 101.924 91.779C99.6325 92.2957 102.96 83.7109 105.989 84.5235Z" fill="black"/>
<path d="M104.215 86.5175C104.198 86.9468 104.152 87.4296 104.086 87.9487C103.613 91.7086 102.072 97.3 102.072 97.3C102.072 97.3 100.521 100.623 100.077 102.765C99.6325 104.907 96.6034 105.434 96.6034 105.434C96.6034 105.434 88.3268 106.404 86.6278 106.025C84.9288 105.647 82.2589 107.134 80.9385 106.911C79.6182 106.688 78.7954 103.588 78.7954 103.588C81.087 103.601 83.3548 103.123 85.4458 102.185C88.8438 100.635 93.7224 101.373 93.7224 101.373C94.0863 101.267 94.4247 101.088 94.7169 100.847C95.0091 100.606 95.2488 100.308 95.4214 99.9707C95.9384 98.8621 95.9384 92.1428 95.7903 91.6989C94.8195 88.788 94.8996 86.9202 95.1787 85.831C95.2721 85.3553 95.4823 84.9102 95.7903 84.5356L104.215 86.5175Z" fill="#565171"/>
<path opacity="0.1" d="M104.215 86.5174C104.198 86.9468 104.152 87.4295 104.086 87.9486C103.344 88.0068 101.261 88.0626 99.7175 87.1093C98.2612 86.2166 96.1423 85.9134 95.1884 85.8188C95.2818 85.3431 95.492 84.898 95.8 84.5234L104.215 86.5174Z" fill="black"/>
<path d="M105.237 85.5934C104.892 86.5637 104.363 87.7013 104.363 87.7013C104.363 87.7013 101.63 88.07 99.7078 86.8887C97.7855 85.7074 94.6835 85.5594 94.6835 85.5594C95.186 85.2513 95.5258 84.315 95.7369 83.4951C95.8548 83.0315 95.9472 82.5618 96.0136 82.0881C96.0136 82.0881 105.101 83.9341 105.48 84.2301C105.62 84.3465 105.47 84.9335 105.237 85.5934Z" fill="#E6E6F0"/>
<path d="M121.431 54.4684L110.409 61.1174L109.314 61.7772V58.5291L110.074 58.1652L119.363 53.7285C119.363 53.7285 119.807 45.6799 120.989 46.9364C122.171 48.1929 121.431 54.4684 121.431 54.4684Z" fill="#FDC2CC"/>
<path opacity="0.1" d="M110.409 61.1174L109.314 61.7772V58.5291L110.074 58.1653C110.124 59.1553 110.236 60.1413 110.409 61.1174Z" fill="black"/>
<path d="M101.926 62.3059L109.831 57.7285C109.831 57.7285 109.98 62.1604 110.865 62.8226C110.865 62.8226 107.615 63.7929 106.358 65.8499L101.926 62.3059Z" fill="#B45181"/>
<path opacity="0.1" d="M101.926 62.3059L109.831 57.7285C109.831 57.7285 109.98 62.1604 110.865 62.8226C110.865 62.8226 107.615 63.7929 106.358 65.8499L101.926 62.3059Z" fill="black"/>
<path d="M121.36 66.2092C121.36 66.2092 117.601 67.8466 115.111 68.4481C114.55 68.6171 113.964 68.6844 113.38 68.6471C111.681 68.3511 113.824 66.2213 113.824 66.2213L114.717 66.083L119.513 65.3359C119.513 65.3359 120.03 57.9519 120.916 58.5438C121.802 59.1357 121.36 66.2092 121.36 66.2092Z" fill="#FDC2CC"/>
<path d="M105.472 59.5625C105.472 59.5625 102.295 61.9251 103.477 64.8797C104.659 67.8343 97.3437 63.1065 97.3437 63.1065C97.3437 63.1065 99.7078 59.5625 100.225 56.9038C100.742 54.2452 105.472 59.5625 105.472 59.5625Z" fill="#FDC2CC"/>
<path opacity="0.1" d="M105.237 85.5934C103.863 85.0761 102.426 84.7417 100.965 84.5988C98.8291 84.3562 96.8729 83.9463 95.7394 83.4951C95.8573 83.0315 95.9496 82.5618 96.0161 82.0881C96.0161 82.0881 105.103 83.9341 105.482 84.2301C105.62 84.3465 105.47 84.9335 105.237 85.5934Z" fill="black"/>
<path opacity="0.1" d="M115.108 68.4481C114.548 68.617 113.962 68.6844 113.378 68.647C111.679 68.3511 113.822 66.2213 113.822 66.2213L114.715 66.083C115.089 66.6579 115.47 67.5554 115.108 68.4481Z" fill="black"/>
<path d="M100.3 60.8919C100.3 60.8919 97.419 60.8191 96.385 62.0005C95.351 63.1818 95.5719 66.3668 95.5719 66.3668C95.5719 66.3668 95.3559 72.7441 96.9748 76.3124C97.0282 76.4276 97.0343 76.5591 96.9918 76.6787C96.9748 76.7224 96.9748 76.6957 96.9748 76.6957C96.9748 76.6957 95.9408 81.3483 94.9068 82.1609C93.8729 82.9735 97.1228 83.9341 100.975 84.3756C104.827 84.8171 106.368 85.9257 106.368 85.9257C106.368 85.9257 107.033 85.198 107.096 83.563C107.159 81.928 106.069 70.0491 106.069 70.0491C106.069 70.0491 110.132 71.0825 112.572 69.8284C112.572 69.8284 113.681 70.4203 114.715 68.795C115.749 67.1697 113.987 65.3989 113.987 65.3989C113.987 65.3989 112.361 67.0242 107.853 64.8823C103.346 62.7403 101.7 60.8191 100.3 60.8919Z" fill="#B45181"/>
<path d="M78.208 103.871H77.3221V105.128L78.208 107.122C78.208 107.122 79.39 107.343 79.4652 107.343C79.5405 107.343 80.4992 107.122 80.4992 107.122L80.7953 106.605C80.7953 106.605 77.5429 105.346 78.208 103.871Z" fill="#E6E6F0"/>
<path d="M105.989 105.053L104.659 108.007L110.276 110.676L114.71 110.824C114.71 110.824 115.079 109.79 113.601 109.273L112.419 109.053C112.419 109.053 110.868 106.246 110.72 104.929C110.72 104.929 109.242 105.225 109.021 106.331C109.018 106.307 106.95 107.34 105.989 105.053Z" fill="#B45181"/>
<path d="M77.5429 103.575L77.0915 103.944L75.1061 105.569L79.6861 111.634C79.6861 111.634 82.271 112.742 83.4555 111.634C83.4555 111.634 84.1836 110.906 82.5696 110.304C82.5696 110.304 81.3123 110.525 81.3123 109.271C81.3123 108.017 81.6084 106.688 82.0405 106.392C82.0405 106.392 80.9313 106.023 80.6376 106.319C80.4116 106.568 80.213 106.84 80.0453 107.132C80.0453 107.132 77.3949 106.086 77.5429 103.575Z" fill="#B45181"/>
<path opacity="0.1" d="M100.079 57.0518C100.004 57.4264 99.9052 57.7959 99.783 58.1579C100.167 59.0807 100.895 59.8175 101.814 60.212C102.733 60.6065 103.769 60.6276 104.703 60.2708C104.898 60.0699 105.106 59.8827 105.327 59.7104C105.327 59.7104 100.596 54.3932 100.079 57.0518Z" fill="black"/>
<path opacity="0.1" d="M99.6714 66.915C99.6714 66.915 101.963 69.9424 105.288 70.0176L99.6714 66.915Z" fill="black"/>
<g opacity="0.1">
<path opacity="0.1" d="M113.365 69.8793C113.319 69.8663 113.273 69.8493 113.229 69.8284C113.158 69.8656 113.085 69.9004 113.011 69.9327C113.131 69.9304 113.25 69.9125 113.365 69.8793Z" fill="black"/>
<path opacity="0.1" d="M114.152 65.7021C114.071 65.5989 113.986 65.5 113.895 65.406C113.895 65.406 113.409 65.8915 112.21 65.9837C112.871 66.0493 113.537 65.9526 114.152 65.7021Z" fill="black"/>
<path opacity="0.1" d="M106.727 70.0491L106.742 70.2068C107.716 70.3874 108.707 70.4687 109.698 70.4496C108.697 70.4131 107.702 70.279 106.727 70.0491Z" fill="black"/>
<path opacity="0.1" d="M101.63 84.3803C97.7879 83.9364 94.5379 82.9783 95.5622 82.1656C96.5864 81.353 97.6301 76.7004 97.6301 76.7004C97.6301 76.7004 97.6301 76.7271 97.6471 76.6834C97.6896 76.5638 97.6835 76.4323 97.6301 76.3171C96.0112 72.7391 96.2272 66.3715 96.2272 66.3715C96.2272 66.3715 96.0063 63.1962 97.0403 62.0052C97.8097 61.1246 99.6034 60.9427 100.47 60.9063C100.389 60.9 100.308 60.9 100.227 60.9063C100.227 60.9063 97.3461 60.8335 96.3122 62.0149C95.2782 63.1962 95.4991 66.3812 95.4991 66.3812C95.4991 66.3812 95.2831 72.7585 96.902 76.3268C96.9554 76.442 96.9615 76.5735 96.919 76.6931C96.902 76.7368 96.902 76.7101 96.902 76.7101C96.902 76.7101 95.8753 81.3482 94.8316 82.1608C93.7879 82.9734 97.0476 83.934 100.9 84.3755C104.751 84.817 106.293 85.9256 106.293 85.9256C106.37 85.8328 106.438 85.7329 106.497 85.6272C105.747 85.2658 104.203 84.6714 101.63 84.3803Z" fill="black"/>
</g>
<path d="M103.477 60.375C105.599 60.375 107.319 58.6558 107.319 56.535C107.319 54.4143 105.599 52.6951 103.477 52.6951C101.355 52.6951 99.635 54.4143 99.635 56.535C99.635 58.6558 101.355 60.375 103.477 60.375Z" fill="#FDC2CC"/>
<path opacity="0.1" d="M108.946 54.8177C108.628 55.6134 107.679 55.9142 106.846 56.1203C105.657 56.4114 104.375 56.6977 103.237 56.2465C103.089 56.1638 102.919 56.1306 102.751 56.1519C102.616 56.2061 102.503 56.3044 102.431 56.4308C101.176 58.2162 101.38 60.5959 101.055 62.7548C100.953 63.4267 100.781 64.1205 100.327 64.6226C99.4432 65.5929 97.7758 65.5565 96.9627 66.5875C96.4263 67.2667 96.4214 68.2103 96.4263 69.0763C96.4263 69.9997 96.4182 70.9239 96.402 71.849C96.3874 72.4554 96.3583 73.0837 96.084 73.6222C95.618 74.5343 94.5792 74.9685 93.6205 75.3202C93.0234 75.5434 92.4069 75.769 91.7661 75.7083C91.1253 75.6477 90.4846 75.2232 90.402 74.5828C90.288 73.7144 91.1836 73.1079 91.8001 72.4821C92.7855 71.4851 93.1909 70.0345 93.2273 68.6324C93.2619 68.0661 93.1793 67.4988 92.9845 66.9659C92.7588 66.4153 92.3559 65.9519 92.1132 65.4086C91.3656 63.7348 92.2879 61.799 93.3923 60.3339C94.4967 58.8687 95.8534 57.44 96.0889 55.6231C96.1094 55.2299 96.1655 54.8394 96.2564 54.4563C96.4263 53.9275 96.8292 52.4671 97.2733 52.1324C97.9844 51.597 98.8193 51.2499 99.7005 51.1233C100.383 51.0238 101.079 51.0602 101.756 50.9292C102.548 50.7764 103.283 50.4004 104.074 50.2597C105.785 49.9565 107.642 51.9432 108.392 53.5102C108.598 53.9905 109.14 54.3301 108.946 54.8177Z" fill="black"/>
<path d="M108.946 54.6697C108.628 55.4654 107.679 55.7662 106.846 55.9724C105.657 56.2635 104.375 56.5497 103.237 56.0985C103.089 56.0158 102.919 55.9826 102.751 56.0039C102.616 56.0581 102.503 56.1564 102.431 56.2829C101.176 58.0682 101.38 60.4479 101.055 62.6068C100.953 63.2788 100.781 63.9725 100.327 64.4747C99.4432 65.445 97.7758 65.4086 96.9627 66.4395C96.4263 67.1187 96.4214 68.0623 96.4263 68.9283C96.4263 69.8517 96.4182 70.776 96.402 71.701C96.3874 72.3074 96.3583 72.9357 96.084 73.4742C95.618 74.3863 94.5792 74.8205 93.6205 75.1722C93.0234 75.3954 92.4069 75.621 91.7661 75.5604C91.1253 75.4997 90.4846 75.0752 90.402 74.4348C90.288 73.5664 91.1836 72.9599 91.8001 72.3341C92.7855 71.3371 93.1909 69.8865 93.2273 68.4844C93.2619 67.9182 93.1793 67.3508 92.9845 66.8179C92.7588 66.2673 92.3559 65.804 92.1132 65.2606C91.3656 63.5868 92.2879 61.6511 93.3923 60.1859C94.4967 58.7208 95.8534 57.292 96.0889 55.4751C96.1094 55.0819 96.1655 54.6914 96.2564 54.3083C96.4263 53.7795 96.8292 52.3192 97.2733 51.9844C97.9844 51.4491 98.8193 51.102 99.7005 50.9753C100.383 50.8759 101.079 50.9123 101.756 50.7813C102.548 50.6284 103.283 50.2525 104.074 50.1118C105.785 49.8085 107.642 51.7952 108.392 53.3623C108.598 53.8426 109.14 54.1822 108.946 54.6697Z" fill="#F569BC"/>
<path d="M121.36 47.2881H185.236V111.122H121.36V47.2881Z" fill="#F7DF1E"/>
<path d="M138.159 100.633L143.047 97.6759C143.991 99.3473 144.848 100.761 146.906 100.761C148.88 100.761 150.122 99.9901 150.122 96.9919V76.5937H156.125V97.0743C156.125 103.287 152.484 106.115 147.164 106.115C142.363 106.115 139.576 103.629 138.161 100.63L138.159 100.633ZM159.384 99.9877L164.27 97.1592C165.557 99.2599 167.229 100.798 170.188 100.798C172.676 100.798 174.26 99.5559 174.26 97.8409C174.26 95.7838 172.632 95.0561 169.892 93.8554L168.392 93.2125C164.062 91.3714 161.188 89.0572 161.188 84.1718C161.188 79.672 164.617 76.2444 169.977 76.2444C173.792 76.2444 176.53 77.5737 178.508 81.0425L173.836 84.0432C172.807 82.1996 171.693 81.4719 169.977 81.4719C168.219 81.4719 167.103 82.5853 167.103 84.0432C167.103 85.8431 168.217 86.5708 170.79 87.6818L172.29 88.3246C177.387 90.5078 180.265 92.7371 180.265 97.7511C180.265 103.151 176.02 106.108 170.314 106.108C164.731 106.108 161.139 103.44 159.392 99.9804" fill="black"/>
<path d="M213.255 146.548C213.255 146.548 210.762 146.722 209.224 144.054C208.923 143.517 208.567 143.012 208.163 142.548C207.666 141.734 207.408 140.796 207.418 139.843C207.503 137.866 205.44 127.037 205.44 127.037C205.44 127.037 205.697 122.914 203.634 120.335C202.275 118.637 200.321 113.785 199.144 110.651C199.223 110.722 199.318 110.772 199.42 110.797L199.372 110.528H199.42L198.811 107.183C197.924 106.164 197.177 105.031 196.588 103.816L196.726 103.786L198.551 103.403C198.551 103.403 201.517 99.1897 201.707 97.1181H201.949H202.292C205.037 97.1031 207.781 97.2464 210.51 97.5474C210.51 97.5353 210.491 97.482 210.466 97.3971C210.351 96.9802 210.262 96.5565 210.199 96.1284H210.369L212.068 96.0168C212.068 96.0168 217.915 89.4867 215.765 88.2835C213.614 87.0803 211.379 93.6978 211.379 93.6978L210.651 93.8288L210.454 93.8652C210.474 93.836 210.493 93.8094 210.515 93.7827C210.537 93.756 200.971 93.3557 199.498 91.0319C199.498 91.0319 195.284 87.6795 195.112 85.4526C195.081 84.9907 194.923 84.5461 194.656 84.1679C194.389 83.7896 194.023 83.4922 193.598 83.3083C193.077 83.0599 192.501 82.9521 191.925 82.9954L189.952 83.1312L190.09 83.3738H190.035C189.911 83.0903 189.807 82.7985 189.724 82.5005H189.765C189.751 82.4399 189.738 82.3792 189.726 82.3186C190.331 82.176 190.901 81.9136 191.402 81.5469C191.904 81.1803 192.327 80.7167 192.645 80.1838C192.964 79.6508 193.173 79.0594 193.259 78.4444C193.345 77.8294 193.307 77.2034 193.146 76.6035C193.339 76.6282 193.535 76.6225 193.726 76.5865C194.454 76.4385 194.967 75.7011 194.986 74.9637C194.986 74.9152 194.986 74.8666 194.986 74.8206C194.986 74.8206 194.986 74.8012 194.986 74.7914C194.979 74.4209 194.889 74.0566 194.723 73.7251C194.557 73.3936 194.319 73.1032 194.027 72.8751C193.634 72.5476 193.163 72.3148 192.814 71.9509C192.389 71.5167 192.156 70.9345 191.826 70.4227C191.273 69.576 190.453 68.9382 189.496 68.6106C188.785 68.368 187.911 68.3438 187.365 68.8532C187.083 69.1176 186.921 69.5009 186.605 69.724C186.151 70.0491 185.535 69.9521 184.979 70.0176C184.475 70.0949 183.999 70.295 183.591 70.6C183.184 70.905 182.857 71.3057 182.641 71.7665C182.369 72.3436 182.238 72.9772 182.258 73.615C182.252 74.0525 182.304 74.4889 182.413 74.9127C182.52 75.3348 182.678 75.7423 182.794 76.1644C183.037 77.0377 183.093 77.9571 183.372 78.8182C183.56 79.4573 183.934 80.0259 184.447 80.4507L184.365 80.8049C184.311 80.8049 182.972 81.1033 182.047 83.1239C181.319 84.7176 178.84 86.3623 177.751 87.027C177.547 87.1512 177.371 87.3148 177.232 87.5081C177.093 87.7014 176.993 87.9204 176.94 88.1525C176.835 88.6213 176.789 89.1011 176.802 89.5813C176.782 90.6171 176.998 92.0507 177.831 93.8676C179.722 97.9914 181.098 99.7961 181.098 99.7961C181.098 99.7961 181.202 101.06 181.209 102.392C181.209 103.384 181.137 104.371 180.925 104.866C180.746 105.283 180.683 106.348 180.697 107.566C180.697 109.899 180.925 112.944 180.925 112.944C180.925 112.944 181.583 113.07 182.6 113.218L183.234 124.357C183.313 125.706 182.88 127.035 182.02 128.078C181.576 128.627 181.063 129.116 180.493 129.533C178.688 130.822 174.819 144.401 174.819 144.401C174.819 144.401 175.008 144.401 175.319 144.437L174.129 147.753C174.129 147.753 178.882 151.392 181.773 150.397C182.086 150.295 182.414 150.249 182.743 150.262C183.314 150.262 184.535 149.81 183.855 149.216C182.543 148.008 181.305 146.722 180.149 145.364C180.242 145.409 180.331 145.462 180.416 145.522V145.495L180.457 145.522C180.457 145.522 180.457 145.388 180.489 145.17L180.447 145.155C180.535 144.263 180.811 142.002 181.36 141.74C182.047 141.395 187.122 131.341 187.122 131.341L192.195 118.278C192.195 118.278 196.236 125.24 199.675 126.441V129.352C199.675 129.352 201.566 137.946 202.255 138.89C202.945 139.833 202.255 143.615 202.255 143.615C202.391 143.771 202.547 143.908 202.719 144.022L202.168 147.137C202.168 147.137 206.124 146.965 212.83 149.027C212.826 149.039 215.406 147.923 213.255 146.548ZM197.435 101.603L196.598 101.812L196.433 101.853C196.416 101.749 196.403 101.688 196.403 101.688C196.211 101.775 196.005 101.825 195.794 101.836C195.497 100.897 195.326 99.9219 195.284 98.9374C195.003 97.7592 194.831 96.5573 194.772 95.3473C194.772 94.7214 194.877 94.1756 195.112 93.8676L195.391 93.8894L195.585 94.0738L195.6 94.0859L195.7 94.1757L195.804 94.2678L195.821 94.2824L195.933 94.3818L195.952 94.3988L196.066 94.4959L196.195 94.6026L196.224 94.6268L196.36 94.736L196.493 94.8427L196.525 94.867L196.673 94.9786L196.704 95.0004L196.845 95.1047L196.869 95.1217L197.03 95.2357L197.068 95.2624L197.238 95.3788H197.253L197.418 95.488L197.457 95.5147L197.634 95.6287L197.673 95.6529L197.838 95.7548L197.869 95.7742L198.059 95.8858L198.105 95.9125L198.301 96.0216H198.316L198.508 96.1235L198.554 96.1478L198.758 96.2497L198.799 96.2691L198.988 96.3564L199.025 96.3734L199.238 96.4656L199.289 96.4874L199.51 96.5771C198.139 98.086 197.435 101.603 197.435 101.603Z" fill="url(#paint0_linear)"/>
<path d="M176.226 142.395L174.632 146.841C174.632 146.841 179.001 150.189 181.84 149.495C182.268 149.389 182.704 149.318 183.144 149.284C183.731 149.24 184.743 148.811 184.115 148.268C182.1 146.506 179.413 143.234 179.413 143.234L176.226 142.395Z" fill="#4F4D59"/>
<path d="M202.753 141.975L201.998 146.254C201.998 146.254 205.86 146.087 212.408 148.1C212.408 148.1 214.928 147.009 212.828 145.674C212.828 145.674 210.401 145.842 208.884 143.249C207.367 140.656 206.457 140.983 206.457 140.983L202.753 141.975Z" fill="#4F4D59"/>
<path d="M182.768 110.935L183.496 123.957C183.576 125.344 183.115 126.709 182.212 127.765C181.803 128.25 181.338 128.684 180.826 129.058C179.064 130.317 175.285 143.571 175.285 143.571C175.285 143.571 179.566 143.814 180.741 144.663C180.741 144.663 180.984 141.308 181.663 140.971C182.343 140.634 187.287 130.819 187.287 130.819L192.241 118.067C192.241 118.067 196.185 124.859 199.544 126.038V128.891C199.544 128.891 201.391 137.281 202.064 138.203C202.736 139.125 202.064 142.812 202.064 142.812C202.064 142.812 204.005 145.238 208.442 142.645C208.442 142.645 207.015 141.051 207.1 139.12C207.185 137.189 205.158 126.62 205.158 126.62C205.158 126.62 205.401 122.593 203.396 120.071C201.391 117.548 198.059 107.91 198.059 107.91L195.748 102.942L182.768 110.935Z" fill="#C48C96"/>
<g opacity="0.1">
<path opacity="0.1" d="M176.1 143.569C176.1 143.569 179.877 130.315 181.641 129.056C182.183 128.659 182.672 128.196 183.098 127.678C183.959 126.636 184.393 125.306 184.311 123.957L183.571 110.933L195.95 103.306L195.782 102.945L182.816 110.935L183.556 123.959C183.638 125.308 183.204 126.638 182.343 127.68C181.917 128.199 181.428 128.662 180.887 129.058C179.127 130.315 175.345 143.569 175.345 143.569C175.345 143.569 179.627 143.812 180.802 144.661C180.802 144.661 180.802 144.53 180.833 144.319C179.18 143.751 176.1 143.569 176.1 143.569Z" fill="black"/>
<path opacity="0.1" d="M202.879 142.814C202.879 142.814 203.551 139.122 202.879 138.206C202.207 137.289 200.36 128.893 200.36 128.893V126.035C197.003 124.861 193.056 118.064 193.056 118.064L192.765 118.826C193.903 120.631 196.94 125.109 199.607 126.04V128.893C199.607 128.893 201.454 137.284 202.127 138.206C202.799 139.127 202.127 142.814 202.127 142.814C202.127 142.814 203.064 143.993 205.132 143.833C203.585 143.705 202.879 142.814 202.879 142.814Z" fill="black"/>
</g>
<path d="M211.651 96.3371L210.003 96.4462L209.134 96.5045V94.4062L210.275 94.2L210.981 94.0714C210.981 94.0714 213.165 87.6116 215.262 88.7857C217.36 89.9598 211.651 96.3371 211.651 96.3371Z" fill="#714B4F"/>
<path d="M185.209 79.0437C185.209 79.0437 184.117 83.2378 183.782 85.8358C183.447 88.4338 191.588 86.3404 191.588 86.3404C191.588 86.3404 188.481 82.5659 190.246 80.5525L185.209 79.0437Z" fill="#714B4F"/>
<path d="M194.022 96.5092L194.19 98.1029L191.588 97.9355L188.986 95.6699L186.384 88.3684L184.709 85.7655L183.45 84.1718L183.955 82.2312C183.955 82.2312 184.185 82.4325 184.573 82.7285C185.853 83.6988 188.85 85.7388 191.042 85.1761C191.143 85.1505 191.243 85.1189 191.34 85.0815L194.615 90.7019L194.022 96.5092Z" fill="#E6E6F0"/>
<path opacity="0.1" d="M184.622 81.7387C184.622 81.7387 183.28 81.9813 182.355 84.0044C181.646 85.552 179.248 87.1579 178.178 87.8056C177.974 87.9302 177.797 88.0944 177.657 88.2885C177.517 88.4827 177.418 88.7028 177.365 88.936C177.149 89.8917 177.066 91.6747 178.241 94.2387C180.088 98.2654 181.43 100.027 181.43 100.027C181.43 100.027 181.765 104.053 181.263 105.227C180.76 106.401 181.263 112.861 181.263 112.861C181.263 112.861 190.076 114.54 193.015 112.861C195.954 111.183 195.535 104.723 195.535 104.723C195.535 104.723 198.304 110.596 199.311 110.763L198.724 107.491C198.724 107.491 195.45 103.966 195.282 99.4371C195.282 99.4371 194.275 95.3254 195.115 94.2362C195.115 94.2362 209.301 95.4103 210.141 94.4036C210.141 94.4036 200.823 93.984 199.396 91.7183C199.396 91.7183 195.282 88.446 195.115 86.2652C195.09 85.8558 194.962 85.4594 194.741 85.1135C194.521 84.7675 194.216 84.4835 193.855 84.2882C193.284 83.9636 192.629 83.8174 191.974 83.8686L190.078 83.9996C190.078 83.9996 193.352 89.7874 193.185 90.5491C193.018 91.3108 193.352 97.4285 193.352 97.4285C193.352 97.4285 189.564 89.2901 187.896 88.3683C186.229 87.4466 184.285 83.6527 184.285 83.6527L184.62 81.7363" fill="black"/>
<path opacity="0.1" d="M194.022 96.5092L194.19 98.1029L191.588 97.9355L188.986 95.6699L186.384 88.3684L184.709 85.7655L183.45 84.1718L183.955 82.2312C183.955 82.2312 184.185 82.4325 184.573 82.7285L184.457 83.3907C184.457 83.3907 186.399 87.1797 188.066 88.104C189.734 89.0282 193.522 97.1642 193.522 97.1642C193.522 97.1642 193.187 91.0391 193.355 90.2847C193.469 89.7729 191.998 86.9444 191.042 85.1761C191.143 85.1505 191.243 85.1189 191.34 85.0815L194.615 90.7019L194.022 96.5092Z" fill="black"/>
<path opacity="0.1" d="M210.003 96.4462L209.134 96.5044V94.4061L210.275 94.2C209.877 94.7263 209.891 95.6578 210.003 96.4462Z" fill="black"/>
<path d="M184.622 81.4888C184.622 81.4888 183.28 81.7314 182.355 83.7544C181.646 85.3021 179.248 86.9079 178.178 87.5556C177.974 87.6802 177.797 87.8444 177.657 88.0386C177.517 88.2327 177.418 88.4528 177.365 88.686C177.149 89.6417 177.066 91.4247 178.241 93.9887C180.088 98.0154 181.43 99.7765 181.43 99.7765C181.43 99.7765 181.765 103.803 181.263 104.977C180.76 106.151 181.263 112.611 181.263 112.611C181.263 112.611 190.076 114.29 193.015 112.611C195.954 110.933 195.535 104.473 195.535 104.473C195.535 104.473 198.301 110.336 199.311 110.515L198.724 107.243C198.724 107.243 195.45 103.718 195.282 99.1895C195.282 99.1895 194.275 95.0778 195.115 93.9887C195.115 93.9887 198.389 97.5133 202.083 97.4284C204.775 97.4122 207.466 97.5523 210.141 97.8481C210.141 97.8481 209.301 95.1627 210.141 94.1561C210.141 94.1561 200.823 93.7364 199.396 91.4708C199.396 91.4708 195.282 88.1984 195.115 86.0177C195.09 85.6083 194.962 85.2118 194.741 84.8659C194.521 84.52 194.216 84.2359 193.855 84.0407C193.284 83.716 192.629 83.5699 191.974 83.621L190.078 83.752C190.078 83.752 193.352 89.5398 193.185 90.3015C193.018 91.0632 193.352 97.181 193.352 97.181C193.352 97.181 189.564 89.0377 187.896 88.1159C186.229 87.1941 184.285 83.41 184.285 83.41L184.62 81.4936" fill="#C48C96"/>
<path opacity="0.1" d="M182.768 90.2969C182.768 90.2969 184.782 97.089 185.957 97.9307C187.132 98.7725 194.268 103.049 196.367 102.042C196.367 102.042 196.872 104.56 196.124 105.147C196.124 105.147 188.297 104.842 188.234 104.813C188.234 104.813 183.112 104.141 182.272 101.625C181.433 99.1097 180.425 94.833 180.425 94.833L182.768 90.2969Z" fill="black"/>
<path d="M193.52 97.9748C193.682 97.9748 193.814 97.7868 193.814 97.5549C193.814 97.323 193.682 97.135 193.52 97.135C193.358 97.135 193.226 97.323 193.226 97.5549C193.226 97.7868 193.358 97.9748 193.52 97.9748Z" fill="#BA7855"/>
<path d="M194.357 100.91C194.52 100.91 194.651 100.722 194.651 100.49C194.651 100.258 194.52 100.07 194.357 100.07C194.195 100.07 194.064 100.258 194.064 100.49C194.064 100.722 194.195 100.91 194.357 100.91Z" fill="#BA7855"/>
<g opacity="0.1">
<path opacity="0.1" d="M181.853 112.519C181.853 112.519 181.348 106.059 181.853 104.885C182.357 103.711 182.02 99.6846 182.02 99.6846C182.02 99.6846 180.678 97.9235 178.831 93.8967C177.654 91.3327 177.739 89.5498 177.955 88.594C178.008 88.3609 178.107 88.1407 178.247 87.9466C178.386 87.7524 178.563 87.5882 178.768 87.4636C179.838 86.8087 182.234 85.2101 182.945 83.6624C183.467 82.5272 184.12 81.9523 184.59 81.666L184.622 81.4817C184.622 81.4817 183.28 81.7243 182.355 83.7474C181.646 85.295 179.248 86.9008 178.178 87.5485C177.974 87.6731 177.797 87.8373 177.657 88.0315C177.517 88.2256 177.418 88.4458 177.365 88.6789C177.149 89.6347 177.066 91.4176 178.241 93.9816C180.088 98.0084 181.43 99.7695 181.43 99.7695C181.43 99.7695 181.765 103.796 181.263 104.97C180.76 106.144 181.263 112.604 181.263 112.604C181.263 112.604 187.559 113.802 191.282 113.16C187.522 113.608 181.853 112.519 181.853 112.519Z" fill="black"/>
<path opacity="0.1" d="M193.183 90.2969C193.069 90.8136 193.183 93.853 193.277 95.716C193.683 96.5432 193.937 97.0938 193.937 97.0938C193.937 97.0938 193.602 90.9688 193.77 90.2144C193.93 89.4867 190.981 84.2325 190.687 83.7134L190.076 83.7546C190.076 83.7546 193.352 89.5425 193.183 90.2969Z" fill="black"/>
<path opacity="0.1" d="M202.67 97.3438C198.976 97.4287 195.702 93.9041 195.702 93.9041C195.604 94.0407 195.532 94.1946 195.491 94.3577C196.462 95.26 199.132 97.4942 202.083 97.4262C204.775 97.4101 207.466 97.5502 210.141 97.8459C210.141 97.8459 210.124 97.7901 210.097 97.6955C207.63 97.4406 205.151 97.3232 202.67 97.3438Z" fill="black"/>
<path opacity="0.1" d="M196.117 104.391C196.117 104.391 196.151 104.915 196.132 105.701C197.005 107.433 198.595 110.394 199.306 110.513L199.183 109.824C197.962 108.291 196.117 104.391 196.117 104.391Z" fill="black"/>
</g>
<path d="M198.471 103.544L196.687 103.92L195.28 104.216L196.035 102.117L196.561 101.986L197.379 101.783C197.379 101.783 198.554 95.9099 200.906 96.3296C203.258 96.7492 198.471 103.544 198.471 103.544Z" fill="#714B4F"/>
<path opacity="0.1" d="M196.69 103.927L195.282 104.223L196.037 102.125L196.564 101.994C196.68 102.631 196.723 103.28 196.69 103.927Z" fill="black"/>
<path d="M182.768 90.1294C182.768 90.1294 184.782 96.9215 185.957 97.7632C187.132 98.605 194.268 102.882 196.367 101.875C196.367 101.875 196.872 104.393 196.124 104.98C196.124 104.98 188.297 104.674 188.234 104.645C188.234 104.645 183.112 103.973 182.272 101.458C181.433 98.9422 180.425 94.6656 180.425 94.6656L182.768 90.1294Z" fill="#C48C96"/>
<path opacity="0.1" d="M185.292 79.2234C185.292 79.2234 185.122 79.8808 184.894 80.8365C185.359 81.7165 186.1 82.419 187.004 82.8356C187.909 83.2521 188.925 83.3594 189.896 83.141C189.695 82.2799 189.738 81.409 190.328 80.7346L185.292 79.2234Z" fill="black"/>
<path d="M188.819 83.0826C191.323 83.0826 193.352 81.0539 193.352 78.5513C193.352 76.0488 191.323 74.02 188.819 74.02C186.315 74.02 184.285 76.0488 184.285 78.5513C184.285 81.0539 186.315 83.0826 188.819 83.0826Z" fill="#714B4F"/>
<path opacity="0.1" d="M192.755 77.3045C193.084 77.3962 193.428 77.4177 193.765 77.3676C194.114 77.2731 194.423 77.0673 194.645 76.7814C194.867 76.4956 194.989 76.1452 194.993 75.7836C194.987 75.4219 194.9 75.0663 194.738 74.7427C194.576 74.4191 194.344 74.1357 194.059 73.9133C193.675 73.5931 193.217 73.3675 192.865 73.0109C192.45 72.5864 192.221 72.0188 191.894 71.5191C191.354 70.6928 190.554 70.0704 189.62 69.7507C188.925 69.5081 188.073 69.4887 187.539 69.9933C187.265 70.2528 187.105 70.624 186.799 70.8447C186.355 71.1601 185.753 71.0679 185.212 71.131C184.721 71.2055 184.257 71.3993 183.859 71.6954C183.461 71.9915 183.142 72.3808 182.93 72.829C182.516 73.743 182.437 74.7735 182.707 75.7399C182.811 76.1523 182.967 76.5501 183.078 76.9528C183.321 77.8067 183.37 78.7018 183.641 79.5435C183.913 80.3852 184.474 81.21 185.323 81.4623C185.256 80.5175 185.443 79.572 185.865 78.7236C185.934 78.5381 186.071 78.3856 186.248 78.2967C186.399 78.2579 186.558 78.2579 186.709 78.2967C187.774 78.4541 188.86 78.2344 189.78 77.6757C190.103 77.4816 190.605 76.8121 190.947 76.7466C191.389 76.6714 192.294 77.2026 192.755 77.3045Z" fill="black"/>
<path d="M192.755 77.137C193.084 77.2287 193.428 77.2502 193.765 77.2001C194.114 77.1056 194.423 76.8998 194.645 76.6139C194.867 76.3281 194.989 75.9777 194.993 75.6161C194.987 75.2544 194.9 74.8988 194.738 74.5752C194.576 74.2516 194.344 73.9682 194.059 73.7458C193.675 73.4256 193.217 73.2 192.865 72.8434C192.45 72.4189 192.221 71.8513 191.894 71.3516C191.354 70.5253 190.554 69.9029 189.62 69.5832C188.925 69.3407 188.073 69.3213 187.539 69.8258C187.265 70.0854 187.105 70.4565 186.799 70.6773C186.355 70.9926 185.753 70.9004 185.212 70.9635C184.721 71.038 184.257 71.2318 183.859 71.5279C183.461 71.824 183.142 72.2133 182.93 72.6615C182.516 73.5755 182.437 74.606 182.707 75.5724C182.811 75.9848 182.967 76.3826 183.078 76.7853C183.321 77.6392 183.37 78.5343 183.641 79.376C183.913 80.2177 184.474 81.0425 185.323 81.2948C185.258 80.3504 185.447 79.4057 185.87 78.5585C185.939 78.373 186.076 78.2205 186.253 78.1316C186.404 78.0928 186.563 78.0928 186.714 78.1316C187.779 78.289 188.865 78.0693 189.785 77.5106C190.107 77.3165 190.61 76.647 190.952 76.5815C191.389 76.5039 192.294 77.0352 192.755 77.137Z" fill="#503F43"/>
<path d="M237.986 62.1824L234.287 103.59L217.661 108.199L201.081 103.59L197.386 62.1824H237.986Z" fill="#E44D26"/>
<path d="M217.685 104.677L231.119 100.956L234.274 65.5686H217.685V104.677Z" fill="#F16529"/>
<path d="M210.496 75.7277H217.685V70.6482H204.942L205.064 72.0115L206.314 86.0081H217.687V80.9285H210.962L210.496 75.7277ZM211.651 88.5478H206.554L207.265 96.5237L217.663 99.4201H217.687V94.1198H217.665L212.005 92.5916L211.651 88.5478Z" fill="#EBEBEB"/>
<path d="M201.166 50.9268H203.748V53.4762H206.11V50.9268H208.692V58.6504H206.11V56.0645H203.748V58.6504H201.166V50.9268ZM212.088 53.4884H209.814V50.9268H216.944V53.4884H214.67V58.6504H212.09V53.4884H212.088ZM218.078 50.9268H220.772L222.43 53.6412L224.085 50.9268H226.779V58.6504H224.207V54.8225L222.43 57.5685H222.386L220.607 54.8225V58.6504H218.078V50.9268ZM228.063 50.9268H230.646V56.096H234.287V58.6479H228.071V50.9268H228.063Z" fill="black"/>
<path d="M217.668 86.0081H223.925L223.335 92.5964L217.668 94.1246V99.4201L228.088 96.5334L228.163 95.6747L229.357 82.3015L229.481 80.9382H217.668V86.0178V86.0081ZM217.668 75.7156V75.7277H229.944L230.046 74.5852L230.289 72.009L230.41 70.6458H217.668V75.7131V75.7156Z" fill="white"/>
<path d="M89.0113 92.7516C88.538 91.3665 87.856 89.5982 87.3123 89.1955C87.2795 89.1693 87.2437 89.1473 87.2055 89.13H87.1375V87.4198L85.8608 87.6236C85.6559 87.0055 85.5009 86.3719 85.3972 85.7291C85.5203 85.8521 85.677 85.9359 85.8476 85.97C86.0182 86.0041 86.1951 85.9869 86.356 85.9207C86.3341 85.8867 86.3171 85.8504 86.2977 85.814L86.356 85.7897C86.155 85.4353 86.0489 85.0351 86.0477 84.6278C86.0583 84.2561 86.1179 83.8874 86.2249 83.5313C86.4531 82.743 86.839 82.0055 87.055 81.2147C87.193 80.7041 87.2584 80.1766 87.2492 79.6477C87.2557 78.7517 87.0512 77.8667 86.6521 77.0643C86.5531 76.8333 86.3979 76.6307 86.2006 76.4748C86.0211 76.3754 85.8363 76.2855 85.6472 76.2056C85.3307 75.9924 85.058 75.7207 84.8438 75.4051C83.9372 74.3018 82.7233 73.4922 81.356 73.0788C81 72.9466 80.6142 72.9164 80.242 72.9914C79.3852 73.234 79.0721 74.2844 78.3779 74.8399C77.7638 75.325 76.9216 75.3808 76.1546 75.5458C75.3672 75.6796 74.6425 76.0592 74.0842 76.6301C73.7213 77.0447 73.5235 77.5783 73.5284 78.1292C73.5075 78.3862 73.553 78.6444 73.6605 78.8788C73.7681 79.1133 73.934 79.3162 74.1425 79.4682C74.3798 79.6241 74.6486 79.7256 74.9298 79.7655C75.2109 79.8053 75.4974 79.7825 75.7687 79.6986C75.5568 80.4303 75.4984 81.1978 75.5972 81.9531C75.6961 82.7083 75.9501 83.435 76.3432 84.0876C76.7363 84.7401 77.2601 85.3044 77.8817 85.7451C78.5033 86.1858 79.2094 86.4933 79.9555 86.6484L80.106 86.9153C80.5651 87.7709 80.9133 88.6814 81.1424 89.6248C79.9677 90.2919 78.6837 90.9153 77.9095 90.9736C77.8787 91.2761 77.8227 91.5755 77.742 91.8687C77.5611 92.6049 77.2131 93.2896 76.725 93.8699C75.6716 95.0537 70.9314 104.005 70.9314 104.005C70.9314 104.005 70.7809 104.361 70.5382 104.975C67.594 105.336 62.7907 105.858 61.4484 105.589L56.1815 100.587C56.1815 100.587 54.4825 101.885 54.6281 103.461L53.6791 102.559C53.6791 102.559 48.6743 106.375 56.5771 108.866L68.6013 110.261C67.4557 113.715 66.3877 117.734 66.7178 119.923H66.8173C67.0473 119.922 67.2769 119.904 67.5042 119.869L67.4824 120.257L66.3246 140.98C66.3246 140.98 66.06 144.796 69.6158 146.509C69.6158 146.509 73.9629 159.276 72.2493 160.724C72.2493 160.724 72.4532 160.83 72.7954 160.981L69.2202 164.134C69.2202 164.134 66.5867 164.792 65.1377 164.661C64.8831 164.626 64.6245 164.686 64.4115 164.83C64.1984 164.973 64.0456 165.19 63.9824 165.439C63.9824 165.466 63.9824 165.493 63.9678 165.522V165.556C63.9678 165.583 63.9678 165.612 63.9678 165.641C63.9678 165.67 63.9678 165.663 63.9678 165.672C63.9678 165.682 63.9678 165.721 63.9678 165.745V165.777C63.9678 165.806 63.9678 165.832 63.9848 165.861V165.893C63.9929 165.924 64.0026 165.954 64.0139 165.983V166.012C64.0261 166.041 64.0406 166.07 64.0552 166.099V166.119C64.0722 166.148 64.0892 166.177 64.1086 166.206L64.1256 166.23C64.1466 166.261 64.1701 166.292 64.196 166.322L64.2154 166.347C64.2421 166.378 64.2712 166.407 64.3028 166.439H64.3173L64.4144 166.521L64.4363 166.538L64.5552 166.623L64.5843 166.643L64.7227 166.723H64.7445L64.8926 166.795H64.9144L65.0868 166.866L65.1232 166.88L65.3149 166.943H65.3465L65.5528 166.997H65.5698L65.8125 167.043H65.8586L66.1013 167.079H66.1474L66.4265 167.106C66.9678 167.147 67.6984 167.162 68.543 167.159C68.543 167.159 68.543 167.181 68.543 167.191C68.543 167.2 68.543 167.239 68.543 167.264V167.295C68.543 167.324 68.543 167.351 68.56 167.38V167.412C68.5681 167.442 68.5778 167.472 68.5891 167.501V167.53C68.6013 167.56 68.6158 167.589 68.6304 167.618V167.637C68.6474 167.666 68.6644 167.695 68.6838 167.724L68.7008 167.749C68.7218 167.779 68.7453 167.81 68.7712 167.841L68.7906 167.865C68.8173 167.897 68.8464 167.926 68.878 167.957H68.8901L68.9872 168.04L69.009 168.057L69.128 168.142L69.1571 168.161L69.293 168.241H69.3149L69.4629 168.314H69.4848L69.6571 168.384L69.6935 168.399L69.8853 168.462H69.9168L70.1231 168.515H70.1401L70.3828 168.561H70.4289L70.6717 168.598H70.7178L70.9969 168.624C74.4216 168.889 85.3511 168.098 85.3511 168.098V168.066V168.028C85.4604 167.518 85.9846 164.556 84.1206 162.366C84.1764 162.308 84.2298 162.247 84.2808 162.184C84.2808 162.184 82.8245 159.683 83.623 158.895C84.4215 158.106 79.7662 144.539 79.7662 144.539C79.7662 144.539 77.2638 140.59 78.7128 136.114C80.1619 131.639 78.5818 126.77 78.5818 126.77C78.5818 126.77 82.0405 125.747 82.1036 121.494C82.1036 121.366 82.1036 121.232 82.1036 121.099C82.1759 121.11 82.2489 121.114 82.322 121.114C82.3705 121.117 82.4192 121.117 82.4677 121.114C82.4677 121.114 81.8099 118.744 82.5987 117.033C83.3876 115.323 85.1011 116.902 86.6812 109.926C87.8244 104.878 88.8293 99.0732 89.3001 96.2472C89.4935 95.076 89.3943 93.8752 89.0113 92.7516ZM58.9582 107.549L57.7567 106.409C58.1548 106.574 58.5965 106.734 59.0892 106.894L63.6159 107.425C61.5965 107.607 59.7106 107.709 58.9582 107.556V107.549Z" fill="url(#paint1_linear)"/>
<path d="M70.4216 106.884C70.4216 106.884 61.1062 108.177 59.1645 107.789L53.9898 102.874C53.9898 102.874 49.0723 106.625 56.8368 109.082L71.327 110.763L70.4216 106.884Z" fill="#FDC2CC"/>
<path opacity="0.05" d="M70.4216 106.884C70.4216 106.884 61.1062 108.177 59.1645 107.789L53.9898 102.874C53.9898 102.874 49.0723 106.625 56.8368 109.082L71.327 110.763L70.4216 106.884Z" fill="black"/>
<path d="M52.1864 110.147L32.0555 104.568L27.5701 54.2817H76.8633L72.3731 104.56L52.1864 110.147Z" fill="#264DE4"/>
<path d="M68.5285 101.361L72.3658 58.3958H52.2204V105.87L68.5285 101.361Z" fill="#2965F1"/>
<path d="M37.8661 77.0376L38.4195 83.2039H52.2301V77.0376H37.8661ZM36.7545 64.5547L37.3152 70.721H52.2277V64.5547H36.7424H36.7545ZM52.2277 93.0549H52.201L45.3272 91.1992L44.8879 86.2798H38.6817L39.5457 95.9634L52.1864 99.4783H52.2155L52.2277 93.0549Z" fill="#EBEBEB"/>
<path d="M39.172 40.6101H46.6452V43.7345H42.2957V46.8589H46.6452V49.9832H39.172V40.6101ZM48.1525 40.6101H55.6257V43.327H51.2665V43.8703H55.616V50.1191H48.1403V47.2664H52.4898V46.723H48.1403V40.6101H48.1525ZM57.133 40.6101H64.6062V43.327H60.2349V43.8703H64.5843V50.1191H57.1087V47.2664H61.4582V46.723H57.1087V40.6101H57.133Z" fill="black"/>
<path d="M66.5406 77.0376L67.6547 64.5547H52.1864V70.721H60.8829L60.3222 77.0279H52.1864V83.1942H59.7858L59.0577 91.1992L52.1864 93.0597V99.4759L64.8367 95.9706L64.929 94.9276L66.3853 78.6896L66.5358 77.0328L66.5406 77.0376Z" fill="white"/>
<path d="M73.7881 159.382L69.259 163.39C69.259 163.39 66.6717 164.037 65.2494 163.906C63.8271 163.775 63.179 166.104 66.543 166.364C69.9071 166.623 80.6448 165.847 80.6448 165.847C80.6448 165.847 81.6788 161.709 78.5745 159.382H73.7881Z" fill="#47465A"/>
<path opacity="0.05" d="M73.7881 159.382L69.259 163.39C69.259 163.39 66.6717 164.037 65.2494 163.906C63.8271 163.775 63.179 166.104 66.543 166.364C69.9071 166.623 80.6448 165.847 80.6448 165.847C80.6448 165.847 81.6788 161.709 78.5745 159.382H73.7881Z" fill="black"/>
<path opacity="0.3" d="M80.805 164.059C80.7974 164.531 80.7429 165.001 80.6424 165.461C80.6424 165.461 69.9047 166.238 66.5406 165.978C64.9217 165.854 64.2348 165.25 64.1135 164.673C63.9654 165.338 64.5528 166.213 66.5406 166.371C69.9047 166.631 80.6424 165.854 80.6424 165.854C80.7689 165.265 80.8235 164.662 80.805 164.059Z" fill="white"/>
<path d="M79.089 86.0786C79.089 86.0786 81.9361 90.0859 80.8997 92.8028C79.8633 95.5196 86.3341 89.9574 86.3341 89.9574C86.3341 89.9574 84.2638 86.3212 85.3001 82.4399L79.089 86.0786Z" fill="#FDC2CC"/>
<path d="M78.3124 160.935L73.7881 164.942C73.7881 164.942 71.2008 165.59 69.7785 165.459C68.3561 165.328 67.7081 167.657 71.0721 167.916C74.4362 168.176 85.174 167.399 85.174 167.399C85.174 167.399 86.2079 163.261 83.1036 160.935H78.3124Z" fill="#47465A"/>
<path d="M79.6133 160.03C78.9386 160.862 77.9871 161.182 76.992 161.231C74.7299 161.338 72.2396 160.03 72.2396 160.03C73.9216 158.609 69.6522 146.065 69.6522 146.065C66.1596 144.384 66.4168 140.634 66.4168 140.634L67.5479 120.282L67.8343 115.168L71.4581 112.97L74.3124 115.154L77.0211 117.23C77.1976 117.891 77.3113 118.566 77.3609 119.248C77.6764 124 73.9168 125.119 73.9168 125.119C73.9168 125.119 75.4701 129.902 74.0454 134.3C72.6207 138.698 75.0794 142.577 75.0794 142.577C75.0794 142.577 79.7371 156.025 78.9628 156.801C78.1886 157.578 79.6133 160.03 79.6133 160.03Z" fill="#565171"/>
<path opacity="0.05" d="M79.6133 160.03C78.9386 160.862 77.9871 161.182 76.992 161.231C74.7299 161.338 72.2396 160.03 72.2396 160.03C73.9216 158.609 69.6522 146.065 69.6522 146.065C66.1596 144.384 66.4168 140.634 66.4168 140.634L67.5479 120.282L67.8343 115.168L71.4581 112.97L74.3124 115.154L77.0211 117.23C77.1976 117.891 77.3113 118.566 77.3609 119.248C77.6764 124 73.9168 125.119 73.9168 125.119C73.9168 125.119 75.4701 129.902 74.0454 134.3C72.6207 138.698 75.0794 142.577 75.0794 142.577C75.0794 142.577 79.7371 156.025 78.9628 156.801C78.1886 157.578 79.6133 160.03 79.6133 160.03Z" fill="black"/>
<path d="M84.1351 161.58C81.9361 164.295 76.7614 161.58 76.7614 161.58C76.8656 161.484 76.9433 161.363 76.9871 161.228C77.9361 158.65 73.7857 146.322 73.7857 146.322C70.293 144.641 69.9022 140.634 69.9022 140.634L68.9872 119.913L68.8683 117.23L74.3124 115.154L75.9847 114.516L81.555 118.783C81.7942 119.666 81.9118 120.579 81.9045 121.495C81.8342 125.669 78.4434 126.678 78.4434 126.678C78.4434 126.678 79.9968 131.462 78.572 135.86C77.1473 140.258 79.6133 144.124 79.6133 144.124C79.6133 144.124 84.271 157.573 83.4968 158.349C82.7225 159.125 84.1351 161.58 84.1351 161.58Z" fill="#565171"/>
<path opacity="0.1" d="M81.9045 121.495C80.7856 121.334 78.5211 119.988 77.3585 119.258C76.9143 118.979 76.6303 118.792 76.6303 118.792C76.6303 118.792 75.4653 115.559 72.361 118.016C71.3511 118.836 70.2106 119.48 68.9872 119.923C68.5199 120.088 68.038 120.209 67.5479 120.284L67.8343 115.171L71.458 112.973L74.3124 115.156L75.9847 114.518L81.555 118.783C81.7942 119.667 81.9118 120.579 81.9045 121.495Z" fill="black"/>
<path d="M88.9069 96.6814C88.4457 99.4565 87.4506 105.172 86.3341 110.118C84.7807 116.97 83.0987 115.418 82.3244 117.099C81.5502 118.78 82.1958 121.106 82.1958 121.106C80.9021 121.235 76.6328 118.392 76.6328 118.392C76.6328 118.392 75.4677 115.158 72.3634 117.616C69.259 120.073 66.8003 119.942 66.8003 119.942C66.1523 115.675 70.9411 104.296 70.9411 104.296C70.9411 104.296 75.5988 95.5025 76.6328 94.3503C77.1125 93.7807 77.4547 93.1084 77.6327 92.3854C77.7122 92.0978 77.7674 91.8041 77.7978 91.5073C79.4798 91.3787 83.623 88.5333 83.623 88.5333L86.8584 88.0166V89.6977C86.8967 89.7148 86.9326 89.7368 86.9652 89.7631C87.4967 90.1682 88.1788 91.8954 88.6326 93.2562C89.0043 94.3581 89.0985 95.5345 88.9069 96.6814Z" fill="#E1A0A7"/>
<path d="M73.7881 108.825L72.1158 108.631L59.298 107.144C51.531 104.686 56.4509 100.936 56.4509 100.936L61.6256 105.851C63.1183 106.149 68.9751 105.453 71.5988 105.123C72.3852 105.021 72.8828 104.953 72.8828 104.953L73.7881 108.825Z" fill="#FDC2CC"/>
<path opacity="0.1" d="M86.3341 91.369C86.3341 91.369 82.9701 88.6546 77.9143 97.4455C72.8585 106.236 71.7032 104.815 71.7032 104.815C71.7032 104.815 72.7372 108.696 72.2202 109.47C72.2202 109.47 75.7129 109.21 77.0065 109.47C78.3002 109.73 86.322 99.6433 86.322 99.6433C86.322 99.6433 90.4749 93.9549 86.3341 91.369Z" fill="black"/>
<path opacity="0.1" d="M86.2055 90.8524C86.2055 90.8524 82.8414 88.138 77.7954 96.929C72.7493 105.72 71.5843 104.298 71.5843 104.298C71.5843 104.298 75.5939 108.694 76.8876 108.953C78.1813 109.213 86.2031 99.1267 86.2031 99.1267C86.2031 99.1267 90.3462 93.4383 86.2055 90.8524Z" fill="black"/>
<path opacity="0.1" d="M72.1134 108.638C72.1668 107.68 71.8051 105.996 71.5964 105.123C72.3828 105.021 72.8804 104.953 72.8804 104.953L73.7857 108.834L72.1134 108.638Z" fill="black"/>
<path d="M86.3341 91.1094C86.3341 91.1094 82.9701 88.395 77.9143 97.1883C72.8585 105.982 71.7032 104.558 71.7032 104.558C71.7032 104.558 72.7372 108.439 72.2202 109.213C72.2202 109.213 75.7129 108.953 77.0065 109.213C78.3002 109.472 86.322 99.3861 86.322 99.3861C86.322 99.3861 90.4749 93.6952 86.3341 91.1094Z" fill="#E1A0A7"/>
<path opacity="0.1" d="M85.4385 82.7041L79.2177 86.3209C79.4809 86.7025 79.724 87.0977 79.9458 87.5047C80.3037 87.5773 80.668 87.6139 81.0332 87.6138C82.691 87.6138 83.4604 85.8746 84.4628 84.7029C84.39 83.7714 85.1521 83.7472 85.4385 82.7041Z" fill="black"/>
<path d="M80.8997 87.3616C83.901 87.3616 86.3341 84.9299 86.3341 81.9303C86.3341 78.9307 83.901 76.499 80.8997 76.499C77.8984 76.499 75.4653 78.9307 75.4653 81.9303C75.4653 84.9299 77.8984 87.3616 80.8997 87.3616Z" fill="#FDC2CC"/>
<path opacity="0.1" d="M74.0308 77.5374C74.5789 76.9757 75.291 76.602 76.0648 76.47C76.8196 76.3075 77.6473 76.259 78.2492 75.7763C78.9313 75.2305 79.2371 74.1922 80.0793 73.9594C80.4452 73.8862 80.8243 73.9165 81.174 74.0467C82.5175 74.4526 83.7102 75.2478 84.6011 76.3318C84.8119 76.6428 85.0805 76.9104 85.3924 77.1201C85.5781 77.1986 85.7596 77.2869 85.9361 77.3845C86.1293 77.538 86.2811 77.7373 86.3778 77.9643C86.9842 79.1885 87.1239 80.5914 86.771 81.911C86.5598 82.6897 86.1812 83.4125 85.9555 84.1888C85.7298 84.965 85.6739 85.8432 86.0841 86.5369C85.6861 86.7407 85.1836 86.4836 84.9336 86.1124C84.6837 85.7413 84.6084 85.2852 84.4773 84.8559C84.2195 84.013 83.7341 83.2576 83.0744 82.6727C82.6667 82.3137 81.9385 82.0711 81.6546 82.5344C81.5453 82.7139 81.5526 82.9444 81.458 83.1312C81.2735 83.4974 80.7298 83.5702 80.3827 83.3737C80.0409 83.1379 79.8008 82.7819 79.7104 82.3767C79.1788 80.5744 78.2687 79.4416 76.3415 80.2105C75.6133 80.4968 74.776 80.6957 74.0842 80.2105C73.1983 79.5604 73.3755 78.2724 74.0308 77.5374Z" fill="black"/>
<path d="M74.0308 77.4063C74.5789 76.8446 75.291 76.4709 76.0648 76.3389C76.8196 76.1764 77.6473 76.1279 78.2492 75.6452C78.9313 75.0994 79.2371 74.0611 80.0793 73.8283C80.4452 73.7551 80.8243 73.7854 81.174 73.9156C82.5175 74.3215 83.7102 75.1167 84.6011 76.2007C84.8119 76.5117 85.0805 76.7793 85.3924 76.989C85.5781 77.0675 85.7596 77.1558 85.9361 77.2534C86.1293 77.4069 86.2811 77.6062 86.3778 77.8332C86.9842 79.0574 87.1239 80.4603 86.771 81.7799C86.5598 82.5586 86.1812 83.2815 85.9555 84.0577C85.7298 84.8339 85.6739 85.7121 86.0841 86.4058C85.6861 86.6096 85.1836 86.3525 84.9336 85.9813C84.6837 85.6102 84.6084 85.1541 84.4773 84.7248C84.2195 83.8819 83.7341 83.1265 83.0744 82.5416C82.6667 82.1826 81.9385 81.94 81.6546 82.4033C81.5453 82.5828 81.5526 82.8133 81.458 83.0001C81.2735 83.3663 80.7298 83.4391 80.3827 83.2426C80.0409 83.0068 79.8008 82.6508 79.7104 82.2457C79.1788 80.4433 78.2687 79.3105 76.3415 80.0794C75.6133 80.3657 74.776 80.5646 74.0842 80.0794C73.1983 79.4318 73.3755 78.1437 74.0308 77.4063Z" fill="#8F5A6A"/>
<path opacity="0.05" d="M86.9579 89.7534H84.3293C84.3293 89.7534 79.1546 92.3393 79.0259 92.2107C78.9385 92.1234 78.1376 92.2738 77.6303 92.3781C77.7097 92.0905 77.7649 91.7967 77.7954 91.4999C79.4774 91.3714 83.6205 88.526 83.6205 88.526L86.8559 88.0093V89.6903C86.8924 89.7071 86.9266 89.7282 86.9579 89.7534Z" fill="black"/>
<path opacity="0.3" d="M85.3317 165.609C85.324 166.081 85.2695 166.551 85.1691 167.011C85.1691 167.011 74.4313 167.788 71.0673 167.528C69.4483 167.404 68.7615 166.8 68.6401 166.223C68.492 166.888 69.0794 167.763 71.0673 167.921C74.4313 168.181 85.1691 167.404 85.1691 167.404C85.2956 166.815 85.3502 166.212 85.3317 165.609Z" fill="white"/>
<g opacity="0.05">
<path opacity="0.05" d="M71.1328 117.487C69.3877 118.87 67.844 119.428 66.8295 119.67C66.8295 119.767 66.8489 119.862 66.8634 119.954C66.8634 119.954 69.3222 120.083 72.4265 117.628C72.9075 117.216 73.4761 116.919 74.0891 116.76C73.4119 116.427 72.4459 116.449 71.1328 117.487Z" fill="black"/>
<path opacity="0.05" d="M88.6909 93.2441C88.2273 91.8833 87.555 90.1586 87.0234 89.751C86.9908 89.7247 86.9549 89.7027 86.9166 89.6855C86.9166 89.6855 85.8462 89.7219 85.8827 89.751C86.4142 90.1561 86.9336 91.7547 87.3972 93.1131C87.7729 94.2174 87.8696 95.3974 87.6788 96.548C87.2176 99.3231 86.2225 105.038 85.106 109.984C83.5526 116.837 81.8706 115.285 81.0963 116.966C80.4604 118.343 80.7783 120.153 80.9167 120.762C81.3351 120.971 81.7937 121.088 82.2613 121.104C82.2613 121.104 81.6133 118.778 82.39 117.097C83.1667 115.416 84.8487 116.968 86.3996 110.115C87.5234 105.157 88.5113 99.4419 88.9724 96.679C89.1633 95.5284 89.0665 94.3484 88.6909 93.2441Z" fill="black"/>
</g>
<path d="M103.727 117.397C104.172 117.035 104.496 116.546 104.657 115.995C104.778 115.437 104.54 114.77 104.006 114.566C103.409 114.338 102.771 114.751 102.288 115.17C101.805 115.59 101.249 116.066 100.616 115.976C100.941 115.681 101.185 115.307 101.323 114.89C101.46 114.473 101.488 114.027 101.402 113.596C101.375 113.418 101.299 113.25 101.183 113.111C100.851 112.757 100.251 112.91 99.8534 113.189C98.5913 114.076 98.2393 115.789 98.2321 117.332C98.1058 116.776 98.2126 116.197 98.2078 115.634C98.2029 115.071 98.0476 114.421 97.567 114.125C97.269 113.965 96.9343 113.885 96.5962 113.895C96.0282 113.873 95.3971 113.931 95.0088 114.346C94.5234 114.86 94.652 115.726 95.0719 116.286C95.4918 116.847 96.1277 117.208 96.7151 117.601C97.1858 117.881 97.5874 118.263 97.8898 118.719C97.9254 118.783 97.9547 118.849 97.9772 118.918H101.533C102.33 118.513 103.068 118.001 103.727 117.397Z" fill="#85B3FF"/>
<path d="M110.259 162.946C110.824 162.419 111.356 161.798 111.521 161.044C111.686 160.29 111.363 159.382 110.64 159.103C109.831 158.793 108.965 159.346 108.31 159.921C107.654 160.496 106.902 161.134 106.045 161.012C106.486 160.612 106.816 160.105 107.003 159.54C107.19 158.974 107.227 158.37 107.111 157.786C107.073 157.545 106.971 157.319 106.815 157.131C106.365 156.646 105.55 156.857 105.014 157.236C103.315 158.448 102.829 160.76 102.817 162.851C102.645 162.097 102.79 161.311 102.785 160.537C102.781 159.763 102.569 158.907 101.916 158.49C101.51 158.271 101.053 158.164 100.591 158.179C99.8219 158.15 98.9651 158.228 98.4408 158.79C97.7879 159.489 97.9554 160.661 98.5258 161.43C99.0961 162.199 99.9578 162.681 100.751 163.213C101.389 163.592 101.932 164.11 102.341 164.729C102.39 164.815 102.43 164.906 102.46 165H107.283C108.363 164.453 109.364 163.762 110.259 162.946Z" fill="#85B3FF"/>
</g>
<defs>
<linearGradient id="paint0_linear" x1="195.178" y1="150.567" x2="195.178" y2="68.4432" gradientUnits="userSpaceOnUse">
<stop stop-color="#808080" stop-opacity="0.25"/>
<stop offset="0.54" stop-color="#808080" stop-opacity="0.12"/>
<stop offset="1" stop-color="#808080" stop-opacity="0.1"/>
</linearGradient>
<linearGradient id="paint1_linear" x1="14089.2" y1="74458.8" x2="14089.2" y2="36626.4" gradientUnits="userSpaceOnUse">
<stop stop-color="#808080" stop-opacity="0.25"/>
<stop offset="0.54" stop-color="#808080" stop-opacity="0.12"/>
<stop offset="1" stop-color="#808080" stop-opacity="0.1"/>
</linearGradient>
<clipPath id="clip0">
<rect width="250" height="177.046" fill="white" transform="translate(0 0.951416)"/>
</clipPath>
</defs>
</svg>
