<svg width="250" height="196" viewBox="0 0 250 196" fill="none" xmlns="http://www.w3.org/2000/svg">
<g clip-path="url(#clip0)">
<path opacity="0.1" d="M87.6959 191.713C111.78 191.713 131.305 188.016 131.305 183.456C131.305 178.897 111.78 175.2 87.6959 175.2C63.6113 175.2 44.0869 178.897 44.0869 183.456C44.0869 188.016 63.6113 191.713 87.6959 191.713Z" fill="#85B3FF"/>
<path opacity="0.1" d="M145.252 27.5702C129.225 27.0158 113.96 21.8433 99.3844 16.1857C84.8084 10.5281 70.3712 4.26166 54.7279 1.26457C44.6664 -0.663372 33.1587 -0.938085 25.0535 4.44728C17.2504 9.64455 14.7295 18.5913 13.3749 26.8995C12.3546 33.1511 11.7554 39.7318 14.5487 45.5849C16.4902 49.6487 19.9324 53.0641 22.3146 56.9571C30.6031 70.4997 24.744 87.2002 15.7646 100.424C11.5548 106.626 6.66393 112.551 3.41245 119.146C0.160971 125.742 -1.34219 133.325 1.50317 140.071C4.32128 146.754 11.0397 151.763 18.3178 155.289C33.0992 162.454 50.5106 164.503 67.5011 165.667C105.1 168.236 142.897 167.124 180.595 166.008C194.547 165.597 208.558 165.179 222.282 163.023C229.904 161.826 237.772 159.925 243.306 155.336C250.329 149.513 252.07 139.653 247.363 132.352C239.468 120.101 217.646 117.06 212.121 103.916C209.085 96.6791 212.203 88.6208 216.618 81.9114C226.088 67.515 241.959 54.8856 242.794 38.4325C243.368 27.1321 235.739 15.8145 223.941 10.4662C211.577 4.86059 194.428 5.56593 185.31 14.8443C175.912 24.3875 159.404 28.0627 145.252 27.5702Z" fill="#85B3FF"/>
<path d="M132.516 89.5268L124.931 84.4161L128.757 78.7239L108.723 77.1276L101.524 82.6911L92.5124 77.6424L84.9966 78.5457L84.9075 76.5658C84.8145 74.5017 84.6069 72.4444 84.2859 70.4033C84.3181 69.7846 84.3404 69.0743 84.3379 68.3021C84.3379 65.0476 83.8971 60.7339 81.9606 57.8581L82.4063 53.8537L78.7908 49.5845C79.3715 48.4286 80.0335 47.3154 80.7719 46.2533C80.8958 46.0751 81.0196 45.9019 81.1533 45.7336C85.846 45.3945 89.5482 41.5386 89.5482 36.824C89.5482 36.6062 89.5482 36.3884 89.5234 36.1731C89.5234 36.0864 89.5061 35.9974 89.4962 35.9107C89.9543 36.1582 90.4174 36.4057 90.8805 36.6532C90.9672 36.7769 91.0662 36.9007 91.1752 37.0467L91.1975 37.0739L91.3362 37.2447L91.3807 37.2967C91.4303 37.3561 91.4823 37.413 91.5343 37.4724L91.5689 37.512C91.7002 37.658 91.8389 37.8065 91.9874 37.9525C92.0051 37.9669 92.0217 37.9826 92.037 37.9995L92.2227 38.1728L92.2747 38.2198C92.4332 38.3609 92.6016 38.497 92.77 38.6257L92.8245 38.6653L93.0374 38.8113L93.1068 38.8559C93.1885 38.9053 93.2727 38.9573 93.3544 39.0043L93.3841 39.0217C93.4807 39.0736 93.5798 39.1231 93.6788 39.1702L93.7283 39.19C93.8125 39.2263 93.8951 39.2609 93.976 39.2939L94.0527 39.3211C94.1394 39.3508 94.2236 39.3781 94.3128 39.4028L94.3672 39.4177C94.4762 39.4449 94.5852 39.4672 94.6966 39.4845H94.709C94.8139 39.5014 94.9198 39.5122 95.026 39.5166H95.0978C95.1926 39.5216 95.2877 39.5216 95.3826 39.5166H95.4445C95.5632 39.5098 95.6815 39.4958 95.7986 39.4746C96.3527 39.4018 96.8847 39.211 97.3587 38.9152C97.4794 38.8346 97.5864 38.7352 97.6757 38.6207C98.171 37.9723 97.6261 37.262 97.6261 37.262C97.433 36.8017 96.1799 36.4775 96.1799 36.4775C96.1799 36.4775 92.2177 34.8243 92.2177 33.5076C92.2177 32.191 91.2272 25.3603 81.0022 23.7986C81.0022 23.7986 74.3507 23.4249 72.481 26.9838L72.4414 27.3996C71.8917 27.7436 71.436 28.4341 70.8937 28.637C70.6594 28.6873 70.4334 28.7706 70.2226 28.8845V28.8375C70.16 28.8922 70.1087 28.9586 70.0715 29.033C69.955 29.2647 69.8852 29.5169 69.866 29.7755C69.8102 30.0913 69.7005 30.3952 69.5416 30.6739C69.4973 30.753 69.4476 30.8291 69.393 30.9015L69.3509 30.9684C69.6384 30.9908 69.9271 30.9441 70.1929 30.8323C70.151 31.1711 70.0678 31.5035 69.9452 31.8222C70.1026 31.8273 70.2582 31.7871 70.3934 31.7064C70.5287 31.6256 70.6378 31.5078 70.708 31.3668V31.347L70.7401 31.3025C70.8024 31.1879 70.8538 31.0678 70.8937 30.9436L70.8664 30.9733C70.916 30.8125 70.9605 30.6491 71.015 30.4907C71.04 30.4015 71.0811 30.3176 71.1364 30.2432C71.2025 30.1766 71.2833 30.1265 71.3723 30.0968C71.4614 30.0672 71.5561 30.0588 71.649 30.0725L71.5474 32.2182H71.592C71.5324 32.3743 71.4595 32.525 71.3741 32.6686C71.0225 33.2378 70.3835 33.6264 70.1483 34.2501C70.0469 34.5509 70.0081 34.8692 70.0344 35.1856C70.0344 35.3712 70.0567 35.5593 70.0715 35.7449V35.7301C70.1062 36.225 70.1161 36.6953 69.8486 37.0937C69.6654 37.366 69.3707 37.5714 69.2692 37.8807C69.2411 37.9669 69.2285 38.0574 69.232 38.148C69.2519 38.4192 69.3086 38.6865 69.4004 38.9425C69.4015 38.9376 69.4015 38.9325 69.4004 38.9276C69.4622 39.1159 69.4766 39.3165 69.4425 39.5117C69.3311 40.0067 68.7293 40.42 68.759 40.8927C68.7573 40.9549 68.7666 41.0168 68.7863 41.0758C68.9021 41.3067 69.1026 41.484 69.3459 41.5708C69.7277 41.7878 70.1662 41.8844 70.6039 41.848C70.768 41.8184 70.9266 41.7641 71.0745 41.6871C70.9011 42.0856 70.7228 42.4791 70.542 42.8528C70.5148 42.9122 70.4851 42.9716 70.4554 43.031C70.4554 43.031 68.925 42.0089 68.0557 44.0927C67.802 44.5258 67.6205 44.9972 67.5184 45.4886C67.4748 45.6851 67.4135 45.8773 67.3351 46.0627C66.9492 46.7156 66.3717 47.2341 65.6809 47.5477C63.9078 48.3594 56.7461 57.2864 56.6198 59.5979C56.5579 60.5002 56.4052 61.3941 56.1642 62.2659C55.6004 64.3189 55.4556 66.4642 55.7383 68.5743C55.8267 69.2563 55.9734 69.9294 56.1766 70.5864C56.9368 72.8955 57.4445 77.2043 57.4445 77.2043L58.2666 84.6834C58.2361 85.7157 58.2808 86.7488 58.4004 87.7746C57.5609 88.7323 54.1905 92.7243 55.4782 93.8108C56.4688 94.6671 58.2023 94.5261 59.1755 94.3504C58.3558 96.3773 57.0656 99.9015 56.8947 102.322C56.6471 105.903 57.3182 110.648 58.3806 112.469C59.4429 114.291 62.9841 118.963 62.9841 118.963C62.9841 118.963 62.8182 125.373 64.0836 127.702C65.3491 130.031 65.8592 134.862 65.8592 134.862C65.8592 134.862 67.0404 138.94 66.4486 140.44C65.8567 141.94 67.5456 143.187 65.7725 144.185C63.9994 145.182 61.7311 167.662 61.7311 167.662C61.7311 167.662 60.8173 182.395 61.7311 183.145C61.78 183.18 61.8322 183.211 61.8871 183.236V188.186C61.8871 188.186 61.2531 189.225 63.8311 189.436C65.5967 189.577 70.6015 189.896 73.5706 190.082L75.8712 190.225C75.8712 190.225 81.3192 191.309 83.7263 190.225C86.1333 189.141 90.4001 189.166 89.7661 186.302C89.6821 185.913 89.5695 185.53 89.4293 185.157C88.7335 183.38 87.5523 183.177 85.3755 182.682C85.2492 182.654 85.1279 182.63 85.0165 182.61C82.7233 182.211 81.9705 183.278 80.6853 181.89C79.5684 180.689 76.0124 179.346 74.8014 178.92C74.8311 178.831 74.8683 178.744 74.898 178.653C74.5551 178.594 74.2361 178.439 73.9792 178.205L77.2604 178.413L79.2143 178.534C79.2143 178.534 83.8451 179.457 85.9005 178.534C87.9559 177.611 91.5714 177.635 91.0316 175.203C90.9604 174.871 90.8653 174.545 90.7468 174.227C90.1549 172.718 89.1495 172.552 87.2997 172.134C87.1932 172.111 87.0941 172.089 86.9951 172.072C85.0462 171.733 84.4073 172.639 83.3152 171.461C82.3791 170.456 79.4248 169.33 78.3624 168.946C78.3624 168.397 77.6195 167.615 77.1515 166.83C76.6017 165.914 77.617 162.709 77.617 162.709L78.1965 149.412C78.4172 149.314 78.6506 149.247 78.8899 149.214C78.8899 149.214 81.5099 146.714 80.918 144.051C80.7975 143.246 80.7346 142.433 80.7298 141.618C81.5916 140.819 82.7778 139.638 83.1146 138.911C83.6643 137.725 83.1146 131.981 83.1146 131.981V110.016L87.4978 110.459L91.4748 110.868L92.6858 110.992L96.6628 111.392L105.803 112.316L114.04 110.756L117.603 110.083L124.931 108.697V90.7791L132.516 89.5268ZM72.1888 30.1517L71.6787 30.0972C71.8471 30.1046 72.0254 30.1368 72.1888 30.1517Z" fill="url(#paint0_linear)"/>
<path d="M114.738 101.161C112.262 104.703 103.359 102.827 103.359 102.827L96.4598 96.3747L95.5311 95.501L97.0888 92.1946C97.0888 92.1946 97.584 92.3307 98.4334 92.5732C102.893 93.8676 116.828 98.1838 114.738 101.161Z" fill="#EFB7B9"/>
<path opacity="0.1" d="M98.4285 92.5732C98.1239 93.6325 97.2894 95.2189 96.4598 96.3747L95.5311 95.501L97.0888 92.1946C97.0888 92.1946 97.589 92.3307 98.4285 92.5732Z" fill="black"/>
<path d="M74.7667 55.2866C74.7667 55.2866 68.4074 58.1055 68.7194 65.0278C68.9439 69.4874 69.4301 73.9301 70.1755 78.3328C70.1755 78.3328 68.8754 88.7496 74.2888 91.4349C79.7021 94.1201 84.7118 96.3277 84.7118 96.3277C84.7118 96.3277 93.1811 97.2385 94.2335 97.6147C95.286 97.9909 98.5746 92.2392 97.9679 91.3433C97.3612 90.4474 89.5878 88.569 88.5973 87.0741C87.6067 85.5793 85.3161 84.6562 85.3161 84.6562C85.3161 84.6562 82.9511 83.2257 82.7902 81.9338C82.6292 80.6419 83.2533 79.6791 83.4117 79.1124C83.5702 78.5456 83.9714 73.0737 83.9714 73.0737C83.9714 73.0737 86.6409 53.5963 74.7667 55.2866Z" fill="#DCE6F2"/>
<path opacity="0.1" d="M78.9642 78.0481C78.9642 78.0481 70.2399 79.5083 71.0844 82.5598C71.0844 82.5598 74.2516 79.2657 78.9642 78.0481Z" fill="black"/>
<path opacity="0.1" d="M79.0311 79.2832C79.0311 79.2832 74.2343 83.196 75.1729 83.3965C76.1114 83.5969 79.0311 79.2832 79.0311 79.2832Z" fill="black"/>
<path opacity="0.1" d="M81.3365 80.6467C81.3365 80.6467 80.0513 83.2775 80.8413 83.0993C81.6312 82.9211 81.3365 80.6467 81.3365 80.6467Z" fill="black"/>
<path opacity="0.1" d="M98.7504 92.8529L98.2205 92.7019C98.3715 92.207 98.4136 91.806 98.2898 91.6204C97.6831 90.7245 89.9147 88.8485 88.9266 87.3512C87.9386 85.8539 85.6454 84.9333 85.6454 84.9333C85.6454 84.9333 83.2805 83.5028 83.1195 82.2109C82.9586 80.919 83.5826 79.9562 83.7411 79.3895C83.8996 78.8227 84.3008 73.3483 84.3008 73.3483C84.3008 73.3483 86.9629 53.8734 75.0887 55.5637C75.0887 55.5637 68.7293 58.3851 69.0389 65.3074C69.2635 69.7671 69.7505 74.2098 70.4975 78.6124C70.4975 78.6124 69.1974 89.0292 74.6107 91.7145C80.0241 94.3997 85.0338 96.6073 85.0338 96.6073C85.0338 96.6073 93.5005 97.5156 94.5554 97.8943C94.9541 98.0378 95.6748 97.2978 96.3805 96.2806L96.7817 96.6543L103.681 103.104C103.681 103.104 112.583 104.982 115.06 101.441C117.152 98.461 103.22 94.1448 98.7504 92.8529Z" fill="black"/>
<path d="M71.1066 29.3052C70.8642 29.3526 70.632 29.4422 70.4207 29.57C70.173 29.7755 70.173 30.1269 70.1111 30.4338C70.0384 30.8607 69.869 31.2653 69.6159 31.6168C69.8977 31.6374 70.1803 31.5908 70.4405 31.4807C70.3981 31.8194 70.315 32.1518 70.1929 32.4706C70.3472 32.4745 70.4993 32.4339 70.6311 32.3536C70.7629 32.2732 70.8686 32.1566 70.9358 32.0177C71.0668 31.7388 71.1705 31.4479 71.2453 31.149C71.2686 31.0596 71.3089 30.9756 71.3642 30.9015C71.592 30.6318 72.0155 30.753 72.3671 30.7877C72.6598 30.8123 72.9537 30.7583 73.2184 30.6313C73.4832 30.5042 73.7091 30.3087 73.8728 30.065C74.2467 29.4983 74.269 28.048 73.3775 27.8945C72.4464 27.7411 71.8669 29.0231 71.1066 29.3052Z" fill="#965D7B"/>
<g opacity="0.1">
<path opacity="0.1" d="M70.3959 29.8746C70.4182 29.7533 70.4331 29.627 70.4603 29.5056C70.2251 29.7112 70.2127 30.0603 70.1508 30.3699C70.1196 30.5485 70.0706 30.7235 70.0047 30.8924C70.1996 30.5816 70.3325 30.236 70.3959 29.8746Z" fill="black"/>
<path opacity="0.1" d="M70.4752 31.92C70.5985 31.6014 70.6817 31.2686 70.7228 30.9294C70.4749 31.0338 70.2064 31.0804 69.9378 31.0656C69.8596 31.2398 69.7642 31.4057 69.653 31.5609C69.9338 31.5826 70.2157 31.5368 70.4752 31.4272C70.434 31.7664 70.3508 32.0991 70.2275 32.4177C70.3818 32.4214 70.5338 32.3806 70.6655 32.3002C70.7972 32.2199 70.9031 32.1034 70.9704 31.9646C71.0321 31.852 71.0819 31.7333 71.119 31.6104C71.0464 31.712 70.9493 31.7936 70.8367 31.8477C70.7242 31.9018 70.5999 31.9267 70.4752 31.92Z" fill="black"/>
<path opacity="0.1" d="M72.6494 30.2361C72.2978 30.2014 71.8718 30.0801 71.644 30.35C71.5898 30.4247 71.5495 30.5086 71.5251 30.5977C71.5029 30.662 71.483 30.7289 71.4657 30.7958C71.701 30.61 72.0823 30.7091 72.4018 30.7413C72.6943 30.7652 72.988 30.7108 73.2526 30.5837C73.5172 30.4566 73.7432 30.2615 73.9074 30.0182C73.9825 29.8979 74.0384 29.7668 74.0733 29.6294C73.9037 29.8393 73.6852 30.0044 73.437 30.1102C73.1887 30.2159 72.9183 30.2592 72.6494 30.2361Z" fill="black"/>
</g>
<path d="M78.5605 49.7454L82.337 54.2843L81.8442 58.8653L77.2803 51.7253L78.5605 49.7454Z" fill="#DCE6F2"/>
<path opacity="0.1" d="M82.3345 54.2843L81.8714 58.5931L81.8417 58.8653L77.7235 52.4207L77.2803 51.7253L77.409 51.5248L78.5581 49.7454L78.8131 50.0522L82.3345 54.2843Z" fill="black"/>
<path d="M84.2958 43.6003C83.018 43.9665 81.7971 45.2238 80.7348 46.7508C80.0167 47.8044 79.3746 48.9077 78.8131 50.0523C78.4639 50.7502 78.1569 51.4209 77.9018 52.005L77.7235 52.4208C77.2926 53.4379 77.0524 54.1185 77.0524 54.1185C77.0524 54.1185 67.2707 46.7681 68.8185 46.2731C69.3385 46.1073 70.022 44.9936 70.698 43.5904L70.7822 43.4122C71.2106 42.5113 71.6316 41.5065 72.0056 40.5611C72.7708 38.6183 73.3379 36.9304 73.3379 36.9304C73.3379 36.9304 88.1961 42.4866 84.2958 43.6003Z" fill="#EFB7B9"/>
<path d="M90.1475 36.5171C90.1475 36.5171 92.4059 40.6007 95.4395 40.0438C98.4731 39.487 97.225 37.8511 97.225 37.8511L90.1475 36.5171Z" fill="#444053"/>
<path d="M85.7717 177.87C83.7708 178.784 79.2465 177.87 79.2465 177.87L77.3397 177.752C74.8633 177.593 70.7179 177.326 69.2518 177.207C67.1122 177.031 67.6372 176.155 67.6372 176.155V170.861L78.0182 168.233C78.0182 168.233 82.1216 169.636 83.2458 170.861C84.3132 172.03 84.9372 171.131 86.8415 171.468C86.9356 171.485 87.0347 171.505 87.1387 171.53C88.9464 171.943 89.9271 172.106 90.5066 173.604C90.623 173.918 90.7165 174.241 90.7864 174.569C91.3213 176.979 87.7702 176.962 85.7717 177.87Z" fill="#A36468"/>
<path opacity="0.1" d="M90.5066 173.604C90.1346 173.836 89.7436 174.036 89.3377 174.203C87.9757 174.824 86.6806 175.581 85.3037 176.168C83.9268 176.754 82.4435 177.172 80.9527 177.061C80.1727 177.004 79.3753 176.814 78.6299 177.036C78.1689 177.214 77.7347 177.455 77.3397 177.752C74.8633 177.593 70.7179 177.326 69.2518 177.207C67.1122 177.031 67.6372 176.155 67.6372 176.155V175.536C67.714 175.536 67.8007 175.514 67.8997 175.507C68.4122 175.499 68.9225 175.575 69.4103 175.732C70.4851 176.024 71.5549 176.311 72.6296 176.598C72.718 176.265 72.8734 175.953 73.0862 175.681C73.2991 175.41 73.565 175.185 73.8678 175.019C74.4812 174.694 75.1697 174.536 75.8638 174.561C77.5304 174.584 79.1078 175.373 80.7719 175.452C81.2372 175.495 81.7056 175.417 82.1315 175.225C82.3593 175.111 82.5599 174.945 82.7827 174.819C83.1394 174.646 83.5163 174.519 83.9045 174.44C84.9958 174.169 86.0673 173.823 87.1115 173.406C87.4086 173.289 87.7553 173.079 87.7157 172.762C87.6637 172.341 87.0025 172.292 86.8291 171.906C86.7986 171.836 86.7844 171.76 86.7879 171.684C86.7913 171.609 86.8122 171.534 86.849 171.468C86.9431 171.485 87.0421 171.505 87.1461 171.53C88.9464 171.943 89.9271 172.106 90.5066 173.604Z" fill="black"/>
<path d="M83.6569 189.453C81.3044 190.527 75.9802 189.453 75.9802 189.453L73.739 189.322C70.8367 189.136 65.9484 188.827 64.2223 188.681C61.7039 188.473 62.3229 187.443 62.3229 187.443V181.204L74.5389 178.111C74.5389 178.111 79.3678 179.761 80.6902 181.204C81.9458 182.578 82.6713 181.521 84.9224 181.917C85.0338 181.937 85.1502 181.962 85.2715 181.989C87.3987 182.484 88.5527 182.669 89.2337 184.431C89.3716 184.801 89.4817 185.181 89.5631 185.567C90.1772 188.404 86.0095 188.381 83.6569 189.453Z" fill="#A36468"/>
<path opacity="0.1" d="M89.2288 184.431C88.7912 184.704 88.3315 184.94 87.8544 185.137C86.2522 185.867 84.7267 186.758 83.1072 187.448C81.4876 188.139 79.7418 188.629 77.986 188.5C77.0698 188.433 76.1312 188.203 75.262 188.47C74.7174 188.682 74.2048 188.969 73.739 189.322C70.8367 189.136 65.9484 188.827 64.2223 188.681C61.7039 188.473 62.3229 187.443 62.3229 187.443V186.716C62.4255 186.699 62.5288 186.687 62.6325 186.681C63.2358 186.67 63.8367 186.759 64.4105 186.946L68.1969 187.965C68.3024 187.572 68.487 187.204 68.7395 186.885C68.992 186.565 69.307 186.301 69.6654 186.107C70.3872 185.722 71.1982 185.536 72.0155 185.567C73.9768 185.595 75.8316 186.523 77.7904 186.617C78.3359 186.666 78.8851 186.575 79.3852 186.352C79.6551 186.216 79.8805 186.02 80.1529 185.874C80.5717 185.669 81.0154 185.519 81.4728 185.429C82.7498 185.107 84.004 184.7 85.227 184.211C85.5761 184.072 85.9847 183.825 85.9377 183.454C85.8758 182.959 85.0982 182.899 84.8927 182.444C84.858 182.362 84.8422 182.273 84.8465 182.184C84.8508 182.095 84.875 182.008 84.9174 181.929C85.0289 181.949 85.1452 181.974 85.2666 182.001C87.3938 182.476 88.5478 182.669 89.2288 184.431Z" fill="black"/>
<path d="M78.3327 146.64L77.6715 162.189C77.6715 162.189 76.681 165.365 77.2183 166.273C77.7557 167.181 78.6621 168.087 78.3327 168.624C78.0033 169.161 74.0411 174.967 72.7609 172.74C71.4806 170.512 70.2176 160.86 70.2176 160.86L71.3988 148.939L78.3327 146.64Z" fill="#444053"/>
<path d="M81.2004 107.898L83.0378 110.353V131.706C83.0378 131.706 83.5752 137.399 83.0378 138.574C82.5004 139.75 79.7764 142.101 79.7764 142.101L77.4858 130.345L77.9811 117.909L81.2004 107.898Z" fill="#444053"/>
<path opacity="0.1" d="M78.3327 146.64L77.6715 162.189C77.6715 162.189 76.681 165.365 77.2183 166.273C77.7557 167.181 78.6621 168.087 78.3327 168.624C78.0033 169.161 74.0411 174.967 72.7609 172.74C71.4806 170.512 70.2176 160.86 70.2176 160.86L71.3988 148.939L78.3327 146.64Z" fill="black"/>
<path opacity="0.1" d="M81.2004 107.898L83.0378 110.353V131.706C83.0378 131.706 83.5752 137.399 83.0378 138.574C82.5004 139.75 79.7764 142.101 79.7764 142.101L77.4858 130.345L77.9811 117.909L81.2004 107.898Z" fill="black"/>
<path d="M83.0378 98.7903V110.341L80.975 119.332C80.975 119.332 80.3138 141.029 80.8908 143.668C81.4678 146.306 78.9097 148.783 78.9097 148.783C78.9097 148.783 77.4239 148.949 77.4239 150.102C77.4239 151.256 74.9475 154.557 74.9475 154.557L75.0292 160.992C75.0292 160.992 76.104 173.037 74.4522 175.346C72.8005 177.655 75.0292 177.987 75.0292 177.987C72.9664 184.751 63.0609 183.184 62.1669 182.442C61.273 181.699 62.1669 167.097 62.1669 167.097C62.1669 167.097 64.3808 144.823 66.1143 143.833C67.8477 142.843 66.1985 141.606 66.7755 140.121C67.3525 138.636 66.1985 134.595 66.1985 134.595C66.1985 134.595 65.7032 129.808 64.465 127.499C63.2268 125.19 63.3903 118.837 63.3903 118.837C63.3903 118.837 59.9233 114.216 58.8932 112.402C57.863 110.588 57.1993 105.886 57.447 102.337C57.6154 99.9387 58.8758 96.4466 59.6757 94.437C60.0595 93.4743 60.3369 92.8506 60.3369 92.8506L60.5721 92.9125L74.0981 96.4516L83.0378 98.7903Z" fill="#444053"/>
<path opacity="0.1" d="M84.2958 43.6003C83.018 43.9665 81.7972 45.2238 80.7348 46.7508H80.4574C78.9003 46.7519 77.3704 46.3422 76.0224 45.563C74.6745 44.7838 73.5562 43.6628 72.7807 42.3133C72.4566 41.7541 72.1958 41.1606 72.0031 40.5438C72.7683 38.601 73.3354 36.9131 73.3354 36.9131C73.3354 36.9131 88.1961 42.4865 84.2958 43.6003Z" fill="black"/>
<path d="M89.3105 37.413C89.3127 38.7672 89.0038 40.1037 88.4077 41.3198C87.8116 42.5359 86.9441 43.599 85.8721 44.4272C84.8002 45.2555 83.5522 45.8267 82.2245 46.097C80.8968 46.3673 79.5247 46.3294 78.214 45.9863C76.9033 45.6431 75.6888 45.0038 74.6642 44.1177C73.6396 43.2316 72.8322 42.1222 72.3042 40.8751C71.7762 39.628 71.5417 38.2764 71.6187 36.9244C71.6957 35.5724 72.0823 34.2561 72.7485 33.077C73.0169 32.5979 73.3303 32.1454 73.6846 31.7257C74.2685 31.0304 74.9549 30.4279 75.7201 29.9388C77.0127 29.1179 78.4962 28.6462 80.0257 28.5697C81.5553 28.4931 83.0785 28.8144 84.4466 29.5022C85.8147 30.19 86.9809 31.2207 87.8313 32.4936C88.6816 33.7665 89.187 35.2381 89.2981 36.7646C89.3031 36.9824 89.3105 37.1977 89.3105 37.413Z" fill="#EFB7B9"/>
<path opacity="0.1" d="M81.8714 58.5931L81.8417 58.8653L77.7235 52.4306C77.2926 53.4478 77.0524 54.1284 77.0524 54.1284C77.0524 54.1284 67.2707 46.7681 68.8185 46.2731C69.3385 46.1073 70.022 44.9936 70.698 43.5903L70.7822 43.4121C71.5004 45.5504 75.6731 49.8246 77.409 51.5372C77.6096 51.7352 77.7755 51.8985 77.9043 52.0173L78.1693 52.2648L78.3079 52.4034C78.9394 53.0543 81.604 55.9252 81.8714 58.5931Z" fill="black"/>
<path d="M84.9496 80.4267L84.4989 94.9222L84.4196 97.5035C84.4196 97.5035 79.0806 97.0085 74.0981 96.464C70.0864 96.026 66.305 95.5532 65.723 95.2761C64.9801 94.9271 63.3878 94.6573 62.1323 94.4866C61.1615 94.3554 60.3988 94.2861 60.3988 94.2861C60.3988 94.2861 60.114 94.3703 59.6757 94.4494C58.7198 94.6227 57.0408 94.7638 56.0627 93.9149C54.8121 92.8284 58.0982 88.8809 58.9179 87.9331L59.0987 87.7276L58.7892 84.8691L57.9843 77.4568C57.9843 77.4568 57.4891 73.1877 56.7461 70.8984C56.5475 70.2475 56.4042 69.5811 56.3177 68.9061C56.0417 66.8152 56.1831 64.6904 56.7338 62.6545C56.969 61.7894 57.1183 60.9032 57.1795 60.0089C57.3033 57.7196 64.2991 48.8718 66.0326 48.0675C66.8123 47.7041 67.4398 47.0787 67.8056 46.3004C67.9264 46.0557 68.017 45.7973 68.0756 45.5307C68.8185 42.3134 70.698 43.5904 70.698 43.5904C71.1512 46.1074 78.1668 52.7698 78.1668 52.7698L78.3055 52.9084C79.0013 53.6212 82.1018 56.9672 81.8814 59.8232C81.8373 60.8862 81.9962 61.9479 82.3494 62.9515C83.7764 67.4421 84.5967 72.1032 84.7886 76.8109L84.9496 80.4267Z" fill="#DCE6F2"/>
<path opacity="0.1" d="M75.0094 63.2139C75.0094 63.2139 73.276 67.4212 71.9759 68.1018C70.6757 68.7824 75.6285 69.5372 75.0094 63.2139Z" fill="black"/>
<path opacity="0.1" d="M76.3095 71.0715C76.3095 71.0715 72.3473 71.5668 72.3473 72.3097C72.3473 73.0526 76.3095 71.0715 76.3095 71.0715Z" fill="black"/>
<path opacity="0.1" d="M80.4574 75.8975C80.4574 75.8975 74.6999 88.1482 73.0902 88.5194C71.4806 88.8906 80.4574 75.8975 80.4574 75.8975Z" fill="black"/>
<path opacity="0.1" d="M78.0578 53.3908L73.2958 55.4598L67.5481 46.7829C67.6689 46.5381 67.7595 46.2797 67.818 46.0132C68.5609 42.7958 70.4405 44.0729 70.4405 44.0729C70.8937 46.5898 77.9092 53.2522 77.9092 53.2522L78.0578 53.3908Z" fill="black"/>
<path d="M78.3055 52.896L73.5434 54.965L67.7957 46.288C67.9165 46.0433 68.0071 45.7848 68.0657 45.5183C68.8086 42.3009 70.6881 43.578 70.6881 43.578C71.1413 46.0949 78.1569 52.7574 78.1569 52.7574L78.3055 52.896Z" fill="#DCE6F2"/>
<path opacity="0.1" d="M84.4196 97.5032C84.4196 97.5032 79.0806 97.0083 74.0981 96.4638L83.0378 98.8026V101.525C82.6466 101.879 82.3073 102.062 82.0869 101.968C81.0567 101.535 72.6494 100.174 72.6494 100.174C72.6494 100.174 67.766 97.6987 62.4963 94.7289C62.3684 94.6581 62.2444 94.5804 62.1248 94.4962C61.5104 94.0793 60.9809 93.5493 60.5647 92.9346C59.5915 91.5264 59.116 89.7172 58.9105 87.9427C58.7949 86.9258 58.7519 85.9019 58.7817 84.8788C58.8073 83.7188 58.9132 82.5619 59.0987 81.4164C58.5891 76.98 58.341 72.5175 58.3558 68.052C58.4177 61.1223 64.9182 58.6474 64.9182 58.6474C76.8667 57.5956 73.162 76.8998 73.162 76.8998C73.162 76.8998 72.4711 82.3445 72.2829 82.9014C72.0947 83.4582 71.4187 84.3863 71.5103 85.6856C71.6019 86.9849 73.8851 88.5392 73.8851 88.5392C73.8851 88.5392 76.1139 89.5836 77.0326 91.1304C77.7012 92.2713 82.0448 93.8181 84.4989 94.9219L84.4196 97.5032Z" fill="black"/>
<path opacity="0.1" d="M88.4215 31.9187C88.426 32.3264 88.3415 32.7301 88.1738 33.1017C88.0469 33.405 87.8996 33.6993 87.733 33.9828C87.4724 34.5042 87.1025 34.9634 86.6484 35.3291C86.0763 35.7375 85.3532 35.8513 84.6673 36.0171C83.9813 36.183 83.2681 36.4478 82.8769 37.0318C82.6648 37.4073 82.523 37.8183 82.4584 38.2445C82.3928 38.6705 82.2226 39.0735 81.9631 39.4176C81.8279 39.5857 81.6408 39.7041 81.431 39.7542C81.2212 39.8044 81.0007 39.7835 80.8041 39.6948C80.597 39.5553 80.44 39.3532 80.3559 39.1182C80.0736 38.4821 80.0018 37.7768 79.8879 37.0912C79.774 36.4057 79.613 35.7004 79.192 35.1485C78.771 34.5966 78.0256 34.2327 77.3644 34.4481C77.1431 34.5332 76.9413 34.6621 76.7711 34.8272C76.6009 34.9922 76.4658 35.1898 76.3739 35.4083C76.1909 35.8457 76.0652 36.3049 76 36.7745C75.6929 38.4541 75.3305 40.1238 74.9128 41.7836C74.9001 41.8517 74.8722 41.916 74.8311 41.9717C74.7653 42.0373 74.6764 42.0746 74.5835 42.0757C74.0288 42.1499 73.4963 41.7614 72.9367 41.8034C72.879 41.8073 72.8218 41.8164 72.7658 41.8307C71.861 40.259 71.4614 38.4473 71.6213 36.6411C71.7812 34.835 72.4929 33.1215 73.6598 31.7331L73.7044 31.7207C74.0766 31.5886 74.415 31.3756 74.6949 31.097C75.0524 30.7395 75.3834 30.3566 75.6855 29.9512L75.8836 29.7037C76.4528 29.0184 77.1011 28.4028 77.8151 27.8698C78.01 27.7102 78.2336 27.5893 78.4739 27.5134C78.6795 27.4734 78.8902 27.4667 79.0979 27.4936C79.9531 27.5962 80.8153 27.6285 81.6758 27.5901C82.2754 27.4959 82.8797 27.4348 83.486 27.407C85.0536 27.4515 86.3908 28.5578 87.3814 29.7705C87.9138 30.3917 88.3893 31.1069 88.4215 31.9187Z" fill="black"/>
<path d="M71.592 33.3122C71.2478 33.8764 70.6262 34.26 70.3934 34.8788C70.0517 35.7771 70.6287 36.8958 70.0987 37.6977C69.9229 37.9674 69.6332 38.1679 69.5341 38.4772C69.3657 38.9995 69.8264 39.5563 69.7075 40.0934C69.5886 40.6304 68.8804 41.0833 69.0686 41.608C69.1798 41.8368 69.3749 42.0141 69.6134 42.103C69.9886 42.3181 70.4205 42.4139 70.8516 42.3777C71.5276 42.2663 72.0303 41.603 72.7163 41.5535C73.2735 41.5139 73.8059 41.9 74.3606 41.8283C74.4536 41.825 74.5419 41.787 74.6082 41.7218C74.6503 41.6667 74.6784 41.6021 74.69 41.5337C75.106 39.8756 75.4692 38.2058 75.7796 36.5246C75.8428 36.0548 75.9677 35.5955 76.151 35.1584C76.2436 34.9404 76.379 34.7431 76.5491 34.5782C76.7192 34.4133 76.9207 34.284 77.1416 34.1982C77.8028 33.9853 78.5457 34.3467 78.9691 34.8986C79.3926 35.4505 79.5536 36.1558 79.6675 36.8413C79.7814 37.5269 79.8532 38.2322 80.133 38.8683C80.2181 39.1042 80.3759 39.307 80.5837 39.4474C80.9552 39.6627 81.4554 39.492 81.7402 39.1702C82.0011 38.8259 82.1714 38.4217 82.2355 37.9946C82.3001 37.5691 82.4419 37.159 82.654 36.7844C83.0452 36.2003 83.7609 35.9355 84.4444 35.7697C85.1279 35.6039 85.8485 35.4876 86.4255 35.0792C86.879 34.7139 87.2488 34.2556 87.5102 33.7354C87.8767 33.0968 88.2184 32.4039 88.1887 31.6688C88.1565 30.867 87.681 30.1517 87.1734 29.528C86.1828 28.3153 84.8431 27.2091 83.2756 27.167C82.6691 27.1923 82.0646 27.2535 81.4653 27.3501C80.6048 27.3888 79.7425 27.3557 78.8874 27.2511C78.6795 27.2263 78.469 27.2338 78.2634 27.2734C78.0228 27.3468 77.7996 27.468 77.6071 27.6298C76.8924 28.1619 76.2432 28.7767 75.6731 29.4612C75.3054 29.9484 74.9067 30.4113 74.4795 30.8472C74.1994 31.1262 73.8612 31.34 73.4889 31.4733C73.2413 31.5426 72.9936 31.4931 72.7584 31.5698C72.0279 31.8 71.9313 32.7528 71.592 33.3122Z" fill="#965D7B"/>
<path opacity="0.1" d="M95.4395 40.0413C93.4584 40.4051 91.8166 38.8039 90.9077 37.6357C90.6286 37.281 90.3746 36.9072 90.1475 36.5171L96.9476 37.7991L97.2225 37.8511C97.2225 37.8511 98.4731 39.487 95.4395 40.0413Z" fill="black"/>
<g opacity="0.1">
<path opacity="0.1" d="M69.7075 39.386C69.7352 39.0621 69.686 38.7363 69.5639 38.4351C69.5639 38.4598 69.5416 38.4846 69.5341 38.5094C69.4277 38.8412 69.5713 39.1854 69.6629 39.5296C69.6826 39.4834 69.6975 39.4352 69.7075 39.386Z" fill="black"/>
<path opacity="0.1" d="M70.2969 35.3342C70.2714 35.6767 70.278 36.0207 70.3167 36.3619C70.3421 36.0195 70.3354 35.6754 70.2969 35.3342Z" fill="black"/>
<path opacity="0.1" d="M87.4953 33.0201C87.2347 33.5415 86.8647 34.0007 86.4107 34.3665C85.8386 34.7748 85.118 34.8887 84.4296 35.0545C83.7411 35.2203 83.0304 35.4851 82.6391 36.0692C82.4274 36.4448 82.2856 36.8557 82.2206 37.2819C82.1561 37.7089 81.9859 38.113 81.7253 38.4575C81.4406 38.7792 80.9403 38.9524 80.5689 38.7347C80.361 38.5942 80.2032 38.3914 80.1182 38.1555C79.8384 37.5195 79.7641 36.8166 79.6526 36.1286C79.5412 35.4406 79.3753 34.7377 78.9543 34.1858C78.5333 33.6339 77.7879 33.2701 77.1267 33.4854C76.9056 33.5709 76.704 33.7 76.5338 33.865C76.3637 34.0299 76.2284 34.2274 76.1362 34.4457C75.9528 34.8828 75.8279 35.3421 75.7647 35.8118C75.456 37.4931 75.0928 39.1628 74.6751 40.821C74.6635 40.8894 74.6355 40.9539 74.5934 41.0091C74.5271 41.0743 74.4387 41.1123 74.3457 41.1155C73.791 41.1873 73.2586 40.8012 72.7014 40.8408C72.0155 40.8903 71.5128 41.5536 70.8367 41.6625C70.4055 41.7011 69.9729 41.6051 69.5985 41.3877C69.4264 41.3137 69.2719 41.2041 69.1453 41.066C69.0874 41.1489 69.049 41.2439 69.0332 41.3438C69.0173 41.4437 69.0243 41.5459 69.0537 41.6427C69.1628 41.8731 69.3586 42.051 69.5985 42.1376C69.9729 42.355 70.4055 42.451 70.8367 42.4123C71.5128 42.3035 72.0155 41.6402 72.7014 41.5907C73.2586 41.5511 73.791 41.9372 74.3457 41.8654C74.4387 41.8622 74.5271 41.8242 74.5934 41.759C74.6355 41.7038 74.6635 41.6393 74.6751 41.5709C75.0911 39.921 75.4543 38.2512 75.7647 36.5617C75.8279 36.092 75.9528 35.6327 76.1362 35.1956C76.2284 34.9773 76.3637 34.7798 76.5338 34.6149C76.704 34.4499 76.9056 34.3208 77.1267 34.2353C77.7879 34.02 78.5308 34.3838 78.9543 34.9357C79.3777 35.4876 79.5387 36.1929 79.6526 36.8785C79.7665 37.564 79.8384 38.2694 80.1182 38.9054C80.2032 39.1413 80.361 39.3441 80.5689 39.4846C80.9403 39.6999 81.4406 39.5291 81.7253 39.2074C81.9859 38.8629 82.1561 38.4588 82.2206 38.0318C82.2856 37.6056 82.4274 37.1947 82.6391 36.8191C83.0304 36.235 83.7461 35.9727 84.4296 35.8044C85.113 35.6361 85.8337 35.5247 86.4107 35.1164C86.8647 34.7506 87.2347 34.2914 87.4953 33.77C87.8618 33.134 88.2036 32.441 88.1738 31.706C88.169 31.6115 88.159 31.5173 88.1441 31.4238C88.0246 31.9903 87.8049 32.5309 87.4953 33.0201Z" fill="black"/>
</g>
<path opacity="0.1" d="M88.1837 33.0942C88.8188 34.2227 89.1952 35.478 89.2857 36.7695C87.0793 35.532 85.0041 34.1733 83.9566 33.7006C82.1315 32.8764 75.3066 33.0002 72.741 33.0769C73.0094 32.5978 73.3229 32.1453 73.6771 31.7256C74.2633 31.0297 74.9523 30.4272 75.7201 29.9387C76.737 29.2938 77.8749 28.8628 79.0641 28.6722C80.2533 28.4816 81.4689 28.5354 82.6366 28.8303C83.8044 29.1252 84.8996 29.655 85.8555 30.3872C86.8114 31.1195 87.6078 32.0389 88.1961 33.0893L88.1837 33.0942Z" fill="black"/>
<path opacity="0.1" d="M96.0586 38.992C94.8675 39.3583 92.9235 38.6505 90.9077 37.6357C90.6286 37.281 90.3746 36.9072 90.1475 36.5171L96.9476 37.7991C97.3983 38.106 97.5122 38.544 96.0586 38.992Z" fill="black"/>
<path d="M80.9849 24.5139C80.9849 24.5139 74.4844 24.1427 72.6569 27.6694L72.3622 30.7952L71.8669 30.7407L71.7678 32.8667C71.7678 32.8667 81.703 32.4336 83.964 33.4532C86.2249 34.4729 93.2504 39.6107 96.066 38.7445C98.8816 37.8783 95.8184 37.074 95.8184 37.074C95.8184 37.074 91.9429 35.4331 91.9429 34.1462C91.9429 32.8592 90.982 26.0607 80.9849 24.5139Z" fill="#444053"/>
<path opacity="0.1" d="M68.447 140.388C68.447 140.388 72.5949 144.41 74.3903 144.101C74.3903 144.101 69.3137 143.667 68.447 140.388Z" fill="black"/>
<path opacity="0.1" d="M67.5803 142.252C67.5803 142.252 67.9517 144.321 68.9423 144.118C69.9329 143.915 67.5803 142.252 67.5803 142.252Z" fill="black"/>
<path opacity="0.1" d="M74.0808 176.831C74.0808 176.831 68.1919 181.41 69.185 181.533C70.178 181.657 74.0808 176.831 74.0808 176.831Z" fill="black"/>
<path d="M81.9581 85.9604L101.026 82.8594V100.901L82.909 99.9534L81.9581 85.9604Z" fill="#85B3FF"/>
<path opacity="0.05" d="M81.9581 85.9604L101.026 82.8594V100.901L82.909 99.9534L81.9581 85.9604Z" fill="black"/>
<path d="M101.026 82.8594L123.893 84.5695L122.628 100.27L101.026 100.901V82.8594Z" fill="#85B3FF"/>
<path opacity="0.1" d="M101.026 82.8594L123.893 84.5695L122.628 100.27L101.026 100.901V82.8594Z" fill="black"/>
<path d="M108.057 77.3528L101.026 82.8594L123.893 84.5696L127.63 78.9342L108.057 77.3528Z" fill="#85B3FF"/>
<path d="M75.054 79.9462L92.2202 77.8574L101.026 82.8592L81.9581 85.9602L75.054 79.9462Z" fill="#85B3FF"/>
<path d="M105.206 87.5444V112.212L96.274 111.296L92.3886 110.9L91.2049 110.776L87.322 110.378L81.9581 109.828V85.9604L101.024 87.2573L105.206 87.5444Z" fill="#85B3FF"/>
<path d="M123.893 84.5696V108.626L116.734 109.999L113.252 110.667L105.206 112.212V87.5444L123.893 84.5696Z" fill="#85B3FF"/>
<path opacity="0.05" d="M123.893 84.5696V108.626L116.734 109.999L113.252 110.667L105.206 112.212V87.5444L123.893 84.5696Z" fill="black"/>
<path d="M75.054 91.1528L81.9581 85.9604L105.206 87.5444L101.784 93.3059L75.054 91.1528Z" fill="#85B3FF"/>
<path opacity="0.1" d="M75.054 91.1528L81.9581 85.9604L105.206 87.5444L101.784 93.3059L75.054 91.1528Z" fill="white"/>
<path d="M123.893 84.5696L105.206 87.5444L111.288 92.9892L131.305 89.6332L123.893 84.5696Z" fill="#85B3FF"/>
<path opacity="0.1" d="M123.893 84.5696L105.206 87.5444L111.288 92.9892L131.305 89.6332L123.893 84.5696Z" fill="white"/>
<path opacity="0.1" d="M116.734 109.999L113.252 110.667V105.527L116.513 104.705L116.734 109.999Z" fill="white"/>
<path opacity="0.1" d="M96.274 107.896V111.296L92.3886 110.9V107.896H96.274Z" fill="white"/>
<path opacity="0.1" d="M91.2049 108.967V110.776L87.322 110.378V108.967H91.2049Z" fill="white"/>
<path opacity="0.1" d="M102.869 106.091C100.207 109.494 91.4154 107.143 91.4154 107.143L84.8827 100.332L83.9962 99.409L85.7296 96.1917C85.7296 96.1917 86.2249 96.355 87.052 96.6421C91.4303 98.1716 105.11 103.228 102.869 106.091Z" fill="black"/>
<path d="M102.621 105.596C99.9589 108.999 91.1678 106.648 91.1678 106.648L84.6351 99.8373L83.7485 98.9141L85.482 95.6968C85.482 95.6968 85.9773 95.8601 86.8044 96.1472C91.1826 97.6767 104.862 102.733 102.621 105.596Z" fill="#EFB7B9"/>
<path opacity="0.1" d="M86.7945 96.1472C86.4329 97.1867 85.5142 98.726 84.6252 99.8373L83.7386 98.9141L85.4721 95.6968C85.4721 95.6968 85.9698 95.8601 86.7945 96.1472Z" fill="black"/>
<path d="M65.1658 57.6576C65.1658 57.6576 58.6653 60.1325 58.6034 67.0622C58.5886 71.5277 58.8367 75.9903 59.3463 80.4267C59.3463 80.4267 57.4891 90.7593 62.7513 93.7292C68.0136 96.6991 72.9045 99.174 72.9045 99.174C72.9045 99.174 81.3118 100.535 82.3444 100.968C83.3771 101.401 86.9653 95.8329 86.4081 94.9048C85.851 93.9767 78.1965 91.6874 77.2877 90.1406C76.3788 88.5938 74.1402 87.5519 74.1402 87.5519C74.1402 87.5519 71.857 85.9952 71.7653 84.6958C71.6737 83.3965 72.3473 82.4684 72.538 81.9116C72.7287 81.3547 73.4196 75.91 73.4196 75.91C73.4196 75.91 77.1143 56.5934 65.1658 57.6576Z" fill="#DCE6F2"/>
<path opacity="0.1" d="M68.1375 80.5999C68.1375 80.5999 59.3463 81.5898 60.0273 84.6834C60.0273 84.6834 63.368 81.5626 68.1375 80.5999Z" fill="black"/>
<path opacity="0.1" d="M68.1375 81.8374C68.1375 81.8374 63.1476 85.4879 64.0638 85.7354C64.9801 85.9829 68.1375 81.8374 68.1375 81.8374Z" fill="black"/>
<path opacity="0.1" d="M70.3662 83.3223C70.3662 83.3223 68.9423 85.8813 69.7471 85.7476C70.5519 85.614 70.3662 83.3223 70.3662 83.3223Z" fill="black"/>
<path d="M161.898 27.8152C161.898 27.8152 152.488 27.2484 153.587 33.8465C153.587 33.8465 153.367 35.0121 154.424 35.5418C154.424 35.5418 154.442 35.0468 155.39 35.2176C155.728 35.2744 156.071 35.291 156.413 35.2671C156.876 35.2362 157.316 35.0545 157.666 34.7498C157.666 34.7498 160.313 33.6584 161.343 29.3323C161.343 29.3323 162.106 28.3869 162.086 28.1443L160.496 28.8249C160.496 28.8249 161.039 29.9708 160.61 30.9236C160.61 30.9236 160.561 28.867 160.254 28.914C160.192 28.914 159.429 29.3125 159.429 29.3125C159.429 29.3125 160.363 31.3072 159.657 32.76C159.657 32.76 159.924 30.3 159.137 29.456L158.018 30.1094C158.018 30.1094 159.11 32.171 158.369 33.8539C158.369 33.8539 158.56 31.2726 157.782 30.2678L156.767 31.0573C156.767 31.0573 157.795 33.0916 157.168 34.4875C157.168 34.4875 157.086 31.4829 156.547 31.2553C156.547 31.2553 155.66 32.0373 155.526 32.3591C155.526 32.3591 156.227 33.844 155.791 34.6137C155.791 34.6137 155.524 32.6115 155.296 32.6016C155.296 32.6016 154.412 33.9281 154.32 34.829C154.363 33.9891 154.625 33.1751 155.081 32.468C154.571 32.5643 154.101 32.8078 153.728 33.1683C153.728 33.1683 153.865 32.2304 155.298 32.1487C155.298 32.1487 156.041 31.1414 156.225 31.0795C156.225 31.0795 154.798 30.9607 153.934 31.3444C153.934 31.3444 154.694 30.4608 156.487 30.8494L157.478 30.0327C157.478 30.0327 155.601 29.7852 154.803 30.0599C154.803 30.0599 155.719 29.2778 157.748 29.847L158.837 29.1961C158.837 29.1961 157.237 28.8497 156.284 28.9759C156.284 28.9759 157.289 28.4339 159.157 29.0204L159.937 28.6715C159.937 28.6715 158.763 28.4413 158.421 28.4042C158.079 28.3671 158.06 28.273 158.06 28.273C158.802 28.1495 159.565 28.2352 160.261 28.5205C160.261 28.5205 161.933 27.9191 161.898 27.8152Z" fill="#85B3FF"/>
<path opacity="0.1" d="M190.49 60.8156C190.49 60.8156 181.08 60.2489 182.18 66.847C182.18 66.847 181.959 68.0126 183.017 68.5423C183.017 68.5423 183.034 68.0473 183.985 68.2181C184.323 68.2749 184.666 68.2915 185.008 68.2675C185.465 68.2344 185.9 68.0538 186.246 67.7528C186.246 67.7528 188.895 66.6589 189.926 62.3328C189.926 62.3328 190.686 61.3898 190.656 61.1473L189.066 61.8254C189.066 61.8254 189.609 62.9713 189.183 63.9241C189.183 63.9241 189.131 61.8675 188.826 61.9145C188.764 61.9145 187.999 62.313 187.999 62.313C187.999 62.313 188.935 64.3102 188.229 65.7605C188.229 65.7605 188.497 63.3004 187.707 62.4565L186.6 63.1024C186.6 63.1024 187.692 65.164 186.951 66.847C186.951 66.847 187.142 64.2656 186.365 63.2608L185.352 64.0528C185.352 64.0528 186.377 66.0847 185.753 67.4805C185.753 67.4805 185.671 64.476 185.131 64.2483C185.131 64.2483 184.245 65.0304 184.109 65.3521C184.109 65.3521 184.812 66.8371 184.376 67.6068C184.376 67.6068 184.109 65.6046 183.881 65.5947C183.881 65.5947 182.997 66.9212 182.905 67.8221C182.949 66.9821 183.212 66.1683 183.668 65.461C183.158 65.5576 182.687 65.801 182.313 66.1614C182.313 66.1614 182.452 65.2234 183.886 65.1418C183.886 65.1418 184.616 64.1345 184.812 64.0726C184.812 64.0726 183.386 63.9538 182.521 64.3374C182.521 64.3374 183.282 63.4539 185.072 63.8548L186.062 63.0381C186.062 63.0381 184.183 62.7906 183.388 63.0653C183.388 63.0653 184.304 62.2833 186.332 62.8525L187.422 62.2016C187.422 62.2016 185.82 61.8576 184.866 61.9813C184.866 61.9813 185.874 61.4393 187.741 62.0259L188.521 61.6769C188.521 61.6769 187.348 61.4467 187.003 61.4096C186.659 61.3725 186.642 61.2785 186.642 61.2785C187.385 61.1549 188.148 61.2406 188.846 61.5259C188.846 61.5259 190.52 60.9196 190.49 60.8156Z" fill="#85B3FF"/>
<path opacity="0.1" d="M133.323 54.9574C133.323 54.9574 135.49 45.778 128.794 45.7458C128.794 45.7458 127.682 45.33 126.981 46.2804C126.981 46.2804 127.459 46.3819 127.135 47.2877C127.022 47.608 126.948 47.9402 126.912 48.2776C126.864 48.7377 126.967 49.2008 127.206 49.5968C127.206 49.5968 127.833 52.3934 131.912 54.1456C131.912 54.1456 132.714 55.0564 132.957 55.0663L132.56 53.3858C132.56 53.3858 131.337 53.7249 130.47 53.1383C130.47 53.1383 132.508 53.4378 132.511 53.1383C132.511 53.0765 132.263 52.2573 132.263 52.2573C132.263 52.2573 130.136 52.8364 128.824 51.8935C128.824 51.8935 131.203 52.5765 132.172 51.9454L131.726 50.7278C131.726 50.7278 129.497 51.4529 127.972 50.4357C127.972 50.4357 130.485 51.0644 131.609 50.4704L131.003 49.3369C131.003 49.3369 128.824 50.0002 127.553 49.1463C127.553 49.1463 130.525 49.577 130.847 49.0869C130.847 49.0869 130.228 48.0796 129.933 47.8916C129.933 47.8916 128.358 48.3321 127.665 47.7703C127.665 47.7703 129.683 47.847 129.73 47.6342C129.73 47.6342 128.573 46.5378 127.692 46.2903C128.513 46.4772 129.272 46.8747 129.893 47.4436C129.884 46.9249 129.724 46.4201 129.433 45.9908C129.433 45.9908 130.334 46.2878 130.176 47.7233C130.176 47.7233 131.042 48.6142 131.07 48.8172C131.07 48.8172 131.429 47.4337 131.198 46.5155C131.198 46.5155 131.941 47.4164 131.24 49.1117L131.874 50.2378C131.874 50.2378 132.449 48.4311 132.303 47.5995C132.303 47.5995 132.919 48.634 132.011 50.5347L132.469 51.7202C132.469 51.7202 133.08 50.2006 133.12 49.2453C133.12 49.2453 133.484 50.3293 132.585 52.0692L132.798 52.8958C132.798 52.8958 133.224 51.7796 133.318 51.448C133.412 51.1163 133.509 51.1139 133.509 51.1139C133.505 51.8668 133.292 52.6038 132.892 53.2423C132.892 53.2423 133.217 54.9697 133.323 54.9574Z" fill="#85B3FF"/>
<path opacity="0.1" d="M112.715 58.0857C112.715 58.0857 105.157 52.4355 102.455 58.5559C102.455 58.5559 101.63 59.4098 102.222 60.4319C102.222 60.4319 102.505 60.0334 103.213 60.6942C103.464 60.9275 103.741 61.1302 104.04 61.2981C104.444 61.5232 104.911 61.6101 105.37 61.5456C105.37 61.5456 108.183 62.0876 111.422 59.041C111.422 59.041 112.579 58.6698 112.687 58.452L110.981 58.1525C110.981 58.1525 110.803 59.4073 109.924 59.9691C109.924 59.9691 111.011 58.2218 110.729 58.0956C110.672 58.0684 109.82 57.9718 109.82 57.9718C109.82 57.9718 109.503 60.1547 108.116 60.9788C108.116 60.9788 109.694 59.0707 109.498 57.9322L108.203 57.863C108.203 57.863 107.982 60.1869 106.437 61.1867C106.437 61.1867 108.015 59.135 107.923 57.8679L106.64 57.9718C106.64 57.9718 106.38 60.2314 105.09 61.0531C105.09 61.0531 106.672 58.499 106.348 58.0139C106.348 58.0139 105.177 58.1797 104.887 58.3728C104.887 58.3728 104.662 59.9914 103.869 60.4022C103.869 60.4022 104.748 58.5831 104.57 58.4569C104.57 58.4569 103.101 59.0781 102.524 59.7859C103.024 59.1082 103.691 58.5725 104.461 58.2317C103.982 58.0327 103.455 57.9777 102.945 58.0733C102.945 58.0733 103.574 57.3655 104.818 58.0857C104.818 58.0857 105.981 57.6476 106.18 57.7021C106.18 57.7021 105.053 56.8186 104.119 56.6651C104.119 56.6651 105.243 56.3434 106.519 57.6551L107.804 57.5239C107.804 57.5239 106.375 56.2865 105.556 56.0786C105.556 56.0786 106.752 55.9276 108.131 57.5165L109.399 57.5734C109.399 57.5734 108.252 56.4052 107.388 55.9845C107.388 55.9845 108.525 56.0835 109.763 57.6006L110.607 57.7367C110.607 57.7367 109.753 56.9002 109.486 56.6824C109.218 56.4646 109.255 56.3731 109.255 56.3731C109.944 56.678 110.535 57.168 110.961 57.7887C110.961 57.7887 112.683 58.1872 112.715 58.0857Z" fill="#85B3FF"/>
<path opacity="0.1" d="M137.877 5.59071C137.877 5.59071 130.319 -0.0619442 127.618 6.06094C127.618 6.06094 126.793 6.91478 127.385 7.93691C127.385 7.93691 127.667 7.53845 128.375 8.19925C128.627 8.43128 128.906 8.63311 129.205 8.80064C129.609 9.02589 130.076 9.1128 130.535 9.04813C130.535 9.04813 133.348 9.59013 136.587 6.54107C136.587 6.54107 137.743 6.17231 137.85 5.95204L136.144 5.65753C136.144 5.65753 135.968 6.9123 135.086 7.4741C135.086 7.4741 136.176 5.72683 135.894 5.60061C135.837 5.57339 134.985 5.47687 134.985 5.47687C134.985 5.47687 134.658 7.66467 133.271 8.48386C133.271 8.48386 134.846 6.57572 134.653 5.43727L133.358 5.36797C133.358 5.36797 133.135 7.69189 131.592 8.68927C131.592 8.68927 133.17 6.63759 133.078 5.37045L131.798 5.47439C131.798 5.47439 131.535 7.73644 130.245 8.5581C130.245 8.5581 131.83 6.00402 131.505 5.51894C131.505 5.51894 130.334 5.68476 130.044 5.8778C130.044 5.8778 129.819 7.49638 129.027 7.90721C129.027 7.90721 129.906 6.08816 129.727 5.95947C129.727 5.95947 128.259 6.58314 127.682 7.29096C128.18 6.61252 128.848 6.07661 129.618 5.73673C129.139 5.53628 128.611 5.48119 128.1 5.57834C128.1 5.57834 128.732 4.87052 129.975 5.59071C129.975 5.59071 131.139 5.15018 131.337 5.2071C131.337 5.2071 130.21 4.32357 129.277 4.16765C129.277 4.16765 130.399 3.84839 131.674 5.1576L132.959 5.02643C132.959 5.02643 131.533 3.78899 130.711 3.57862C130.711 3.57862 131.907 3.43013 133.288 5.01901L134.556 5.07346C134.556 5.07346 133.41 3.90531 132.543 3.48705C132.543 3.48705 133.682 3.58605 134.92 5.10316L135.762 5.23927C135.762 5.23927 134.906 4.41266 134.638 4.19982C134.371 3.98698 134.408 3.89293 134.408 3.89293C135.097 4.19749 135.688 4.68764 136.114 5.30857C136.114 5.30857 137.835 5.68476 137.877 5.59071Z" fill="#85B3FF"/>
<path opacity="0.1" d="M166.757 12.7507C166.757 12.7507 163.735 3.8139 158.037 7.32577C158.037 7.32577 156.873 7.57326 156.782 8.73893C156.782 8.73893 157.24 8.57064 157.443 9.5111C157.518 9.84563 157.632 10.1703 157.782 10.4788C157.987 10.8939 158.321 11.2316 158.733 11.4415C158.733 11.4415 160.744 13.4833 165.142 12.8077C165.142 12.8077 166.303 13.1591 166.516 13.0378L165.278 11.8226C165.278 11.8226 164.421 12.7557 163.376 12.7186C163.376 12.7186 165.266 11.8969 165.11 11.6321C165.078 11.5801 164.431 11.0183 164.431 11.0183C164.431 11.0183 162.931 12.6344 161.321 12.528C161.321 12.528 163.701 11.8499 164.186 10.7956L163.161 10.0061C163.161 10.0061 161.66 11.7929 159.82 11.7385C159.82 11.7385 162.297 10.9441 162.923 9.84521L161.809 9.20421C161.809 9.20421 160.323 10.9193 158.783 10.8649C158.783 10.8649 161.536 9.65959 161.544 9.07552C161.544 9.07552 160.486 8.54837 160.137 8.54342C160.137 8.54342 159.033 9.74869 158.156 9.63979C158.156 9.63979 159.909 8.63746 159.835 8.43204C159.835 8.43204 158.275 8.11278 157.396 8.37017C158.191 8.09349 159.045 8.0295 159.872 8.18456C159.59 7.74872 159.186 7.4047 158.711 7.1946C158.711 7.1946 159.632 6.96938 160.249 8.26623C160.249 8.26623 161.457 8.56569 161.586 8.72161C161.586 8.72161 161.16 7.35794 160.479 6.69962C160.479 6.69962 161.586 7.07333 161.888 8.88247L163.022 9.5012C163.022 9.5012 162.554 7.6673 161.99 7.02631C161.99 7.02631 163.062 7.58068 163.295 9.67197L164.31 10.4367C164.31 10.4367 164.028 8.82308 163.552 7.98657C163.552 7.98657 164.434 8.71418 164.592 10.6669L165.209 11.2559C165.209 11.2559 164.981 10.0828 164.887 9.75116C164.793 9.41953 164.87 9.39725 164.87 9.39725C165.263 10.0393 165.472 10.7776 165.471 11.5306C165.471 11.5306 166.67 12.8151 166.757 12.7507Z" fill="#85B3FF"/>
<path opacity="0.1" d="M147.04 13.1912C147.04 13.1912 137.654 12.1468 138.429 18.8018C138.429 18.8018 138.15 19.9551 139.172 20.5342C139.172 20.5342 139.214 20.0392 140.163 20.262C140.498 20.334 140.84 20.3681 141.183 20.3634C141.646 20.3551 142.094 20.1961 142.458 19.9105C142.458 19.9105 145.16 18.9527 146.421 14.6836C146.421 14.6836 147.228 13.7802 147.211 13.5352L145.589 14.1341C145.589 14.1341 146.084 15.3048 145.589 16.2353C145.589 16.2353 145.641 14.1787 145.341 14.2108C145.279 14.2108 144.497 14.5672 144.497 14.5672C144.497 14.5672 145.329 16.609 144.551 18.0321C144.551 18.0321 144.942 15.5869 144.197 14.7058L143.045 15.2998C143.045 15.2998 144.036 17.4158 143.206 19.0592C143.206 19.0592 143.528 16.4902 142.803 15.4483L141.75 16.1908C141.75 16.1908 142.671 18.2721 141.976 19.6358C141.976 19.6358 142.047 16.6313 141.52 16.3764C141.52 16.3764 140.594 17.1188 140.443 17.4257C140.443 17.4257 141.069 18.9354 140.596 19.6903C140.596 19.6903 140.43 17.6782 140.212 17.6584C140.212 17.6584 139.261 18.9379 139.123 19.8412C139.209 19.0037 139.513 18.2033 140.004 17.5198C139.491 17.5907 139.009 17.8101 138.618 18.1509C138.618 18.1509 138.801 17.2228 140.237 17.2129C140.237 17.2129 141.017 16.2452 141.228 16.1932C141.228 16.1932 139.809 16.0027 138.925 16.3417C138.925 16.3417 139.729 15.4953 141.498 15.9878L142.54 15.2231C142.54 15.2231 140.656 14.8419 139.858 15.0894C139.858 15.0894 140.814 14.347 142.81 15.0276L143.932 14.4311C143.932 14.4311 142.35 14.0054 141.391 14.0822C141.391 14.0822 142.424 13.5872 144.259 14.2727L145.056 13.9634C145.056 13.9634 143.895 13.6738 143.553 13.6193C143.211 13.5649 143.199 13.4709 143.199 13.4709C143.948 13.385 144.705 13.5084 145.388 13.8272C145.388 13.8272 147.057 13.2951 147.04 13.1912Z" fill="#85B3FF"/>
<path opacity="0.1" d="M229.156 85.995C229.156 85.995 219.776 84.9506 220.551 91.5982C220.551 91.5982 220.271 92.7515 221.294 93.3306C221.294 93.3306 221.336 92.8356 222.284 93.0559C222.619 93.1304 222.962 93.1645 223.305 93.1573C223.768 93.1503 224.216 92.9911 224.58 92.7044C224.58 92.7044 227.282 91.7467 228.53 87.4799C228.53 87.4799 229.337 86.5741 229.32 86.3316L227.698 86.928C227.698 86.928 228.193 88.1011 227.698 89.0317C227.698 89.0317 227.75 86.9726 227.45 87.0072C227.388 87.0072 226.606 87.3611 226.606 87.3611C226.606 87.3611 227.438 89.4029 226.66 90.826C226.66 90.826 227.051 88.3833 226.306 87.4997L225.155 88.0962C225.155 88.0962 226.145 90.2122 225.318 91.8555C225.318 91.8555 225.637 89.2866 224.912 88.2422L223.859 88.9847C223.859 88.9847 224.781 91.0661 224.085 92.4272C224.085 92.4272 224.157 89.4227 223.629 89.1703C223.629 89.1703 222.705 89.9128 222.552 90.2196C222.552 90.2196 223.181 91.7293 222.705 92.4842C222.705 92.4842 222.539 90.4721 222.322 90.4523C222.322 90.4523 221.371 91.7318 221.232 92.6351C221.318 91.7976 221.622 90.9973 222.114 90.3137C221.599 90.3834 221.117 90.6029 220.727 90.9448C220.727 90.9448 220.91 90.0142 222.346 90.0043C222.346 90.0043 223.129 89.0366 223.337 88.9871C223.337 88.9871 221.918 88.7941 221.034 89.1332C221.034 89.1332 221.839 88.2892 223.609 88.7817L224.649 88.017C224.649 88.017 222.787 87.6656 221.977 87.9081C221.977 87.9081 222.933 87.1656 224.929 87.8438L226.051 87.2498C226.051 87.2498 224.469 86.8241 223.51 86.9008C223.51 86.9008 224.543 86.4058 226.378 87.0914L227.175 86.7796C227.175 86.7796 226.014 86.49 225.672 86.438C225.33 86.386 225.318 86.2895 225.318 86.2895C226.066 86.2021 226.824 86.3247 227.507 86.6434C227.507 86.6434 229.181 86.1014 229.156 85.995Z" fill="#85B3FF"/>
<path opacity="0.1" d="M243.497 94.7513C243.497 94.7513 234.117 93.7093 234.892 100.354C234.892 100.354 234.614 101.508 235.635 102.087C235.635 102.087 235.677 101.592 236.625 101.815C236.959 101.887 237.301 101.921 237.643 101.914C238.104 101.904 238.549 101.746 238.913 101.463C238.913 101.463 241.612 100.505 242.861 96.2362C242.861 96.2362 243.67 95.3329 243.651 95.0879L242.029 95.6843C242.029 95.6843 242.524 96.8574 242.029 97.788C242.029 97.788 242.081 95.7313 241.781 95.7635C241.719 95.7635 240.936 96.1174 240.936 96.1174C240.936 96.1174 241.769 98.1592 240.991 99.5823C240.991 99.5823 241.382 97.1395 240.637 96.2585L239.485 96.8525C239.485 96.8525 240.476 98.9685 239.649 100.612C239.649 100.612 239.968 98.0429 239.243 97.0009L238.19 97.7434C238.19 97.7434 239.111 99.8248 238.418 101.188C238.418 101.188 238.487 98.1815 237.96 97.929C237.96 97.929 237.036 98.6715 236.883 98.9784C236.883 98.9784 237.512 100.488 237.036 101.243C237.036 101.243 236.87 99.2308 236.652 99.211C236.652 99.211 235.701 100.491 235.565 101.394C235.651 100.557 235.954 99.7565 236.444 99.0724C235.93 99.1434 235.448 99.3627 235.058 99.7035C235.058 99.7035 235.243 98.773 236.68 98.7655C236.68 98.7655 237.46 97.7979 237.67 97.7459C237.67 97.7459 236.251 97.5553 235.367 97.8944C235.367 97.8944 236.172 97.048 237.943 97.5405L238.983 96.7757C238.983 96.7757 237.12 96.4243 236.311 96.6668C236.311 96.6668 237.266 95.9244 239.262 96.605L240.384 96.0085C240.384 96.0085 238.802 95.5828 237.843 95.6596C237.843 95.6596 238.876 95.1646 240.711 95.8501L241.508 95.5408C241.508 95.5408 240.347 95.2512 240.008 95.1968C239.669 95.1423 239.651 95.0483 239.651 95.0483C240.4 94.9624 241.158 95.0858 241.84 95.4046C241.84 95.4046 243.522 94.8577 243.497 94.7513Z" fill="#85B3FF"/>
<path opacity="0.1" d="M211.658 20.9971C211.658 20.9971 204.1 15.3469 201.399 21.4673C201.399 21.4673 200.574 22.3211 201.166 23.3433C201.166 23.3433 201.448 22.9448 202.156 23.6056C202.407 23.8389 202.685 24.0416 202.984 24.2095C203.388 24.4344 203.855 24.5213 204.313 24.457C204.313 24.457 207.126 24.999 210.368 21.9524C210.368 21.9524 211.522 21.5812 211.631 21.3634L209.93 21.0565C209.93 21.0565 209.751 22.3112 208.872 22.873C208.872 22.873 209.959 21.1258 209.677 20.9996C209.62 20.9723 208.771 20.8758 208.771 20.8758C208.771 20.8758 208.451 23.0587 207.065 23.8828C207.065 23.8828 208.642 21.9747 208.446 20.8362L207.151 20.7669C207.151 20.7669 206.931 23.0908 205.386 24.0907C205.386 24.0907 206.966 22.039 206.871 20.7719L205.589 20.8758C205.589 20.8758 205.341 23.1354 204.038 23.957C204.038 23.957 205.623 21.403 205.296 20.9179C205.296 20.9179 204.125 21.0837 203.835 21.2767C203.835 21.2767 203.613 22.8953 202.82 23.3061C202.82 23.3061 203.697 21.4871 203.518 21.3609C203.518 21.3609 202.05 21.9821 201.473 22.6899C201.972 22.0122 202.64 21.4764 203.409 21.1357C202.93 20.9367 202.404 20.8817 201.894 20.9773C201.894 20.9773 202.525 20.2695 203.769 20.9897C203.769 20.9897 204.93 20.5516 205.128 20.606C205.128 20.606 204.001 19.7225 203.068 19.5691C203.068 19.5691 204.192 19.2473 205.467 20.559L206.753 20.4279C206.753 20.4279 205.326 19.1904 204.504 18.9825C204.504 18.9825 205.7 18.8315 207.079 20.4204L208.35 20.4774C208.35 20.4774 207.201 19.3092 206.337 18.8885C206.337 18.8885 207.476 18.9875 208.711 20.5046L209.556 20.6407C209.556 20.6407 208.701 19.8042 208.434 19.5864C208.167 19.3686 208.206 19.2968 208.206 19.2968C208.894 19.6022 209.484 20.0922 209.91 20.7125C209.91 20.7125 211.626 21.0985 211.658 20.9971Z" fill="#85B3FF"/>
<path opacity="0.1" d="M217.498 61.788C217.498 61.788 214.892 52.7225 209.033 55.977C209.033 55.977 207.86 56.1576 207.713 57.3307C207.713 57.3307 208.179 57.1847 208.34 58.1326C208.4 58.4731 208.499 58.8054 208.637 59.1225C208.821 59.549 209.139 59.9037 209.543 60.1323C209.543 60.1323 211.46 62.2607 215.883 61.7855C215.883 61.7855 217.027 62.1864 217.245 62.0776L216.074 60.8055C216.074 60.8055 215.175 61.7014 214.135 61.6172C214.135 61.6172 216.056 60.8748 215.908 60.6099C215.878 60.5555 215.259 59.964 215.259 59.964C215.259 59.964 213.689 61.5133 212.084 61.3326C212.084 61.3326 214.494 60.7634 215.024 59.7388L214.033 58.9023C214.033 58.9023 212.453 60.6198 210.618 60.4862C210.618 60.4862 213.114 59.8007 213.803 58.734L212.718 58.0435C212.718 58.0435 211.146 59.6893 209.62 59.5655C209.62 59.5655 212.426 58.484 212.461 57.9024C212.461 57.9024 211.426 57.3282 211.076 57.3084C211.076 57.3084 209.92 58.4617 209.041 58.3132C209.041 58.3132 210.839 57.3901 210.774 57.1822C210.774 57.1822 209.229 56.7937 208.34 57.009C209.145 56.7704 209.999 56.7456 210.816 56.9372C210.554 56.4894 210.167 56.128 209.702 55.8978C209.702 55.8978 210.633 55.7121 211.188 57.0362C211.188 57.0362 212.379 57.3876 212.503 57.551C212.503 57.551 212.139 56.1675 211.487 55.482C211.487 55.482 212.577 55.9027 212.797 57.7242L213.902 58.3949C213.902 58.3949 213.516 56.5388 212.981 55.8854C212.981 55.8854 214.026 56.4868 214.167 58.5855L215.157 59.3948C215.157 59.3948 214.947 57.7712 214.511 56.9199C214.511 56.9199 215.36 57.6871 215.43 59.6423L216.019 60.261C216.019 60.261 215.846 59.078 215.772 58.7414C215.697 58.4048 215.772 58.3578 215.772 58.3578C216.138 59.0161 216.314 59.7634 216.279 60.5159C216.279 60.5159 217.408 61.8474 217.498 61.788Z" fill="#85B3FF"/>
<path opacity="0.1" d="M159.446 82.216C159.446 82.216 154.387 74.2518 149.689 79.0184C149.689 79.0184 148.615 79.5134 148.803 80.689C148.803 80.689 149.212 80.4167 149.633 81.283C149.784 81.5899 149.972 81.8775 150.192 82.1393C150.487 82.4966 150.892 82.747 151.344 82.852C151.344 82.852 153.783 84.3568 157.894 82.654C157.894 82.654 159.105 82.7184 159.283 82.5526L157.797 81.6616C157.797 81.6616 157.185 82.7753 156.163 82.9857C156.163 82.9857 157.802 81.7482 157.582 81.5205C157.54 81.476 156.777 81.085 156.777 81.085C156.777 81.085 155.705 83.0104 154.115 83.2901C154.115 83.2901 156.267 82.065 156.49 80.9315L155.303 80.4093C155.303 80.4093 154.271 82.5006 152.473 82.8842C152.473 82.8842 154.677 81.5255 155.036 80.3079L153.798 79.9515C153.798 79.9515 152.753 81.9734 151.255 82.2828C151.255 82.2828 153.642 80.4563 153.511 79.8871C153.511 79.8871 152.357 79.6273 152.025 79.7065C152.025 79.7065 151.24 81.1394 150.353 81.2434C150.353 81.2434 151.819 79.8525 151.698 79.6693C151.698 79.6693 150.106 79.7312 149.313 80.1891C150.02 79.7314 150.834 79.4669 151.676 79.4218C151.299 79.0657 150.826 78.8274 150.316 78.7363C150.316 78.7363 151.155 78.2982 152.049 79.4119C152.049 79.4119 153.288 79.4119 153.459 79.5357C153.459 79.5357 152.716 78.2982 151.901 77.8354C151.901 77.8354 153.065 77.9344 153.788 79.6198L155.038 79.9515C155.038 79.9515 154.144 78.2809 153.449 77.8033C153.449 77.8033 154.62 78.0854 155.346 80.0628L156.514 80.5578C156.514 80.5578 155.856 79.0605 155.194 78.3601C155.194 78.3601 156.225 78.8551 156.841 80.7137L157.584 81.1419C157.584 81.1419 157.089 80.0554 156.913 79.756C156.737 79.4565 156.807 79.3872 156.807 79.3872C157.342 79.9162 157.721 80.5837 157.899 81.3151C157.899 81.3151 159.38 82.3001 159.446 82.216Z" fill="#85B3FF"/>
<path d="M192.697 41.5236C192.697 41.5236 187.885 33.4085 183.039 38.0266C183.039 38.0266 181.949 38.4969 182.103 39.67C182.103 39.67 182.516 39.4076 182.913 40.2862C183.054 40.5985 183.233 40.8927 183.445 41.1623C183.729 41.5273 184.126 41.7883 184.574 41.9048C184.574 41.9048 186.964 43.4838 191.127 41.9048C191.127 41.9048 192.335 42.0063 192.518 41.8454L191.065 40.9099C191.065 40.9099 190.421 42.0013 189.391 42.182C189.391 42.182 191.067 40.9866 190.857 40.7614C190.812 40.7144 190.064 40.2986 190.064 40.2986C190.064 40.2986 188.933 42.1919 187.34 42.422C187.34 42.422 189.529 41.2638 189.784 40.1402L188.616 39.5908C188.616 39.5908 187.519 41.6523 185.708 41.9815C185.708 41.9815 187.954 40.6921 188.351 39.4868L187.127 39.0908C187.127 39.0908 186.018 41.0707 184.512 41.343C184.512 41.343 186.954 39.5908 186.84 39.0191C186.84 39.0191 185.696 38.7221 185.354 38.7914C185.354 38.7914 184.525 40.1996 183.636 40.2763C183.636 40.2763 185.144 38.9349 185.03 38.7468C185.03 38.7468 183.435 38.7592 182.63 39.1923C183.351 38.7577 184.173 38.5188 185.015 38.4993C184.649 38.1314 184.183 37.8785 183.675 37.7717C183.675 37.7717 184.53 37.3584 185.409 38.4993C185.409 38.4993 186.647 38.5414 186.813 38.6676C186.813 38.6676 186.112 37.4302 185.31 36.9203C185.31 36.9203 186.469 37.054 187.14 38.7617L188.378 39.1329C188.378 39.1329 187.538 37.4351 186.855 36.9352C186.855 36.9352 188.019 37.2545 188.682 39.2517L189.834 39.7887C189.834 39.7887 189.222 38.2716 188.596 37.5613C188.596 37.5613 189.609 38.0885 190.171 39.9645L190.896 40.4149C190.896 40.4149 190.431 39.3136 190.267 39.0092C190.104 38.7047 190.173 38.6379 190.173 38.6379C190.692 39.1832 191.05 39.8617 191.206 40.598C191.206 40.598 192.625 41.6053 192.697 41.5236Z" fill="#85B3FF"/>
<path d="M162.255 58.5881C162.255 58.5881 162.502 49.1587 155.947 50.4877C155.947 50.4877 154.773 50.3071 154.278 51.3812C154.278 51.3812 154.773 51.3812 154.635 52.334C154.589 52.6738 154.584 53.0177 154.62 53.3586C154.665 53.821 154.86 54.2559 155.177 54.5961C155.177 54.5961 156.358 57.2046 160.719 58.0906C160.719 58.0906 161.688 58.8207 161.93 58.7811L161.187 57.217C161.187 57.217 160.061 57.7961 159.092 57.4026C159.092 57.4026 161.148 57.2813 161.091 56.9794C161.091 56.9175 160.665 56.1651 160.665 56.1651C160.665 56.1651 158.699 57.1675 157.225 56.5092C157.225 56.5092 159.701 56.6948 160.511 55.8805L159.82 54.7842C159.82 54.7842 157.795 55.9424 156.086 55.2593C156.086 55.2593 158.674 55.3633 159.654 54.554L158.83 53.564C158.83 53.564 156.831 54.6579 155.415 54.0788C155.415 54.0788 158.416 53.8981 158.634 53.3512C158.634 53.3512 157.822 52.4924 157.495 52.3612C157.495 52.3612 156.044 53.1037 155.251 52.7028C155.251 52.7028 157.233 52.3711 157.245 52.1509C157.245 52.1509 155.89 51.3119 154.977 51.25C155.819 51.2651 156.643 51.5006 157.366 51.9331C157.253 51.4272 156.995 50.9653 156.623 50.6041C156.623 50.6041 157.567 50.7105 157.696 52.1385C157.696 52.1385 158.728 52.8364 158.795 53.0294C158.795 53.0294 158.867 51.6014 158.453 50.7501C158.453 50.7501 159.365 51.4802 159.023 53.2819L159.872 54.257C159.872 54.257 160.065 52.3711 159.756 51.5866C159.756 51.5866 160.568 52.4751 160.068 54.5193L160.754 55.586C160.754 55.586 161.046 53.9749 160.89 53.027C160.89 53.027 161.465 54.0169 160.94 55.9003L161.316 56.6675C161.316 56.6675 161.507 55.487 161.532 55.143C161.556 54.799 161.65 54.7767 161.65 54.7767C161.799 55.515 161.74 56.2802 161.479 56.9868C161.479 56.9868 162.146 58.6202 162.255 58.5881Z" fill="#85B3FF"/>
<path opacity="0.1" d="M173.091 178.403C176.774 178.403 179.76 177.898 179.76 177.276C179.76 176.655 176.774 176.15 173.091 176.15C169.408 176.15 166.422 176.655 166.422 177.276C166.422 177.898 169.408 178.403 173.091 178.403Z" fill="#85B3FF"/>
<path opacity="0.1" d="M148.781 195.499C152.464 195.499 155.45 194.995 155.45 194.373C155.45 193.751 152.464 193.247 148.781 193.247C145.098 193.247 142.112 193.751 142.112 194.373C142.112 194.995 145.098 195.499 148.781 195.499Z" fill="#85B3FF"/>
<path opacity="0.1" d="M23.065 186.74C26.7481 186.74 29.7338 186.236 29.7338 185.614C29.7338 184.992 26.7481 184.488 23.065 184.488C19.3818 184.488 16.3961 184.992 16.3961 185.614C16.3961 186.236 19.3818 186.74 23.065 186.74Z" fill="#85B3FF"/>
<path opacity="0.1" d="M199.363 194.373C203.046 194.373 206.032 193.869 206.032 193.247C206.032 192.625 203.046 192.121 199.363 192.121C195.68 192.121 192.694 192.625 192.694 193.247C192.694 193.869 195.68 194.373 199.363 194.373Z" fill="#85B3FF"/>
<path d="M206.307 180.642C211.806 180.642 216.264 179.889 216.264 178.959C216.264 178.03 211.806 177.276 206.307 177.276C200.807 177.276 196.349 178.03 196.349 178.959C196.349 179.889 200.807 180.642 206.307 180.642Z" fill="#85B3FF"/>
<path d="M210.435 176.205C210.89 175.836 211.22 175.337 211.383 174.774C211.507 174.205 211.265 173.525 210.722 173.317C210.113 173.084 209.462 173.505 208.966 173.93C208.471 174.356 207.909 174.844 207.263 174.755C207.595 174.453 207.843 174.071 207.983 173.646C208.124 173.221 208.152 172.766 208.065 172.327C208.037 172.145 207.96 171.973 207.842 171.832C207.503 171.47 206.891 171.626 206.485 171.911C205.197 172.817 204.838 174.564 204.831 176.138C204.702 175.571 204.811 174.98 204.809 174.406C204.806 173.831 204.645 173.168 204.152 172.866C203.85 172.698 203.508 172.612 203.162 172.619C202.582 172.599 201.936 172.656 201.542 173.079C201.047 173.604 201.178 174.487 201.604 175.059C202.03 175.631 202.681 175.999 203.281 176.4C203.76 176.687 204.17 177.076 204.479 177.541C204.515 177.606 204.544 177.674 204.566 177.744H208.196C209.009 177.335 209.762 176.817 210.435 176.205Z" fill="#85B3FF"/>
<path d="M18.5877 180.38C18.5877 180.38 22.3889 180.264 23.5404 179.447C24.6919 178.63 29.3921 177.658 29.6769 178.967C29.9617 180.276 35.3924 185.473 31.0983 185.508C26.8043 185.543 21.121 184.84 19.9769 184.142C18.8328 183.444 18.5877 180.38 18.5877 180.38Z" fill="#A8A8A8"/>
<path opacity="0.2" d="M31.1701 185.053C26.8761 185.087 21.1928 184.384 20.0487 183.686C19.177 183.157 18.8304 181.254 18.714 180.375H18.5877C18.5877 180.375 18.8353 183.441 19.972 184.137C21.1086 184.832 26.7993 185.538 31.0934 185.503C32.3316 185.503 32.76 185.053 32.7377 184.399C32.5643 184.798 32.0913 185.045 31.1701 185.053Z" fill="black"/>
</g>
<defs>
<linearGradient id="paint0_linear" x1="55.2207" y1="107.267" x2="132.516" y2="107.267" gradientUnits="userSpaceOnUse">
<stop stop-color="#808080" stop-opacity="0.25"/>
<stop offset="0.54" stop-color="#808080" stop-opacity="0.12"/>
<stop offset="1" stop-color="#808080" stop-opacity="0.1"/>
</linearGradient>
<clipPath id="clip0">
<rect width="250" height="195.499" fill="white"/>
</clipPath>
</defs>
</svg>
