<svg width="250" height="202" viewBox="0 0 250 202" fill="none" xmlns="http://www.w3.org/2000/svg">
<g clip-path="url(#clip0)">
<path opacity="0.1" d="M106.37 194.424C123.012 194.424 136.503 192.667 136.503 190.5C136.503 188.333 123.012 186.576 106.37 186.576C89.7276 186.576 76.2366 188.333 76.2366 190.5C76.2366 192.667 89.7276 194.424 106.37 194.424Z" fill="#85B3FF"/>
<path opacity="0.1" d="M1.79762 76.9124H24.8807V108.371H3.48228C3.42705 108.697 3.37181 109.021 3.31155 109.345H24.8782V134.711L24.7703 134.671C24.1576 134.42 23.5526 134.169 22.955 133.903L22.5659 133.727C21.9533 133.441 21.3482 133.138 20.7507 132.816C20.5398 132.706 20.3289 132.59 20.1205 132.47C16.7519 130.592 13.6904 128.209 11.0419 125.406C10.9641 125.331 10.8913 125.25 10.8185 125.175C10.4519 124.776 10.0904 124.369 9.73887 123.955L9.34972 123.493C8.93797 122.991 8.53626 122.464 8.14962 121.937C8.09187 121.859 8.03664 121.781 7.97889 121.706C6.39459 119.515 5.08118 117.141 4.06727 114.634C4.03463 114.559 4.00701 114.476 3.97688 114.401C3.66054 113.605 3.37683 112.799 3.13079 111.976C3.02785 111.632 2.92491 111.283 2.83955 110.937C2.80691 110.831 2.7818 110.728 2.75419 110.628C1.47625 105.59 1.32812 100.353 1.32812 95.1445C1.32812 94.537 1.32812 93.927 1.32812 93.322C1.32812 91.2184 1.35323 89.1023 1.38838 86.9861C1.4001 86.4389 1.41182 85.8908 1.42353 85.3419C1.45617 83.9461 1.49885 82.5479 1.55911 81.1522C1.57417 80.7656 1.59175 80.3765 1.61183 79.9925C1.61183 79.769 1.63192 79.5456 1.64698 79.3222C1.69468 78.5164 1.74239 77.7106 1.79762 76.9124Z" fill="#85B3FF"/>
<path opacity="0.1" d="M24.8807 41.8838H12.2169C14.2754 38.6629 16.5248 35.5681 18.953 32.6159C20.8335 30.3039 22.8119 28.0522 24.8807 25.8833V41.8838Z" fill="#85B3FF"/>
<path opacity="0.1" d="M24.8807 42.858V75.9385H1.86792C1.86792 75.8431 1.88298 75.7452 1.89303 75.6498C1.91311 75.3988 1.9332 75.1276 1.95579 74.8691C1.97839 74.5653 2.00852 74.2566 2.03613 73.9503C2.06375 73.6441 2.0989 73.2876 2.13154 72.9462C2.16418 72.6048 2.19933 72.2835 2.23699 71.9547C2.27465 71.6258 2.3098 71.2945 2.34997 70.9681C2.39014 70.6418 2.4278 70.3079 2.47048 69.9791C2.50563 69.708 2.54078 69.4368 2.57844 69.1632C2.63116 68.7792 2.6864 68.3926 2.74414 68.011C2.74414 67.9533 2.76172 67.8955 2.76925 67.8403C3.1844 65.043 3.75012 62.2702 4.46395 59.5338C5.21093 56.6637 6.16497 53.8515 7.31859 51.1194C8.5423 48.2555 9.97734 45.4865 11.6118 42.8354L24.8807 42.858Z" fill="#85B3FF"/>
<path opacity="0.1" d="M30.3917 76.9125V108.374H79.6962V76.9125H30.3917ZM30.3917 109.345V136.363C30.6729 136.421 30.9516 136.479 31.2303 136.527C31.6069 136.599 31.9835 136.665 32.3626 136.722C32.4354 136.722 32.5107 136.745 32.586 136.752C32.7367 136.778 32.8898 136.798 33.0404 136.818C33.4196 136.87 33.7936 136.913 34.1828 136.948L34.7251 136.996L35.1645 137.029C35.403 137.046 35.639 137.061 35.875 137.069C36.0206 137.069 36.1662 137.069 36.3144 137.086H36.6608H37.0902C37.286 137.086 37.4818 137.086 37.6751 137.086H37.9262C38.122 137.086 38.3179 137.086 38.5112 137.069H38.5238C38.6593 137.069 38.7949 137.069 38.9305 137.051C38.9689 137.054 39.0075 137.054 39.046 137.051C39.1589 137.051 39.2719 137.051 39.3824 137.036H39.4602L40.2134 136.976C40.4645 136.953 40.7156 136.926 40.9666 136.898L41.4838 136.835C43.5938 136.54 45.6804 136.096 47.7279 135.507C52.3274 134.225 56.8165 132.43 61.4236 131.117C67.3663 129.422 73.9368 128.589 79.6761 130.652V109.34L30.3917 109.345ZM79.6962 41.8866V0.00260697C74.2986 -0.056741 68.9156 0.574272 63.6782 1.88029C51.1851 5.01563 39.9824 11.8185 30.3917 20.5065V41.8866H32.8572V42.8581H30.3842V75.9535H79.6962V42.8581H43.0254V41.8866H79.6962ZM143.038 27.7387C139.95 27.6282 136.879 26.6517 134.1 25.1405C128.79 22.2537 124.539 17.7929 119.807 14.03C109.957 6.19044 97.7404 1.45857 85.2122 0.286268V41.8866H155.591L155.765 41.7008L143.038 27.7387ZM149.45 26.5915L156.249 34.052V24.6385C153.962 24.9271 151.968 25.5974 149.45 26.5915ZM156.249 143.068V109.34H141.752C141.715 109.197 141.675 109.052 141.629 108.906C141.672 109.052 141.71 109.197 141.75 109.34H85.2122V133.73C85.7495 134.129 86.2792 134.548 86.8039 134.985C87.3713 135.447 87.9312 135.919 88.4936 136.391L89.0585 136.858C89.3297 137.084 89.6033 137.305 89.877 137.528C90.4243 137.97 90.9758 138.407 91.5315 138.838C91.8077 139.057 92.0889 139.27 92.3676 139.484C96.8102 142.878 101.496 145.942 106.387 148.651C107.483 149.26 108.59 149.852 109.706 150.426C110.449 150.807 111.197 151.182 111.948 151.551C113.076 152.101 114.213 152.634 115.358 153.15C125.932 157.89 137.113 161.141 148.581 162.809C151.127 163.184 153.683 163.479 156.249 163.695V143.068H156.475H156.249ZM85.2122 42.8581V75.9535H156.249V42.8581H85.2122ZM85.2122 76.9125V108.374H156.249V76.9125H85.2122ZM161.763 24.5933V35.1164L170.442 25.5949C167.566 25.1263 164.673 24.7924 161.763 24.5933ZM161.763 76.9125V108.374H230.854V76.9125H161.763ZM230.61 145.569L230.861 109.345H161.763V164.064C166.213 164.251 170.67 164.197 175.114 163.904V163.904H175.192C177.311 163.768 179.424 163.574 181.532 163.321H181.579C192.801 162.01 203.774 159.077 214.153 154.613L230.61 145.569ZM244.183 82.0811C243.922 81.4686 243.653 80.8611 243.377 80.2587C242.875 79.1316 242.32 78.017 241.76 76.9125H236.37V108.374H249.997C249.985 99.4623 247.73 90.365 244.183 82.0811ZM236.37 109.34V140.505C240.208 136.828 243.452 132.618 245.787 127.806C248.597 122.01 249.877 115.736 249.987 109.345L236.37 109.34ZM236.37 67.7399V75.9535H241.255C239.775 73.1317 238.144 70.3916 236.37 67.7449V67.7399ZM189.523 30.7686C189.164 30.6305 188.802 30.4924 188.441 30.3594C184.628 28.9475 180.73 27.7737 176.771 26.845L163.492 41.4046L163.241 41.6832L163.412 41.869H210.653C204.073 37.3472 196.98 33.6211 189.523 30.7686V30.7686ZM212.054 42.8606H162.732L161.763 43.7467V75.9535H170.256H230.849V60.3396C225.371 53.7159 219.049 47.8387 212.044 42.8581L212.054 42.8606Z" fill="#85B3FF"/>
<path opacity="0.1" d="M24.8807 59.5437V75.9384H1.86792C1.86792 75.843 1.88298 75.7451 1.89303 75.6497C1.91311 75.3987 1.9332 75.1275 1.95579 74.869C1.97839 74.5652 2.00852 74.2565 2.03613 73.9502C2.06375 73.644 2.0989 73.2875 2.13154 72.9461C2.16418 72.6047 2.19933 72.2834 2.23699 71.9545C2.27465 71.6257 2.3098 71.2943 2.34997 70.968C2.39014 70.6417 2.4278 70.3078 2.47048 69.979C2.50563 69.7079 2.54078 69.4367 2.57844 69.1631C2.63116 68.779 2.6864 68.3925 2.74414 68.0109C2.74414 67.9532 2.76172 67.8954 2.76925 67.8402C3.1844 65.0429 3.75012 62.2701 4.46395 59.5337L24.8807 59.5437Z" fill="#85B3FF"/>
<path opacity="0.1" d="M1.79762 76.9124H24.8807V108.371H3.48228C3.42705 108.697 3.37181 109.021 3.31155 109.345H24.8782V134.711L24.7703 134.671C24.1576 134.42 23.5526 134.169 22.955 133.903L22.5659 133.727C21.9533 133.441 21.3482 133.138 20.7507 132.816C20.5398 132.706 20.3289 132.59 20.1205 132.47C16.7519 130.592 13.6904 128.209 11.0419 125.406C10.9641 125.331 10.8913 125.25 10.8185 125.175C10.4519 124.776 10.0904 124.369 9.73887 123.955L9.34972 123.493C8.93797 122.991 8.53626 122.464 8.14962 121.937C8.09187 121.859 8.03664 121.781 7.97889 121.706C6.39459 119.515 5.08118 117.141 4.06727 114.634C4.03463 114.559 4.00701 114.476 3.97688 114.401C3.66054 113.605 3.37683 112.799 3.13079 111.976C3.02785 111.632 2.92491 111.283 2.83955 110.937C2.80691 110.831 2.7818 110.728 2.75419 110.628C1.47625 105.59 1.32812 100.353 1.32812 95.1445C1.32812 94.537 1.32812 93.927 1.32812 93.322C1.32812 91.2184 1.35323 89.1023 1.38838 86.9861C1.4001 86.4389 1.41182 85.8908 1.42353 85.3419C1.45617 83.9461 1.49885 82.5479 1.55911 81.1522C1.57417 80.7656 1.59175 80.3765 1.61183 79.9925C1.61183 79.769 1.63192 79.5456 1.64698 79.3222C1.69468 78.5164 1.74239 77.7106 1.79762 76.9124Z" fill="#85B3FF"/>
<path opacity="0.1" d="M47.7504 47.5948V75.9409H30.3942V47.5948H32.8672V37.998H43.0279V47.5948H47.7504Z" fill="#85B3FF"/>
<path opacity="0.1" d="M47.7504 76.9124H30.3942V108.374H47.7504V76.9124Z" fill="#85B3FF"/>
<path opacity="0.1" d="M30.3916 109.34H47.7479V135.505C45.7009 136.092 43.6152 136.535 41.5063 136.83L40.9866 136.895L40.2334 136.973L39.4802 137.033H39.4024C39.2919 137.033 39.179 137.049 39.066 137.051H38.9505C38.8124 137.051 38.6768 137.066 38.5412 137.069H38.5287C38.3354 137.069 38.142 137.084 37.9437 137.086H37.6926C37.4993 137.086 37.306 137.086 37.1076 137.086H36.6808C36.5628 137.086 36.4473 137.086 36.3318 137.086L35.8925 137.069C35.659 137.069 35.4205 137.043 35.182 137.028L34.7451 136.996L34.2003 136.946C33.8187 136.91 33.4471 136.868 33.0604 136.815L32.606 136.752C32.5307 136.752 32.4554 136.732 32.3826 136.72C32.0035 136.662 31.6294 136.599 31.2503 136.526C30.9691 136.476 30.6904 136.418 30.4092 136.361L30.3916 109.34Z" fill="#85B3FF"/>
<path opacity="0.1" d="M156.252 44.2485H141.938V75.9408H156.252V44.2485Z" fill="#85B3FF"/>
<path opacity="0.1" d="M156.252 76.9124V108.374H85.2146V94.8056H123.053V102.808H141.938V76.9124H156.252Z" fill="#85B3FF"/>
<path opacity="0.1" d="M156.478 143.078H156.252V163.718C153.686 163.5 151.13 163.205 148.584 162.832C137.115 161.154 125.933 157.894 115.36 153.144C112.309 151.769 109.319 150.269 106.39 148.646C101.496 145.935 96.8068 142.87 92.36 139.476C91.2419 138.622 90.1397 137.748 89.0535 136.853C88.3003 136.23 87.5471 135.598 86.7939 134.977C86.2691 134.553 85.7394 134.132 85.1996 133.722V109.34H141.75L141.632 108.906C141.675 109.051 141.715 109.194 141.752 109.34H156.252V143.063L156.478 143.078Z" fill="#85B3FF"/>
<path opacity="0.1" d="M193.575 41.8841H184.25V38.9873H188.428V30.3569C188.79 30.49 189.151 30.6255 189.51 30.7661V38.9873H193.573L193.575 41.8841Z" fill="#85B3FF"/>
<path opacity="0.1" d="M216.048 75.9383H170.261L170.276 75.9509L170.256 75.9383H161.762V44.2461H164.165V67.6695H175.162V53.8102H184.251V42.8579H193.573V53.8102H202.656V67.6695H216.046L216.048 75.9383Z" fill="#85B3FF"/>
<path opacity="0.1" d="M161.762 76.9124V108.374H216.048V76.9124H161.762ZM230.778 145.4L230.854 120.498H216.041V109.34H161.762V164.064C166.213 164.25 170.67 164.197 175.114 163.903V163.903H175.192C177.311 163.768 179.424 163.574 181.531 163.321H181.579C192.801 162.01 203.774 159.077 214.153 154.613" fill="#85B3FF"/>
<path opacity="0.1" d="M237.326 109.34H249.99C249.879 115.729 248.597 122.002 245.787 127.798C243.455 132.613 240.208 136.835 236.372 140.5V120.496H237.326V109.34Z" fill="#85B3FF"/>
<path opacity="0.1" d="M249.998 108.371H237.326V82.0786H244.183C247.73 90.365 249.988 99.4623 249.998 108.371Z" fill="#85B3FF"/>
<path opacity="0.1" d="M156.252 53.0571H148.584V62.9928H156.252V53.0571Z" fill="#85B3FF"/>
<path opacity="0.1" d="M156.252 73.6541H148.584V75.9409H156.252V73.6541Z" fill="#85B3FF"/>
<path opacity="0.1" d="M156.252 76.9124H148.584V83.5872H156.252V76.9124Z" fill="#85B3FF"/>
<path opacity="0.1" d="M156.252 94.2483H148.584V104.184H156.252V94.2483Z" fill="#85B3FF"/>
<path opacity="0.1" d="M156.252 114.845H148.584V124.781H156.252V114.845Z" fill="#85B3FF"/>
<path opacity="0.1" d="M156.252 143.063L156.478 143.078H156.252V145.385H148.584V135.447H156.252V143.063Z" fill="#85B3FF"/>
<path opacity="0.1" d="M156.252 156.031V163.705C153.686 163.488 151.13 163.192 148.584 162.819V156.031H156.252Z" fill="#85B3FF"/>
<path opacity="0.1" d="M118.074 107.643H85.2146V108.374H118.074V107.643Z" fill="#85B3FF"/>
<path opacity="0.1" d="M118.074 109.345H85.2146V112.142H118.074V109.345Z" fill="#85B3FF"/>
<path opacity="0.1" d="M118.074 121.312H85.2146V125.81H118.074V121.312Z" fill="#85B3FF"/>
<path opacity="0.1" d="M118.072 134.98V139.476H92.3601C91.242 138.622 90.1398 137.748 89.0535 136.853C88.3003 136.23 87.5471 135.598 86.7939 134.98H118.072Z" fill="#85B3FF"/>
<path opacity="0.1" d="M118.072 148.644V153.144H115.36C112.307 151.769 109.317 150.269 106.39 148.644H118.072Z" fill="#85B3FF"/>
<path opacity="0.1" d="M181.584 79.9624H175.117V86.4289H181.584V79.9624Z" fill="#85B3FF"/>
<path opacity="0.1" d="M41.5214 49.8267H35.054V56.2931H41.5214V49.8267Z" fill="#85B3FF"/>
<path opacity="0.1" d="M41.5214 64.8479H35.054V71.3144H41.5214V64.8479Z" fill="#85B3FF"/>
<path opacity="0.1" d="M41.5214 79.8721H35.054V86.3385H41.5214V79.8721Z" fill="#85B3FF"/>
<path opacity="0.1" d="M41.5214 94.896H35.054V101.362H41.5214V94.896Z" fill="#85B3FF"/>
<path opacity="0.1" d="M41.5214 109.92H35.054V116.386H41.5214V109.92Z" fill="#85B3FF"/>
<path opacity="0.1" d="M41.5214 124.944H35.054V131.411H41.5214V124.944Z" fill="#85B3FF"/>
<path opacity="0.1" d="M206.279 79.9624H199.812V86.4289H206.279V79.9624Z" fill="#85B3FF"/>
<path opacity="0.1" d="M181.584 95.9153H175.117V102.382H181.584V95.9153Z" fill="#85B3FF"/>
<path opacity="0.1" d="M206.279 95.9153H199.812V102.382H206.279V95.9153Z" fill="#85B3FF"/>
<path opacity="0.1" d="M181.584 111.868H175.117V118.334H181.584V111.868Z" fill="#85B3FF"/>
<path opacity="0.1" d="M206.279 111.868H199.812V118.334H206.279V111.868Z" fill="#85B3FF"/>
<path opacity="0.1" d="M181.584 127.821H175.117V134.287H181.584V127.821Z" fill="#85B3FF"/>
<path opacity="0.1" d="M206.279 127.821H199.812V134.287H206.279V127.821Z" fill="#85B3FF"/>
<path opacity="0.1" d="M181.584 143.773H175.117V150.24H181.584V143.773Z" fill="#85B3FF"/>
<path opacity="0.1" d="M206.279 143.773H199.812V150.24H206.279V143.773Z" fill="#85B3FF"/>
<path opacity="0.1" d="M175.117 163.896V159.726H181.584V163.303L175.117 163.896Z" fill="#85B3FF"/>
<path opacity="0.1" d="M2.7417 67.8501V71.5502H24.8783V67.8501H2.7417ZM4.94607 71.3193H3.13085V68.0836H4.94607V71.3193ZM7.15044 71.3193H5.33522V68.0836H7.15044V71.3193ZM9.34978 71.3193H7.53457V68.0836H9.34978V71.3193ZM11.5542 71.3193H9.73894V68.0836H11.5542V71.3193ZM13.756 71.3193H11.9408V68.0836H13.756V71.3193ZM15.9604 71.3193H14.1452V68.0836H15.9604V71.3193ZM18.1647 71.3193H16.3495V68.0836H18.1647V71.3193ZM20.3666 71.3193H18.5464V68.0836H20.3616L20.3666 71.3193ZM22.5685 71.3193H20.7532V68.0836H22.5634L22.5685 71.3193ZM24.7703 71.3193H22.9551V68.0836H24.7703V71.3193Z" fill="#85B3FF"/>
<path opacity="0.1" d="M2.7417 78.6218V82.322H24.8783V78.6218H2.7417ZM4.94607 82.0885H3.13085V78.8553H4.94607V82.0885ZM7.15044 82.0885H5.33522V78.8553H7.15044V82.0885ZM9.34978 82.0885H7.53457V78.8553H9.34978V82.0885ZM11.5542 82.0885H9.73894V78.8553H11.5542V82.0885ZM13.756 82.0885H11.9408V78.8553H13.756V82.0885ZM15.9604 82.0885H14.1452V78.8553H15.9604V82.0885ZM18.1647 82.0885H16.3495V78.8553H18.1647V82.0885ZM20.3666 82.0885H18.5464V78.8553H20.3616L20.3666 82.0885ZM22.5685 82.0885H20.7532V78.8553H22.5634L22.5685 82.0885ZM24.7703 82.0885H22.9551V78.8553H24.7703V82.0885Z" fill="#85B3FF"/>
<path opacity="0.1" d="M2.7417 89.3936V93.0912H24.8783V89.3936H2.7417ZM4.94607 92.8577H3.13085V89.6245H4.94607V92.8577ZM7.15044 92.8577H5.33522V89.6245H7.15044V92.8577ZM9.34978 92.8577H7.53457V89.6245H9.34978V92.8577ZM11.5542 92.8577H9.73894V89.6245H11.5542V92.8577ZM13.756 92.8577H11.9408V89.6245H13.756V92.8577ZM15.9604 92.8577H14.1452V89.6245H15.9604V92.8577ZM18.1647 92.8577H16.3495V89.6245H18.1647V92.8577ZM20.3666 92.8577H18.5464V89.6245H20.3616L20.3666 92.8577ZM22.5685 92.8577H20.7532V89.6245H22.5634L22.5685 92.8577ZM24.7703 92.8577H22.9551V89.6245H24.7703V92.8577Z" fill="#85B3FF"/>
<path opacity="0.1" d="M2.7417 100.163V103.86H24.8783V100.163H2.7417ZM4.94607 103.629H3.13085V100.394H4.94607V103.629ZM7.15044 103.629H5.33522V100.394H7.15044V103.629ZM9.34978 103.629H7.53457V100.394H9.34978V103.629ZM11.5542 103.629H9.73894V100.394H11.5542V103.629ZM13.756 103.629H11.9408V100.394H13.756V103.629ZM15.9604 103.629H14.1452V100.394H15.9604V103.629ZM18.1647 103.629H16.3495V100.394H18.1647V103.629ZM20.3666 103.629H18.5464V100.394H20.3616L20.3666 103.629ZM22.5685 103.629H20.7532V100.394H22.5634L22.5685 103.629ZM24.7703 103.629H22.9551V100.394H24.7703V103.629Z" fill="#85B3FF"/>
<path opacity="0.1" d="M2.83704 110.932C2.92491 111.281 3.02534 111.627 3.13078 111.971V111.165H4.946V114.398H3.98441C4.01203 114.474 4.04216 114.554 4.07229 114.629H24.8857V110.932H2.83704ZM7.15037 114.398H5.33515V111.165H7.15037V114.398ZM9.34971 114.398H7.5345V111.165H9.34971V114.398ZM11.5541 114.398H9.73887V111.165H11.5541V114.398ZM13.7559 114.398H11.9407V111.165H13.7559V114.398ZM15.9603 114.398H14.1451V111.165H15.9603V114.398ZM18.1647 114.398H16.3495V111.165H18.1647V114.398ZM20.3665 114.398H18.5463V111.165H20.3615L20.3665 114.398ZM22.5684 114.398H20.7532V111.165H22.5634L22.5684 114.398ZM24.7702 114.398H22.955V111.165H24.7702V114.398Z" fill="#85B3FF"/>
<path opacity="0.1" d="M7.97644 121.703C8.03419 121.776 8.08942 121.856 8.14717 121.934H9.34978V123.488L9.73893 123.952V121.944H11.5541V125.18H10.8185C10.8913 125.255 10.9616 125.336 11.042 125.411H24.8783V121.703H7.97644ZM13.751 125.17H11.9358V121.934H13.751V125.17ZM15.9554 125.17H14.1401V121.934H15.9554V125.17ZM18.1597 125.17H16.3445V121.934H18.1597V125.17ZM20.3616 125.17H18.5464V121.934H20.3616V125.17ZM22.5634 125.17H20.7482V121.934H22.5634V125.17ZM24.7653 125.17H22.9501V121.934H24.7653V125.17Z" fill="#85B3FF"/>
<path opacity="0.1" d="M20.1205 132.472C20.3289 132.59 20.5398 132.706 20.7532 132.816V132.703H22.5634V133.728L22.95 133.906V132.703H24.7652V134.671C24.8002 134.687 24.8363 134.701 24.8732 134.712V132.472H20.1205Z" fill="#85B3FF"/>
<path opacity="0.1" d="M156.249 143.063H156.475H156.249ZM141.629 108.923C141.672 109.069 141.71 109.215 141.75 109.358C141.715 109.202 141.675 109.056 141.629 108.911V108.923ZM32.8572 41.8865V42.858H43.0254V41.8865H32.8572ZM156.249 143.063H156.475H156.249ZM141.629 108.923C141.672 109.069 141.71 109.215 141.75 109.358C141.715 109.202 141.675 109.056 141.629 108.911V108.923ZM156.249 143.063H156.475H156.249ZM141.629 108.923C141.672 109.069 141.71 109.215 141.75 109.358C141.715 109.202 141.675 109.056 141.629 108.911V108.923Z" fill="#85B3FF"/>
<path opacity="0.1" d="M206.169 32.2747C209.168 32.2747 211.599 29.8438 211.599 26.845C211.599 23.8463 209.168 21.4153 206.169 21.4153C203.17 21.4153 200.738 23.8463 200.738 26.845C200.738 29.8438 203.17 32.2747 206.169 32.2747Z" fill="#85B3FF"/>
<path opacity="0.1" d="M230.274 44.4193C232.632 44.4193 234.544 42.5076 234.544 40.1494C234.544 37.7911 232.632 35.8794 230.274 35.8794C227.915 35.8794 226.003 37.7911 226.003 40.1494C226.003 42.5076 227.915 44.4193 230.274 44.4193Z" fill="#85B3FF"/>
<path opacity="0.1" d="M242.219 21.0787C243.051 21.0787 243.726 20.4044 243.726 19.5726C243.726 18.7407 243.051 18.0664 242.219 18.0664C241.387 18.0664 240.713 18.7407 240.713 19.5726C240.713 20.4044 241.387 21.0787 242.219 21.0787Z" fill="#85B3FF"/>
<path opacity="0.1" d="M189.312 200.995C202.023 200.995 212.327 198.635 212.327 195.724C212.327 192.812 202.023 190.452 189.312 190.452C176.601 190.452 166.297 192.812 166.297 195.724C166.297 198.635 176.601 200.995 189.312 200.995Z" fill="#85B3FF"/>
<path d="M201.12 188.582C201.12 188.582 185.031 192.902 184.868 192.902C184.778 192.902 181.727 193.153 178.28 193.219C175.373 193.279 172.184 193.219 170.246 192.794C166.033 191.863 171.559 188.8 174.351 187.596C177.143 186.391 190.921 187.159 192.463 187.159C194.005 187.159 196.513 185.354 195.639 181.25C194.765 177.145 195.857 166.969 195.857 166.969L199.415 164.945L199.495 166.067L201.12 188.582Z" fill="#A1A5CF"/>
<path opacity="0.1" d="M201.12 188.582C201.12 188.582 185.031 192.902 184.868 192.902C184.778 192.902 181.727 193.153 178.28 193.219C180.379 192.799 183.194 192.169 183.829 191.712C184.868 190.947 192.42 188.813 192.42 188.813C192.42 188.813 199.807 189.195 198.383 184.819C196.96 180.444 197.881 166.494 197.881 166.494L199.495 166.085L201.12 188.582Z" fill="black"/>
<path d="M198.33 166.477C198.33 166.477 197.399 180.429 198.832 184.802C200.266 189.175 192.867 188.796 192.867 188.796C192.867 188.796 185.315 190.929 184.276 191.695C183.593 192.197 180.392 192.887 178.27 193.304C177.503 193.449 176.789 193.8 176.206 194.32C175.623 194.839 175.193 195.508 174.961 196.254C174.657 197.258 174.78 198.222 176.234 198.32C179.463 198.538 179.463 198.977 179.463 198.977C179.463 198.977 178.805 201.329 182.199 200.232C185.594 199.135 187.233 198.646 187.233 198.646C187.233 198.646 184.881 201.382 186.304 201.6C187.728 201.819 192.98 197.835 192.98 197.835C192.98 197.835 196.372 193.512 203.048 193.239C209.724 192.965 202.445 185.141 202.445 185.141C202.445 185.141 201.624 174.198 201.845 172.885C202.066 171.573 201.572 165.663 201.572 165.663L198.33 166.477Z" fill="#A1A5CF"/>
<path d="M197.728 140.377C197.728 140.377 189.41 140.377 186.563 137.867C183.716 135.357 178.476 129.653 178.476 129.653C178.476 129.653 163.372 111.707 158.993 116.632C158.993 116.632 159.104 119.04 163.043 120.024C166.982 121.008 167.203 123.965 167.203 123.965C167.203 123.965 153.63 122.208 154.178 125.825C154.178 125.825 155.054 127.904 160.203 126.591C165.353 125.278 166.661 126.809 166.661 126.809C166.661 126.809 166.55 128.78 163.924 128.669C161.298 128.559 159.109 130.201 158.89 131.624C158.672 133.047 164.69 131.842 164.69 131.842C164.69 131.842 168.958 131.295 171.584 133.921C174.21 136.546 177.934 135.236 177.934 135.236C177.934 135.236 186.799 144.318 197.304 143.442L197.728 140.377Z" fill="#A1A5CF"/>
<g opacity="0.1">
<path opacity="0.1" d="M166.523 126.756C166.588 126.596 166.629 126.427 166.646 126.254C166.646 126.254 165.333 124.723 160.188 126.036C155.579 127.211 154.399 125.667 154.203 125.333C154.152 125.507 154.14 125.691 154.168 125.87C154.168 125.87 155.044 127.951 160.193 126.638C164.477 125.549 166.101 126.433 166.523 126.756Z" fill="black"/>
<path opacity="0.1" d="M163.033 120.079C165.837 120.779 166.756 122.479 167.05 123.4L167.191 123.418C167.191 123.418 166.972 120.463 163.03 119.477C160.206 118.771 159.35 117.333 159.091 116.577C159.056 116.612 159.016 116.647 158.981 116.688C158.983 116.688 159.094 119.095 163.033 120.079Z" fill="black"/>
<path opacity="0.1" d="M197.289 142.895C186.784 143.771 177.919 134.694 177.919 134.694C177.919 134.694 174.198 136.007 171.569 133.381C168.941 130.755 164.667 131.295 164.667 131.295C164.667 131.295 159.628 132.299 158.941 131.383C158.908 131.479 158.884 131.578 158.868 131.679C158.649 133.102 164.667 131.897 164.667 131.897C164.667 131.897 168.936 131.35 171.562 133.976C174.188 136.602 177.911 135.289 177.911 135.289C177.911 135.289 186.776 144.373 197.281 143.497L197.72 140.432H197.635L197.289 142.895Z" fill="black"/>
</g>
<path d="M207.196 149.389C207.54 152.564 207.337 155.774 206.596 158.88C206.55 159.071 206.505 159.27 206.46 159.473C206.042 161.329 205.756 163.212 205.604 165.108C205.433 167.493 202.819 167.935 200.331 167.804C198.824 167.705 197.329 167.461 195.867 167.076C191.926 153.727 194.881 154.382 196.415 145.189C197.547 138.412 195.694 132.45 194.657 129.804C194.286 128.865 194.017 128.338 194.017 128.338C194.017 128.338 200.364 122.429 199.269 124.946C199.018 125.504 199.064 126.42 199.297 127.567C200.113 131.584 203.354 138.474 205.398 142.564C206.412 144.612 206.937 147.107 207.196 149.389Z" fill="#A1A5CF"/>
<path opacity="0.1" d="M196.302 167.024C192.363 153.674 195.318 154.329 196.849 145.139C197.981 138.361 196.129 132.4 195.092 129.751C194.72 128.812 194.451 128.288 194.451 128.288C194.451 128.288 198.059 124.919 199.367 124.352C199.021 123.624 194.012 128.288 194.012 128.288C194.012 128.288 194.281 128.812 194.652 129.751C195.699 132.4 197.55 138.351 196.41 145.139C194.876 154.329 191.921 153.674 195.862 167.024H196.302Z" fill="black"/>
<path opacity="0.1" d="M199.287 127.57C197.781 128.524 196.691 129.239 196.525 129.435C196.274 129.744 195.486 129.821 194.65 129.806C194.278 128.867 194.01 128.34 194.01 128.34C194.01 128.34 200.356 122.431 199.262 124.949C199.016 125.506 199.064 126.422 199.287 127.57Z" fill="black"/>
<path d="M192.034 129.106C192.034 129.106 195.865 129.764 196.52 128.998C197.175 128.232 211.406 119.71 212.609 119.587C213.811 119.464 215.564 115.538 215.564 115.538C215.564 115.538 227.866 94.5093 212.802 84.0766C209.628 81.8881 205.947 80.5466 202.109 80.1794C198.271 79.8121 194.403 80.4312 190.871 81.978C184.281 84.8698 177.374 91.4518 177.974 106.378C178.069 108.446 178.566 110.477 179.438 112.355C180.025 113.64 180.6 115.091 180.545 115.746C180.434 117.069 192.034 129.106 192.034 129.106Z" fill="#A1A5CF"/>
<path opacity="0.1" d="M200.025 141.145L201.559 156.902C201.559 156.902 198.165 166.532 200.464 171.346C202.764 176.161 203.309 179.445 204.733 178.787C206.156 178.129 203.419 171.344 203.419 171.344C203.419 171.344 209.219 178.676 211.08 177.908C212.94 177.14 211.833 174.188 208.569 171.452C205.305 168.716 209.116 169.373 209.116 169.373C209.116 169.373 216.668 172.328 215.895 169.484C215.122 166.64 207.796 165.319 207.796 165.319C207.796 165.319 205.606 158.426 204.733 156.895C203.859 155.363 203.309 143.324 202.651 142.122C201.993 140.919 200.025 141.145 200.025 141.145Z" fill="black"/>
<path opacity="0.1" d="M206.244 159.473C205.826 161.329 205.54 163.212 205.388 165.108C205.217 167.493 202.601 167.935 200.115 167.804C199.864 162.907 201.988 156.902 201.988 156.902L200.457 141.145C200.457 141.145 202.425 140.924 203.083 142.129C203.741 143.334 204.286 155.369 205.162 156.902C205.579 157.734 205.941 158.593 206.244 159.473Z" fill="black"/>
<path d="M200.244 141.145L201.778 156.902C201.778 156.902 198.383 166.532 200.683 171.346C202.983 176.161 203.528 179.445 204.951 178.787C206.375 178.129 203.638 171.344 203.638 171.344C203.638 171.344 209.438 178.676 211.298 177.908C213.158 177.14 212.051 174.188 208.787 171.452C205.524 168.716 209.335 169.373 209.335 169.373C209.335 169.373 216.884 172.328 216.114 169.484C215.343 166.64 208.014 165.319 208.014 165.319C208.014 165.319 205.827 158.426 204.951 156.895C204.075 155.363 203.528 143.324 202.872 142.122C202.217 140.919 200.244 141.145 200.244 141.145Z" fill="#A1A5CF"/>
<path opacity="0.1" d="M169.109 126.463C168.87 127.024 168.459 127.495 167.934 127.806Z" fill="black"/>
<path opacity="0.1" d="M205.18 165.613C205.698 166.768 206.47 167.792 207.439 168.608Z" fill="black"/>
<path opacity="0.1" d="M202.609 168.447C202.644 168.91 202.749 169.365 202.92 169.798C203.007 170.013 203.14 170.207 203.311 170.365C203.481 170.523 203.685 170.641 203.907 170.711" fill="black"/>
<path opacity="0.2" d="M199.583 98.9575C199.583 98.9575 201.047 96.4924 201.818 96.4924Z" fill="black"/>
<path opacity="0.2" d="M199.97 100.343C199.97 100.343 204.512 95.1848 205.591 95.1848Z" fill="black"/>
<path opacity="0.2" d="M191.421 94.261C191.421 94.261 192.654 94.3388 192.885 95.4157Z" fill="black"/>
<path opacity="0.2" d="M189.187 93.7991C189.187 93.7991 191.961 96.1863 192.036 97.1854Z" fill="black"/>
<path opacity="0.2" d="M196.272 106.042C196.272 106.042 196.965 107.046 197.735 107.349Z" fill="black"/>
<path opacity="0.2" d="M196.804 103.654C196.804 103.654 198.112 106.503 198.883 106.503Z" fill="black"/>
<path opacity="0.2" d="M200.201 113.971C200.201 113.971 203.126 118.206 206.668 117.737Z" fill="black"/>
<path opacity="0.2" d="M193.884 113.357C193.884 113.357 191.574 115.744 189.495 115.744Z" fill="black"/>
<path opacity="0.2" d="M212.541 91.3113C212.541 91.3113 217.369 93.2743 217.213 94.7805Z" fill="black"/>
<path opacity="0.2" d="M214.67 90.4805C214.67 90.4805 217.836 92.8703 218.303 94.0124Z" fill="black"/>
<path opacity="0.2" d="M180.507 93.2744C180.507 93.2744 185.129 92.549 185.699 93.0661Z" fill="black"/>
<path opacity="0.2" d="M181.182 91C181.182 91 185.077 90.6887 185.855 91.251Z" fill="black"/>
<path opacity="0.1" d="M192.912 129.327C192.912 129.327 181.311 117.278 181.421 115.975C181.474 115.32 180.901 113.869 180.311 112.583C179.44 110.705 178.944 108.675 178.85 106.606C178.25 91.6803 185.154 85.0984 191.747 82.2065C195.35 80.6292 199.3 80.0167 203.211 80.4293C199.023 79.8227 194.748 80.4001 190.871 82.0961C184.281 84.9904 177.374 91.5699 177.974 106.498C178.068 108.566 178.565 110.596 179.438 112.473C180.025 113.761 180.6 115.209 180.545 115.867C180.434 117.18 192.036 129.216 192.036 129.216C192.036 129.216 192.581 129.309 193.291 129.385C193.058 129.352 192.912 129.327 192.912 129.327Z" fill="black"/>
<path opacity="0.9" d="M165.672 114.361V106.22H166.781V103.785H158.827V106.22H159.935V114.361C158.167 115.032 156.69 116.301 155.761 117.948C154.832 119.595 154.51 121.516 154.851 123.376C155.192 125.236 156.175 126.917 157.628 128.128C159.081 129.338 160.912 130.001 162.803 130.001C164.694 130.001 166.526 129.338 167.979 128.128C169.431 126.917 170.414 125.236 170.755 123.376C171.096 121.516 170.774 119.595 169.845 117.948C168.917 116.301 167.44 115.032 165.672 114.361V114.361Z" fill="#96B7FE"/>
<path opacity="0.1" d="M165.674 106.195H159.937V106.305H165.674V106.195Z" fill="black"/>
<path d="M158.283 121.711C158.283 121.711 163.151 121.626 165.586 120.408C168.022 119.191 169.41 120.277 169.279 121.016C169.149 121.754 168.453 123.189 165.672 123.363C162.89 123.536 158.283 121.711 158.283 121.711Z" fill="#85B3FF"/>
<path opacity="0.1" d="M158.283 121.711C158.283 121.711 163.151 121.626 165.586 120.408C168.022 119.191 169.41 120.277 169.279 121.016C169.149 121.754 168.453 123.189 165.672 123.363C162.89 123.536 158.283 121.711 158.283 121.711Z" fill="black"/>
<path d="M156.199 120.93C156.199 120.93 155.677 128.142 162.501 128.273C169.325 128.403 169.279 121.016 169.279 121.016C169.279 121.016 166.769 123.754 160.803 121.495C160.803 121.495 157.718 120.669 156.199 120.93Z" fill="#85B3FF"/>
<path opacity="0.1" d="M169.254 121.04C169.119 122.702 168.235 127.904 162.501 127.793C156.879 127.688 156.244 122.773 156.194 121.046C156.161 121.972 156.194 128.152 162.501 128.273C169.325 128.403 169.279 121.015 169.279 121.015L169.254 121.04Z" fill="black"/>
<path opacity="0.3" d="M162.541 118.703C163.03 118.703 163.427 118.307 163.427 117.817C163.427 117.328 163.03 116.931 162.541 116.931C162.051 116.931 161.655 117.328 161.655 117.817C161.655 118.307 162.051 118.703 162.541 118.703Z" fill="#85B3FF"/>
<path opacity="0.3" d="M163.048 114.825C163.35 114.825 163.595 114.58 163.595 114.278C163.595 113.976 163.35 113.731 163.048 113.731C162.746 113.731 162.501 113.976 162.501 114.278C162.501 114.58 162.746 114.825 163.048 114.825Z" fill="#85B3FF"/>
<path opacity="0.3" d="M161.825 111.665C162.128 111.665 162.373 111.42 162.373 111.117C162.373 110.815 162.128 110.57 161.825 110.57C161.523 110.57 161.278 110.815 161.278 111.117C161.278 111.42 161.523 111.665 161.825 111.665Z" fill="#85B3FF"/>
<path opacity="0.2" d="M157.135 118.5C157.09 118.872 157.098 119.338 157.432 119.504C157.135 119.381 158.29 117.712 158.14 117.373C157.781 116.652 157.173 118.154 157.135 118.5Z" fill="white"/>
<path opacity="0.3" d="M161.381 102.161C161.87 102.161 162.267 101.764 162.267 101.275C162.267 100.785 161.87 100.388 161.381 100.388C160.891 100.388 160.495 100.785 160.495 101.275C160.495 101.764 160.891 102.161 161.381 102.161Z" fill="#85B3FF"/>
<path opacity="0.3" d="M164.037 100.416C164.4 100.416 164.695 100.122 164.695 99.7585C164.695 99.3953 164.4 99.1008 164.037 99.1008C163.674 99.1008 163.379 99.3953 163.379 99.7585C163.379 100.122 163.674 100.416 164.037 100.416Z" fill="#85B3FF"/>
<path opacity="0.3" d="M162.142 98.3276C162.33 98.3276 162.483 98.1747 162.483 97.9862C162.483 97.7976 162.33 97.6448 162.142 97.6448C161.953 97.6448 161.8 97.7976 161.8 97.9862C161.8 98.1747 161.953 98.3276 162.142 98.3276Z" fill="#85B3FF"/>
<path d="M76.1185 134.571C78.5363 135.751 81.5064 136.296 84.5343 136.471C84.5167 136.589 84.4966 136.705 84.4765 136.818C84.3121 137.766 84.0163 138.687 83.5978 139.554H83.7786C79.6887 145.714 83.0881 158.727 83.0881 158.727C83.0881 158.727 83.9769 163.585 85.4984 168.939C86.342 171.904 85.88 173.571 85.305 174.462V174.479C85.2674 174.537 85.2322 174.597 85.1946 174.658V174.57C81.7072 178.679 84.0522 180.765 84.0522 180.765L85.9955 183.198L85.8273 187.43L87.0951 187.681L86.7964 184.202L87.9839 185.688L88.235 189.175C88.235 189.175 94.0648 189.737 97.9337 190.43C101.803 191.123 102.37 189.247 100.658 188.688C98.9455 188.128 97.2358 184.701 97.2358 184.701C96.9114 184.587 96.574 184.514 96.2315 184.483C96.1997 184.418 96.167 184.35 96.1336 184.28C94.8531 181.584 93.1132 176.616 93.1132 176.616V176.573C92.9299 174.517 92.6387 172.469 92.3148 170.428C91.7324 166.758 92.7994 157.746 92.7994 157.746C92.7994 157.746 93.181 146.786 94.0045 144.293C94.3771 143.027 94.6251 141.727 94.7452 140.412C94.7678 140.222 94.7853 140.033 94.8029 139.853C101.393 139.903 109.114 139.725 112.641 138.751C113.656 138.476 114.688 138.265 115.729 138.121C115.699 138.301 115.664 138.492 115.626 138.695C115.312 140.293 114.908 141.871 114.416 143.422C112.895 148.28 113.527 156.438 115.619 162.292C117.148 166.56 116.716 172.333 116.372 175.135C116.36 175.25 116.344 175.363 116.329 175.469L116.289 175.433C116.285 175.755 116.215 176.072 116.083 176.366C115.951 176.659 115.759 176.922 115.521 177.138C114.99 177.57 114.581 178.134 114.334 178.774C114.088 179.413 114.013 180.106 114.117 180.783C114.235 181.44 114.486 182.067 114.854 182.624C115.221 183.182 115.699 183.659 116.257 184.026V189.506H117.462V184.081C121.391 183.147 126.081 190.309 126.081 190.309C126.081 190.309 132.802 190.621 138.062 190.495C143.322 190.37 139.774 188.068 139.774 188.068C133.864 188.253 131.2 184.9 131.2 184.9L131.13 185.384L131.082 185.341C128.87 183.268 126.061 178.109 126.061 178.109C126.061 178.109 125.87 175.494 125.174 174.249C124.479 173.003 124.748 159.917 124.748 159.917L124.692 138.595V138.033C125.948 138.131 126.842 138.196 127.16 138.058C128.165 137.624 127.349 130.833 126.462 129.151C125.908 128.102 123.799 121.088 122.292 115.96C122.686 116.57 123.126 117.149 123.608 117.692C122.654 116.437 117.462 91.4771 117.462 91.4771L117.283 88.2138C118.078 87.1556 118.751 86.0122 119.292 84.8048C121.341 84.5739 126.447 83.6802 129.242 80.3968C129.89 79.6437 130.028 79.094 129.819 78.7224L145.531 75.4792L148.574 72.9237L139.166 74.6608C141.024 71.1841 138.747 69.9214 136.523 69.4746L137.055 67.8228C137.093 67.7064 137.103 67.5827 137.084 67.4618C137.064 67.3409 137.017 67.2263 136.945 67.1275V67.1275L136.927 67.1074L136.892 67.0622C136.872 67.0401 136.851 67.0191 136.829 66.9994L136.786 66.9618C136.761 66.9419 136.734 66.9235 136.706 66.9066L136.663 66.8815C136.619 66.8584 136.573 66.8382 136.525 66.8212C136.321 66.7569 136.1 66.7753 135.909 66.8725C135.719 66.9697 135.574 67.1379 135.506 67.3408L134.886 69.2637L134.62 69.2486L123.071 68.7466C123.071 68.7466 121.233 66.0079 120.535 66.8162C119.837 67.6245 118.822 66.6932 118.822 66.6932C118.822 66.6932 118.822 60.8392 117.301 61.0877C117.028 61.1332 116.748 61.119 116.48 61.0462C116.213 60.9734 115.965 60.8437 115.752 60.666L115.717 60.0284C115.717 60.0284 115.466 57.0387 115.215 54.4857C114.984 52.1537 110.695 49.0459 109.942 48.5213L105.059 41.7009C105.05 41.7137 105.041 41.7271 105.034 41.741L104.871 41.5126L104.893 41.3695C104.916 41.2515 104.933 41.1361 104.956 41.0181C105.89 41.3115 106.862 41.4604 107.841 41.4599C113.04 41.4599 117.253 37.3204 117.253 32.212C117.255 31.0301 117.026 29.8592 116.578 28.7654C116.56 28.7202 116.54 28.6775 116.523 28.6324C117.041 28.7325 117.577 28.6784 118.064 28.4767C118.176 28.4273 118.278 28.3604 118.368 28.2784C119.676 27.0383 116.633 23.9582 116.083 22.8537C115.629 21.945 115.403 20.9283 114.861 20.0698C114.576 19.628 114.224 19.2341 113.816 18.9025C113.846 18.9477 113.879 18.9929 113.909 19.0406C113.939 19.0883 113.929 19.0782 113.942 19.0958C113.133 18.4062 112.194 17.887 111.18 17.5696C107.449 16.3144 99.5656 14.4719 97.2131 17.5846C96.7487 18.1971 96.3645 18.9025 95.7218 19.3418C95.2347 19.6707 94.6422 19.8087 94.1075 20.0573C92.601 20.7501 91.647 22.2588 91.1323 23.8227C90.6176 25.3866 90.4695 27.0157 90.0954 28.5922C89.6184 30.628 88.7748 32.5584 87.9387 34.4788C86.9495 36.738 85.9001 39.0902 83.997 40.6917C81.3984 42.8782 80.8109 45.9633 78.4107 48.3606C75.5511 51.2073 75.649 55.8915 77.1177 59.6293C77.3111 60.1313 77.5295 60.6334 77.4542 61.1505C77.3789 61.6676 76.9847 62.1546 76.6106 62.5588L75.049 64.2909C77.0367 64.7348 79.1173 64.4683 80.9289 63.5378C81.3015 63.3526 81.6613 63.143 82.006 62.9102L81.991 63.3445C81.873 67.1099 81.9433 70.0595 81.9433 70.0595C83.9091 73.235 78.7748 98.7695 78.7748 98.7695C77.5747 103.682 76.1185 134.571 76.1185 134.571ZM117.813 77.3142C117.612 77.3016 117.404 77.2916 117.191 77.284V77.2238L117.813 77.3142ZM123.184 77.9392L122.719 78.4036C121.737 78.5643 121.059 78.7099 121.059 78.7099L120.088 78.9283C119.965 78.2932 119.784 77.8288 119.601 77.6505C119.518 77.5851 119.422 77.5388 119.32 77.515C120.582 77.6731 121.906 77.8137 123.184 77.9392Z" fill="url(#paint0_linear)"/>
<path d="M87.2258 183.26L87.5973 187.666L86.3571 187.417L86.5429 182.64L87.2258 183.26Z" fill="#1D2366"/>
<path d="M115.529 162.345C117.035 166.612 116.601 172.351 116.264 175.147C116.139 176.179 116.013 176.809 116.013 176.809C116.013 176.809 118.248 181.9 118.433 182.08C118.619 182.261 125.014 186.177 125.014 186.177L129.483 188.783C129.483 188.783 134.015 186.797 131.84 186.114C131.396 185.936 130.997 185.663 130.67 185.314C128.504 183.248 125.757 178.107 125.757 178.107C125.757 178.107 125.571 175.501 124.891 174.261C124.21 173.021 124.454 159.985 124.454 159.985L124.401 138.735V135.974L115.895 136.037C115.841 136.978 115.718 137.913 115.529 138.836C115.223 140.428 114.827 142.001 114.344 143.548C112.86 148.38 113.48 156.511 115.529 162.345Z" fill="#FFB0B1"/>
<path opacity="0.1" d="M116.026 176.804C116.026 176.804 118.26 181.895 118.446 182.075C118.632 182.256 125.026 186.172 125.026 186.172L129.495 188.778C129.495 188.778 134.027 186.792 131.853 186.109C131.409 185.931 131.01 185.658 130.683 185.309L130.49 186.667L128.998 186.606L116.264 175.137C116.139 176.174 116.026 176.804 116.026 176.804Z" fill="black"/>
<path d="M116.181 175.438L128.986 186.986L130.475 187.048L130.786 184.874C130.786 184.874 133.392 188.226 139.166 188.04C139.166 188.04 142.641 190.337 137.489 190.46C132.337 190.583 125.76 190.274 125.76 190.274C125.76 190.274 121.165 183.137 117.316 184.069V189.468H116.136V184.003C115.587 183.633 115.119 183.156 114.759 182.601C114.399 182.045 114.155 181.422 114.042 180.77C113.94 180.098 114.013 179.41 114.254 178.774C114.494 178.138 114.894 177.574 115.416 177.138C115.653 176.922 115.843 176.66 115.974 176.367C116.106 176.075 116.177 175.759 116.181 175.438V175.438Z" fill="#1D2366"/>
<path d="M86.0457 168.984C86.8692 171.936 86.4198 173.601 85.8549 174.494C85.8541 174.5 85.8541 174.506 85.8549 174.512C85.1294 175.614 84.6247 176.845 84.3686 178.139L84.3184 178.418L90.1507 186.92L93.3066 188.163C93.3066 188.163 98.3957 186.426 97.4642 185.929C97.2333 185.806 96.8692 185.163 96.46 184.269C95.2046 181.581 93.4974 176.621 93.4974 176.621V176.58C93.3191 174.53 93.0329 172.489 92.7141 170.455C92.1441 166.798 93.1911 157.816 93.1911 157.816C93.1911 157.816 93.5627 146.894 94.3711 144.409C94.7341 143.146 94.9762 141.852 95.0942 140.543C95.2649 138.982 95.3026 137.706 95.3026 137.706C95.3026 137.706 91.9508 133.052 85.8047 138.08C85.3146 138.483 84.8828 138.952 84.5217 139.474C80.2787 145.511 83.6932 158.803 83.6932 158.803C83.6932 158.803 84.5544 163.648 86.0457 168.984Z" fill="#FFB0B1"/>
<path opacity="0.1" d="M84.3083 178.418L90.1406 186.92L93.3066 188.163C93.3066 188.163 98.3957 186.426 97.4643 185.929C97.2333 185.806 96.8692 185.163 96.46 184.269C94.3033 184.249 93.1961 186.303 93.1961 186.303L90.4645 185.868C90.4645 185.868 86.8642 178.792 86.0583 178.36C85.2524 177.928 85.9328 175.129 85.9328 175.129V174.417L85.8675 174.497C85.8667 174.503 85.8667 174.509 85.8675 174.514C85.142 175.616 84.6372 176.848 84.3812 178.142L84.3083 178.418Z" fill="black"/>
<path d="M92.9978 186.486C92.9978 186.486 94.5494 183.632 97.517 184.686C97.517 184.686 99.1941 188.1 100.869 188.657C102.543 189.215 101.988 191.08 98.1999 190.397C94.4113 189.714 88.7146 189.167 88.7146 189.167L88.4635 185.693L84.6147 180.79C84.6147 180.79 82.3174 178.709 85.7319 174.615V175.328C85.7319 175.328 85.049 178.119 85.8549 178.556C86.6609 178.993 90.2637 186.064 90.2637 186.064L92.9978 186.486Z" fill="#1D2366"/>
<path opacity="0.1" d="M115.9 136.029C115.846 136.97 115.723 137.905 115.534 138.828C119.049 138.314 122.282 138.577 124.414 138.735V135.974L115.9 136.029Z" fill="black"/>
<path opacity="0.1" d="M84.1829 140.249C84.1829 140.249 89.1615 140.5 95.0867 140.54C95.2574 138.979 95.2951 137.704 95.2951 137.704C95.2951 137.704 91.9433 133.05 85.7972 138.078C85.3071 138.48 84.8753 138.949 84.5143 139.471C84.4181 139.736 84.3074 139.996 84.1829 140.249V140.249Z" fill="black"/>
<path d="M84.1829 139.692C84.1829 139.692 105.97 140.746 112.611 138.886C119.252 137.026 125.832 138.635 126.827 138.201C127.821 137.767 127.012 131.001 126.144 129.327C125.275 127.653 120.495 110.708 120.495 110.708L115.9 86.7478L111.06 85.4123L110.718 85.3169L102.282 82.9899L96.101 81.2854C96.101 81.2854 83.8238 129.264 84.8658 132.801C85.2485 134.157 85.3095 135.583 85.044 136.966C84.883 137.91 84.5933 138.827 84.1829 139.692V139.692Z" fill="#1D2366"/>
<path d="M131.916 70.3682C131.916 70.3682 136.262 75.0222 132.97 77.6304C129.679 80.2386 127.509 77.8814 127.509 77.8814L131.916 70.3682Z" fill="#C7DAF5"/>
<path opacity="0.1" d="M131.916 70.3682C131.916 70.3682 136.262 75.0222 132.97 77.6304C129.679 80.2386 127.509 77.8814 127.509 77.8814L131.916 70.3682Z" fill="black"/>
<path d="M96.7512 39.71C96.7512 39.71 97.2534 40.192 98.0292 40.9099C99.1238 41.9316 100.743 43.4202 102.179 44.6753C104.17 46.4074 105.81 47.6876 105.225 46.5932C104.64 45.4987 104.748 43.6185 105.041 41.8487C105.062 41.7308 105.079 41.6153 105.102 41.4973C105.344 40.1988 105.665 38.9162 106.063 37.6566C106.063 37.6566 102.85 33.5021 101.07 31.8629C100.407 31.2504 99.9448 30.9893 99.9172 31.4185C99.8845 31.9984 99.4477 33.2711 98.9129 34.6468L98.8627 34.7748C98.4986 35.6986 98.0944 36.6625 97.7354 37.4909C97.1856 38.7636 96.7512 39.71 96.7512 39.71Z" fill="#FFB0B1"/>
<path opacity="0.1" d="M98.8602 34.785C99.1625 36.4095 99.8956 37.9231 100.983 39.1674C102.07 40.4118 103.472 41.3414 105.041 41.8589C105.287 40.4401 105.628 39.0395 106.063 37.6667C106.063 37.6667 100.01 29.8472 99.9172 31.4287C99.8921 32.0237 99.4201 33.3541 98.8602 34.785Z" fill="black"/>
<path opacity="0.1" d="M105.644 43.945L104.861 42.843C104.861 42.843 104.341 46.0085 102.433 44.6128C100.525 43.217 100.424 55.1158 100.424 55.1158L102.473 85.7411L117.286 84.8575L116.867 70.0469L115.19 62.6014L111.047 51.7545L108.579 48.1698L105.644 43.945Z" fill="black"/>
<path d="M100.429 55.3013L102.282 82.9947L102.478 85.9292L110.733 85.4271L111.059 85.407L117.283 85.0355L116.864 70.2249L115.187 62.7794L111.044 51.9325L108.576 48.3503L105.644 44.113L104.861 43.011C104.861 43.011 104.341 46.1764 102.433 44.7682L102.393 44.7406C100.522 43.5708 100.429 55.3013 100.429 55.3013Z" fill="#1D2366"/>
<path d="M114.971 60.189C114.971 60.189 115.724 61.7403 117.206 61.4918C118.687 61.2433 118.694 67.0797 118.694 67.0797C118.694 67.0797 119.699 68.0085 120.372 67.2027C121.044 66.3969 122.855 69.1255 122.855 69.1255L134.153 69.6276C134.153 69.6276 129.131 71.9245 130.118 78.8754C130.118 78.8754 113.045 77.8211 112.491 76.207C111.936 74.5929 114.971 60.189 114.971 60.189Z" fill="white"/>
<path opacity="0.03" d="M114.971 60.189C114.971 60.189 115.724 61.7403 117.206 61.4918C118.687 61.2433 118.694 67.0797 118.694 67.0797C118.694 67.0797 119.699 68.0085 120.372 67.2027C121.044 66.3969 122.855 69.1255 122.855 69.1255L134.153 69.6276C134.153 69.6276 129.131 71.9245 130.118 78.8754C130.118 78.8754 113.045 77.8211 112.491 76.207C111.936 74.5929 114.971 60.189 114.971 60.189Z" fill="black"/>
<path d="M147.808 73.2852L144.828 75.8306L120.309 80.9817L123.352 77.879L147.808 73.2852Z" fill="white"/>
<path d="M105.596 44.9213C106.003 45.5313 107.168 48.7269 108.142 51.5058C108.953 53.8228 109.633 55.8461 109.633 55.8461C109.633 55.8461 111.215 66.1382 112.021 68.0083C112.827 69.8785 112.395 77.1332 112.395 77.1332L115.408 95.0691C115.408 95.0691 116.771 104.32 118.88 109.842C120.959 115.279 123.274 117.83 123.347 117.908C122.415 116.652 117.321 91.7832 117.321 91.7832L115.647 60.4399C115.647 60.4399 115.395 57.4602 115.144 54.9173C114.893 52.3743 109.872 48.8926 109.872 48.8926L105.016 41.9868C104.527 42.6671 104.853 43.8043 105.596 44.9213Z" fill="white"/>
<path d="M118.26 85.2013C118.26 85.2013 125.398 84.89 128.875 80.733C132.353 76.576 120.866 79.0561 120.866 79.0561L117.889 79.7389L118.26 85.2013Z" fill="#FFB0B1"/>
<path opacity="0.1" d="M84.8657 132.801C85.2484 134.157 85.3095 135.583 85.044 136.966C92.8446 137.52 101.19 135.409 101.19 135.409C102.742 136.838 106.839 138.946 106.839 138.946L109.074 111.265C110.5 107.543 111.06 87.9927 111.06 87.9927C111.06 87.9927 110.931 86.9685 110.733 85.4373C110.733 85.3996 110.733 85.3594 110.718 85.3218C110.161 81.0418 109.059 73.0038 108.516 71.9194C107.763 70.4308 110.811 66.4596 110.811 66.4596L109.428 54.6612L109.259 53.2404C106.342 51.9351 104.107 47.7756 104.107 47.7756L102.393 44.7632C100.525 43.5658 100.432 55.3064 100.432 55.3064L102.285 82.9998L96.1035 81.2953C96.1035 81.2953 83.8238 129.264 84.8657 132.801Z" fill="black"/>
<path d="M76.8591 134.727C85.3603 138.946 100.818 135.038 100.818 135.038C102.37 136.464 106.467 138.575 106.467 138.575L108.702 110.894C110.128 107.171 110.688 87.6212 110.688 87.6212C110.688 87.6212 108.888 73.0365 108.142 71.5555C107.926 71.1212 108.032 70.4735 108.288 69.7782C109.557 66.4633 110.024 62.8954 109.651 59.3656L109.056 54.2898L108.888 52.8664C105.97 51.5636 103.736 47.4041 103.736 47.4041L102.179 44.6804L99.3171 39.6599L97.9613 37.2852L97.7328 37.4935L95.9754 39.0875C95.9754 39.0875 95.2222 39.7 94.1124 40.6464C91.6771 42.6998 87.4692 46.3096 85.3 48.5186C83.3919 50.4666 82.7893 58.0351 82.6136 63.7334C82.4981 67.4888 82.5684 70.4308 82.5684 70.4308C84.4941 73.5963 79.4652 99.048 79.4652 99.048C78.2852 103.943 76.8591 134.727 76.8591 134.727Z" fill="white"/>
<path opacity="0.03" d="M93.1836 47.3364C93.1836 47.3364 99.0184 58.4444 98.3355 62.6642C97.6525 66.8839 95.7269 71.6635 96.6583 72.7806C96.9767 73.2048 97.389 73.5496 97.8629 73.7878C98.3368 74.026 98.8595 74.1513 99.3899 74.1537C100.321 74.2165 102.804 75.9536 102.804 76.1393C102.804 76.3251 105.102 76.3251 107.15 77.1936C109.199 78.0622 112.24 78.5592 112.24 78.5592C112.24 78.5592 118.137 78.3735 118.694 78.9333C119.252 79.4931 119.812 82.8418 118.632 85.5102C117.452 88.1786 116.149 90.1668 115.157 90.5308C114.165 90.8947 107.894 88.7936 102.804 88.2966C97.7153 87.7996 92.1893 83.7656 92.1893 83.7656C92.1893 83.7656 86.106 81.5942 85.0515 77.9317C83.997 74.2692 86.3545 54.1619 86.3545 54.1619C86.3545 54.1619 88.1547 44.7985 93.1836 47.3364Z" fill="black"/>
<path opacity="0.03" d="M93.9267 46.4127C93.9267 46.4127 99.7615 57.5207 99.0811 61.7404C98.4007 65.9602 96.4725 70.7398 97.404 71.8568C97.7239 72.2807 98.1377 72.6246 98.613 72.8616C99.0883 73.0985 99.612 73.222 100.143 73.2224C101.075 73.2852 103.558 75.0223 103.558 75.2081C103.558 75.3938 105.852 75.3938 107.901 76.2649C109.95 77.1359 112.993 77.6305 112.993 77.6305C112.993 77.6305 118.888 77.4422 119.448 78.002C120.008 78.5618 120.565 81.9105 119.385 84.5814C118.205 87.2524 116.902 89.2355 115.91 89.602C114.918 89.9685 108.647 87.8649 103.558 87.3678C98.4685 86.8708 92.9425 82.8368 92.9425 82.8368C92.9425 82.8368 86.8592 80.6654 85.8047 77.0029C84.7502 73.3404 87.1077 53.2331 87.1077 53.2331C87.1077 53.2331 88.9003 43.8673 93.9267 46.4127Z" fill="black"/>
<path d="M93.3643 46.784C93.3643 46.784 99.1991 57.8944 98.5162 62.1142C97.8333 66.334 95.9102 71.1136 96.8391 72.2306C97.1582 72.6535 97.5709 72.9968 98.0447 73.2337C98.5186 73.4706 99.0409 73.5947 99.5707 73.5962C100.502 73.6565 102.985 75.3936 102.985 75.5819C102.985 75.7701 105.282 75.7676 107.331 76.6362C109.38 77.5047 112.42 78.0018 112.42 78.0018C112.42 78.0018 118.318 77.816 118.875 78.3733C119.433 78.9306 119.992 82.2843 118.815 84.9527C117.637 87.6211 116.332 89.6068 115.338 89.9733C114.343 90.3398 108.074 88.2362 102.985 87.7391C97.8961 87.2421 92.3701 83.2206 92.3701 83.2206C92.3701 83.2206 86.2893 81.0467 85.2323 77.3867C84.1753 73.7268 86.5403 53.6119 86.5403 53.6119C86.5403 53.6119 88.343 44.2385 93.3643 46.784Z" fill="white"/>
<path opacity="0.1" d="M93.4924 76.5736C93.4924 76.5736 98.1497 75.6423 96.5353 77.1936C94.921 78.745 94.921 80.1106 92.9351 80.0503C90.9491 79.9901 93.4924 76.5736 93.4924 76.5736Z" fill="black"/>
<path opacity="0.1" d="M85.6114 110.025C85.6114 110.025 87.7203 111.454 83.6857 114.742C79.651 118.031 85.6114 110.025 85.6114 110.025Z" fill="black"/>
<path opacity="0.1" d="M89.6461 121.756C89.6461 121.942 90.3993 128.581 87.5973 130.258C84.7954 131.935 89.6461 121.756 89.6461 121.756Z" fill="black"/>
<path d="M133.964 69.6174C136.224 69.6927 141.08 70.3705 138.556 75.0848C136.327 79.2468 132.581 76.4655 130.482 74.3543C130.995 72.3886 132.241 70.6937 133.964 69.6174V69.6174Z" fill="#FFB0B1"/>
<path d="M130.443 74.3156L130.352 74.2214L130.443 74.3156Z" fill="#FFB0B1"/>
<path opacity="0.1" d="M94.1176 40.8346C96.5052 42.4663 98.5087 43.847 98.8878 44.1306C99.9599 44.9214 102.009 49.5779 103.312 51.9502C104.361 53.863 107.766 54.355 109.051 54.4755L108.883 53.0522C105.97 51.7493 103.736 47.5873 103.736 47.5873L97.9614 37.4734L95.9754 39.2733C95.9754 39.2733 95.2298 39.8908 94.1176 40.8346Z" fill="black"/>
<path d="M94.1176 40.6489C96.5052 42.2805 98.5087 43.6612 98.8878 43.9449C99.9599 44.7356 102.009 49.3896 103.312 51.7644C104.361 53.6772 107.766 54.1692 109.051 54.2897L108.883 52.8664C105.965 51.5635 103.731 47.404 103.731 47.404L97.9564 37.2876L95.9704 39.09C95.9704 39.09 95.2298 39.7025 94.1176 40.6489Z" fill="#DCE7FF"/>
<path d="M98.707 32.7265C98.7065 34.5498 99.2468 36.3322 100.259 37.8483C101.272 39.3645 102.712 40.5464 104.396 41.2444C106.081 41.9425 107.935 42.1254 109.723 41.77C111.512 41.4146 113.155 40.5369 114.444 39.2479C115.734 37.9588 116.612 36.3164 116.968 34.5283C117.324 32.7401 117.142 30.8866 116.444 29.2022C115.746 27.5177 114.564 26.0779 113.048 25.065C111.532 24.052 109.75 23.5113 107.926 23.5113C106.714 23.506 105.513 23.7407 104.392 24.2019C103.272 24.6631 102.253 25.3417 101.396 26.1984C100.539 27.0551 99.8602 28.0731 99.3987 29.1936C98.9371 30.314 98.702 31.5148 98.707 32.7265V32.7265Z" fill="#FFB0B1"/>
<path opacity="0.1" d="M82.6136 63.7359C83.8742 62.9593 84.9 61.8548 85.5813 60.5404C86.101 59.5137 86.4449 58.3313 87.3387 57.6008C88.1346 56.9507 89.2117 56.7925 90.1984 56.4988C93.4623 55.5324 96.2089 52.5476 96.3144 49.1387C96.3621 47.5371 95.8625 45.9356 96.0884 44.3491C96.2179 43.4492 96.5767 42.5977 97.1303 41.8765C97.4032 41.5312 97.7029 41.2081 98.0267 40.91C98.4635 40.4983 98.9179 40.1017 99.3146 39.6549C99.5668 39.3854 99.7875 39.0881 99.9724 38.7687C100.12 38.5065 100.239 38.2297 100.329 37.9429C100.937 36.0426 100.384 33.7858 101.067 31.8605L101.105 31.755C101.356 31.0722 101.888 30.3894 102.611 30.3342C103.334 30.279 103.969 30.8865 104.667 31.1601C106.124 31.7249 107.698 30.7635 108.913 29.7794C110.128 28.7954 111.501 27.6733 113.045 27.8942C114.067 28.0398 114.876 28.7352 115.807 29.0966C116.021 29.1768 116.241 29.2398 116.465 29.2849C115.608 27.138 113.976 25.3914 111.892 24.391C109.808 23.3907 107.424 23.2098 105.213 23.8841C103.001 24.5585 101.124 26.0388 99.9533 28.0318C98.7823 30.0247 98.4029 32.3849 98.8903 34.6444L98.8401 34.7724C98.4761 35.6962 98.0718 36.6601 97.7128 37.4885L95.9554 39.0825C95.9554 39.0825 95.2021 39.695 94.0924 40.6414C91.6571 42.6948 87.4492 46.3046 85.28 48.5136C83.392 50.4691 82.7894 58.0376 82.6136 63.7359Z" fill="black"/>
<path d="M115.935 23.4334C115.491 22.5272 115.27 21.5156 114.738 20.6571C113.957 19.4019 112.593 18.6162 111.198 18.1468C107.545 16.8917 99.8242 15.0592 97.5194 18.1619C97.065 18.7744 96.6909 19.4747 96.0607 19.904C95.5837 20.2328 95.0037 20.3709 94.479 20.6169C93.0078 21.3072 92.0688 22.8109 91.5666 24.3572C91.0645 25.9036 90.9189 27.5377 90.5624 29.1268C90.0929 31.1551 89.2694 33.0804 88.4484 34.9933C87.4818 37.2525 86.4549 39.5896 84.5895 41.1861C82.0437 43.365 81.4712 46.4426 79.1187 48.8274C76.3193 51.6665 76.4097 56.3432 77.8634 60.0559C78.0517 60.5454 78.2676 61.06 78.1923 61.562C78.117 62.0641 77.7328 62.5662 77.3663 62.9653L75.8373 64.6924C79.4552 65.5659 83.5526 63.6757 85.2347 60.3571C85.7569 59.3329 86.0984 58.1506 86.9922 57.4201C87.7881 56.7674 88.8626 56.6118 89.8518 56.3181C93.1157 55.3516 95.8624 52.3644 95.9653 48.9579C96.0155 47.3564 95.5159 45.7548 95.7419 44.1683C95.8716 43.2689 96.2295 42.4177 96.7813 41.6957C97.6374 40.5811 98.9304 39.818 99.6234 38.5955C100.803 36.517 99.9071 33.826 100.758 31.5818C101.009 30.899 101.542 30.2137 102.265 30.161C102.988 30.1083 103.623 30.7158 104.318 30.9869C105.775 31.5517 107.351 30.5902 108.564 29.6062C109.777 28.6222 111.152 27.5001 112.699 27.721C113.721 27.8666 114.529 28.5619 115.461 28.9234C116.159 29.192 117.572 29.4255 118.182 28.8431C119.453 27.603 116.462 24.5329 115.935 23.4334Z" fill="#591D4B"/>
<path opacity="0.1" d="M84.346 59.2979C84.8657 58.2712 85.2097 57.0914 86.1035 56.3609C86.8993 55.7082 87.9739 55.5526 88.9631 55.2589C92.227 54.2924 94.9737 51.3052 95.0766 47.8988C95.1268 46.2972 94.6247 44.6931 94.8531 43.1091C94.9813 42.2093 95.3393 41.3577 95.8926 40.6365C96.7487 39.5194 98.0417 38.7588 98.7347 37.5338C99.9147 35.4578 99.0184 32.7643 99.867 30.5226C100.118 29.8373 100.653 29.1545 101.373 29.1018C102.094 29.0491 102.732 29.6541 103.427 29.9252C104.883 30.4925 106.457 29.5311 107.673 28.547C108.888 27.563 110.261 26.4409 111.808 26.6593C112.83 26.8049 113.638 27.5002 114.569 27.8642C115.267 28.1303 116.678 28.3663 117.291 27.7839C118.571 26.5488 115.591 23.4788 115.054 22.3793C114.61 21.4706 114.389 20.4589 113.856 19.6029C113.826 19.5552 113.794 19.51 113.764 19.4648C114.164 19.7958 114.51 20.1881 114.788 20.6271C115.318 21.4831 115.541 22.4947 115.983 23.4035C116.523 24.503 119.498 27.573 118.22 28.8081C117.61 29.3955 116.211 29.1545 115.501 28.8859C114.559 28.5244 113.743 27.8291 112.739 27.6835C111.193 27.4651 109.817 28.5872 108.604 29.5712C107.391 30.5552 105.815 31.5167 104.359 30.9494C103.661 30.6783 103.05 30.0708 102.305 30.1235C101.559 30.1762 101.049 30.8615 100.798 31.5468C99.9498 33.7784 100.844 36.482 99.6661 38.558C98.9707 39.783 97.6802 40.5436 96.824 41.6607C96.271 42.3823 95.9123 43.2336 95.7821 44.1333C95.5561 45.7173 96.0583 47.3214 96.0081 48.9229C95.9026 52.3294 93.1635 55.3166 89.8946 56.2831C88.9054 56.5743 87.8308 56.7324 87.0349 57.3851C86.1436 58.1156 85.7997 59.2954 85.2775 60.3221C83.5928 63.6407 79.5029 65.5284 75.88 64.6549L76.6006 63.8415C79.7414 63.9043 82.9149 62.117 84.346 59.2979Z" fill="black"/>
<path opacity="0.1" d="M105.784 45.1096C106.189 45.7171 107.356 48.9152 108.33 51.6916C109.239 51.3401 110.068 49.0809 110.068 49.0809L105.21 42.1726C104.712 42.8554 105.039 43.9926 105.784 45.1096Z" fill="black"/>
<path d="M105.596 44.9213C106.003 45.5313 107.168 48.7269 108.142 51.5058C109.053 51.1543 109.88 48.8926 109.88 48.8926L105.024 41.9868C104.527 42.6671 104.853 43.8043 105.596 44.9213Z" fill="#DCE7FF"/>
<path d="M133.834 76.6815L136.528 68.2018C136.56 68.1019 136.572 67.9967 136.563 67.8921C136.554 67.7876 136.525 67.6858 136.477 67.5925C136.429 67.4993 136.363 67.4164 136.283 67.3486C136.203 67.2809 136.11 67.2296 136.011 67.1976V67.1976C135.911 67.1649 135.805 67.1524 135.701 67.1607C135.596 67.169 135.494 67.1981 135.4 67.2462C135.307 67.2943 135.224 67.3605 135.156 67.441C135.089 67.5214 135.038 67.6145 135.006 67.7148L132.322 76.2045L132.591 77.9793L133.834 76.6815Z" fill="#BE8B87"/>
<path opacity="0.1" d="M136.274 67.4461C136.174 67.4133 136.069 67.4007 135.965 67.4089C135.86 67.417 135.758 67.4459 135.665 67.4938C135.571 67.5416 135.488 67.6075 135.42 67.6877C135.353 67.7679 135.302 67.8607 135.27 67.9607L132.576 76.4404L132.779 77.7734L132.584 77.9767L132.322 76.2045L135.014 67.7248C135.045 67.6245 135.096 67.5314 135.164 67.451C135.231 67.3705 135.314 67.3044 135.408 67.2562C135.501 67.2081 135.603 67.1791 135.708 67.1707C135.813 67.1624 135.918 67.1749 136.018 67.2076V67.2076C136.185 67.2607 136.33 67.3675 136.43 67.5114C136.381 67.4835 136.328 67.4616 136.274 67.4461V67.4461Z" fill="white"/>
<path d="M133.836 76.6816L132.322 76.2021L132.543 77.6581L132.591 77.9769L133.033 77.5175L133.836 76.6816Z" fill="#EFC8C4"/>
<path d="M133.033 77.5149C133.005 77.4827 132.972 77.4555 132.935 77.4346C132.913 77.421 132.888 77.4138 132.862 77.4138C132.836 77.4138 132.811 77.421 132.789 77.4346C132.769 77.4602 132.751 77.488 132.737 77.5174C132.717 77.5525 132.689 77.5826 132.655 77.6052C132.622 77.6279 132.583 77.6425 132.543 77.6479L132.591 77.9667L133.033 77.5149Z" fill="#727A9C"/>
<path d="M136.548 71.2066C136.548 71.2066 131.147 71.1739 132.42 73.4658C133.693 75.7577 135.684 76.0414 135.684 76.0414L136.548 71.2066Z" fill="#FFB0B1"/>
<path d="M23.4597 158.896C23.4597 158.896 25.2498 161.238 22.6337 164.772C20.0176 168.307 17.8634 171.299 18.7271 173.498C18.7271 173.498 22.6789 166.931 25.8925 166.841C29.1062 166.75 26.9972 162.844 23.4597 158.896Z" fill="#85B3FF"/>
<path opacity="0.1" d="M23.4597 158.896C23.6162 159.121 23.7396 159.368 23.8263 159.629C26.9621 163.314 28.6342 166.753 25.6189 166.841C22.8095 166.921 19.4401 171.941 18.6317 173.209C18.6593 173.307 18.692 173.405 18.7271 173.498C18.7271 173.498 22.6789 166.931 25.8926 166.841C29.1062 166.75 26.9973 162.844 23.4597 158.896Z" fill="black"/>
<path d="M26.7888 161.88C26.7888 162.703 26.6959 163.371 26.5829 163.371C26.47 163.371 26.3771 162.703 26.3771 161.88C26.3771 161.057 26.4926 161.443 26.6055 161.443C26.7185 161.443 26.7888 161.052 26.7888 161.88Z" fill="#FFD037"/>
<path d="M27.9313 162.864C27.2082 163.258 26.578 163.497 26.5228 163.396C26.4676 163.296 27.0099 162.894 27.7354 162.5C28.461 162.106 28.1723 162.392 28.2376 162.5C28.3029 162.608 28.6569 162.47 27.9313 162.864Z" fill="#FFD037"/>
<path d="M13.997 158.896C13.997 158.896 12.2068 161.238 14.823 164.772C17.4391 168.307 19.5932 171.299 18.7271 173.498C18.7271 173.498 14.7778 166.931 11.5616 166.841C8.34543 166.75 10.4594 162.844 13.997 158.896Z" fill="#85B3FF"/>
<path opacity="0.1" d="M13.997 158.896C13.8405 159.121 13.7171 159.368 13.6304 159.629C10.4946 163.314 8.82248 166.753 11.8378 166.841C14.6472 166.921 18.0165 171.941 18.825 173.209C18.7976 173.307 18.765 173.403 18.7271 173.498C18.7271 173.498 14.7803 166.931 11.5616 166.841C8.34294 166.75 10.4594 162.844 13.997 158.896Z" fill="black"/>
<path d="M10.6678 161.88C10.6678 162.703 10.7607 163.371 10.8737 163.371C10.9867 163.371 11.0796 162.703 11.0796 161.88C11.0796 161.057 10.9641 161.443 10.8511 161.443C10.7381 161.443 10.6678 161.052 10.6678 161.88Z" fill="#FFD037"/>
<path d="M9.52543 162.864C10.2485 163.258 10.8787 163.497 10.9339 163.396C10.9891 163.296 10.4468 162.894 9.72126 162.5C8.99568 162.106 9.2844 162.392 9.21913 162.5C9.15385 162.608 8.79984 162.47 9.52543 162.864Z" fill="#FFD037"/>
<path opacity="0.1" d="M18.7296 191.419C29.0737 191.419 37.4592 190.132 37.4592 188.544C37.4592 186.957 29.0737 185.67 18.7296 185.67C8.38553 185.67 0 186.957 0 188.544C0 190.132 8.38553 191.419 18.7296 191.419Z" fill="#85B3FF"/>
<path d="M28.3681 170.34L28.2777 171.07L28.1521 172.105L28.0994 172.534L27.9739 173.568L27.9212 174L27.7956 175.032L26.362 186.78C26.234 187.829 24.5192 188.645 22.4529 188.645H15.0038C12.935 188.645 11.2377 187.829 11.0971 186.78L9.66104 175.032L9.53551 174L9.48278 173.568L9.35474 172.534L9.30453 172.105L9.179 171.07L9.08861 170.34C9.0158 169.745 9.94224 169.245 11.1147 169.245H26.3445C27.5119 169.248 28.4409 169.747 28.3681 170.34Z" fill="#65617D"/>
<path d="M28.2801 171.075L28.1546 172.107H9.30449L9.17896 171.075H28.2801Z" fill="#9D9CB5"/>
<path d="M28.102 172.539L27.9764 173.573H9.48534L9.3573 172.539H28.102Z" fill="#9D9CB5"/>
<path d="M27.9212 174.002L27.7956 175.034H9.66106L9.53552 174.002H27.9212Z" fill="#9D9CB5"/>
</g>
<defs>
<linearGradient id="paint0_linear" x1="111.813" y1="190.583" x2="111.813" y2="15.8776" gradientUnits="userSpaceOnUse">
<stop stop-color="#808080" stop-opacity="0.25"/>
<stop offset="0.54" stop-color="#808080" stop-opacity="0.12"/>
<stop offset="1" stop-color="#808080" stop-opacity="0.1"/>
</linearGradient>
<clipPath id="clip0">
<rect width="250" height="201.613" fill="white"/>
</clipPath>
</defs>
</svg>
