<svg width="250" height="184" viewBox="0 0 250 184" fill="none" xmlns="http://www.w3.org/2000/svg">
<g clip-path="url(#clip0)">
<path d="M100.208 183.788C123.152 183.788 141.751 180.327 141.751 176.057C141.751 171.788 123.152 168.327 100.208 168.327C77.2652 168.327 58.666 171.788 58.666 176.057C58.666 180.327 77.2652 183.788 100.208 183.788Z" fill="#F2F2F2"/>
<path d="M237.585 21.4824H16.0662V140.762H237.585V21.4824Z" fill="#F2F2F2"/>
<path d="M237.585 115.056H216.65V140.762H237.585V115.056Z" fill="#3F3D56"/>
<path d="M234.594 129.27C234.594 134.262 231.627 136.005 227.966 136.005C224.304 136.005 221.337 134.262 221.337 129.27C221.337 124.277 227.966 117.926 227.966 117.926C227.966 117.926 234.594 124.277 234.594 129.27Z" fill="#85B3FF"/>
<path d="M227.724 135.241L227.792 131.063L230.617 125.894L227.803 130.408L227.833 128.529L229.78 124.79L227.841 128.032L227.896 124.653L229.981 121.676L227.905 124.122L227.939 117.926L227.723 126.128L227.741 125.79L225.621 122.545L227.707 126.439L227.51 130.213L227.504 130.113L225.06 126.698L227.496 130.467L227.472 130.939L227.467 130.946L227.469 130.984L226.968 140.558H227.638L227.718 135.613L230.149 131.854L227.724 135.241Z" fill="#3F3D56"/>
<path d="M32.3759 10.7108C31.3167 10.7108 30.2812 10.3967 29.4005 9.80826C28.5199 9.2198 27.8334 8.3834 27.4281 7.40483C27.0228 6.42626 26.9167 5.34947 27.1234 4.31062C27.33 3.27177 27.84 2.31753 28.589 1.56856C29.338 0.819597 30.2922 0.309544 31.3311 0.102905C32.3699 -0.103735 33.4467 0.0023211 34.4253 0.407659C35.4038 0.812997 36.2402 1.49941 36.8287 2.3801C37.4172 3.2608 37.7313 4.29621 37.7313 5.35541C37.7297 6.77526 37.1649 8.13649 36.1609 9.14048C35.1569 10.1445 33.7957 10.7092 32.3759 10.7108V10.7108ZM32.3759 0.486858C31.4129 0.486858 30.4717 0.772392 29.671 1.30736C28.8704 1.84232 28.2464 2.60268 27.8779 3.49229C27.5094 4.3819 27.413 5.36081 27.6009 6.30521C27.7887 7.24962 28.2524 8.11711 28.9333 8.79799C29.6141 9.47887 30.4816 9.94256 31.426 10.1304C32.3705 10.3183 33.3494 10.2218 34.239 9.85336C35.1286 9.48487 35.8889 8.86086 36.4239 8.06023C36.9589 7.2596 37.2444 6.31832 37.2444 5.35541C37.2429 4.06464 36.7295 2.82716 35.8168 1.91445C34.9041 1.00174 33.6666 0.488334 32.3759 0.486858V0.486858Z" fill="#3F3D56"/>
<path d="M3.16456 34.5667C4.91229 34.5667 6.32911 33.1498 6.32911 31.4021C6.32911 29.6544 4.91229 28.2375 3.16456 28.2375C1.41682 28.2375 0 29.6544 0 31.4021C0 33.1498 1.41682 34.5667 3.16456 34.5667Z" fill="#3F3D56"/>
<path d="M246.835 57.6924C248.583 57.6924 250 56.2756 250 54.5278C250 52.7801 248.583 51.3633 246.835 51.3633C245.088 51.3633 243.671 52.7801 243.671 54.5278C243.671 56.2756 245.088 57.6924 246.835 57.6924Z" fill="#3F3D56"/>
<path d="M207.765 45.8252H46.1295V47.2858H207.765V45.8252Z" fill="#3F3D56"/>
<path d="M207.765 58.9702H46.1295V60.4308H207.765V58.9702Z" fill="#3F3D56"/>
<path d="M207.765 72.1155H46.1295V73.576H207.765V72.1155Z" fill="#3F3D56"/>
<path d="M77.5317 40.4697H73.6368V52.6411H77.5317V40.4697Z" fill="#85B3FF"/>
<path d="M121.835 53.615H117.941V65.7864H121.835V53.615Z" fill="#85B3FF"/>
<path d="M197.785 66.76H193.89V78.9314H197.785V66.76Z" fill="#85B3FF"/>
<path d="M103.578 102.3H46.1295V103.761H103.578V102.3Z" fill="#3F3D56"/>
<path d="M74.854 107.656H46.1295V109.116H74.854V107.656Z" fill="#3F3D56"/>
<path d="M54.8929 121.775H45.8861V112.768H54.6495V113.255H46.373V121.288H54.4061V116.709H54.8929V121.775Z" fill="#3F3D56"/>
<path d="M207.765 102.3H150.316V103.761H207.765V102.3Z" fill="#3F3D56"/>
<path d="M168.817 107.656H150.316V109.116H168.817V107.656Z" fill="#3F3D56"/>
<path d="M207.765 107.656H189.265V109.116H207.765V107.656Z" fill="#3F3D56"/>
<path d="M159.08 121.775H150.073V112.768H159.08V121.775ZM150.56 121.288H158.593V113.255H150.56V121.288Z" fill="#3F3D56"/>
<path d="M92.0214 81.129H85.63V77.9985H90.9779L92.1519 78.6507L92.0214 81.129Z" fill="#575A89"/>
<path d="M80.9343 167.349L81.195 172.045L85.1083 171.262L84.4559 166.566L80.9343 167.349Z" fill="#FFB9B9"/>
<path d="M99.4564 164.871C99.4564 164.871 99.5869 168.784 99.1955 169.827C98.8042 170.871 100.239 171.393 100.239 171.393H103.37L105.196 171.653V169.697C105.196 169.697 103.109 166.436 103.109 164.61C103.109 162.784 99.4564 164.871 99.4564 164.871Z" fill="#FFB9B9"/>
<path d="M81.5864 171.262C81.5864 171.262 84.1951 170.03 85.1082 170.776C86.0213 171.523 89.4127 177.914 88.1083 178.306C88.1083 178.306 87.1952 179.871 84.0647 178.828C80.9342 177.784 80.9342 176.61 80.9342 176.61C80.9342 176.61 80.0211 175.827 80.0211 175.567C80.0211 175.306 80.4124 172.958 80.4124 172.958C80.4124 172.958 80.7019 170.993 81.1441 171.128L81.5864 171.262Z" fill="#2F2E41"/>
<path d="M99.7173 169.306C99.7173 169.306 99.326 168.914 99.0651 169.306C98.8043 169.697 97.3694 174.653 98.6738 174.914C99.9782 175.175 101.935 176.088 102.196 175.827C102.414 175.55 102.589 175.243 102.717 174.914C102.717 174.914 104.804 175.827 105.457 176.61C106.109 177.393 113.935 179.088 113.674 176.61C113.413 174.132 109.5 172.045 109.5 172.045L105.196 169.175C105.196 169.175 103.5 169.306 103.109 170.088C102.717 170.871 99.9782 170.74 99.7173 169.306Z" fill="#2F2E41"/>
<path d="M61.4989 118.826C61.4989 118.826 60.064 120.652 60.3249 120.782C60.5858 120.913 66.3251 122.217 69.4556 121.435C72.5861 120.652 79.1081 120.782 79.4994 119.869C79.8907 118.956 84.7169 107.608 84.7169 107.608L83.1517 98.9992L81.456 96.7818L77.5428 93.3904L69.7165 107.999L61.4989 118.826Z" fill="#575A89"/>
<path opacity="0.1" d="M61.4989 118.826C61.4989 118.826 60.064 120.652 60.3249 120.782C60.5858 120.913 66.3251 122.217 69.4556 121.435C72.5861 120.652 79.1081 120.782 79.4994 119.869C79.8907 118.956 84.7169 107.608 84.7169 107.608L83.1517 98.9992L81.456 96.7818L77.5428 93.3904L69.7165 107.999L61.4989 118.826Z" fill="black"/>
<path d="M78.0645 115.695C78.0645 115.695 76.2384 122.217 78.0645 131.217C79.8907 140.218 78.195 142.174 78.5863 142.566C78.9776 142.957 79.1081 142.826 79.1081 143.218C79.1081 143.609 79.4994 145.435 79.1081 146.087C78.7167 146.74 78.7167 167.479 79.8907 168.001C81.0646 168.523 84.456 169.827 85.1082 168.001C85.7604 166.175 85.2387 153.001 85.4995 152.348C85.7604 151.696 85.7604 150.131 85.7604 149.74C85.7604 149.348 86.5431 144.913 86.6735 143.74C86.8039 142.566 87.1952 140.218 87.1952 140.218C87.1952 140.218 86.9344 130.957 87.717 128.217C88.4996 125.478 88.7605 125.217 88.7605 125.217L95.0216 141.522C95.0216 141.522 94.4998 143.218 95.0216 143.74C95.5433 144.261 94.8911 144.131 95.4129 145.044C95.9346 145.957 96.4564 146.218 96.4564 146.74C96.4564 147.261 95.9346 147.261 96.1955 147.653C96.4564 148.044 96.8477 149.479 96.8477 149.479L96.1955 151.044C96.1955 151.044 96.5868 154.305 97.1086 156.262C97.6303 158.218 97.6303 166.175 98.2825 166.305C98.9347 166.436 104.022 167.871 104.022 164.871C104.022 161.87 103.63 148.827 103.63 148.827C103.63 148.827 102.848 146.87 102.848 146.348C102.848 145.827 102.717 145.566 102.978 145.305C103.239 145.044 103.5 144.522 103.109 144.131C102.717 143.74 102.848 143.218 102.848 142.696C102.825 141.994 102.738 141.295 102.587 140.609C102.457 140.087 99.9782 123.782 99.9782 123.782C99.9782 123.782 100.5 121.826 99.9782 121.695C99.4565 121.565 99.4565 120.521 99.4565 120C99.4565 119.478 100.761 112.956 99.1956 112.956C97.6303 112.956 78.0645 115.695 78.0645 115.695Z" fill="#2F2E41"/>
<path d="M60.8466 107.869L59.0205 108.782C59.0205 108.782 52.4986 112.304 55.3682 114.261C58.2379 116.217 61.1075 111.521 61.1075 111.521L63.8467 109.434L60.8466 107.869Z" fill="#FFB9B9"/>
<path d="M86.2822 72.1288C86.2822 72.1288 85.7604 78.1289 83.0212 79.4333C80.282 80.7377 82.1081 90.5206 82.1081 90.5206L85.8908 94.1728L92.5432 92.2163L93.3258 87.7813L93.978 83.216L92.4128 80.8681C92.4128 80.8681 90.4562 80.3464 91.2388 75.1288C92.0215 69.9113 86.2822 72.1288 86.2822 72.1288Z" fill="#FFB9B9"/>
<path d="M82.369 81.5205C82.369 81.5205 85.3691 91.4338 87.4561 91.4338C89.5431 91.4338 90.7171 89.0859 90.978 86.2162C91.2388 83.3466 92.9345 80.2161 92.9345 80.2161L96.9781 83.8683C96.9781 83.8683 100.239 112.695 99.9782 113.478C99.7173 114.261 89.5431 115.174 85.4995 116.348C81.456 117.521 77.4124 116.608 77.4124 115.956C77.4124 115.375 79.4817 110.345 77.9071 106.672C77.3319 105.363 76.943 103.981 76.7516 102.564C76.5079 100.63 76.2816 98.29 76.4993 97.5644C76.8906 96.26 78.9776 82.4335 78.9776 82.4335L82.369 81.5205Z" fill="#85B3FF"/>
<path d="M84.5775 77.9215C84.5775 77.9215 82.2386 79.1726 81.1951 79.6944C80.1516 80.2161 73.7601 81.7814 73.6296 82.564C73.4992 83.3467 74.5427 94.3035 74.021 95.4774C73.4992 96.6514 68.2817 107.086 68.2817 107.086L68.0208 109.304C68.0208 109.304 59.4118 119.609 60.4554 120.782C61.4989 121.956 65.412 117.13 65.412 117.13C65.412 117.13 74.1514 103.173 74.4123 102.652C74.6732 102.13 80.0211 92.4774 80.8038 92.2165C81.5864 91.9556 83.4125 80.9988 83.6734 80.477C83.9343 79.9553 84.9599 77.7139 84.5775 77.9215Z" fill="#575A89"/>
<path d="M74.2819 82.4336H73.4992C73.4992 82.4336 70.6296 93.3904 69.847 94.8252C69.0643 96.2601 68.9339 98.608 68.8035 98.9993C68.673 99.3906 68.1513 99.2602 68.0208 100.173C67.8904 101.086 66.586 102.26 65.5425 102.782C64.499 103.304 59.8032 107.739 59.9336 107.869C60.0641 108 61.4989 112.565 62.412 112.565C63.325 112.565 66.9773 108.13 67.3686 108.13C67.76 108.13 69.4557 106.565 69.7165 106.434C69.9774 106.304 76.6298 94.0426 76.3689 91.0425C76.108 88.0424 74.2819 82.4336 74.2819 82.4336Z" fill="#575A89"/>
<path d="M106.828 116.227L108.435 117.486C108.435 117.486 114.121 122.241 110.918 123.584C107.715 124.928 105.842 119.753 105.842 119.753L103.575 117.16L106.828 116.227Z" fill="#FFB9B9"/>
<path d="M91.0794 78.0759C91.0794 78.0759 92.8041 78.9116 93.5867 79.5638C94.3694 80.216 100.37 81.9117 100.37 82.4334C100.37 82.9552 99.7174 91.0424 99.7174 91.0424L100.63 105.391C100.63 105.391 101.935 121.565 102.196 121.956C102.457 122.348 102.848 124.435 102.196 124.435C101.543 124.435 98.2825 120.782 98.413 118.956C98.5434 117.13 99.4565 112.956 98.5434 111.913C97.6303 110.869 93.3259 93.3903 93.3259 92.3468C93.3259 91.3032 91.4997 80.8682 91.6302 80.6073C91.7606 80.3464 91.0794 78.0759 91.0794 78.0759Z" fill="#575A89"/>
<path d="M98.4129 82.3032L100.369 82.4337L105.196 102.13C105.196 102.13 105.587 104.608 105.717 104.869C105.848 105.13 107.804 116.478 107.022 116.869C106.239 117.261 103.63 118.696 103.5 117.782C103.37 116.869 102.065 111.782 100.761 110.608C99.4564 109.434 98.152 89.2164 98.152 89.2164L98.4129 82.3032Z" fill="#575A89"/>
<path d="M90.5867 75.6508C93.5403 75.6508 95.9347 73.2564 95.9347 70.3028C95.9347 67.3492 93.5403 64.9548 90.5867 64.9548C87.6331 64.9548 85.2387 67.3492 85.2387 70.3028C85.2387 73.2564 87.6331 75.6508 90.5867 75.6508Z" fill="#FFB9B9"/>
<path d="M86.8545 70.6932C87.1948 70.5184 87.6425 70.6829 87.9566 71.0634C88.1228 70.2681 88.4723 69.5227 88.9773 68.8863C89.4823 68.2499 90.1289 67.7402 90.8656 67.3977C91.6023 67.0552 92.4088 66.8894 93.2209 66.9135C94.033 66.9376 94.8282 67.151 95.5433 67.5365V66.9929C95.5433 65.795 95.0674 64.6462 94.2204 63.7992C93.3734 62.9522 92.2246 62.4763 91.0267 62.4763H89.9411C88.8268 62.4763 87.7235 62.6958 86.694 63.1222C85.6645 63.5486 84.7291 64.1736 83.9412 64.9616C83.1533 65.7495 82.5283 66.6849 82.1018 67.7144C81.6754 68.7438 81.4559 69.8472 81.4559 70.9615V72.4759C81.4558 73.8814 81.845 75.2594 82.5804 76.4571C83.3158 77.6548 84.3685 78.6253 85.6219 79.2611L90.5061 76.6754C89.7987 76.2768 89.194 75.7187 88.7401 75.0454C88.2862 74.3721 87.9957 73.6023 87.8915 72.797C87.4782 72.9775 86.9247 72.6854 86.6367 72.1249C86.3405 71.5481 86.438 70.9072 86.8545 70.6932Z" fill="#2F2E41"/>
<path d="M47.6102 115.671L50.2677 118.671L56.0769 112.977" stroke="#57B894" stroke-width="4" stroke-miterlimit="10"/>
</g>
<defs>
<clipPath id="clip0">
<rect width="250" height="183.788" fill="white"/>
</clipPath>
</defs>
</svg>
