<svg width="250" height="167" viewBox="0 0 250 167" fill="none" xmlns="http://www.w3.org/2000/svg">
<g clip-path="url(#clip0)">
<path opacity="0.1" d="M148.146 26.8084C132.562 26.267 117.72 21.2398 103.544 15.7385C89.3684 10.2372 75.3325 4.14157 60.1215 1.2273C50.3381 -0.647364 39.1508 -0.91208 31.2672 4.32928C23.6821 9.38294 21.2308 18.0824 19.9113 26.1611C18.9216 32.2423 18.3365 38.6388 21.0551 44.3302C22.9405 48.2816 26.2899 51.6026 28.6064 55.388C36.6634 68.5564 30.9686 84.7955 22.235 97.6534C18.1415 103.684 13.3882 109.445 10.2265 115.861C7.06491 122.277 5.60329 129.638 8.36761 136.189C11.1103 142.686 17.643 147.557 24.7175 150.986C39.0906 157.951 56.0208 159.946 72.5441 161.074C109.102 163.575 145.856 162.492 182.51 161.409C196.076 161.007 209.701 160.6 223.045 158.504C230.457 157.339 238.109 155.491 243.489 151.044C250.318 145.382 252.011 135.792 247.435 128.692C239.759 116.783 218.54 113.823 213.168 101.042C210.213 94.0076 213.247 86.1696 217.538 79.6456C226.746 65.6469 242.179 53.369 242.993 37.3681C243.551 26.3801 236.133 15.3751 224.661 10.1747C212.636 4.72395 195.963 5.4098 187.097 14.4318C177.957 23.7113 161.905 27.2849 148.146 26.8084Z" fill="#85B3FF"/>
<path d="M108.052 156.781C107.811 155.91 107.57 155.029 107.089 154.271C106.642 153.628 106.112 153.048 105.511 152.546C103.766 150.962 101.622 149.355 99.3084 149.754C98.5928 149.912 97.9012 150.165 97.2521 150.505C96.9149 150.661 96.5754 150.818 96.2287 150.95C95.2526 151.358 94.1737 151.452 93.1417 151.22C92.6119 151.078 92.1183 150.823 91.5958 150.664C91.3477 150.589 91.0941 150.535 90.8373 150.5C91.3422 150.274 91.832 150.016 92.3037 149.728C94.8995 148.139 96.9703 145.269 96.6814 142.198C96.5826 141.165 96.2287 140.176 95.8771 139.202L94.9525 136.646C94.5528 135.539 94.1386 134.41 93.409 133.491C92.5975 132.466 91.4417 131.77 90.2473 131.253C87.6829 130.139 84.88 129.747 82.1133 129.366L81.9207 129.34V99.468C81.9207 98.9574 81.7177 98.4677 81.3565 98.1066C80.9952 97.7456 80.5052 97.5428 79.9943 97.5428H76.3583C76.1978 96.5609 76.0373 95.5807 75.8767 94.602C75.4192 91.8081 74.9449 88.9636 73.6566 86.4488C72.8138 84.8027 71.4726 83.2313 69.6642 82.9088C69.3089 82.8768 68.9596 82.7958 68.6264 82.6682C68.0967 82.4083 67.8077 81.8307 67.4008 81.4048C66.3509 80.305 64.6437 80.2881 63.2374 79.7202C61.9949 79.2269 60.9788 78.298 59.847 77.5832C58.7153 76.8685 57.3091 76.3607 56.0569 76.8252C56.0569 76.9166 56.0401 77.0081 56.0305 77.0971L55.2262 76.7265C54.3593 76.3246 53.4756 75.9131 52.7797 75.2537C51.8864 74.4115 51.4096 73.2949 51.0388 72.1084C51.0003 71.9857 50.9641 71.8678 50.9256 71.7354C52.4647 70.1661 53.5067 68.1781 53.9211 66.02L54.1161 66.6529C54.16 66.7951 54.2115 66.9349 54.2702 67.0716C54.3698 67.3361 54.5356 67.5706 54.7518 67.7527C54.8135 67.8011 54.8816 67.8408 54.9541 67.8706C55.0206 67.897 55.0902 67.9148 55.1612 67.9235C55.2612 67.9359 55.3626 67.9285 55.4598 67.9019C55.6226 67.8515 55.772 67.7652 55.8971 67.6495C56.0221 67.5337 56.1195 67.3913 56.1822 67.2329C56.2206 67.1383 56.2488 67.0399 56.2664 66.9393C56.2757 66.8787 56.2814 66.8176 56.2833 66.7564C56.2833 66.7371 56.2833 66.7179 56.2833 66.6986C56.2833 66.6794 56.2833 66.6144 56.2833 66.5735C56.2833 66.5326 56.2833 66.5302 56.2833 66.5061C56.2833 66.482 56.2833 66.4267 56.2712 66.3858V66.3232C56.2712 66.2751 56.2568 66.227 56.2472 66.1812C56.2375 66.1355 56.2472 66.1548 56.2472 66.1427C56.2351 66.0826 56.2207 66.02 56.2086 65.9598C56.2086 65.9454 56.2086 65.9286 56.2086 65.9141C56.2086 65.8997 56.187 65.8155 56.1749 65.7649C56.1629 65.7144 56.1581 65.6999 56.1508 65.6662V65.6518C56.1268 65.5555 56.1051 65.4617 56.0834 65.3654C55.9084 64.5302 55.8637 63.673 55.951 62.8242C56.0951 61.5785 56.3252 60.3442 56.6397 59.1302L56.6902 58.9112C56.7095 58.827 56.7288 58.7427 56.7456 58.6561C56.7841 58.4828 56.8227 58.3096 56.8588 58.1339L56.9455 57.6911L57.0105 57.2964V57.2459C57.1457 56.3516 57.174 55.4444 57.0948 54.5434C56.984 53.2848 56.5939 52.0936 55.7391 51.1454C55.1347 50.474 54.3377 49.9783 53.7766 49.2732C53.2517 48.6138 52.9555 47.8004 52.4113 47.153C50.9088 45.3602 47.0512 43.9789 44.6842 43.7382C41.9729 43.4639 37.5928 44.1569 35.4064 45.7573C34.5973 46.3469 34.0435 47.2012 33.4801 48.0097C32.4446 49.5138 31.2696 51.0155 29.6105 51.8602C28.9844 52.1778 28.2669 52.4185 27.8503 52.972C27.6025 53.3472 27.442 53.7731 27.3807 54.2185C27.0617 55.7854 26.8956 57.3796 26.8847 58.9786C26.8847 59.1783 26.8847 59.3781 26.8847 59.5802C26.8896 60.1797 27.0175 60.7719 27.2603 61.3201C27.2989 61.4019 27.3422 61.4813 27.388 61.5608L27.4169 61.6113C27.7081 62.0274 27.9658 62.4659 28.1874 62.9228C28.2426 63.0508 28.2822 63.1849 28.3054 63.3223C28.3466 63.6749 28.3238 64.0319 28.238 64.3764C28.238 64.4293 28.2163 64.4822 28.2067 64.5352L28.185 64.6387C28.185 64.6748 28.185 64.7109 28.1657 64.7446C28.1465 64.848 28.1296 64.9515 28.1152 65.0526C28.0786 65.3309 28.0966 65.6137 28.1681 65.8852C28.2011 66.0365 28.2658 66.1791 28.3579 66.3035C28.4501 66.428 28.5676 66.5315 28.7027 66.6072C28.8399 66.6729 28.9859 66.7183 29.1361 66.742C29.2878 66.7684 29.4419 66.7853 29.5912 66.819C29.7832 66.8627 29.9686 66.9315 30.1426 67.0235C30.3094 67.1033 30.4655 67.2035 30.6074 67.3219C30.6776 67.3857 30.7443 67.4532 30.8072 67.5241C30.9344 67.6696 31.0488 67.8258 31.1492 67.9909C31.2005 68.076 31.2487 68.1626 31.2936 68.2508C31.4662 68.5991 31.6041 68.9634 31.7054 69.3386C31.768 69.5624 31.821 69.7886 31.8667 70.0148C31.8884 70.1159 31.9077 70.2169 31.9245 70.3156C31.9414 70.4143 31.9582 70.5153 31.9727 70.614C32.0384 70.6103 32.1032 70.5973 32.1653 70.5755C32.5193 70.448 32.7167 70.0365 32.8275 69.637C32.8468 69.5696 32.8636 69.5046 32.8781 69.4396C32.9335 69.199 32.9912 68.9343 33.0466 68.6816C33.9958 70.696 35.5262 72.3806 37.4411 73.5187C37.5085 73.7184 37.5736 73.9157 37.6314 74.1179C37.9468 75.208 38.0985 76.3487 37.5519 77.3017C37.1618 77.9779 36.5068 78.3942 35.7748 78.683C35.6693 78.5424 35.5335 78.4273 35.3775 78.3461C34.7442 78.0284 33.9833 78.4135 33.4512 78.8876C32.488 79.7587 31.703 81.0077 30.4364 81.2941C29.9789 81.4 29.4732 81.3783 29.0928 81.6575C28.8412 81.8939 28.6304 82.1704 28.4691 82.4757C28.1943 82.8701 27.8247 83.1892 27.3943 83.4037C26.9638 83.6181 26.4864 83.721 26.0058 83.703C25.5651 83.6813 25.0426 83.5802 24.7416 83.9027C24.5177 84.1434 24.5008 84.5236 24.26 84.7522C23.9374 85.0699 23.4076 84.9159 22.9573 84.8966C22.1001 84.8605 21.3031 85.414 20.8143 86.1239C20.3255 86.8338 20.0919 87.6833 19.8511 88.5304V88.5449C19.7893 88.5898 19.7306 88.6389 19.6753 88.6917C19.4419 88.9402 19.2609 89.2332 19.1432 89.5532C17.1958 93.9841 16.0465 98.7239 15.748 103.554C15.7527 103.79 15.6998 104.023 15.5938 104.233C15.4861 104.37 15.3678 104.499 15.2399 104.618C15.1255 104.758 15.0403 104.919 14.9896 105.093C14.9388 105.266 14.9234 105.448 14.9442 105.628C14.9651 105.807 15.0219 105.981 15.1111 106.138C15.2004 106.295 15.3203 106.433 15.4638 106.543C15.5331 106.418 15.6199 106.303 15.7215 106.201C15.695 106.312 15.6709 106.42 15.654 106.519C15.5573 107.221 15.5484 107.932 15.6276 108.637C15.8555 111.98 16.0859 115.321 16.3186 118.66C16.3837 119.606 16.4487 120.549 16.5354 121.492C16.7039 123.318 16.9447 125.137 17.2577 126.948C17.2722 127.03 17.289 127.114 17.3107 127.188C15.3482 127.812 13.6025 128.938 12.8681 130.817C12.6128 131.467 12.4972 132.175 12.1842 132.798C11.8399 133.481 11.274 134.028 10.8984 134.697C10.2506 135.847 10.2217 137.257 10.4577 138.547C10.9128 141.062 12.2733 143.31 14.0696 145.139C13.9902 145.139 13.9083 145.139 13.8288 145.139C13.2419 145.204 12.6786 145.405 12.1842 145.728C8.38446 147.947 6.2125 152.707 7.00471 157.053C7.16123 157.903 7.43332 158.764 8.0016 159.412C8.47395 159.926 9.08129 160.298 9.75458 160.485C10.1756 160.611 10.6092 160.692 11.0476 160.725C14.0094 160.966 16.8773 159.594 19.8463 159.479C20.8298 159.463 21.8134 159.509 22.7912 159.616C24.2215 159.735 25.6542 159.81 27.0894 159.842C29.4227 159.898 30.735 159.277 32.2231 157.534C32.5889 157.101 32.8942 156.62 33.1309 156.105C34.3975 156.033 35.7965 155.922 36.8078 155.84L36.8223 155.98C36.8777 156.461 36.9619 157.015 37.3472 157.318C37.5639 157.467 37.8103 157.568 38.0696 157.614C40.5016 158.211 42.9625 158.817 45.4668 158.817C46.642 158.793 47.8149 158.703 48.98 158.548L53.3793 158.04C54.6613 158.202 55.9264 158.478 57.1598 158.863C58.4312 159.294 59.6183 159.934 60.8608 160.441C63.7503 161.611 66.8566 162.03 69.9339 162.439C70.4589 162.509 71.0608 162.557 71.4485 162.198C71.9494 161.717 71.7832 160.913 71.6412 160.239C71.5834 159.963 71.54 159.686 71.5063 159.407C73.5829 159.954 75.6147 160.659 77.584 161.515L77.9283 161.666C78.0294 162.191 78.5134 162.61 78.9782 163.175C79.1307 163.414 79.3092 163.635 79.5103 163.835C79.7402 163.984 80.0014 164.078 80.2736 164.109C83.5223 164.714 86.8394 164.864 90.1294 164.554C90.8027 164.463 91.4836 164.439 92.1617 164.484C92.6598 164.552 93.1512 164.663 93.6305 164.814L96.4165 165.613C98.4705 166.2 100.573 166.795 102.704 166.662C103.136 166.635 103.565 166.573 103.987 166.477C105.673 166.087 107.243 165.146 108.052 163.633C109.195 161.575 108.668 159.043 108.052 156.781Z" fill="url(#paint0_linear)"/>
<path d="M30.1041 156.312C29.5961 155.157 29.1145 153.828 29.6225 152.673C29.9542 151.993 30.5239 151.458 31.2238 151.169C31.9164 150.887 32.6465 150.707 33.391 150.635C35.7277 150.329 38.0923 150.296 40.4366 150.539C40.6076 151.891 40.2464 153.263 39.9358 154.57C39.654 155.773 39.4927 155.951 38.2502 156.013C37.446 156.057 30.2944 156.738 30.1041 156.312Z" fill="#FBBEBE"/>
<path d="M51.5469 148.52C70.564 148.52 85.9805 144.21 85.9805 138.894C85.9805 133.577 70.564 129.268 51.5469 129.268C32.5297 129.268 17.1133 133.577 17.1133 138.894C17.1133 144.21 32.5297 148.52 51.5469 148.52Z" fill="#464353"/>
<path opacity="0.1" d="M51.5469 148.52C70.564 148.52 85.9805 144.21 85.9805 138.894C85.9805 133.577 70.564 129.268 51.5469 129.268C32.5297 129.268 17.1133 133.577 17.1133 138.894C17.1133 144.21 32.5297 148.52 51.5469 148.52Z" fill="black"/>
<path d="M57.7208 88.078C56.5405 90.3574 54.5802 92.1371 52.197 93.0932C50.79 93.6055 49.3092 93.8867 47.8122 93.9258C46.1772 94.0004 44.5084 93.8945 42.9722 93.3362C40.911 92.5902 39.1989 91.0645 37.9155 89.2861C36.6321 87.5077 35.7483 85.4766 34.9802 83.4286C34.5757 82.3626 34.1904 81.2267 34.3806 80.1005C35.6207 79.8189 36.9788 79.405 37.6193 78.3052C38.1659 77.3618 38.0142 76.2308 37.6988 75.1527C37.6097 74.8471 37.5061 74.5438 37.4026 74.2527C37.1618 73.5548 36.3311 72.2288 36.921 71.632C37.2894 71.2542 38.8329 71.0616 39.3651 70.8162C41.0049 70.0605 42.5171 68.968 44.3182 68.6094C45.8762 68.299 47.4847 68.5902 49.0402 68.9126C49.2465 68.9426 49.4447 69.0138 49.6229 69.122C49.8261 69.2931 49.9764 69.5185 50.0563 69.7717C50.4994 70.8499 50.7595 72.0411 51.1159 73.1649C51.4867 74.3417 51.9634 75.4463 52.8568 76.2813C53.5527 76.9335 54.4388 77.3426 55.3057 77.7397L57.4391 78.7167C57.8186 78.8587 58.1628 79.0812 58.448 79.3689C58.727 79.7521 58.8938 80.2054 58.9296 80.678C59.3119 83.2103 58.8891 85.7987 57.7208 88.078Z" fill="#FBBEBE"/>
<path opacity="0.1" d="M51.1062 73.1649C49.4073 74.9327 47.1694 76.0869 44.7434 76.4466C42.3174 76.8064 39.8405 76.3513 37.7012 75.1527C37.6121 74.847 37.5086 74.5438 37.405 74.2526C37.1642 73.5548 36.3335 72.2288 36.9234 71.632C37.2918 71.2541 38.8353 71.0616 39.3675 70.8162C41.0073 70.0605 42.5195 68.968 44.3206 68.6094C45.8786 68.299 47.4871 68.5902 49.0426 68.9126C49.2489 68.9426 49.4471 69.0138 49.6253 69.122C49.8285 69.2931 49.9788 69.5185 50.0588 69.7717C50.4898 70.8499 50.7498 72.0411 51.1062 73.1649Z" fill="black"/>
<path d="M43.1191 76.0839C49.2365 76.0839 54.1956 71.1277 54.1956 65.014C54.1956 58.9003 49.2365 53.9441 43.1191 53.9441C37.0017 53.9441 32.0425 58.9003 32.0425 65.014C32.0425 71.1277 37.0017 76.0839 43.1191 76.0839Z" fill="#FBBEBE"/>
<path d="M76.8664 100.941L75.9562 95.4298C75.4963 92.6648 75.0219 89.8468 73.7361 87.356C72.8909 85.7244 71.5497 84.1698 69.7413 83.8473C69.3851 83.8156 69.035 83.7346 68.7011 83.6067C68.1713 83.3516 67.8824 82.7789 67.4754 82.3553C66.4256 81.2676 64.7159 81.2507 63.3097 80.6972C62.0672 80.2159 61.051 79.2894 59.9193 78.5819C58.7876 77.8744 57.3789 77.3787 56.1268 77.8311C55.9245 79.9849 55.7102 82.1869 54.7952 84.1482C54.1996 85.425 53.326 86.5526 52.2383 87.4486C51.1506 88.3446 49.8763 88.9863 48.5085 89.3268C47.1407 89.6673 45.714 89.6979 44.3329 89.4165C42.9517 89.135 41.6509 88.5486 40.5257 87.7002C38.3802 86.0854 37.0053 83.5947 36.3648 80.9884C36.2083 80.3531 36.0301 79.6239 35.445 79.3328C34.8117 79.0151 34.0508 79.4001 33.5186 79.867C32.5554 80.7309 31.768 81.9679 30.5014 82.2591C30.0439 82.365 29.5383 82.3433 29.1578 82.62C28.905 82.8532 28.6933 83.1274 28.5317 83.431C28.2546 83.8224 27.8843 84.1387 27.4542 84.3513C27.0241 84.5639 26.5479 84.6661 26.0684 84.6487C25.6278 84.6271 25.1052 84.526 24.8042 84.8461C24.5803 85.0867 24.5635 85.4621 24.3227 85.6859C23.9976 86.0012 23.4702 85.8472 23.0176 85.8303C22.1603 85.7942 21.3633 86.3429 20.8721 87.0336C20.3809 87.7242 20.1497 88.5785 19.9089 89.4064C22.5408 95.2638 24.9487 101.128 27.5806 106.986C27.7039 107.207 27.7694 107.455 27.7708 107.708C27.7181 107.97 27.606 108.217 27.4434 108.43C26.1527 110.502 26.1936 113.108 26.3357 115.543C26.4778 117.979 26.6511 120.551 25.5627 122.734C25.2666 123.333 24.8813 123.882 24.5996 124.481C23.9398 125.838 23.7014 130.18 24.0867 131.638H78.5255C77.4877 128.786 77.8826 123.064 78.0993 120.036C78.251 117.919 77.8585 115.803 77.6899 113.686C77.3215 109.361 77.5816 105.258 76.8664 100.941Z" fill="#85B3FF"/>
<path d="M15.7383 107.246C15.642 107.942 15.6323 108.648 15.7094 109.346L16.4005 119.278C16.4655 120.214 16.5305 121.148 16.6172 122.082C16.7834 123.894 17.0314 125.691 17.3396 127.487C17.3465 127.742 17.4544 127.983 17.6395 128.159C17.8246 128.334 18.0718 128.429 18.3269 128.423C21.3729 129.068 24.5201 129.041 27.6288 128.866C32.3724 128.601 37.1088 127.997 41.8597 128.1C43.0829 128.127 44.5084 128.1 45.2501 127.138C45.9917 126.175 45.5607 124.618 44.5927 123.841C43.6247 123.064 42.31 122.878 41.0675 122.878C39.4229 122.861 37.7782 123.095 36.1384 122.999C34.6335 122.91 33.1622 122.546 31.703 122.183L27.6095 121.165C27.766 119.925 28.238 118.758 28.6858 117.582C29.4901 115.495 30.2414 113.339 30.2558 111.103C30.2703 108.868 29.4275 106.516 27.595 105.236C26.0877 104.185 24.1469 103.99 22.3096 104.033C20.9732 104.071 18.664 103.751 17.4431 104.274C16.4776 104.697 15.9189 106.3 15.7383 107.246Z" fill="#FBBEBE"/>
<path d="M79.6524 129.953C80.4542 129.648 81.338 129.759 82.1976 129.874C84.9643 130.252 87.772 130.639 90.3364 131.744C91.5404 132.259 92.6866 132.947 93.5005 133.96C94.2229 134.872 94.6443 135.989 95.044 137.089L95.9686 139.62C96.3202 140.583 96.6766 141.565 96.7753 142.588C97.0642 145.617 94.991 148.474 92.3832 150.048C89.7754 151.622 86.7053 152.182 83.7146 152.769C80.7239 153.357 77.7212 154.006 74.7426 154.695C73.3533 155.055 71.9438 155.332 70.5215 155.525C67.3334 155.886 64.0008 155.354 60.9716 156.408C59.7676 156.829 58.5853 157.455 57.3356 157.746C56.5054 157.921 55.6662 158.048 54.8217 158.129L49.0884 158.783C47.9225 158.939 46.7488 159.029 45.5728 159.053C43.0685 159.053 40.6052 158.461 38.1731 157.869C37.9146 157.824 37.6684 157.724 37.4508 157.578C37.0655 157.274 36.9812 156.738 36.9258 156.252C36.6802 154.1 36.4651 151.946 36.2805 149.79C36.2227 149.09 36.1794 148.332 36.5622 147.742C37.0438 147.02 37.9829 146.794 38.8401 146.655C42.4751 146.06 46.1574 145.805 49.8396 145.892C51.2386 144.494 53.5455 144.486 55.3779 143.726C56.052 143.416 56.7045 143.062 57.3308 142.665C60.6086 140.753 64.2717 139.597 68.0533 139.279C68.7939 139.256 69.5296 139.151 70.247 138.966C71.6652 138.525 72.9583 137.327 74.4151 137.621C74.5957 137.122 74.7209 136.456 75.1375 136.114C75.3446 135.938 75.5998 135.821 75.7901 135.633C76.1922 135.226 76.2283 134.586 76.1681 134.018C76.1079 133.45 75.9731 132.868 76.1199 132.314C76.1811 132.105 76.271 131.905 76.3872 131.72C77.1096 130.473 78.2004 129.833 79.6524 129.953Z" fill="#464353"/>
<path opacity="0.05" d="M79.6524 129.953C80.4542 129.648 81.338 129.759 82.1976 129.874C84.9643 130.252 87.772 130.639 90.3364 131.744C91.5404 132.259 92.6866 132.947 93.5005 133.96C94.2229 134.872 94.6443 135.989 95.044 137.089L95.9686 139.62C96.3202 140.583 96.6766 141.565 96.7753 142.588C97.0642 145.617 94.991 148.474 92.3832 150.048C89.7754 151.622 86.7053 152.182 83.7146 152.769C80.7239 153.357 77.7212 154.006 74.7426 154.695C73.3533 155.055 71.9438 155.332 70.5215 155.525C67.3334 155.886 64.0008 155.354 60.9716 156.408C59.7676 156.829 58.5853 157.455 57.3356 157.746C56.5054 157.921 55.6662 158.048 54.8217 158.129L49.0884 158.783C47.9225 158.939 46.7488 159.029 45.5728 159.053C43.0685 159.053 40.6052 158.461 38.1731 157.869C37.9146 157.824 37.6684 157.724 37.4508 157.578C37.0655 157.274 36.9812 156.738 36.9258 156.252C36.6802 154.1 36.4651 151.946 36.2805 149.79C36.2227 149.09 36.1794 148.332 36.5622 147.742C37.0438 147.02 37.9829 146.794 38.8401 146.655C42.4751 146.06 46.1574 145.805 49.8396 145.892C51.2386 144.494 53.5455 144.486 55.3779 143.726C56.052 143.416 56.7045 143.062 57.3308 142.665C60.6086 140.753 64.2717 139.597 68.0533 139.279C68.7939 139.256 69.5296 139.151 70.247 138.966C71.6652 138.525 72.9583 137.327 74.4151 137.621C74.5957 137.122 74.7209 136.456 75.1375 136.114C75.3446 135.938 75.5998 135.821 75.7901 135.633C76.1922 135.226 76.2283 134.586 76.1681 134.018C76.1079 133.45 75.9731 132.868 76.1199 132.314C76.1811 132.105 76.271 131.905 76.3872 131.72C77.1096 130.473 78.2004 129.833 79.6524 129.953Z" fill="black"/>
<path d="M32.3194 157.799C30.8289 159.524 29.5166 160.141 27.1833 160.085C25.7481 160.051 24.3146 159.977 22.8827 159.861C21.904 159.756 20.9197 159.71 19.9354 159.724C16.964 159.84 14.0961 161.199 11.1319 160.961C10.6936 160.927 10.2602 160.846 9.83886 160.72C9.16641 160.535 8.55867 160.167 8.08346 159.657C7.51519 159.014 7.24309 158.162 7.08658 157.32C6.29436 153.003 8.46633 148.301 12.2685 146.103C12.7646 145.783 13.3285 145.583 13.9155 145.519C14.4911 145.516 15.0602 145.641 15.5818 145.884L15.6179 145.899C17.1626 146.534 18.5656 147.47 19.7451 148.652C19.9241 148.857 20.1376 149.029 20.376 149.16C20.6139 149.249 20.8658 149.297 21.1201 149.299L24.2841 149.499C24.8202 149.515 25.353 149.588 25.8734 149.718C26.447 149.918 27.0055 150.159 27.5445 150.44C29.2469 151.2 31.1347 151.403 32.9744 151.696C33.1517 151.706 33.3208 151.774 33.456 151.889C33.5294 151.98 33.5805 152.087 33.6053 152.201C33.8638 153.169 33.8818 154.184 33.6577 155.16C33.4336 156.135 32.9741 157.041 32.3194 157.799Z" fill="#3F3D56"/>
<path opacity="0.1" d="M15.6179 145.901C14.3903 147.073 13.3254 148.403 12.4515 149.858C11.0491 152.257 10.1679 154.926 9.86534 157.688C9.75059 158.696 9.74171 159.713 9.83886 160.723C9.16641 160.538 8.55867 160.17 8.08346 159.659C7.51519 159.017 7.24309 158.165 7.08658 157.323C6.29436 153.005 8.46633 148.303 12.2685 146.106C12.7646 145.786 13.3285 145.585 13.9155 145.521C14.4911 145.519 15.0602 145.644 15.5818 145.887L15.6179 145.901Z" fill="black"/>
<path d="M76.8977 151.889C78.6675 151.841 80.6541 151.752 81.9544 152.943C83.1945 154.069 83.3582 155.927 83.4401 157.599L83.534 159.542C83.5629 160.134 83.587 160.745 83.3486 161.293C82.9248 162.256 81.7618 162.721 80.6998 162.665C79.6379 162.61 78.6627 162.145 77.6923 161.727C75.0578 160.592 72.3147 159.729 69.5053 159.149C69.5968 157.806 69.7493 156.47 69.9628 155.14C70.1097 154.218 70.1338 152.676 70.7502 151.91C71.4028 151.102 72.2528 151.54 73.1389 151.689C74.3822 151.879 75.6412 151.946 76.8977 151.889Z" fill="#FBBEBE"/>
<path d="M30.1258 132.374C30.1258 132.615 29.7477 132.374 29.714 132.117C29.4492 130.17 27.9033 128.565 26.1021 127.785C24.301 127.006 22.2494 126.965 20.299 127.15C17.3492 127.429 14.0383 128.558 12.9596 131.313C12.7043 131.958 12.5887 132.656 12.2757 133.275C11.929 133.953 11.3631 134.495 10.9875 135.154C10.3397 136.295 10.3132 137.693 10.5468 138.983C11.1753 142.424 13.5302 145.367 16.3837 147.405C19.2371 149.444 22.5721 150.661 25.8974 151.759C34.6904 154.657 43.712 156.81 52.8664 158.196C54.3497 158.42 55.8475 158.627 57.2681 159.103C58.5395 159.529 59.7291 160.167 60.9716 160.668C63.8611 161.828 66.9697 162.242 70.0495 162.648C70.5744 162.716 71.1764 162.764 71.5641 162.408C72.065 161.943 71.8988 161.135 71.7567 160.468C71.234 157.933 71.6726 155.295 72.9872 153.066C73.5025 152.199 74.1719 151.311 74.0756 150.308C73.96 149.138 72.7946 148.31 71.6339 148.123C70.4733 147.935 69.2934 148.212 68.128 148.363C67.7258 148.416 67.2876 148.45 66.936 148.245C66.7628 148.128 66.6058 147.989 66.4689 147.831C65.666 147.057 64.6385 146.557 63.5337 146.403C62.4288 146.249 61.3035 146.448 60.319 146.972C59.888 147.213 59.2354 146.676 58.7876 146.474L53.7236 144.183C47.9061 141.553 42.0596 138.911 35.9049 137.245C35.4138 137.149 34.9471 136.955 34.5323 136.675C34.2265 136.434 34.0074 136.107 33.7257 135.84C33.1116 135.26 32.2568 135.029 31.52 134.617C30.7832 134.206 29.9572 133.2 30.1258 132.374Z" fill="#464353"/>
<path d="M108.194 163.825C107.385 165.324 105.815 166.258 104.129 166.643C103.706 166.738 103.276 166.8 102.843 166.826C100.712 166.958 98.6077 166.369 96.5538 165.786L93.7654 165.002C93.286 164.851 92.7946 164.741 92.2965 164.675C91.6184 164.629 90.9375 164.653 90.2642 164.744C86.9686 165.051 83.6465 164.902 80.3916 164.302C80.1193 164.272 79.8578 164.179 79.6283 164.03C79.4272 163.833 79.2488 163.614 79.0961 163.377C78.3376 162.465 77.5213 161.933 78.4195 160.73C78.9372 160.032 79.898 159.683 80.3001 158.882C80.7022 158.081 80.4446 156.942 80.2062 156.115C79.8811 154.971 78.812 154.478 78.4291 153.429C78.1426 152.637 78.6242 151.718 79.349 151.287C80.0738 150.856 80.9695 150.823 81.8051 150.933C82.6406 151.044 83.4593 151.28 84.2997 151.345C86.7703 151.542 89.2962 150.269 91.668 150.986C92.1906 151.145 92.6842 151.398 93.2139 151.537C94.2467 151.768 95.3256 151.675 96.3033 151.27C96.6501 151.14 96.9896 150.984 97.3267 150.83C97.9768 150.492 98.6692 150.242 99.3855 150.086C101.7 149.689 103.845 151.29 105.591 152.851C106.19 153.348 106.72 153.923 107.168 154.56C107.65 155.311 107.905 156.184 108.131 157.046C108.769 159.272 109.297 161.779 108.194 163.825Z" fill="#3F3D56"/>
<path opacity="0.1" d="M108.194 163.825C107.385 165.324 105.815 166.258 104.129 166.643C104.785 165.37 105.08 163.942 104.984 162.513C104.839 160.225 103.833 158.069 102.55 156.168C101.76 154.997 100.862 153.904 99.8671 152.902C99.1014 152.132 98.1598 151.521 97.3363 150.815C97.9865 150.477 98.6788 150.227 99.3951 150.072C101.709 149.675 103.855 151.275 105.6 152.837C106.2 153.334 106.73 153.909 107.178 154.546C107.659 155.296 107.914 156.17 108.141 157.031C108.769 159.272 109.297 161.779 108.194 163.825Z" fill="black"/>
<path d="M19.7716 89.5844C19.5371 89.8298 19.3552 90.1205 19.2371 90.4387C17.2906 94.8227 16.141 99.5181 15.8419 104.305C15.8471 104.538 15.7933 104.769 15.6853 104.976C15.5789 105.114 15.4605 105.242 15.3314 105.359C15.2142 105.498 15.1267 105.659 15.0744 105.833C15.022 106.007 15.006 106.19 15.0272 106.371C15.0484 106.551 15.1064 106.725 15.1977 106.882C15.2889 107.04 15.4115 107.176 15.5577 107.284C15.955 106.536 16.9062 106.293 17.7514 106.228C21.7991 105.908 25.753 107.79 29.8128 107.648C29.5262 106.659 29.1145 105.708 28.8809 104.707C27.8479 100.262 30.4244 95.4226 28.8448 91.1414C28.5293 90.2847 28.002 89.4424 27.1712 89.067C26.8273 88.9282 26.4673 88.8328 26.0997 88.783C25.0739 88.5977 23.032 87.806 22.0399 88.1237C21.6739 88.2416 21.5294 88.5857 21.226 88.7927C20.7661 89.0887 20.1545 89.197 19.7716 89.5844Z" fill="#85B3FF"/>
<path d="M80.0882 98.3442H30.2293C29.1694 98.3442 28.3102 99.2029 28.3102 100.262V130.599C28.3102 131.658 29.1694 132.517 30.2293 132.517H80.0882C81.1481 132.517 82.0074 131.658 82.0074 130.599V100.262C82.0074 99.2029 81.1481 98.3442 80.0882 98.3442Z" fill="#3F3D56"/>
<path d="M55.0384 116.874C55.8363 116.874 56.4832 116.228 56.4832 115.43C56.4832 114.633 55.8363 113.986 55.0384 113.986C54.2405 113.986 53.5936 114.633 53.5936 115.43C53.5936 116.228 54.2405 116.874 55.0384 116.874Z" fill="white"/>
<path d="M35.4666 47.0471C34.6575 47.6319 34.1037 48.4718 33.5403 49.2779C32.5024 50.7676 31.3274 52.2548 29.6683 53.085C29.0398 53.4003 28.3222 53.6385 27.9057 54.1872C27.6584 54.5583 27.4979 54.9802 27.4361 55.4217C27.1183 56.9742 26.9522 58.5539 26.9401 60.1385C26.9401 60.9278 26.9738 61.7412 27.3229 62.4584C27.6528 63.1322 28.2476 63.7025 28.3704 64.4365C28.4643 65.0092 28.2524 65.5796 28.1778 66.1547C28.1031 66.7299 28.2331 67.4109 28.7653 67.6853C29.052 67.7931 29.3515 67.8635 29.6562 67.8947C31.2575 68.2508 31.7945 70.1279 32.0377 71.6801C32.5819 71.6488 32.8275 71.0255 32.9407 70.5177L34.6094 63.1033C34.79 62.2995 35.091 61.3682 35.8928 61.0867C36.4298 60.9014 37.0173 61.0746 37.5784 61.1227C39.7816 61.3032 41.6454 59.6018 43.8005 59.1326C44.4903 58.9934 45.1956 58.9465 45.8978 58.993C47.5978 59.0772 49.5748 59.7751 49.9359 61.361C49.9961 61.6185 50.0323 61.9265 50.2731 62.0541C50.5139 62.1816 50.7667 62.0733 51.0195 62.0541C52.0983 61.9458 52.734 63.1587 53.0446 64.1501L54.1763 67.7599C54.3449 68.3062 54.629 68.9487 55.2214 69.0185C55.768 69.0859 56.2327 68.5685 56.3146 68.0559C56.3965 67.5433 56.2183 67.0115 56.1003 66.4965C55.5681 64.1261 56.382 61.7003 56.8781 59.3251C57.3741 56.9499 57.4632 54.2209 55.7993 52.392C55.1949 51.7302 54.4003 51.2368 53.8368 50.5389C53.3119 49.8844 53.0157 49.0806 52.4715 48.4381C50.9665 46.6645 47.1066 45.2952 44.7396 45.069C42.0355 44.7754 37.653 45.4612 35.4666 47.0471Z" fill="#3F3D56"/>
<g opacity="0.1">
<path opacity="0.1" d="M55.231 67.3348C54.6387 67.2626 54.3545 66.6128 54.186 66.0762C53.8087 64.8713 53.4315 63.6681 53.0542 62.4664C52.7436 61.4725 52.1079 60.2597 51.0292 60.3704C50.7763 60.3968 50.5042 60.4955 50.2827 60.3704C50.0612 60.2452 50.0058 59.9348 49.9456 59.6773C49.5844 58.089 47.6075 57.3935 45.9075 57.3093C45.2054 57.2632 44.5002 57.3093 43.8101 57.4465C41.655 57.9278 39.7913 59.6123 37.588 59.4366C37.0197 59.3909 36.4322 59.2176 35.9024 59.4029C35.091 59.6821 34.7996 60.6062 34.619 61.4196L32.9503 68.8316C32.8371 69.3418 32.5915 69.9651 32.0473 69.994C31.8065 68.4442 31.2672 66.5671 29.6659 66.2109C29.3615 66.1774 29.0623 66.1071 28.7749 66.0016C28.5654 65.8872 28.4014 65.7046 28.3102 65.4842C28.2669 65.708 28.2163 65.9318 28.1874 66.1556C28.1152 66.7283 28.2428 67.4118 28.7749 67.6861C29.0617 67.7939 29.3611 67.8643 29.6659 67.8955C31.2672 68.2517 31.8041 70.1287 32.0473 71.6809C32.5915 71.6496 32.8371 71.0264 32.9503 70.5186L34.619 63.1041C34.7996 62.3004 35.1006 61.3691 35.9024 61.0875C36.4394 60.9022 37.027 61.0755 37.588 61.1236C39.7913 61.3041 41.655 59.6027 43.8101 59.1334C44.5 58.9943 45.2053 58.9473 45.9075 58.9938C47.6075 59.0781 49.5844 59.7759 49.9456 61.3618C50.0058 61.6193 50.0419 61.9274 50.2827 62.0549C50.5235 62.1825 50.7763 62.0742 51.0292 62.0549C52.1079 61.9466 52.7436 63.1595 53.0542 64.151C53.4299 65.3558 53.8071 66.5591 54.186 67.7607C54.3545 68.307 54.6387 68.9495 55.231 69.0193C55.7776 69.0867 56.2423 68.5693 56.3242 68.0567C56.3612 67.6254 56.3121 67.1911 56.1798 66.7789C56.0938 66.9545 55.958 67.1009 55.7893 67.1998C55.6205 67.2987 55.4263 67.3456 55.231 67.3348Z" fill="black"/>
<path opacity="0.1" d="M28.3728 62.7519C28.25 62.0179 27.6504 61.4476 27.3253 60.7737C27.1163 60.3193 26.9954 59.8293 26.969 59.3298C26.969 59.5994 26.9449 59.8689 26.9425 60.1408C26.9425 60.9302 26.9762 61.7435 27.3253 62.4607C27.5926 63.007 28.0333 63.4883 28.2548 64.0442C28.3716 63.624 28.4116 63.1862 28.3728 62.7519Z" fill="black"/>
<path opacity="0.1" d="M56.8877 57.6309C56.4494 59.7293 55.7656 61.8663 55.9775 63.9696C56.1147 62.4174 56.5674 60.8556 56.8877 59.3154C57.1548 58.1458 57.2489 56.9434 57.167 55.7466C57.1147 56.38 57.0214 57.0095 56.8877 57.6309Z" fill="black"/>
</g>
<g opacity="0.8">
<path opacity="0.8" d="M79.4718 69.9065H229.983" stroke="#3F3D56" stroke-width="3" stroke-miterlimit="10"/>
<path opacity="0.8" d="M92.8431 69.9041C92.8431 69.9041 100.04 70.9028 96.313 63.1852C92.5855 55.4675 106.426 56.9283 106.426 56.9283" stroke="#3F3D56" stroke-width="3" stroke-miterlimit="10"/>
<path opacity="0.8" d="M140.778 69.9043C140.778 69.9043 147.975 68.908 144.248 76.6256C140.52 84.3433 154.361 82.8826 154.361 82.8826" stroke="#3F3D56" stroke-width="3" stroke-miterlimit="10"/>
<path opacity="0.8" d="M209.797 69.9043C209.797 69.9043 202.597 68.908 206.327 76.6256C210.057 84.3433 196.214 82.8826 196.214 82.8826" stroke="#3F3D56" stroke-width="3" stroke-miterlimit="10"/>
<path opacity="0.8" d="M196.214 82.8801H156.5" stroke="#3F3D56" stroke-width="3" stroke-miterlimit="10"/>
<path opacity="0.8" d="M79.4718 74.2984C81.8988 74.2984 83.8663 72.3321 83.8663 69.9065C83.8663 67.481 81.8988 65.5146 79.4718 65.5146C77.0448 65.5146 75.0773 67.481 75.0773 69.9065C75.0773 72.3321 77.0448 74.2984 79.4718 74.2984Z" fill="#85B3FF"/>
<path opacity="0.8" d="M106.501 61.2579C108.928 61.2579 110.895 59.2915 110.895 56.866C110.895 54.4404 108.928 52.4741 106.501 52.4741C104.074 52.4741 102.106 54.4404 102.106 56.866C102.106 59.2915 104.074 61.2579 106.501 61.2579Z" fill="#3ACC6C"/>
<path opacity="0.8" d="M106.501 74.2984C108.928 74.2984 110.895 72.3321 110.895 69.9065C110.895 67.481 108.928 65.5146 106.501 65.5146C104.074 65.5146 102.106 67.481 102.106 69.9065C102.106 72.3321 104.074 74.2984 106.501 74.2984Z" fill="#85B3FF"/>
<path opacity="0.8" d="M123.944 74.2984C126.371 74.2984 128.339 72.3321 128.339 69.9065C128.339 67.481 126.371 65.5146 123.944 65.5146C121.517 65.5146 119.55 67.481 119.55 69.9065C119.55 72.3321 121.517 74.2984 123.944 74.2984Z" fill="#85B3FF"/>
<path opacity="0.8" d="M154.434 87.2071C156.861 87.2071 158.828 85.2408 158.828 82.8152C158.828 80.3896 156.861 78.4233 154.434 78.4233C152.006 78.4233 150.039 80.3896 150.039 82.8152C150.039 85.2408 152.006 87.2071 154.434 87.2071Z" fill="#FF6584"/>
<path opacity="0.8" d="M177.473 87.2071C179.9 87.2071 181.867 85.2408 181.867 82.8152C181.867 80.3896 179.9 78.4233 177.473 78.4233C175.046 78.4233 173.078 80.3896 173.078 82.8152C173.078 85.2408 175.046 87.2071 177.473 87.2071Z" fill="#FF6584"/>
<path opacity="0.8" d="M176.271 74.2984C178.698 74.2984 180.666 72.3321 180.666 69.9065C180.666 67.481 178.698 65.5146 176.271 65.5146C173.844 65.5146 171.877 67.481 171.877 69.9065C171.877 72.3321 173.844 74.2984 176.271 74.2984Z" fill="#85B3FF"/>
<path opacity="0.8" d="M228.87 74.2984C231.297 74.2984 233.265 72.3321 233.265 69.9065C233.265 67.481 231.297 65.5146 228.87 65.5146C226.443 65.5146 224.476 67.481 224.476 69.9065C224.476 72.3321 226.443 74.2984 228.87 74.2984Z" fill="#85B3FF"/>
<path opacity="0.8" d="M207.353 74.2984C209.78 74.2984 211.747 72.3321 211.747 69.9065C211.747 67.481 209.78 65.5146 207.353 65.5146C204.926 65.5146 202.958 67.481 202.958 69.9065C202.958 72.3321 204.926 74.2984 207.353 74.2984Z" fill="#85B3FF"/>
<path opacity="0.8" d="M86.8329 29.5183H72.089V39.6738H86.8329V29.5183Z" fill="#85B3FF"/>
<path opacity="0.8" d="M113.927 29.5183H99.1832V39.6738H113.927V29.5183Z" fill="#3ACC6C"/>
<path opacity="0.8" d="M161.744 29.5183H147V39.6738H161.744V29.5183Z" fill="#FF6584"/>
</g>
<g opacity="0.1">
<path opacity="0.1" d="M20.7926 72.041C20.7926 72.041 2.78841 64.4749 0.42862 78.127C0.42862 78.127 -0.80184 80.2544 0.910209 82.0111C0.910209 82.0111 1.27862 81.0678 3.01716 82.0424C3.63811 82.3856 4.29771 82.6538 4.98204 82.8414C5.90624 83.0961 6.88825 83.0438 7.78007 82.6922C7.78007 82.6922 13.7012 82.3721 18.6808 74.6304C18.6808 74.6304 20.8167 73.3116 20.9226 72.8159L17.3541 73.0565C17.3541 73.0565 17.6286 75.6676 16.1501 77.2342C16.1501 77.2342 17.46 73.1817 16.8315 73.0686C16.7039 73.0445 14.9461 73.2755 14.9461 73.2755C14.9461 73.2755 15.4012 77.8166 13.0198 80.1653C13.0198 80.1653 15.2303 75.5473 14.2695 73.3573L11.6352 73.8651C11.6352 73.8651 12.3576 78.642 9.75218 81.4191C9.75218 81.4191 11.8953 76.5099 11.0669 74.0167L8.5458 74.8638C8.5458 74.8638 9.1526 79.5348 6.97341 81.8427C6.97341 81.8427 8.87569 75.9203 7.97993 75.1045C7.97993 75.1045 5.71165 76.0237 5.22765 76.5484C5.22765 76.5484 5.58644 79.9175 4.20187 81.1327C4.20187 81.1327 5.05187 77.0417 4.63048 76.8732C4.63048 76.8732 1.99619 78.8562 1.19194 80.5672C1.19194 80.5672 2.19364 77.9538 4.30059 76.4762C4.30059 76.4762 2.53076 76.1778 1.17027 76.9166C1.17027 76.9166 2.08047 75.1815 4.9387 76.0045C4.9387 76.0045 7.05528 74.5389 7.47908 74.5606C7.47908 74.5606 4.77496 73.3573 2.82212 73.5065C2.82212 73.5065 4.91703 72.3033 8.13886 74.3127L10.6552 73.4055C10.6552 73.4055 7.16364 71.6174 5.41547 71.6247C5.41547 71.6247 7.74155 70.7246 11.3077 73.2274L13.8842 72.7028C13.8842 72.7028 10.9947 70.934 9.04665 70.5225C9.04665 70.5225 11.3824 70.1519 14.6283 72.58L16.3885 72.4332C16.3885 72.4332 14.2574 71.177 13.6121 70.8714C12.9668 70.5658 12.9957 70.3685 12.9957 70.3685C14.5271 70.6306 15.9558 71.312 17.1229 72.337C17.1229 72.337 20.7782 72.2648 20.7926 72.041Z" fill="#85B3FF"/>
</g>
<g opacity="0.1">
<path opacity="0.1" d="M20.128 58.478C20.128 58.478 13.7518 43.7334 4.56547 50.4957C4.56547 50.4957 2.62466 51.0588 2.63911 53.0706C2.63911 53.0706 3.39521 52.7193 3.87439 54.2907C4.05009 54.8481 4.29265 55.3822 4.59677 55.8814C4.99872 56.5599 5.61187 57.0881 6.34253 57.3855C6.34253 57.3855 10.0435 60.5669 17.4191 58.8029C17.4191 58.8029 19.4417 59.2337 19.7861 59.0026L17.5322 57.1087C17.5322 57.1087 16.2055 58.8173 14.4284 58.8992C14.4284 58.8992 17.5178 57.2387 17.2096 56.8127C17.147 56.7261 15.9695 55.8646 15.9695 55.8646C15.9695 55.8646 13.653 58.8197 10.9128 58.8655C10.9128 58.8655 14.8594 57.3783 15.5361 55.5325L13.6819 54.3292C13.6819 54.3292 11.3438 57.5804 8.2135 57.7489C8.2135 57.7489 12.2853 56.0523 13.2148 54.0982L11.2331 53.1669C11.2331 53.1669 8.93107 56.2953 6.32808 56.4132C6.32808 56.4132 10.8358 53.9779 10.7659 52.984C10.7659 52.984 8.89495 52.238 8.30019 52.2813C8.30019 52.2813 6.59777 54.4832 5.07836 54.4207C5.07836 54.4207 7.91732 52.4738 7.76322 52.1345C7.76322 52.1345 5.06632 51.812 3.61433 52.3751C3.61433 52.3751 5.69961 51.3933 7.79211 51.7158C7.79211 51.7158 6.9108 50.5294 5.68516 50.1997C5.68516 50.1997 7.21661 49.6871 8.44466 51.8C8.44466 51.8 10.5348 52.1369 10.7804 52.3872C10.7804 52.3872 9.86294 50.1275 8.61322 49.1095C8.61322 49.1095 10.5396 49.5908 11.3101 52.6158L13.3232 53.5086C13.3232 53.5086 12.2685 50.4572 11.2234 49.4681C11.2234 49.4681 13.1185 50.2574 13.812 53.7757L15.642 54.9284C15.642 54.9284 14.9341 52.2332 14.0118 50.8783C14.0118 50.8783 15.6107 51.9901 16.1525 55.2798L17.2842 56.1943C17.2842 56.1943 16.7328 54.2354 16.5233 53.6867C16.3138 53.138 16.4439 53.0369 16.4439 53.0369C17.2045 54.0688 17.6623 55.2922 17.7658 56.5697C17.7658 56.5697 19.9908 58.6008 20.128 58.478Z" fill="#85B3FF"/>
</g>
</g>
<defs>
<linearGradient id="paint0_linear" x1="57.8075" y1="166.689" x2="57.8075" y2="43.6684" gradientUnits="userSpaceOnUse">
<stop stop-color="#808080" stop-opacity="0.25"/>
<stop offset="0.54" stop-color="#808080" stop-opacity="0.12"/>
<stop offset="1" stop-color="#808080" stop-opacity="0.1"/>
</linearGradient>
<clipPath id="clip0">
<rect width="250" height="166.845" fill="white"/>
</clipPath>
</defs>
</svg>
