<svg width="250" height="165" viewBox="0 0 250 165" fill="none" xmlns="http://www.w3.org/2000/svg">
<g clip-path="url(#clip0)">
<path d="M173.213 74.6367L174.768 74.0275C174.917 73.9689 175.063 73.9057 175.219 73.8448C172.342 72.7855 169.911 70.7788 168.326 68.1545C166.741 65.5303 166.096 62.4448 166.497 59.4054C166.898 56.3659 168.321 53.5534 170.533 51.4303C172.745 49.3073 175.613 48 178.667 47.7234L177.584 53.1837L181.695 47.7866H181.731C185.279 48.2744 188.489 50.1518 190.654 53.0058C192.818 55.8597 193.761 59.4566 193.274 63.0054C193.24 63.2604 193.186 63.5086 193.139 63.759C194.404 62.7595 195.591 61.6561 196.48 60.3746C198.285 57.7708 198.897 54.5623 199.519 50.634C200.754 42.8543 201.866 34.9887 202.868 27.1277C199.792 26.1996 197.147 24.2047 195.41 21.5015C193.673 18.7983 192.957 15.5642 193.391 12.3804C193.448 11.9698 193.527 11.5704 193.617 11.1756C193.64 11.0763 193.662 10.977 193.687 10.88C193.784 10.4987 193.892 10.1241 194.019 9.75182C194.039 9.6909 194.066 9.63449 194.086 9.57583C194.199 9.26671 194.312 8.96211 194.459 8.6733C194.508 8.56049 194.558 8.44767 194.61 8.34162C194.765 8.01897 194.93 7.70309 195.111 7.39623C195.172 7.29469 195.237 7.19767 195.298 7.09614C195.438 6.87051 195.584 6.64487 195.736 6.43504C195.817 6.32222 195.896 6.2094 195.979 6.09884L196.04 6.01085C197.956 3.50335 200.69 1.7465 203.767 1.04573C206.844 0.344955 210.069 0.744573 212.881 2.17511L211.473 9.28025L215.535 3.94632C217.719 5.79709 219.255 8.29781 219.918 11.0833C220.58 13.8688 220.335 16.7931 219.217 19.4292H219.233C219.195 19.5194 219.147 19.6052 219.109 19.6954C219.034 19.8624 218.958 20.0271 218.883 20.1918C218.779 20.4016 218.658 20.607 218.556 20.81C218.47 20.9635 218.387 21.1169 218.294 21.2613C218.161 21.4869 218.017 21.69 217.872 21.8998C217.787 22.0217 217.708 22.148 217.62 22.2676C217.394 22.5812 217.141 22.8813 216.884 23.1701C216.794 23.2717 216.697 23.3642 216.602 23.4635C216.419 23.6575 216.237 23.8493 216.042 24.0321C215.923 24.1449 215.797 24.2577 215.672 24.3615C215.494 24.5194 215.311 24.6729 215.124 24.8127C214.991 24.9188 214.856 25.0203 214.72 25.1196C214.524 25.2617 214.325 25.3949 214.125 25.528C213.989 25.616 213.854 25.704 213.716 25.7875C213.491 25.9251 213.254 26.0515 213.017 26.1756C212.897 26.2365 212.791 26.3042 212.658 26.3628C212.302 26.5366 211.936 26.6968 211.564 26.8389C211.494 26.866 211.419 26.8863 211.349 26.9111C211.038 27.0239 210.724 27.1367 210.406 27.2157C210.269 27.2541 210.129 27.2857 209.989 27.3195C209.729 27.3827 209.468 27.4414 209.204 27.491C209.053 27.5181 208.897 27.5429 208.737 27.5654C208.477 27.6038 208.215 27.6331 207.951 27.6557C207.796 27.6692 207.642 27.6828 207.484 27.6918C207.2 27.7053 206.913 27.7076 206.627 27.7053C206.608 27.7042 206.589 27.7042 206.57 27.7053C206.146 31.0146 205.701 34.3239 205.235 37.6331C206.329 36.1559 207.713 34.9178 209.303 33.9947C210.893 33.0716 212.655 32.483 214.48 32.2649C216.305 32.0469 218.156 32.2041 219.918 32.7267C221.681 33.2494 223.318 34.1267 224.729 35.3046L221.191 41.3019L226.88 37.5587C229.03 40.4051 229.963 43.9887 229.474 47.5226C229.307 48.7634 228.966 49.9742 228.459 51.1191C227.373 53.5981 225.567 55.6935 223.276 57.1334C220.984 58.5732 218.313 59.2911 215.608 59.1938C212.904 59.0965 210.291 58.1885 208.109 56.5877C205.927 54.9869 204.276 52.7672 203.371 50.2166C203.319 50.5506 203.269 50.8935 203.218 51.2229C202.667 54.6864 201.983 58.9982 199.556 62.5045C197.911 64.8872 195.645 66.6471 193.443 68.195C192.011 69.2028 190.546 70.1632 189.048 71.0763C187.475 72.5345 185.578 73.5972 183.513 74.1765C181.106 75.4084 178.648 76.5223 176.137 77.5181L174.569 78.1318C173.159 78.6823 171.715 79.2464 170.282 79.8466C170.508 79.8669 170.733 79.8849 170.959 79.9143C173.798 80.3041 176.44 81.5863 178.502 83.5756C180.565 85.5649 181.942 88.1584 182.435 90.9815L172.888 96.1959L182.405 95.7694C182.024 97.8798 181.14 99.8672 179.829 101.564C177.677 104.349 174.522 106.185 171.037 106.68C167.552 107.175 164.011 106.289 161.169 104.213L161.643 105.095C161.959 105.677 162.27 106.257 162.572 106.832C166.708 114.671 167.008 121.44 163.418 125.896L160.485 123.538C163.98 119.201 161.207 112.308 159.244 108.585C158.946 108.021 158.64 107.457 158.342 106.88C155.686 101.954 152.674 96.3719 153.881 90.431C155.686 81.4734 165.399 77.6828 173.213 74.6367Z" fill="#F2F2F2"/>
<path d="M60.8303 117.105L59.6164 116.629C59.4991 116.584 59.3908 116.532 59.269 116.487C61.515 115.659 63.4125 114.091 64.6497 112.042C65.8868 109.992 66.3901 107.583 66.0767 105.209C65.7633 102.836 64.6519 100.64 62.9251 98.9818C61.1984 97.3237 58.959 96.3023 56.5749 96.0854L57.421 100.35L54.2126 96.135H54.1832C52.81 96.3226 51.4872 96.7788 50.2904 97.4777C49.0935 98.1766 48.0461 99.1045 47.208 100.208C46.3699 101.312 45.7574 102.57 45.4057 103.911C45.0539 105.251 44.9697 106.648 45.1579 108.021C45.185 108.222 45.2279 108.414 45.264 108.61C44.2685 107.862 43.3895 106.97 42.6557 105.964C41.25 103.933 40.7672 101.424 40.2798 98.3575C39.3254 92.2812 38.4589 86.1395 37.6805 80.0069C40.082 79.2809 42.1459 77.7222 43.5012 75.6109C44.8565 73.4996 45.4143 70.9741 45.0745 68.4884C45.0293 68.168 44.9684 67.8566 44.8962 67.5475L44.8421 67.3218C44.7654 67.024 44.6819 66.7307 44.5826 66.4464C44.5668 66.399 44.5465 66.3539 44.5284 66.3088C44.4404 66.0673 44.3434 65.8304 44.2396 65.598C44.199 65.5123 44.1607 65.4243 44.12 65.3385C43.9982 65.0881 43.8696 64.8422 43.7297 64.603C43.6823 64.5218 43.6304 64.445 43.583 64.3773C43.4725 64.2014 43.3574 64.0276 43.2401 63.8607C43.1769 63.7727 43.116 63.6824 43.0505 63.5967L43.0032 63.529C41.507 61.5709 39.3726 60.1984 36.9703 59.6494C34.5679 59.1005 32.0492 59.4097 29.8511 60.5236L30.9522 66.0741L27.7775 61.9089C26.0716 63.3545 24.8724 65.3074 24.3549 67.4827C23.8373 69.6579 24.0286 71.9417 24.9007 74.0005H24.8894C24.9188 74.0705 24.9549 74.1382 24.9865 74.2081C25.0451 74.339 25.1038 74.4676 25.167 74.5962C25.2482 74.7587 25.3339 74.9189 25.4242 75.0768C25.4896 75.1986 25.5551 75.3182 25.6273 75.4356C25.7311 75.6048 25.8529 75.7695 25.9567 75.9342C26.0244 76.029 26.0853 76.1283 26.1552 76.2208C26.3357 76.4644 26.5275 76.6991 26.7284 76.927C26.7983 77.006 26.875 77.0782 26.954 77.1526C27.0961 77.3038 27.2405 77.4527 27.3917 77.6039C27.4842 77.6941 27.5835 77.7776 27.6805 77.8611C27.8204 77.986 27.9626 78.1055 28.107 78.2199C28.2108 78.3011 28.3168 78.3801 28.4228 78.459C28.5763 78.5696 28.732 78.6847 28.8876 78.7772C28.9937 78.8471 29.0997 78.9148 29.208 78.9802C29.3863 79.0885 29.5691 79.1856 29.7541 79.2826C29.8488 79.3322 29.9391 79.3841 30.0339 79.4315C30.3136 79.5669 30.5979 79.691 30.889 79.8015C30.9431 79.8241 31.0018 79.8376 31.056 79.8579C31.2974 79.9459 31.5433 80.0272 31.7938 80.0971C31.8998 80.1264 32.0194 80.1513 32.1187 80.1761C32.3218 80.2257 32.5248 80.2731 32.7324 80.3115L33.0957 80.3701C33.2987 80.3995 33.5041 80.422 33.7094 80.4401C33.8312 80.4514 33.9508 80.4604 34.0749 80.4672C34.3006 80.4784 34.5262 80.4807 34.7518 80.4784H34.7947C35.1256 83.0687 35.4731 85.6567 35.8371 88.2424C34.9841 87.0871 33.9039 86.1182 32.663 85.3954C31.422 84.6726 30.0464 84.211 28.6206 84.039C27.1948 83.867 25.7488 83.9882 24.3716 84.3952C22.9943 84.8022 21.7148 85.4864 20.6115 86.4058L23.3506 91.0628L18.9102 88.1409C18.0773 89.2411 17.4693 90.4947 17.1209 91.8299C16.7724 93.1652 16.6904 94.556 16.8795 95.9229C17.0105 96.8931 17.2787 97.8396 17.676 98.7343C18.5242 100.67 19.9345 102.307 21.7241 103.431C23.5137 104.555 25.6 105.116 27.7121 105.04C29.8243 104.964 31.8649 104.255 33.5692 103.005C35.2735 101.755 36.5628 100.022 37.2699 98.0303C37.3105 98.2898 37.3488 98.5538 37.3894 98.8155C37.8182 101.523 38.3529 104.89 40.2482 107.633C41.5343 109.492 43.3033 110.867 45.0226 112.076C46.1417 112.864 47.2857 113.616 48.4544 114.332C49.6832 115.471 51.1649 116.302 52.7775 116.756C54.6548 117.717 56.5772 118.592 58.5402 119.364L59.7631 119.844C60.8642 120.273 61.9923 120.713 63.1047 121.182C62.9287 121.198 62.7505 121.212 62.5722 121.237C60.356 121.54 58.2936 122.54 56.6828 124.092C55.0719 125.644 53.9959 127.668 53.6101 129.871L61.056 133.933L53.6237 133.601C53.9509 135.354 54.717 136.996 55.8505 138.373C56.984 139.75 58.448 140.817 60.1057 141.475C61.7635 142.133 63.5609 142.36 65.3302 142.136C67.0994 141.911 68.7829 141.241 70.2234 140.19C70.0993 140.415 69.9774 140.641 69.8533 140.878C69.6074 141.329 69.3637 141.78 69.1268 142.232C65.898 148.353 65.6634 153.642 68.468 157.123L70.7536 155.282C68.0235 151.898 70.1895 146.512 71.7238 143.603C71.9495 143.163 72.1954 142.719 72.4368 142.272C74.5104 138.436 76.8615 134.066 75.9251 129.425C74.5239 122.444 66.9314 119.492 60.8303 117.105Z" fill="#F2F2F2"/>
<path d="M125 164.977C194.036 164.977 250 162.604 250 159.675C250 156.747 194.036 154.373 125 154.373C55.9644 154.373 0 156.747 0 159.675C0 162.604 55.9644 164.977 125 164.977Z" fill="#3F3D56"/>
<path opacity="0.1" d="M125 164.977C194.036 164.977 250 162.604 250 159.675C250 156.747 194.036 154.373 125 154.373C55.9644 154.373 0 156.747 0 159.675C0 162.604 55.9644 164.977 125 164.977Z" fill="black"/>
<path d="M125 162.044C194.036 162.044 250 159.67 250 156.742C250 153.813 194.036 151.439 125 151.439C55.9644 151.439 0 153.813 0 156.742C0 159.67 55.9644 162.044 125 162.044Z" fill="#3F3D56"/>
<path d="M19.1787 154.856C18.5018 153.612 19.2689 152.089 20.1444 150.979C21.0198 149.869 22.0871 148.723 22.0645 147.304C22.0329 145.273 19.8759 144.075 18.1543 142.999C16.8769 142.199 15.6985 141.252 14.6435 140.176C14.2025 139.761 13.8375 139.273 13.565 138.732C13.2085 137.938 13.2197 137.035 13.2423 136.164C13.3175 133.267 13.4604 130.373 13.671 127.482" stroke="#3F3D56" stroke-width="4" stroke-miterlimit="10"/>
<path d="M10.4039 127.322C10.4283 126.792 10.5857 126.276 10.8618 125.823C11.1378 125.37 11.5235 124.994 11.9833 124.729L12.6918 126.13L12.6715 124.434C13.0094 124.333 13.3618 124.29 13.7139 124.307C14.3373 124.338 14.9378 124.552 15.4394 124.924C15.941 125.295 16.3214 125.807 16.5324 126.394C16.7434 126.982 16.7757 127.619 16.6252 128.224C16.4746 128.83 16.148 129.378 15.6865 129.798C15.225 130.218 14.6494 130.492 14.0322 130.586C13.4151 130.679 12.7841 130.588 12.2189 130.323C11.6538 130.058 11.1797 129.631 10.8567 129.097C10.5337 128.563 10.3761 127.945 10.4039 127.322V127.322Z" fill="#85B3FF"/>
<path d="M16.0515 148.757C16.3661 149.383 16.8802 149.887 17.5126 150.189C18.1451 150.491 18.8601 150.574 19.545 150.426C20.2299 150.277 20.8459 149.904 21.2959 149.367C21.7459 148.829 22.0044 148.158 22.0307 147.457C22.0532 147.02 21.9833 146.582 21.8254 146.173C21.5984 145.569 21.1915 145.048 20.6595 144.682C20.1274 144.315 19.4959 144.121 18.8499 144.125C18.204 144.128 17.5747 144.33 17.0468 144.702C16.519 145.075 16.1181 145.6 15.898 146.207L17.8768 147.816L15.7017 147.311C15.7005 147.814 15.8205 148.31 16.0515 148.757V148.757Z" fill="#85B3FF"/>
<path d="M17.6151 142.608C18.4041 142.668 19.1869 142.429 19.8084 141.94C20.43 141.45 20.8451 140.745 20.9716 139.963C21.0981 139.182 20.9268 138.382 20.4916 137.721C20.0564 137.06 19.389 136.587 18.6214 136.394L18.6372 137.701L17.9197 136.282C17.0804 136.242 16.2599 136.538 15.6388 137.104C15.0176 137.67 14.6466 138.459 14.6074 139.298C14.5682 140.138 14.864 140.958 15.4298 141.579C15.9955 142.2 16.7848 142.571 17.6241 142.611L17.6151 142.608Z" fill="#85B3FF"/>
<path d="M9.9278 137.493C10.3426 137.513 10.7572 137.45 11.148 137.31C11.5387 137.169 11.8979 136.953 12.2051 136.673C12.5122 136.394 12.7613 136.056 12.9381 135.681C13.1149 135.305 13.216 134.898 13.2356 134.483C13.2551 134.068 13.1928 133.654 13.0521 133.263C12.9114 132.872 12.6952 132.513 12.4157 132.206C12.1362 131.899 11.7989 131.65 11.4231 131.473C11.0474 131.296 10.6405 131.195 10.2256 131.175C9.63343 131.146 9.04504 131.285 8.52888 131.577L9.08845 133.111L7.93547 132.006C7.31881 132.571 6.95124 133.357 6.91336 134.192C6.89807 134.484 6.92543 134.777 6.99458 135.061C7.15207 135.73 7.52374 136.33 8.05314 136.769C8.58254 137.208 9.24075 137.462 9.9278 137.493V137.493Z" fill="#85B3FF"/>
<path opacity="0.1" d="M10.8303 128.166C11.5614 128.247 12.2721 128.475 13.0054 128.52C13.7387 128.565 14.5442 128.389 15.009 127.82C15.2595 127.511 15.3836 127.123 15.5934 126.789C15.7944 126.477 16.0686 126.219 16.3921 126.038C16.5832 126.437 16.6882 126.872 16.7002 127.315C16.7123 127.757 16.6312 128.198 16.4622 128.607C16.2932 129.016 16.0401 129.385 15.7193 129.69C15.3984 129.995 15.017 130.23 14.5998 130.378C14.1826 130.526 13.7389 130.585 13.2976 130.55C12.8562 130.516 12.4269 130.389 12.0376 130.178C11.6484 129.967 11.3078 129.677 11.038 129.326C10.7682 128.975 10.5752 128.571 10.4716 128.141C10.5911 128.145 10.7107 128.154 10.8303 128.166Z" fill="black"/>
<path opacity="0.1" d="M9.92779 137.493C10.4739 137.521 11.0179 137.406 11.5065 137.161C11.9951 136.915 12.4116 136.547 12.7152 136.092C13.0188 135.637 13.1991 135.111 13.2385 134.566C13.2779 134.021 13.175 133.474 12.94 132.98C12.6886 133.15 12.4725 133.367 12.3037 133.619C12.0781 133.96 11.9404 134.352 11.6764 134.666C11.1823 135.246 10.3407 135.435 9.5758 135.399C8.81091 135.363 8.07309 135.149 7.31948 135.079C7.21344 135.079 7.10739 135.061 7.00134 135.059C7.15808 135.727 7.52856 136.327 8.05664 136.766C8.58473 137.205 9.24162 137.461 9.92779 137.493V137.493Z" fill="black"/>
<path opacity="0.1" d="M17.6151 142.608C18.1563 142.636 18.6956 142.524 19.1811 142.283C19.6666 142.043 20.082 141.681 20.3872 141.233C20.6925 140.785 20.8774 140.266 20.9242 139.726C20.971 139.186 20.878 138.644 20.6543 138.15C20.3912 138.321 20.1618 138.539 19.9775 138.793C19.7315 139.14 19.5781 139.54 19.3006 139.86C18.7681 140.456 17.8701 140.666 17.06 140.645C16.25 140.625 15.5212 140.436 14.7405 140.377C14.9311 141 15.3096 141.549 15.8242 141.948C16.3388 142.348 16.9643 142.578 17.6151 142.608V142.608Z" fill="black"/>
<path opacity="0.1" d="M16.0515 148.757C16.3661 149.383 16.8802 149.887 17.5126 150.189C18.1451 150.491 18.8601 150.574 19.545 150.425C20.2299 150.277 20.8459 149.904 21.2959 149.367C21.7459 148.829 22.0044 148.158 22.0307 147.457C22.0532 147.02 21.9833 146.582 21.8254 146.173C21.5645 146.344 21.3303 146.552 21.1304 146.792C20.8281 147.159 20.6318 147.575 20.2821 147.92C19.6345 148.556 18.5898 148.822 17.6602 148.843C17.1228 148.845 16.5856 148.816 16.0515 148.757V148.757Z" fill="black"/>
<path d="M23.9599 153.425C23.9599 153.425 21.4599 153.348 20.7085 152.811C19.9572 152.274 16.8728 151.633 16.6765 152.495C16.4802 153.357 12.9197 156.782 15.7424 156.796C18.565 156.809 22.2992 156.345 23.0506 155.893C23.8019 155.442 23.9599 153.425 23.9599 153.425Z" fill="#656380"/>
<path opacity="0.2" d="M15.6904 156.496C18.5131 156.518 22.2473 156.045 23.0009 155.593C23.5717 155.246 23.7996 153.994 23.8763 153.416H23.9598C23.9598 153.416 23.8019 155.431 23.0573 155.898C22.3127 156.365 18.5695 156.819 15.7491 156.8C14.9345 156.8 14.6525 156.505 14.6683 156.074C14.7743 156.329 15.0857 156.496 15.6904 156.496Z" fill="black"/>
<path d="M238.042 156.886C237.365 155.643 238.132 154.12 239.007 153.01C239.883 151.9 240.95 150.754 240.927 149.334C240.896 147.304 238.739 146.106 237.017 145.029C235.74 144.23 234.561 143.283 233.506 142.207C233.065 141.792 232.7 141.303 232.428 140.763C232.071 139.968 232.083 139.066 232.105 138.195C232.179 135.298 232.322 132.404 232.534 129.513" stroke="#3F3D56" stroke-width="4" stroke-miterlimit="10"/>
<path d="M229.267 129.353C229.291 128.823 229.448 128.307 229.724 127.854C230.001 127.401 230.386 127.025 230.846 126.76L231.555 128.161L231.534 126.464C231.872 126.364 232.225 126.321 232.577 126.338C233.2 126.369 233.8 126.584 234.301 126.956C234.803 127.327 235.183 127.839 235.393 128.427C235.604 129.014 235.636 129.651 235.485 130.256C235.335 130.862 235.008 131.409 234.546 131.829C234.085 132.249 233.509 132.523 232.892 132.616C232.275 132.71 231.644 132.618 231.079 132.353C230.514 132.088 230.04 131.662 229.717 131.128C229.394 130.594 229.237 129.976 229.264 129.353H229.267Z" fill="#85B3FF"/>
<path d="M234.914 150.787C235.229 151.414 235.743 151.918 236.376 152.22C237.008 152.522 237.723 152.605 238.408 152.456C239.093 152.307 239.709 151.935 240.159 151.397C240.609 150.86 240.867 150.188 240.894 149.488C240.916 149.05 240.846 148.613 240.688 148.204C240.461 147.599 240.054 147.079 239.522 146.712C238.99 146.346 238.359 146.151 237.713 146.155C237.067 146.159 236.438 146.36 235.91 146.733C235.382 147.105 234.981 147.63 234.761 148.238L236.74 149.847L234.565 149.341C234.563 149.844 234.683 150.34 234.914 150.787V150.787Z" fill="#85B3FF"/>
<path d="M236.478 144.639C237.267 144.699 238.05 144.46 238.671 143.97C239.293 143.48 239.708 142.775 239.834 141.994C239.961 141.213 239.79 140.413 239.354 139.752C238.919 139.091 238.252 138.618 237.484 138.425L237.5 139.732L236.783 138.312C235.943 138.273 235.123 138.569 234.502 139.135C233.88 139.7 233.509 140.49 233.47 141.329C233.431 142.168 233.727 142.989 234.293 143.61C234.858 144.231 235.648 144.602 236.487 144.641L236.478 144.639Z" fill="#85B3FF"/>
<path d="M228.791 139.524C229.628 139.563 230.448 139.268 231.068 138.704C231.688 138.139 232.059 137.352 232.098 136.514C232.138 135.676 231.843 134.857 231.279 134.237C230.714 133.616 229.926 133.246 229.088 133.206C228.496 133.177 227.908 133.316 227.392 133.608L227.951 135.142L226.798 134.036C226.182 134.601 225.814 135.387 225.776 136.223C225.761 136.515 225.788 136.807 225.857 137.091C226.015 137.761 226.387 138.361 226.916 138.8C227.445 139.239 228.104 139.493 228.791 139.524V139.524Z" fill="#85B3FF"/>
<path opacity="0.1" d="M229.693 130.196C230.424 130.278 231.135 130.505 231.868 130.551C232.601 130.596 233.407 130.42 233.872 129.851C234.122 129.542 234.246 129.154 234.456 128.82C234.657 128.508 234.931 128.25 235.255 128.069C235.446 128.468 235.551 128.903 235.563 129.346C235.575 129.788 235.494 130.228 235.325 130.638C235.156 131.047 234.903 131.416 234.582 131.721C234.261 132.026 233.88 132.26 233.463 132.408C233.045 132.557 232.602 132.615 232.16 132.581C231.719 132.547 231.29 132.42 230.9 132.209C230.511 131.998 230.171 131.708 229.901 131.357C229.631 131.006 229.438 130.602 229.334 130.172C229.454 130.176 229.574 130.185 229.693 130.196Z" fill="black"/>
<path opacity="0.1" d="M228.791 139.524C229.337 139.552 229.881 139.437 230.369 139.191C230.858 138.946 231.274 138.578 231.578 138.123C231.882 137.668 232.062 137.142 232.101 136.597C232.141 136.051 232.038 135.505 231.803 135.011C231.551 135.181 231.335 135.398 231.167 135.65C230.941 135.99 230.803 136.383 230.539 136.697C230.045 137.277 229.203 137.466 228.439 137.43C227.674 137.394 226.936 137.18 226.182 137.11C226.076 137.11 225.97 137.092 225.864 137.089C226.021 137.758 226.391 138.358 226.919 138.797C227.448 139.236 228.104 139.491 228.791 139.524V139.524Z" fill="black"/>
<path opacity="0.1" d="M236.478 144.639C237.019 144.667 237.558 144.555 238.044 144.314C238.529 144.073 238.945 143.711 239.25 143.263C239.555 142.816 239.74 142.297 239.787 141.757C239.834 141.217 239.741 140.674 239.517 140.18C239.254 140.352 239.025 140.569 238.84 140.823C238.594 141.171 238.441 141.57 238.163 141.891C237.631 142.486 236.733 142.696 235.923 142.676C235.113 142.656 234.384 142.466 233.603 142.407C233.794 143.03 234.172 143.579 234.687 143.979C235.202 144.378 235.827 144.609 236.478 144.639V144.639Z" fill="black"/>
<path opacity="0.1" d="M234.914 150.787C235.229 151.414 235.743 151.918 236.375 152.22C237.008 152.522 237.723 152.605 238.408 152.456C239.093 152.307 239.709 151.935 240.159 151.397C240.609 150.86 240.867 150.188 240.894 149.488C240.916 149.05 240.846 148.613 240.688 148.204C240.427 148.375 240.193 148.583 239.993 148.822C239.691 149.19 239.495 149.605 239.145 149.95C238.497 150.587 237.453 150.853 236.523 150.873C235.986 150.875 235.448 150.847 234.914 150.787V150.787Z" fill="black"/>
<path d="M242.823 155.456C242.823 155.456 240.323 155.379 239.571 154.842C238.82 154.305 235.736 153.664 235.539 154.526C235.343 155.388 231.783 158.813 234.605 158.827C237.428 158.84 241.162 158.375 241.913 157.924C242.665 157.473 242.823 155.456 242.823 155.456Z" fill="#656380"/>
<path opacity="0.2" d="M234.553 158.527C237.376 158.549 241.11 158.075 241.864 157.624C242.435 157.277 242.662 156.024 242.739 155.447H242.823C242.823 155.447 242.665 157.462 241.92 157.929C241.175 158.396 237.432 158.849 234.612 158.831C233.797 158.831 233.515 158.536 233.531 158.105C233.637 158.36 233.949 158.527 234.553 158.527Z" fill="black"/>
<path d="M168.224 74.718C166.732 74.2065 165.228 73.7327 163.712 73.2965C163.961 72.2751 164.194 71.2485 164.409 70.2166C167.825 53.6304 165.591 40.2685 157.963 35.8709C150.648 31.6516 138.685 36.0514 126.6 46.5636C125.408 47.6045 124.245 48.6725 123.109 49.7676C122.347 49.0381 121.572 48.3228 120.785 47.6218C108.125 36.3786 95.4423 31.6426 87.8114 36.0537C80.5032 40.2843 78.3349 52.8452 81.4147 68.565C81.7156 70.1218 82.0608 71.6697 82.4504 73.2085C80.6566 73.7184 78.9215 74.2622 77.2609 74.8421C62.4165 80.0068 52.9355 88.1295 52.9355 96.5433C52.9355 105.232 63.1137 113.949 78.5763 119.233C79.8308 119.659 81.0943 120.054 82.3669 120.42C81.9547 122.074 81.5877 123.742 81.2658 125.424C78.3326 140.871 80.625 153.136 87.9129 157.34C95.4423 161.685 108.078 157.218 120.379 146.464C121.352 145.614 122.326 144.711 123.312 143.768C124.543 144.955 125.806 146.107 127.101 147.225C139.019 157.48 150.792 161.622 158.071 157.405C165.591 153.053 168.035 139.876 164.862 123.847C164.622 122.623 164.341 121.373 164.021 120.099C164.91 119.838 165.779 119.566 166.629 119.285C182.703 113.96 193.163 105.35 193.163 96.5433C193.163 88.0979 183.375 79.9323 168.231 74.718H168.224Z" fill="#53C1DE"/>
<path d="M164.738 113.599C163.971 113.854 163.186 114.097 162.383 114.337C160.423 108.261 158.05 102.325 155.282 96.5726C157.945 90.8965 160.225 85.0486 162.107 79.0681C163.54 79.4832 164.935 79.921 166.275 80.3835C179.251 84.8488 187.166 91.453 187.166 96.5432C187.166 101.958 178.617 109 164.738 113.599ZM158.98 125.011C160.384 132.098 160.582 138.506 159.657 143.513C158.822 148.014 157.143 151.015 155.068 152.218C150.648 154.774 141.198 151.451 131.006 142.68C129.838 141.674 128.662 140.602 127.48 139.465C131.729 134.761 135.655 129.775 139.233 124.542C145.623 124 151.968 123.02 158.224 121.609C158.51 122.764 158.763 123.892 158.985 124.993L158.98 125.011ZM100.74 151.78C96.4214 153.305 92.9828 153.348 90.9048 152.15C86.4824 149.598 84.6435 139.74 87.1525 126.541C87.4533 124.981 87.794 123.43 88.1746 121.886C94.4045 123.224 100.718 124.138 107.071 124.623C110.753 129.838 114.775 134.805 119.109 139.492C118.238 140.336 117.347 141.157 116.437 141.954C110.997 146.71 105.544 150.077 100.74 151.78V151.78ZM80.5144 113.565C73.6755 111.227 68.0302 108.19 64.1584 104.878C60.6814 101.9 58.926 98.9417 58.926 96.5432C58.926 91.4372 66.5388 84.9232 79.2328 80.4986C80.8273 79.9435 82.436 79.4373 84.0591 78.9801C85.9446 85.0267 88.2277 90.9421 90.8935 96.6876C88.1945 102.516 85.8835 108.515 83.9756 114.648C82.8113 114.316 81.6576 113.954 80.5144 113.565ZM87.2946 67.4142C84.6593 53.9462 86.4079 43.786 90.8122 41.2409C95.5031 38.5333 105.875 42.3961 116.81 52.1051C117.509 52.7256 118.211 53.3754 118.912 54.0455C114.609 58.7039 110.62 63.6426 106.97 68.8289C100.676 69.3933 94.426 70.3648 88.2581 71.7373C87.8986 70.3053 87.5774 68.865 87.2946 67.4164V67.4142ZM147.789 82.3487C146.418 79.9811 144.998 77.6436 143.527 75.3361C148.001 75.9024 152.286 76.6515 156.311 77.5721C155.019 81.6696 153.521 85.6993 151.823 89.6457C150.528 87.1863 149.183 84.754 147.789 82.3487ZM123.114 58.3257C126.03 61.5049 128.784 64.8289 131.365 68.2851C125.843 68.0249 120.319 68.0249 114.792 68.2851C117.516 64.6931 120.307 61.3537 123.114 58.328V58.3257ZM98.2942 82.3894C96.9178 84.7765 95.5979 87.1938 94.3344 89.6412C92.5902 85.5053 91.0988 81.4372 89.8804 77.5089C93.8808 76.6064 98.1475 75.8821 102.592 75.3248C101.1 77.6473 99.666 80.0022 98.2897 82.3894H98.2942ZM102.719 118.186C98.3803 117.715 94.0688 117.021 89.8014 116.108C91.0401 112.112 92.5654 107.956 94.3479 103.73C95.6159 106.18 96.9404 108.599 98.3213 110.986C99.7262 113.421 101.191 115.821 102.714 118.186H102.719ZM123.283 135.183C120.44 132.128 117.608 128.743 114.847 125.086C117.532 125.192 120.266 125.246 123.051 125.246C125.909 125.246 128.73 125.183 131.514 125.056C128.944 128.57 126.195 131.95 123.278 135.183H123.283ZM151.868 103.515C153.654 107.542 155.23 111.658 156.588 115.848C152.268 116.82 147.9 117.565 143.502 118.08C144.983 115.729 146.418 113.35 147.807 110.943C149.218 108.497 150.572 106.021 151.868 103.515ZM142.617 107.951C140.493 111.64 138.251 115.257 135.891 118.804C131.731 119.102 127.432 119.255 123.051 119.255C118.669 119.255 114.443 119.12 110.354 118.854C107.934 115.319 105.648 111.696 103.497 107.985C101.346 104.274 99.3524 100.508 97.5158 96.6854C99.3614 92.8451 101.349 89.0771 103.479 85.3812C105.606 81.6869 107.872 78.0768 110.277 74.5509C114.449 74.235 118.723 74.0703 123.046 74.0703C127.369 74.0703 131.67 74.2373 135.837 74.5532C138.215 78.0685 140.472 81.6643 142.606 85.3406C144.74 89.0169 146.755 92.7677 148.651 96.5929C146.778 100.447 144.769 104.23 142.624 107.942L142.617 107.951ZM154.975 41.0604C159.671 43.768 161.496 54.6886 158.547 69.0094C158.353 69.9405 158.142 70.8694 157.915 71.7959C151.738 70.3956 145.475 69.4059 139.167 68.8334C135.553 63.6424 131.593 58.7005 127.315 54.041C128.368 53.0272 129.443 52.0411 130.539 51.083C140.891 42.0735 150.566 38.5175 154.975 41.0604Z" fill="white"/>
<path d="M123.046 84.0208C125.523 84.0208 127.944 84.7552 130.003 86.1312C132.063 87.5072 133.668 89.4629 134.615 91.7511C135.563 94.0393 135.811 96.5572 135.328 98.9864C134.845 101.415 133.652 103.647 131.901 105.398C130.149 107.149 127.918 108.342 125.489 108.825C123.06 109.308 120.542 109.06 118.254 108.113C115.966 107.165 114.01 105.56 112.634 103.5C111.258 101.441 110.523 99.0201 110.523 96.5433C110.523 94.8988 110.847 93.2702 111.476 91.7508C112.105 90.2314 113.028 88.8508 114.191 87.6879C115.353 86.525 116.734 85.6026 118.253 84.9734C119.773 84.3442 121.401 84.0205 123.046 84.0208" fill="#53C1DE"/>
<path d="M126.187 4.60295C126.187 5.34374 125.967 6.06789 125.556 6.68383C125.144 7.29978 124.559 7.77984 123.875 8.06333C123.19 8.34682 122.437 8.42099 121.711 8.27647C120.984 8.13195 120.317 7.77523 119.793 7.25141C119.269 6.7276 118.912 6.06021 118.768 5.33366C118.623 4.60711 118.697 3.85402 118.981 3.16962C119.264 2.48522 119.744 1.90025 120.36 1.48869C120.976 1.07714 121.7 0.857466 122.441 0.857466C122.934 0.855075 123.422 0.950323 123.877 1.1377C124.333 1.32509 124.747 1.60089 125.095 1.94916C125.443 2.29744 125.719 2.71129 125.907 3.16679C126.094 3.6223 126.189 4.11042 126.187 4.60295V4.60295Z" fill="#3F3D56"/>
<path d="M119.449 5.54833C119.153 5.01181 118.992 4.41068 118.981 3.79758C118.97 3.18448 119.11 2.57814 119.389 2.03166C119.667 1.48518 120.075 1.01525 120.576 0.663023C121.078 0.310799 121.659 0.087033 122.268 0.011328C121.752 -0.00674317 121.237 0.0820735 120.757 0.272201C120.277 0.462329 119.842 0.74966 119.478 1.11615C119.114 1.48264 118.83 1.92038 118.644 2.40187C118.457 2.88336 118.372 3.3982 118.394 3.91407C118.416 4.42994 118.545 4.93569 118.772 5.39956C118.998 5.86343 119.319 6.2754 119.712 6.6096C120.106 6.94381 120.564 7.19302 121.059 7.3416C121.553 7.49017 122.073 7.5349 122.586 7.47297C121.942 7.44918 121.314 7.25952 120.765 6.92235C120.215 6.58518 119.762 6.11191 119.449 5.54833V5.54833Z" fill="#3F3D56"/>
<path d="M127.793 9.81958H117.76V25.4717H127.793V9.81958Z" fill="#3F3D56"/>
<path opacity="0.1" d="M127.793 9.81958H117.76V25.4717H127.793V9.81958Z" fill="black"/>
<path d="M101.909 66.6064C101.909 66.6064 100.837 69.5509 98.2988 69.9526C95.7604 70.3542 94.2848 71.0221 94.2848 71.0221L100.305 74.9007L103.515 74.499C103.515 74.499 103.917 70.3519 105.255 69.4156C106.593 68.4792 101.909 66.6064 101.909 66.6064Z" fill="#A0616A"/>
<path d="M145.384 66.6064C145.384 66.6064 146.455 69.5509 148.994 69.9526C151.532 70.3542 153.008 71.0221 153.008 71.0221L146.988 74.9007L143.777 74.499C143.777 74.499 143.375 70.3519 142.037 69.4156C140.699 68.4792 145.384 66.6064 145.384 66.6064Z" fill="#A0616A"/>
<path d="M116.088 40.6543C116.088 40.6543 114.483 41.4575 113.949 43.064C113.949 43.064 111.015 44.0004 109.4 46.541C109.4 46.541 107.392 48.6823 107.125 49.7518C106.859 50.8213 103.791 57.2427 103.791 57.2427C103.791 57.2427 100.713 67.2766 99.1088 68.3461C99.1088 68.3461 104.192 67.2766 105.129 72.3601C105.129 72.3601 106.331 72.3601 107.669 67.6782C109.007 62.9964 112.218 57.2427 112.218 57.2427C112.218 57.2427 113.287 53.231 114.224 52.5609C115.16 51.8908 116.631 48.8154 117.969 49.6277C119.307 50.4399 128.136 49.4923 128.136 49.4923C128.136 49.4923 133.348 51.893 133.479 53.4973C133.61 55.1015 134.549 55.2369 134.682 56.5749C134.815 57.9129 139.765 68.4792 139.765 68.4792C139.765 68.4792 140.702 71.4124 140.97 72.0893C140.97 72.0893 143.903 65 147.793 69.014C147.793 69.014 147.658 66.338 146.455 64.727C145.253 63.1159 140.034 50.5483 140.034 50.5483C140.034 50.5483 139.499 48.6755 138.964 48.1408C138.43 47.606 134.28 43.3235 132.809 43.3235C132.809 43.3235 132.008 41.3177 131.072 41.0492L116.088 40.6543Z" fill="#3F3D56"/>
<path d="M104.048 73.5626C103.003 73.9821 101.867 74.1238 100.751 73.974C99.6356 73.8241 98.5776 73.3878 97.6805 72.7075C96.8087 72.038 95.8539 71.4844 94.8398 71.0604C93.4205 70.4873 91.7238 70.0631 91.2071 71.022C90.2707 72.7617 102.577 77.0419 102.577 77.0419C102.577 77.0419 104.183 76.1055 104.048 73.5626Z" fill="#3F3D56"/>
<path d="M143.245 73.5626C144.289 73.9821 145.425 74.1238 146.541 73.974C147.657 73.8241 148.715 73.3878 149.612 72.7075C150.484 72.038 151.439 71.4844 152.453 71.0604C153.872 70.4873 155.569 70.0631 156.085 71.022C157.022 72.7617 144.716 77.0419 144.716 77.0419C144.716 77.0419 143.109 76.1055 143.245 73.5626Z" fill="#3F3D56"/>
<path d="M120.46 18.653C120.411 19.1178 120.257 19.6209 119.86 19.8669C119.535 20.0699 119.124 20.0541 118.75 20.1309C118.357 20.2293 117.992 20.4189 117.686 20.6842C117.379 20.9496 117.139 21.2833 116.985 21.6584C116.685 22.4154 116.626 23.2468 116.816 24.0388C116.905 24.4266 117.019 24.8081 117.159 25.1805C117.552 26.2906 118.026 27.3917 118.759 28.3145C119.385 29.0482 120.088 29.7116 120.857 30.2933C121.333 30.6814 121.825 31.0762 122.412 31.259C122.81 31.364 123.219 31.4186 123.63 31.4215C124.138 31.444 124.68 31.4598 125.12 31.2071C125.796 30.8168 125.997 29.9549 126.365 29.2622C126.676 28.6755 127.141 28.1769 127.432 27.579C127.639 27.1077 127.79 26.614 127.884 26.1078L128.509 23.3326C128.734 22.324 128.942 21.1868 128.375 20.3226C128.334 20.2523 128.277 20.1928 128.208 20.1489C128.099 20.1059 127.981 20.0942 127.865 20.1151C127.146 20.1618 126.429 19.998 125.801 19.6435C125.703 19.5926 125.615 19.5237 125.541 19.4404C125.451 19.2959 125.397 19.1319 125.384 18.9621C125.323 18.6182 125.226 18.2817 125.095 17.958C125.058 17.8413 124.99 17.7369 124.898 17.6557C124.802 17.5955 124.693 17.5591 124.58 17.5496C123.614 17.3929 122.64 17.2912 121.663 17.245C121.342 17.2292 120.86 17.1006 120.638 17.3849C120.417 17.6692 120.487 18.3145 120.46 18.653Z" fill="#A0616A"/>
<path opacity="0.1" d="M120.46 18.653C120.411 19.1178 120.257 19.6209 119.86 19.8669C119.535 20.0699 119.124 20.0541 118.75 20.1309C118.357 20.2293 117.992 20.4189 117.686 20.6842C117.379 20.9496 117.139 21.2833 116.985 21.6584C116.685 22.4154 116.626 23.2468 116.816 24.0388C116.905 24.4266 117.019 24.8081 117.159 25.1805C117.552 26.2906 118.026 27.3917 118.759 28.3145C119.385 29.0482 120.088 29.7116 120.857 30.2933C121.333 30.6814 121.825 31.0762 122.412 31.259C122.81 31.364 123.219 31.4186 123.63 31.4215C124.138 31.444 124.68 31.4598 125.12 31.2071C125.796 30.8168 125.997 29.9549 126.365 29.2622C126.676 28.6755 127.141 28.1769 127.432 27.579C127.639 27.1077 127.79 26.614 127.884 26.1078L128.509 23.3326C128.734 22.324 128.942 21.1868 128.375 20.3226C128.334 20.2523 128.277 20.1928 128.208 20.1489C128.099 20.1059 127.981 20.0942 127.865 20.1151C127.146 20.1618 126.429 19.998 125.801 19.6435C125.703 19.5926 125.615 19.5237 125.541 19.4404C125.451 19.2959 125.397 19.1319 125.384 18.9621C125.323 18.6182 125.226 18.2817 125.095 17.958C125.058 17.8413 124.99 17.7369 124.898 17.6557C124.802 17.5955 124.693 17.5591 124.58 17.5496C123.614 17.3929 122.64 17.2912 121.663 17.245C121.342 17.2292 120.86 17.1006 120.638 17.3849C120.417 17.6692 120.487 18.3145 120.46 18.653Z" fill="black"/>
<path d="M118.648 20.2481C118.126 20.0921 117.585 20.0071 117.04 19.9954C115.749 19.9638 114.368 20.4083 113.624 21.462C113.116 22.2226 112.931 23.153 113.107 24.05C113.287 24.9387 113.691 25.7666 114.28 26.4553C114.621 26.8172 114.923 27.2135 115.183 27.6376C115.539 28.3145 115.551 29.1245 115.648 29.8939C115.873 31.726 116.654 33.4476 116.963 35.2684C117.272 37.0893 117.006 39.1989 115.569 40.3564C115.327 40.5505 115.034 40.7558 115.014 41.0649C114.982 41.5591 115.625 41.7689 116.119 41.8163C117.597 41.9562 119.113 42.0938 120.548 41.7125C121.142 41.5545 121.715 41.3086 122.32 41.1958C123.854 40.9092 125.397 41.4981 126.934 41.7802C128.046 41.9637 129.171 42.0551 130.298 42.0532C130.56 42.0766 130.824 42.042 131.072 41.9517C131.194 41.9036 131.298 41.8178 131.369 41.7066C131.44 41.5955 131.473 41.4648 131.464 41.3334C131.414 41.1633 131.323 41.0083 131.198 40.8822C130.422 39.9232 130.185 38.6484 129.973 37.4322L129.262 33.3461C128.881 31.1619 128.527 28.7883 129.56 26.8276C130.302 25.4174 131.672 24.4246 132.455 23.0369C132.728 22.6175 132.851 22.1182 132.805 21.62C132.687 20.9228 132.058 20.4241 131.412 20.1331C130.171 19.5761 128.761 19.5243 127.482 19.9887C127.505 20.9656 127.256 21.9539 127.096 22.9219L126.823 24.5013C126.684 25.4321 126.48 26.3519 126.212 27.254C126.114 27.6149 125.948 27.9535 125.722 28.2513C125.481 28.5192 125.187 28.7336 124.858 28.8808C124.146 29.229 123.363 29.4082 122.57 29.4043C122.227 29.4095 121.885 29.3569 121.559 29.2486C121.034 29.0185 120.561 28.6855 120.167 28.2693C120.029 28.1513 119.905 28.0173 119.799 27.87C119.687 27.6825 119.602 27.4795 119.549 27.2675C119.366 26.7157 119.222 26.1517 119.118 25.5798C119.05 25.1421 119.028 24.6976 118.996 24.2554C118.908 22.9489 118.908 21.5049 118.648 20.2481Z" fill="#85B3FF"/>
<path d="M117.292 46.1394C117.292 46.1394 116.758 53.231 120.102 54.4336C123.445 55.6362 120.503 48.5469 120.503 48.5469L119.431 46.4079L117.292 46.1394Z" fill="#A0616A"/>
<path d="M128.662 46.1394C128.662 46.1394 129.197 53.231 125.853 54.4336C122.509 55.6362 125.451 48.5469 125.451 48.5469L126.523 46.4079L128.662 46.1394Z" fill="#A0616A"/>
<path opacity="0.1" d="M114.348 22.4706L113.278 24.2102C113.278 24.2102 114.215 30.2301 114.348 31.2996C114.463 32.0713 114.643 32.8321 114.885 33.574C114.885 33.574 115.018 36.7847 115.018 37.9896C115.018 39.1944 115.695 41.2003 115.695 41.2003C115.789 42.3375 116.016 43.4598 116.372 44.5442C116.906 46.0153 117.441 47.7549 117.441 47.7549C117.441 47.7549 118.118 45.8822 120.785 48.6913C121.084 48.3882 121.251 47.9797 121.251 47.5541C121.251 47.1285 121.084 46.72 120.785 46.4169C120.785 46.4169 119.984 42.8068 119.984 40.9318C119.984 39.0568 118.511 30.1015 118.511 30.1015C118.511 30.1015 117.554 19.921 114.348 22.4706Z" fill="black"/>
<path d="M114.082 22.3284L113.012 24.0681C113.012 24.0681 113.949 30.0879 114.082 31.1574C114.198 31.9293 114.378 32.6901 114.621 33.4318C114.621 33.4318 114.754 36.6425 114.754 37.8452C114.754 39.0478 115.431 41.0559 115.431 41.0559C115.525 42.1932 115.752 43.3155 116.108 44.3998C116.643 45.8731 117.18 47.6105 117.18 47.6105C117.18 47.6105 117.857 45.7378 120.523 48.5469C120.822 48.2439 120.989 47.8358 120.989 47.4108C120.989 46.9858 120.822 46.5778 120.523 46.2748C120.523 46.2748 119.72 42.6646 119.72 40.7896C119.72 38.9146 118.249 29.9593 118.249 29.9593C118.249 29.9593 117.292 19.7856 114.082 22.3284Z" fill="#85B3FF"/>
<path opacity="0.1" d="M131.74 21.3921L132.416 22.1886C132.416 22.1886 133.204 26.7419 131.464 32.4955L130.93 37.7121C130.93 37.7121 129.993 42.1277 129.86 43.1972C129.727 44.2667 129.727 44.3998 129.458 44.8014C129.377 44.8954 129.332 45.0155 129.332 45.1399C129.332 45.2642 129.377 45.3844 129.458 45.4783L128.655 48.4115C128.655 48.4115 127.453 46.9404 125.045 48.8131C125.045 48.8131 124.368 47.7437 124.91 46.8073C125.451 45.8709 125.444 45.4693 125.311 45.2008C125.178 44.9323 125.846 43.5965 125.846 43.328C125.846 43.0595 126.789 36.9111 126.789 36.9111C126.789 36.9111 127.191 30.8912 127.592 28.8854C127.838 27.6511 127.834 24.9007 127.791 22.9648C127.748 20.9476 130.189 19.8556 131.627 21.2725C131.661 21.3086 131.701 21.3425 131.74 21.3921Z" fill="black"/>
<path d="M132.141 21.1169L132.818 21.9134C132.818 21.9134 133.606 26.4689 131.866 32.2203L131.331 37.4369C131.331 37.4369 130.395 41.8525 130.262 42.922C130.129 43.9915 130.126 44.1269 129.86 44.5285C129.778 44.6222 129.733 44.7425 129.733 44.8669C129.733 44.9914 129.778 45.1117 129.86 45.2054L129.061 48.1476C129.061 48.1476 127.859 46.6743 125.451 48.547C125.451 48.547 124.774 47.4775 125.318 46.5411C125.862 45.6048 125.853 45.2031 125.72 44.9369C125.587 44.6706 126.254 43.3304 126.254 43.0641C126.254 42.7979 127.191 36.6427 127.191 36.6427C127.191 36.6427 127.592 30.6228 127.994 28.6147C128.396 26.6066 128.127 20.589 128.127 20.589C128.127 20.589 130.268 19.1178 132.141 21.1169Z" fill="#85B3FF"/>
<path d="M123.177 19.253C126.133 19.253 128.529 16.8569 128.529 13.9011C128.529 10.9452 126.133 8.54907 123.177 8.54907C120.221 8.54907 117.825 10.9452 117.825 13.9011C117.825 16.8569 120.221 19.253 123.177 19.253Z" fill="#A0616A"/>
<path opacity="0.1" d="M125.968 5.86652C125.711 6.58465 125.24 7.20711 124.62 7.65063C123.999 8.09415 123.258 8.33758 122.495 8.34838C121.732 8.35917 120.984 8.13681 120.351 7.71103C119.718 7.28525 119.231 6.67636 118.953 5.9658C121.042 5.12419 123.177 5.87329 123.177 5.87329C124.244 5.49874 125.169 5.53259 125.968 5.86652Z" fill="black"/>
<path d="M123.177 6.14164C123.177 6.14164 112.877 2.53153 115.42 20.0541C115.42 20.0541 117.694 21.5252 119.431 20.5888C119.431 20.5888 118.229 8.41601 122.911 8.95076C127.593 9.48551 126.789 20.3226 126.789 20.3226C126.789 20.3226 129.465 21.1236 130.269 19.6457C131.072 18.1678 130 3.74318 123.177 6.14164Z" fill="#3F3D56"/>
<path opacity="0.1" d="M122.911 8.1476C119.698 7.78208 119.255 13.3981 119.301 16.9585C119.339 13.4184 119.935 8.61015 122.911 8.95085C126.252 9.33217 126.801 14.9662 126.839 18.1566C126.877 15.2279 126.557 8.56502 122.911 8.1476Z" fill="black"/>
<path opacity="0.1" d="M115.42 19.2509C115.187 17.717 115.053 16.1697 115.02 14.6187C115.009 16.4382 115.143 18.2557 115.42 20.0541C115.42 20.0541 117.694 21.5252 119.431 20.5889C119.431 20.5889 119.404 20.3001 119.373 19.815C117.642 20.6881 115.42 19.2509 115.42 19.2509Z" fill="black"/>
<path opacity="0.1" d="M130.269 18.8605C129.519 20.2323 127.148 19.6299 126.828 19.5374C126.812 20.0338 126.789 20.3316 126.789 20.3316C126.789 20.3316 129.465 21.1326 130.269 19.6547C130.433 19.3524 130.519 18.4972 130.494 17.3533C130.472 18.0866 130.393 18.6349 130.269 18.8605Z" fill="black"/>
<path d="M186.537 151.841C187.606 149.86 186.392 147.432 184.998 145.665C183.603 143.899 181.9 142.055 181.936 139.799C181.988 136.561 185.422 134.652 188.168 132.935C190.203 131.662 192.081 130.153 193.761 128.438C194.438 127.75 195.086 127.015 195.481 126.135C196.049 124.871 196.033 123.427 195.997 122.046C195.878 117.427 195.653 112.813 195.32 108.206" stroke="#3F3D56" stroke-width="4" stroke-miterlimit="10"/>
<path d="M200.528 107.962C200.489 107.117 200.238 106.296 199.798 105.573C199.358 104.851 198.743 104.251 198.01 103.829L196.882 106.063L196.916 103.355C195.889 103.051 194.793 103.082 193.785 103.442C192.778 103.802 191.91 104.473 191.309 105.359C190.707 106.244 190.403 107.297 190.439 108.367C190.476 109.437 190.851 110.467 191.511 111.309C192.172 112.151 193.083 112.762 194.113 113.053C195.143 113.343 196.238 113.299 197.242 112.927C198.245 112.554 199.104 111.872 199.694 110.979C200.284 110.086 200.575 109.029 200.526 107.96L200.528 107.962Z" fill="#85B3FF"/>
<path d="M191.53 142.121C191 143.15 190.133 143.966 189.074 144.432C188.014 144.898 186.826 144.985 185.71 144.679C184.593 144.374 183.616 143.693 182.942 142.752C182.268 141.811 181.938 140.667 182.007 139.512C182.076 138.356 182.541 137.26 183.323 136.406C184.105 135.552 185.156 134.994 186.301 134.823C187.446 134.653 188.615 134.882 189.611 135.471C190.608 136.06 191.371 136.974 191.774 138.06L188.615 140.625L192.083 139.819C192.084 140.62 191.895 141.409 191.53 142.121V142.121Z" fill="#85B3FF"/>
<path d="M189.037 132.322C187.802 132.374 186.591 131.972 185.633 131.191C184.675 130.41 184.037 129.304 183.84 128.084C183.643 126.864 183.9 125.614 184.563 124.571C185.226 123.528 186.249 122.765 187.437 122.426L187.41 124.506L188.552 122.25H188.565C189.23 122.214 189.895 122.31 190.523 122.532C191.151 122.755 191.728 123.099 192.222 123.546C192.716 123.992 193.117 124.532 193.401 125.134C193.685 125.736 193.848 126.389 193.879 127.054C193.91 127.719 193.809 128.384 193.582 129.01C193.355 129.636 193.007 130.211 192.557 130.701C192.107 131.192 191.564 131.589 190.96 131.869C190.356 132.149 189.702 132.307 189.037 132.333V132.322Z" fill="#85B3FF"/>
<path d="M201.288 124.17C200.508 124.206 199.729 124.061 199.014 123.746C198.299 123.43 197.668 122.953 197.168 122.352C196.669 121.75 196.317 121.041 196.138 120.281C195.96 119.52 195.96 118.728 196.14 117.967C196.32 117.207 196.674 116.498 197.174 115.898C197.674 115.297 198.306 114.821 199.022 114.507C199.737 114.193 200.516 114.049 201.296 114.086C202.077 114.124 202.838 114.343 203.52 114.725L202.617 117.168L204.452 115.409C205.186 116.082 205.705 116.958 205.942 117.926C206.179 118.894 206.125 119.911 205.785 120.847C205.446 121.784 204.836 122.6 204.034 123.191C203.232 123.782 202.273 124.123 201.277 124.17H201.288Z" fill="#85B3FF"/>
<path opacity="0.1" d="M199.851 109.307C198.685 109.436 197.552 109.799 196.383 109.871C195.214 109.944 193.93 109.664 193.193 108.743C192.793 108.254 192.595 107.635 192.259 107.101C191.939 106.604 191.503 106.194 190.988 105.905C190.663 106.545 190.478 107.247 190.445 107.964C190.412 108.681 190.533 109.397 190.799 110.063C191.065 110.73 191.47 111.332 191.987 111.83C192.505 112.328 193.122 112.71 193.799 112.95C194.475 113.19 195.195 113.283 195.911 113.223C196.626 113.162 197.32 112.95 197.947 112.6C198.574 112.251 199.119 111.771 199.546 111.194C199.972 110.617 200.271 109.955 200.422 109.253C200.23 109.273 200.041 109.287 199.851 109.307Z" fill="black"/>
<path opacity="0.1" d="M201.288 124.17C200.418 124.21 199.553 124.024 198.776 123.631C197.999 123.238 197.337 122.65 196.854 121.926C196.371 121.202 196.083 120.364 196.019 119.496C195.955 118.628 196.116 117.757 196.487 116.97C196.889 117.239 197.234 117.585 197.502 117.987C197.861 118.529 198.08 119.156 198.502 119.655C199.287 120.578 200.632 120.88 201.85 120.826C203.069 120.772 204.242 120.424 205.46 120.311C205.629 120.298 205.799 120.287 205.97 120.282C205.719 121.351 205.126 122.309 204.281 123.011C203.436 123.712 202.385 124.119 201.288 124.17Z" fill="black"/>
<path opacity="0.1" d="M189.037 132.322C188.175 132.362 187.318 132.181 186.547 131.796C185.775 131.411 185.116 130.835 184.63 130.122C184.144 129.41 183.85 128.585 183.773 127.726C183.697 126.867 183.842 126.003 184.195 125.217C184.611 125.49 184.973 125.838 185.262 126.243C185.654 126.796 185.898 127.432 186.358 127.944C187.209 128.892 188.639 129.226 189.93 129.194C191.18 129.167 192.383 128.861 193.626 128.766C193.32 129.759 192.715 130.634 191.894 131.27C191.073 131.907 190.075 132.274 189.037 132.322V132.322Z" fill="black"/>
<path opacity="0.1" d="M191.53 142.121C190.945 143.281 189.935 144.17 188.711 144.605C187.487 145.039 186.143 144.985 184.958 144.454C183.772 143.922 182.838 142.954 182.348 141.751C181.858 140.548 181.851 139.202 182.329 137.994C182.745 138.267 183.118 138.6 183.436 138.982C183.917 139.567 184.233 140.23 184.79 140.774C185.821 141.787 187.487 142.204 188.969 142.243C189.824 142.252 190.679 142.212 191.53 142.121V142.121Z" fill="black"/>
<path d="M178.926 149.56C178.926 149.56 182.908 149.438 184.116 148.583C185.323 147.728 190.244 146.708 190.542 148.078C190.839 149.447 196.528 154.896 192.031 154.932C187.534 154.968 181.582 154.233 180.384 153.502C179.186 152.771 178.926 149.56 178.926 149.56Z" fill="#656380"/>
<path opacity="0.2" d="M192.103 154.465C187.606 154.501 181.654 153.763 180.456 153.035C179.553 152.477 179.181 150.485 179.059 149.564H178.926C178.926 149.564 179.179 152.777 180.377 153.506C181.575 154.235 187.527 154.973 192.024 154.937C193.321 154.937 193.77 154.465 193.746 153.782C193.565 154.19 193.071 154.447 192.103 154.465Z" fill="black"/>
<path d="M72.879 9.67056L68.7613 12.2811L71.2613 7.73464C70.5558 7.17057 69.6825 6.85775 68.7793 6.84565H68.7116C68.426 6.84965 68.1406 6.82851 67.8587 6.78248L66.4621 7.66695L67.06 6.57941C66.0717 6.23405 65.2174 5.58584 64.6187 4.72697L62.1209 6.30639L63.7003 3.43636C62.2383 1.6832 60.2707 0.606934 58.1024 0.606934C55.5054 0.606934 53.1927 2.15251 51.699 4.56C51.2572 5.27984 50.6331 5.87014 49.8897 6.27112C49.1464 6.67211 48.3103 6.86953 47.4661 6.8434H47.3262C44.4585 6.8434 42.1367 10.0947 42.1367 14.1065C42.1367 18.1182 44.4607 21.3673 47.3262 21.3673C47.9556 21.3655 48.5751 21.2106 49.1313 20.9161C51.0018 19.9436 53.4567 19.9255 55.4151 20.7942C56.2548 21.1719 57.1647 21.3681 58.0854 21.37C59.0061 21.372 59.9169 21.1796 60.7581 20.8055C62.7031 19.9549 65.1286 19.9729 66.9878 20.9273C67.5394 21.2192 68.1531 21.374 68.7771 21.3786C71.6448 21.3786 73.9666 18.1272 73.9666 14.1178C73.9838 12.5675 73.6097 11.0379 72.879 9.67056V9.67056Z" fill="#F2F2F2"/>
<path opacity="0.03" d="M65.1151 20.2957C63.6169 20.0108 62.0678 20.1789 60.6656 20.7785C59.8247 21.1523 58.9143 21.3445 57.994 21.3426C57.0738 21.3407 56.1643 21.1446 55.3249 20.7673C53.3642 19.8986 50.9093 19.9166 49.0388 20.8891C48.4826 21.1837 47.8631 21.3385 47.2337 21.3404C44.6863 21.3404 42.5677 18.7727 42.1254 15.3882C42.6343 15.0175 43.0665 14.5516 43.398 14.0164C44.9007 11.6111 47.2044 10.061 49.8014 10.061C52.3984 10.061 54.6841 11.5886 56.1778 13.969C56.6235 14.6882 57.2473 15.2802 57.9889 15.6877C58.7304 16.0953 59.5645 16.3045 60.4106 16.2952H60.4693C62.5 16.2975 64.2599 17.9243 65.1151 20.2957Z" fill="black"/>
<path d="M180.521 14.9864L178.475 16.2883L179.722 14.032C179.37 13.747 178.932 13.5882 178.479 13.5807H178.448C178.305 13.5827 178.162 13.5721 178.021 13.5491L177.324 14.0004L177.617 13.4453C177.124 13.2735 176.698 12.9506 176.399 12.5225L175.153 13.3122L175.941 11.8817C175.609 11.4541 175.187 11.1055 174.704 10.8612C174.222 10.6169 173.691 10.483 173.15 10.4692C171.852 10.4692 170.699 11.2409 169.955 12.4413C169.734 12.7988 169.422 13.0914 169.051 13.2896C168.68 13.4877 168.263 13.5842 167.843 13.5694H167.773C166.342 13.5694 165.183 15.1917 165.183 17.1795C165.183 19.1673 166.342 20.8009 167.773 20.8009C168.088 20.7998 168.397 20.7224 168.676 20.5753C169.162 20.3388 169.695 20.2108 170.236 20.2003C170.777 20.1898 171.314 20.2969 171.81 20.5144C172.229 20.7011 172.683 20.7975 173.142 20.7975C173.601 20.7975 174.055 20.7011 174.474 20.5144C174.966 20.3013 175.498 20.1964 176.034 20.207C176.57 20.2175 177.098 20.3431 177.581 20.5753C177.859 20.7225 178.169 20.7999 178.484 20.8009C179.914 20.8009 181.074 19.1809 181.074 17.1795C181.076 16.4137 180.886 15.6597 180.521 14.9864V14.9864Z" fill="#F2F2F2"/>
<path opacity="0.03" d="M176.651 20.2867C175.905 20.1456 175.133 20.2296 174.434 20.5281C174.014 20.7148 173.56 20.8113 173.101 20.8113C172.642 20.8113 172.188 20.7148 171.769 20.5281C171.273 20.3106 170.736 20.2034 170.194 20.214C169.653 20.2245 169.12 20.3524 168.633 20.589C168.355 20.7367 168.045 20.8142 167.73 20.8146C166.457 20.8146 165.402 19.5353 165.18 17.8476C165.433 17.6643 165.649 17.4346 165.817 17.1707C166.561 15.9703 167.717 15.2009 169.012 15.2009C170.307 15.2009 171.446 15.9613 172.191 17.1481C172.413 17.5071 172.724 17.8026 173.094 18.0058C173.464 18.209 173.881 18.3131 174.303 18.3079H174.337C175.35 18.2921 176.218 19.1044 176.651 20.2867Z" fill="black"/>
<path d="M46.1056 48.705L49.4134 50.7989L47.4097 47.1549C47.9779 46.7027 48.6805 46.4526 49.4066 46.4442H49.4585C49.6851 46.4476 49.9116 46.4309 50.1354 46.3945L51.2523 47.103L50.7671 46.2321C51.5584 45.9538 52.2425 45.4346 52.7234 44.7474L54.7247 46.0155L53.4747 43.7163C54.6458 42.3128 56.2229 41.46 57.958 41.46C60.0406 41.46 61.8931 42.6964 63.0912 44.6188C63.4442 45.1949 63.9431 45.6675 64.5374 45.9888C65.1317 46.3101 65.8003 46.4687 66.4756 46.4487H66.5884C68.8854 46.4487 70.7468 49.0525 70.7468 52.2655C70.7468 55.4785 68.8854 58.0845 66.5884 58.0845C66.0826 58.0825 65.5847 57.9579 65.1376 57.7212C64.3557 57.3413 63.5006 57.1359 62.6314 57.1191C61.7622 57.1024 60.8998 57.2747 60.1038 57.6242C59.4294 57.9257 58.699 58.0815 57.9603 58.0815C57.2216 58.0815 56.4912 57.9257 55.8168 57.6242C55.0265 57.2819 54.1718 57.1134 53.3108 57.1301C52.4497 57.1469 51.6022 57.3484 50.8258 57.7212C50.3832 57.9516 49.892 58.0731 49.3931 58.0755C47.0939 58.0755 45.2324 55.4717 45.2324 52.2564C45.2216 51.0182 45.5218 49.797 46.1056 48.705V48.705Z" fill="#F2F2F2"/>
<path opacity="0.03" d="M52.3218 57.218C53.5223 56.9917 54.763 57.1268 55.8868 57.6061C56.5612 57.9075 57.2916 58.0633 58.0303 58.0633C58.769 58.0633 59.4994 57.9075 60.1738 57.6061C60.9701 57.2565 61.8329 57.0842 62.7025 57.1009C63.572 57.1177 64.4275 57.3231 65.2099 57.7031C65.6562 57.9397 66.1533 58.0644 66.6584 58.0663C68.7004 58.0663 70.3971 56.0108 70.7514 53.2987C70.3439 53.0005 69.9977 52.6267 69.7315 52.1977C68.5334 50.2708 66.681 49.0388 64.5984 49.0388C62.5158 49.0388 60.6882 50.2617 59.4901 52.1706C59.1336 52.7457 58.6348 53.2191 58.042 53.5452C57.4491 53.8712 56.7822 54.0389 56.1056 54.032H56.0537C54.4156 54.0163 53.0077 55.3204 52.3218 57.218Z" fill="black"/>
</g>
<defs>
<clipPath id="clip0">
<rect width="250" height="164.977" fill="white"/>
</clipPath>
</defs>
</svg>
