<svg width="250" height="166" viewBox="0 0 250 166" fill="none" xmlns="http://www.w3.org/2000/svg">
<g clip-path="url(#clip0)">
<path d="M182.774 165.691C175.862 164.61 169.216 163.69 162.836 162.932L165.293 158.021C164.44 157.737 160.745 160.578 160.745 160.578L163.872 146.374C159.608 146.942 157.618 161.43 157.618 161.43L152.786 156.601L155.164 162.068C135.642 160.018 118.795 159.378 104.634 159.525L106.737 155.322C105.884 155.038 102.189 157.879 102.189 157.879L105.316 143.675C101.052 144.243 99.062 158.731 99.062 158.731L94.2297 153.902L96.7491 159.693C87.0488 159.975 77.3694 160.754 67.749 162.027C69.8472 155.494 77.1745 149.214 77.1745 149.214C71.5405 150.966 68.6094 153.82 67.0923 156.466C66.7854 143.044 68.8513 129.675 73.195 116.971C73.195 116.971 61.8249 142.539 63.5304 159.583L63.7468 162.611C53.855 164.153 48.8914 165.691 48.8914 165.691H182.774Z" fill="#3F3D56"/>
<path d="M208.832 130.504C208.158 130.504 207.498 130.304 206.937 129.929C206.376 129.555 205.939 129.022 205.681 128.399C205.423 127.776 205.355 127.091 205.487 126.43C205.619 125.768 205.943 125.161 206.42 124.684C206.897 124.208 207.505 123.883 208.167 123.751C208.829 123.62 209.514 123.687 210.138 123.945C210.761 124.203 211.294 124.64 211.669 125.201C212.043 125.761 212.243 126.421 212.243 127.095C212.242 127.999 211.883 128.865 211.243 129.504C210.604 130.143 209.737 130.503 208.832 130.504ZM208.832 124.254C208.27 124.254 207.721 124.421 207.253 124.733C206.786 125.045 206.421 125.489 206.206 126.008C205.991 126.527 205.935 127.098 206.044 127.649C206.154 128.2 206.425 128.706 206.822 129.104C207.22 129.501 207.726 129.771 208.278 129.881C208.829 129.991 209.401 129.934 209.92 129.719C210.44 129.504 210.884 129.14 211.196 128.673C211.508 128.206 211.675 127.657 211.675 127.095C211.674 126.342 211.374 125.62 210.841 125.087C210.309 124.554 209.586 124.255 208.832 124.254Z" fill="#3F3D56"/>
<path d="M236.072 165.244H230.46V159.636H236.072V165.244ZM230.892 164.813H235.64V160.067H230.892V164.813Z" fill="#3F3D56"/>
<path d="M46.0898 165.551L42.2623 161.45L46.3658 157.625L50.1933 161.726L46.0898 165.551ZM42.8724 161.471L46.111 164.941L49.5832 161.704L46.3446 158.234L42.8724 161.471Z" fill="#3F3D56"/>
<path d="M250 164.927H6.16042V165.496H250V164.927Z" fill="#3F3D56"/>
<path d="M157.327 38.5389V57.1974C157.326 57.3698 157.257 57.535 157.135 57.6569C157.013 57.7788 156.848 57.8475 156.676 57.8479H156.212V155.047C156.212 157.736 155.143 160.316 153.24 162.218C151.337 164.12 148.756 165.188 146.065 165.188H85.2942C83.9618 165.188 82.6424 164.926 81.4114 164.416C80.1804 163.906 79.062 163.159 78.1199 162.217C77.1779 161.276 76.4306 160.158 75.9209 158.927C75.4112 157.697 75.149 156.378 75.1492 155.047V61.2569H74.8138C74.6921 61.2571 74.5753 61.209 74.489 61.1233C74.4027 61.0376 74.3539 60.9212 74.3533 60.7995V50.1805C74.3533 50.1201 74.3652 50.0602 74.3884 50.0044C74.4115 49.9486 74.4454 49.8978 74.4882 49.8551C74.5309 49.8124 74.5817 49.7785 74.6376 49.7553C74.6935 49.7322 74.7533 49.7203 74.8138 49.7203H75.1492V45.7204H74.811C74.6832 45.72 74.5609 45.6688 74.4708 45.5783C74.3808 45.4877 74.3303 45.3652 74.3306 45.2375V34.7634C74.3309 34.6362 74.3816 34.5143 74.4717 34.4243C74.5617 34.3343 74.6837 34.2836 74.811 34.2833H75.1492V28.8232H74.8053C74.7493 28.8233 74.6938 28.8124 74.642 28.791C74.5903 28.7696 74.5432 28.7382 74.5036 28.6986C74.464 28.659 74.4326 28.612 74.4112 28.5603C74.3898 28.5086 74.3788 28.4531 74.3789 28.3971V22.6814C74.3787 22.568 74.4234 22.4592 74.5033 22.3788C74.5833 22.2984 74.6919 22.2529 74.8053 22.2524H75.1492V10.6789C75.1493 7.98995 76.2182 5.41115 78.1207 3.50976C80.0233 1.60837 82.6036 0.540137 85.2942 0.540039H146.065C148.755 0.540027 151.336 1.60813 153.239 3.50946C155.142 5.41079 156.212 7.98966 156.212 10.6789V37.8883H156.676C156.848 37.8888 157.013 37.9575 157.135 38.0794C157.257 38.2013 157.326 38.3665 157.327 38.5389Z" fill="#3F3D56"/>
<path d="M118.607 5.74072H108.732C108.333 5.74072 108.01 6.06402 108.01 6.46283V7.31582C108.01 7.71463 108.333 8.03793 108.732 8.03793H118.607C119.006 8.03793 119.33 7.71463 119.33 7.31582V6.46283C119.33 6.06402 119.006 5.74072 118.607 5.74072Z" fill="#E6E8EC"/>
<path d="M122.345 8.1924C123.065 8.1924 123.649 7.60903 123.649 6.88941C123.649 6.16979 123.065 5.58643 122.345 5.58643C121.625 5.58643 121.041 6.16979 121.041 6.88941C121.041 7.60903 121.625 8.1924 122.345 8.1924Z" fill="#E6E8EC"/>
<path d="M151.353 12.6847V155.888C151.354 156.819 151.152 157.739 150.761 158.584C150.371 159.429 149.8 160.18 149.09 160.782C147.926 161.775 146.445 162.319 144.915 162.319H86.7425C85.7074 162.321 84.6874 162.072 83.7692 161.595C83.5535 161.484 83.3446 161.361 83.1438 161.226C82.2695 160.636 81.5534 159.841 81.0583 158.91C80.5632 157.98 80.3042 156.942 80.3042 155.888V12.6847C80.3041 11.8397 80.4706 11.003 80.7942 10.2223C81.1177 9.44161 81.5919 8.73227 82.1898 8.13477C82.7877 7.53727 83.4974 7.06331 84.2786 6.73996C85.0597 6.41661 85.897 6.25021 86.7425 6.25024H95.4491V7.36669C95.4491 8.77183 96.0077 10.1194 97.0019 11.113C97.996 12.1066 99.3444 12.6648 100.75 12.6648H130.335C131.741 12.6648 133.09 12.1066 134.084 11.113C135.078 10.1194 135.637 8.77183 135.637 7.36669V6.25024H144.915C145.76 6.24997 146.598 6.41621 147.379 6.73948C148.16 7.06274 148.87 7.53669 149.468 8.13424C150.066 8.73179 150.54 9.44123 150.864 10.222C151.187 11.0028 151.353 11.8396 151.353 12.6847Z" fill="#85B3FF"/>
<path opacity="0.3" d="M151.353 135.388V155.888C151.354 156.819 151.152 157.739 150.761 158.584C150.371 159.429 149.8 160.18 149.09 160.782C147.926 161.775 146.445 162.32 144.915 162.319H86.7425C85.7074 162.321 84.6874 162.072 83.7692 161.595C83.5535 161.485 83.3446 161.361 83.1438 161.226C82.2695 160.636 81.5534 159.841 81.0583 158.91C80.5632 157.98 80.3042 156.942 80.3042 155.888V135.397C90.0586 126.634 102.711 121.785 115.827 121.784C128.943 121.782 141.596 126.628 151.353 135.388Z" fill="white"/>
<path opacity="0.3" d="M147.894 161.589C146.975 162.071 145.952 162.322 144.915 162.319H86.7425C85.7074 162.321 84.6874 162.072 83.7692 161.595C86.4027 155.265 90.8531 149.856 96.5588 146.051C102.265 142.246 108.97 140.215 115.83 140.215C122.689 140.214 129.395 142.244 135.101 146.048C140.808 149.852 145.259 155.26 147.894 161.589Z" fill="white"/>
<path opacity="0.3" d="M135.233 161.933C134.677 162.225 134.058 162.376 133.43 162.375H98.229C97.6027 162.376 96.9854 162.225 96.4298 161.936C98.0234 158.106 100.716 154.833 104.169 152.531C107.622 150.228 111.68 148.999 115.83 148.999C119.981 148.998 124.039 150.227 127.492 152.529C130.945 154.83 133.639 158.103 135.233 161.933Z" fill="white"/>
<path d="M130.627 61.6889C124.792 61.6889 118.388 60.5784 113.388 56.8311C106.428 51.6139 97.852 51.8923 91.8836 53.0448C87.9192 53.8168 84.0713 55.0977 80.4355 56.8558L80.1726 56.352C83.8528 54.5711 87.7478 53.2729 91.7609 52.4898C97.8465 51.3127 106.598 51.0314 113.729 56.3767C127.089 66.3904 151.011 57.3966 151.251 57.3049L151.455 57.8354C146.969 59.4334 142.329 60.5622 137.61 61.2037C135.296 61.5193 132.963 61.6814 130.627 61.6889Z" fill="white"/>
<path opacity="0.3" d="M80.3013 56.6039C80.3013 56.6039 99.9147 51.8562 113.559 58.3566C127.203 64.857 151.364 58.3084 151.364 58.3084" fill="white"/>
<path opacity="0.3" d="M98.8178 63.9788C96.4485 63.9682 94.0856 63.7324 91.7609 63.2746C87.7478 62.4915 83.8528 61.1933 80.1726 59.4124L80.4355 58.9086C84.0713 60.6667 87.9192 61.9476 91.8836 62.7196C97.8517 63.872 106.428 64.1505 113.388 58.9333C120.513 53.5926 130.494 53.6076 137.61 54.5607C142.329 55.2022 146.969 56.331 151.455 57.929L151.251 58.4595C151.011 58.3675 127.089 49.3735 113.729 59.3877C109.053 62.8931 103.679 63.9788 98.8178 63.9788Z" fill="white"/>
<path opacity="0.3" d="M98.9144 61.6913C89.0696 61.6913 80.327 58.1615 80.1959 58.1075L80.4124 57.5821C80.607 57.6622 100.051 65.5078 113.414 57.6004C127.008 49.5552 151.193 56.7365 151.436 56.81L151.271 57.3537C151.031 57.2811 127.083 50.1718 113.704 58.0892C109.138 60.7912 103.885 61.6913 98.9144 61.6913Z" fill="white"/>
<path opacity="0.3" d="M80.3042 57.4077C80.3042 57.4077 99.9147 63.9081 113.559 57.4077C127.203 50.9073 151.353 56.7935 151.353 56.7935" fill="white"/>
<path d="M156.415 74.7991V83.0809C156.415 83.0809 157.078 92.3564 160.724 96.9942C160.724 96.9942 166.691 105.442 167.52 103.62L166.499 97.6212L163.045 94.3441L161.222 84.0747L160.724 74.7991H156.415Z" fill="#FFB8B8"/>
<path d="M193.043 149.667V155.795L188.071 157.617V150.495L193.043 149.667Z" fill="#FFB8B8"/>
<path d="M182.933 149.004L186.248 156.457L181.607 158.445L180.613 151.157L182.933 149.004Z" fill="#FFB8B8"/>
<path d="M191.22 91.8595C191.22 91.8595 197.849 151.654 195.363 151.82C192.877 151.985 188.071 155.132 188.071 152.979C188.071 150.826 184.259 122.833 184.259 122.833L180.613 108.423V128.299L184.425 150.826C184.425 150.826 180.778 155.629 178.127 152.813L172.492 130.784C172.492 130.784 165.034 97.3255 165.365 94.6753C165.365 94.6753 182.436 80.0993 191.22 91.8595Z" fill="#2F2E41"/>
<path d="M189.894 156.126C189.894 156.126 191.22 153.31 194.203 155.132L196.689 158.114C196.689 158.114 203.098 163.419 198.55 164.555C193.863 165.726 191.054 164.48 191.054 164.48C191.054 164.48 190.225 163.983 189.562 163.983C188.899 163.983 187.408 162.824 187.408 162.493C187.408 162.161 187.905 156.292 187.905 156.292C188.093 156.2 188.304 156.167 188.51 156.197C188.717 156.226 188.91 156.317 189.065 156.458C189.562 156.954 189.894 156.126 189.894 156.126Z" fill="#2F2E41"/>
<path d="M180.115 155.132C180.115 155.132 183.264 152.648 184.756 155.464C184.756 155.464 185.695 155.795 185.806 155.464C185.916 155.132 186.745 154.967 186.745 156.789C186.745 158.611 187.645 163.155 186.816 163.321C185.987 163.486 185.159 163.983 185.325 164.646C185.49 165.308 184.425 165.402 180.613 165.236C176.801 165.07 176.635 163.58 176.635 163.58C176.635 163.58 176.635 161.427 177.629 160.267C178.624 159.108 180.115 155.132 180.115 155.132Z" fill="#2F2E41"/>
<path d="M173.983 46.6409C173.983 46.6409 173.155 52.7694 178.458 54.9227C183.762 57.0759 166.691 64.1983 165.034 60.0574C163.376 55.9165 165.365 54.5914 165.365 54.5914C165.365 54.5914 167.022 52.935 165.531 48.4629L173.983 46.6409Z" fill="#FFB8B8"/>
<path d="M168.68 50.9475C172.707 50.9475 175.972 47.6846 175.972 43.6596C175.972 39.6345 172.707 36.3716 168.68 36.3716C164.652 36.3716 161.387 39.6345 161.387 43.6596C161.387 47.6846 164.652 50.9475 168.68 50.9475Z" fill="#FFB8B8"/>
<path d="M177.132 56.9104C177.132 56.9104 172.16 59.5606 167.354 57.5729C162.548 55.5853 162.713 64.1984 162.713 64.1984L165.199 70.6582L182.436 69.0018L181.276 59.0637L177.132 56.9104Z" fill="#F2F2F2"/>
<path d="M174.662 51.2429C175.545 51.4301 176.374 51.8134 177.089 52.3644C177.803 52.9154 178.384 53.6199 178.79 54.4259L186.745 56.9105L188.734 59.7263L186.413 80.0995C186.413 80.0995 190.722 84.2403 190.722 86.5592C190.722 88.8781 196.026 96.8287 193.374 95.8348C190.722 94.841 185.916 91.3627 185.916 91.3627C185.916 91.3627 173.818 91.8596 170.006 95.1723C166.194 98.485 164.702 97.4912 164.702 97.4912C164.702 97.4912 160.724 80.2651 160.559 77.6149C160.393 74.9647 155.752 59.0637 155.752 59.0637L164.039 54.4259L166.15 52.0325L171.994 61.3826L177.298 54.9228C177.298 54.9228 174.678 52.8634 174.662 51.2429Z" fill="#3F3D56"/>
<path d="M191.22 72.4802L192.214 77.7806C192.214 77.7806 196.689 94.3441 196.026 99.9758C196.026 99.9758 196.523 112.564 193.706 111.073C190.888 109.583 192.38 100.473 192.38 100.473L188.402 84.0747L186.248 74.4679L191.22 72.4802Z" fill="#FFB8B8"/>
<path d="M187.076 58.7324L188.734 59.7262C188.734 59.7262 195.032 72.8115 193.54 73.8053C192.048 74.7991 185.585 76.9524 185.585 76.9524L187.076 58.7324Z" fill="#3F3D56"/>
<path d="M159.73 59.0637L155.835 58.9807L154.924 60.5542L156.084 76.6211L162.05 77.946L159.73 59.0637Z" fill="#3F3D56"/>
<path d="M174.618 37.4958L175.932 37.0181C175.932 37.0181 173.184 34.2714 169.36 34.5103L170.436 33.4355C170.436 33.4355 167.807 32.4801 165.417 34.9879C164.161 36.3062 162.707 37.8558 161.801 39.6014H160.394L160.981 40.7757L158.925 41.95L161.035 41.7391C160.835 42.7529 160.904 43.8013 161.235 44.7803L161.713 46.0939C161.713 46.0939 163.625 42.2725 163.625 41.7948V42.989C163.625 42.989 164.939 41.9142 164.939 41.1977L165.656 42.0337L166.015 40.7201L170.436 42.0337L169.719 40.9589L172.467 41.3172L171.392 40.0035C171.392 40.0035 174.498 41.556 174.618 42.8696C174.738 44.1832 175.558 45.8956 175.558 45.8956L176.552 44.7361C176.552 44.7361 178.083 39.287 174.618 37.4958Z" fill="#2F2E41"/>
<path d="M174.812 45.2332C175.132 45.2332 175.392 44.5657 175.392 43.7424C175.392 42.9191 175.132 42.2517 174.812 42.2517C174.492 42.2517 174.232 42.9191 174.232 43.7424C174.232 44.5657 174.492 45.2332 174.812 45.2332Z" fill="#FFB8B8"/>
<path d="M11.8346 155.938C15.3674 162.485 22.8653 165.296 22.8653 165.296C22.8653 165.296 24.6354 157.491 21.1025 150.943C17.5697 144.395 10.0718 141.584 10.0718 141.584C10.0718 141.584 8.30177 149.39 11.8346 155.938Z" fill="#3F3D56"/>
<path d="M14.2628 153.783C20.641 157.618 23.0974 165.236 23.0974 165.236C23.0974 165.236 15.2128 166.636 8.83461 162.8C2.45644 158.965 0 151.348 0 151.348C0 151.348 7.88462 149.948 14.2628 153.783Z" fill="#85B3FF"/>
<path opacity="0.3" d="M80.3042 56.6039C80.3042 56.6039 99.9147 46.377 113.559 56.6039C127.203 66.8309 151.353 57.5702 151.353 57.5702" fill="white"/>
<path d="M115.904 160.67C117.631 160.67 119.031 159.271 119.031 157.545C119.031 155.819 117.631 154.42 115.904 154.42C114.177 154.42 112.777 155.819 112.777 157.545C112.777 159.271 114.177 160.67 115.904 160.67Z" fill="white"/>
</g>
<defs>
<clipPath id="clip0">
<rect width="250" height="165.151" fill="white" transform="translate(0 0.540039)"/>
</clipPath>
</defs>
</svg>
