<svg width="34" height="34" viewBox="0 0 34 34" fill="none" xmlns="http://www.w3.org/2000/svg">
<circle cx="17" cy="17" r="17" fill="#85B3FF"/>
<path d="M8.3399 18.4965L7.32295 17.5055C6.89235 17.0859 6.89235 16.4074 7.32295 15.9923L16.2235 7.3147C16.6541 6.8951 17.3504 6.8951 17.7765 7.3147L26.6771 15.9878C27.1077 16.4074 27.1077 17.0859 26.6771 17.5011L25.6601 18.492C25.2249 18.9161 24.5149 18.9072 24.0889 18.4742L18.8346 13.0998V25.9287C18.8346 26.5224 18.3445 27 17.7352 27H16.2694C15.6601 27 15.1699 26.5224 15.1699 25.9287V13.0998L9.91113 18.4786C9.48511 18.9161 8.77508 18.925 8.3399 18.4965V18.4965Z" fill="white"/>
</svg>
