<svg width="250" height="165" viewBox="0 0 250 165" fill="none" xmlns="http://www.w3.org/2000/svg">
<g clip-path="url(#clip0)">
<path opacity="0.2" d="M36.5338 0.0187816C34.5888 -0.0432282 32.5956 0.0187795 30.7713 0.64427C25.8075 2.34819 23.4547 7.92368 24.2196 12.7416C24.9846 17.5595 28.1313 21.7573 31.3963 25.5938C34.6612 29.4303 38.1989 33.2237 39.9894 37.8097C40.8823 40.0987 41.2997 42.6627 40.3924 44.9489C38.9928 48.4727 34.7722 50.4408 30.7206 50.8506C26.669 51.2604 22.6004 50.4624 18.5343 50.1955C16.8282 50.085 15.0739 50.0715 13.4667 50.5864C11.7027 51.1472 10.2331 52.293 8.88179 53.4874C3.60911 58.1732 -0.611446 64.5656 0.0714693 71.2815C0.84367 78.8926 7.73073 84.9075 15.2742 88.1347C17.7718 89.2131 20.4141 90.0705 22.6125 91.5965C28.404 95.6217 29.7047 103.171 29.1279 109.833C28.5512 116.495 26.5869 123.165 27.6801 129.768C28.9663 137.449 34.6588 144.388 42.3374 147.629C49.1786 150.517 57.7404 150.325 63.8142 146.251C66.7751 144.262 69.0145 141.498 70.9619 138.64C73.8535 134.42 76.2423 129.798 78.0686 124.89C78.9156 122.601 79.7119 120.14 81.6882 118.549C82.8948 117.571 84.4585 117.023 86.0053 116.597C90.6675 115.314 95.5782 114.963 100.284 113.82C104.989 112.677 109.724 110.539 112.282 106.738C115.902 101.346 114.212 94.4381 114.229 88.097C114.258 73.6298 123.667 60.6805 127.14 46.5774C128.274 41.9698 128.696 36.8715 126.162 32.76C124.442 29.9695 121.539 27.9555 118.488 26.3999C111.778 22.9786 104.15 21.4553 96.6472 19.9725C86.2201 17.9127 73.5584 17.6457 65.4769 10.981C57.7211 4.58324 47.1106 0.0187816 36.5338 0.0187816Z" fill="#85B3FF"/>
<path d="M137.79 165C199.762 165 250 149.97 250 131.428C250 112.887 199.762 97.8569 137.79 97.8569C75.8175 97.8569 25.5792 112.887 25.5792 131.428C25.5792 149.97 75.8175 165 137.79 165Z" fill="#F5F5F5"/>
<path d="M230.98 50.3789C230.98 50.3789 222.333 60.039 227.215 74.374C232.097 88.7091 218.847 112.548 218.847 112.548C218.847 112.548 218.989 112.524 219.252 112.472C237.01 108.967 245.835 86.2772 235.96 69.4186C232.29 63.1529 229.276 55.8088 230.98 50.3789Z" fill="#85B3FF"/>
<path d="M230.98 50.3789C230.98 50.3789 226.098 62.2201 230.98 71.8801C235.861 81.5402 231.817 108.652 218.847 112.548" stroke="#535461" stroke-width="2" stroke-miterlimit="10"/>
<path d="M246.38 89.4532C246.38 89.4532 236.513 87.698 235.615 97.5765C234.718 107.455 216.643 108.824 216.643 108.824L216.981 109.075C231.904 120.019 246.18 116.047 244.008 101.526C243.219 96.1125 243.284 90.6853 246.38 89.4532Z" fill="#85B3FF"/>
<path opacity="0.2" d="M246.38 89.4532C246.38 89.4532 236.513 87.698 235.615 97.5765C234.718 107.455 216.643 108.824 216.643 108.824L216.981 109.075C231.904 120.019 246.18 116.047 244.008 101.526C243.219 96.1125 243.284 90.6853 246.38 89.4532Z" fill="#F5F5F5"/>
<path d="M246.38 89.4532C246.38 89.4532 238.721 91.3404 239.351 99.1105C239.981 106.881 227.978 116.217 216.643 108.816" stroke="#535461" stroke-width="2" stroke-miterlimit="10"/>
<path d="M223.545 113.214H208.043C208.4 112.412 208.585 111.529 208.583 110.634V31.7571C208.583 30.219 208.037 28.744 207.063 27.6564C206.09 26.5688 204.769 25.9578 203.393 25.9578H83.3784C82.6965 25.9575 82.0213 26.1072 81.3913 26.3985C80.7612 26.6898 80.1887 27.1169 79.7065 27.6554C79.2242 28.194 78.8417 28.8334 78.5807 29.5372C78.3197 30.241 78.1853 30.9953 78.1853 31.7571V110.636C78.1841 111.531 78.3691 112.415 78.7259 113.216H62.6762C62.312 113.216 61.9628 113.378 61.7053 113.666C61.4478 113.953 61.3031 114.344 61.3031 114.75V115.988C61.305 118.262 62.1148 120.442 63.5546 122.049C64.9944 123.656 66.9464 124.559 68.9817 124.559H217.239C219.276 124.559 221.229 123.655 222.669 122.046C224.109 120.437 224.918 118.255 224.918 115.98V114.742C224.917 114.336 224.771 113.948 224.514 113.661C224.257 113.375 223.908 113.214 223.545 113.214ZM128.012 118.121L126.689 116.436H159.681L158.209 118.123L128.012 118.121Z" fill="url(#paint0_linear)"/>
<path d="M201.489 27.074H85.2727C82.1727 27.074 79.6598 29.8817 79.6598 33.3451V109.232C79.6598 112.695 82.1727 115.503 85.2727 115.503H201.489C204.589 115.503 207.102 112.695 207.102 109.232V33.3451C207.102 29.8817 204.589 27.074 201.489 27.074Z" fill="#535461"/>
<path d="M204.148 39.964H82.3407V112.205H204.148V39.964Z" fill="white"/>
<path d="M143.246 34.8684C143.839 34.8684 144.32 34.3312 144.32 33.6686C144.32 33.006 143.839 32.4689 143.246 32.4689C142.653 32.4689 142.172 33.006 142.172 33.6686C142.172 34.3312 142.653 34.8684 143.246 34.8684Z" fill="white"/>
<path d="M162.054 112.354L157.867 117.15H128.354L124.573 112.354H64.5005C64.1446 112.354 63.8034 112.512 63.5518 112.793C63.3001 113.074 63.1588 113.455 63.1588 113.853V115.061C63.1588 117.284 63.9495 119.417 65.3569 120.989C66.7643 122.562 68.6732 123.445 70.6636 123.445H215.56C217.55 123.445 219.459 122.562 220.867 120.989C222.274 119.417 223.065 117.284 223.065 115.061V113.853C223.065 113.455 222.923 113.074 222.672 112.793C222.42 112.512 222.079 112.354 221.723 112.354H162.054Z" fill="#535461"/>
<path d="M120.273 42.5037H68.89C67.6417 42.5022 66.4441 43.0547 65.5603 44.0395C64.6766 45.0244 64.179 46.361 64.1771 47.7556V127.29C64.179 128.685 64.6766 130.021 65.5603 131.006C66.4441 131.991 67.6417 132.543 68.89 132.542H120.273C121.521 132.543 122.719 131.991 123.602 131.006C124.486 130.021 124.984 128.685 124.986 127.29V47.7556C124.984 46.361 124.486 45.0244 123.602 44.0395C122.719 43.0547 121.521 42.5022 120.273 42.5037Z" fill="url(#paint1_linear)"/>
<path d="M119.435 43.5821H69.7249C67.0594 43.5821 64.8987 45.9962 64.8987 48.9742V126.352C64.8987 129.33 67.0594 131.744 69.7249 131.744H119.435C122.101 131.744 124.262 129.33 124.262 126.352V48.9742C124.262 45.9962 122.101 43.5821 119.435 43.5821Z" fill="#535461"/>
<path d="M121.245 51.9211H67.9151V123.405H121.245V51.9211Z" fill="white"/>
<path d="M94.3388 48.435C94.7386 48.435 95.0627 48.0729 95.0627 47.6262C95.0627 47.1795 94.7386 46.8174 94.3388 46.8174C93.939 46.8174 93.6149 47.1795 93.6149 47.6262C93.6149 48.0729 93.939 48.435 94.3388 48.435Z" fill="white"/>
<path d="M94.3388 129.857C95.5383 129.857 96.5106 128.77 96.5106 127.43C96.5106 126.09 95.5383 125.004 94.3388 125.004C93.1393 125.004 92.167 126.09 92.167 127.43C92.167 128.77 93.1393 129.857 94.3388 129.857Z" fill="white"/>
<path d="M81.1076 69.4645H54.7249C54.3823 69.4638 54.043 69.5385 53.7263 69.6843C53.4095 69.8301 53.1216 70.0442 52.8789 70.3143C52.6363 70.5844 52.4436 70.9053 52.3119 71.2586C52.1802 71.612 52.1121 71.9908 52.1115 72.3736V136.923C52.1121 137.306 52.1802 137.685 52.3119 138.038C52.4436 138.391 52.6363 138.712 52.8789 138.982C53.1216 139.252 53.4095 139.467 53.7263 139.612C54.043 139.758 54.3823 139.833 54.7249 139.832H81.1076C81.4502 139.833 81.7895 139.758 82.1063 139.612C82.423 139.467 82.7109 139.252 82.9536 138.982C83.1963 138.712 83.3889 138.391 83.5206 138.038C83.6523 137.685 83.7204 137.306 83.721 136.923V72.3736C83.7204 71.9908 83.6523 71.612 83.5206 71.2586C83.3889 70.9053 83.1963 70.5844 82.9536 70.3143C82.7109 70.0442 82.423 69.8301 82.1063 69.6843C81.7895 69.5385 81.4502 69.4638 81.1076 69.4645Z" fill="url(#paint2_linear)"/>
<path d="M80.8253 70.0037H55.0048C53.5388 70.0037 52.3504 71.3314 52.3504 72.9693V136.597C52.3504 138.235 53.5388 139.563 55.0048 139.563H80.8253C82.2913 139.563 83.4797 138.235 83.4797 136.597V72.9693C83.4797 71.3314 82.2913 70.0037 80.8253 70.0037Z" fill="#535461"/>
<path d="M81.1873 76.4742H54.6429V133.092H81.1873V76.4742Z" fill="white"/>
<path d="M64.778 73.5086C64.9113 73.5086 65.0193 73.3879 65.0193 73.239C65.0193 73.0901 64.9113 72.9694 64.778 72.9694C64.6447 72.9694 64.5367 73.0901 64.5367 73.239C64.5367 73.3879 64.6447 73.5086 64.778 73.5086Z" fill="white"/>
<path d="M71.0521 72.9694H66.2259C66.0926 72.9694 65.9846 73.0901 65.9846 73.239C65.9846 73.3879 66.0926 73.5086 66.2259 73.5086H71.0521C71.1854 73.5086 71.2934 73.3879 71.2934 73.239C71.2934 73.0901 71.1854 72.9694 71.0521 72.9694Z" fill="white"/>
<path d="M67.7944 137.675C68.7273 137.675 69.4836 136.83 69.4836 135.788C69.4836 134.746 68.7273 133.901 67.7944 133.901C66.8615 133.901 66.1052 134.746 66.1052 135.788C66.1052 136.83 66.8615 137.675 67.7944 137.675Z" fill="white"/>
<path d="M49.1626 144.577C49.1626 144.577 45.9628 132.445 49.7635 123.51C51.3814 119.775 51.8708 115.555 51.1583 111.483C50.806 109.554 50.2963 107.665 49.6356 105.84" stroke="#535461" stroke-width="2" stroke-miterlimit="10"/>
<path d="M51.9908 100.194C51.9908 101.683 49.5777 105.994 49.5777 105.994C49.5777 105.994 47.1646 101.68 47.1646 100.194C47.1646 99.4793 47.4188 98.7936 47.8714 98.288C48.3239 97.7823 48.9377 97.4983 49.5777 97.4983C50.2177 97.4983 50.8315 97.7823 51.284 98.288C51.7366 98.7936 51.9908 99.4793 51.9908 100.194Z" fill="#85B3FF"/>
<path d="M55.9846 108.434C55.2606 109.682 51.139 111.839 51.139 111.839C51.139 111.839 51.2138 106.754 51.9377 105.506C52.1024 105.191 52.3224 104.917 52.5845 104.7C52.8465 104.483 53.1452 104.328 53.4625 104.244C53.7798 104.159 54.1091 104.148 54.4305 104.21C54.7519 104.272 55.0587 104.406 55.3325 104.604C55.6062 104.802 55.8412 105.06 56.0232 105.362C56.2052 105.664 56.3305 106.005 56.3914 106.363C56.4524 106.721 56.4477 107.089 56.3778 107.445C56.3079 107.801 56.1741 108.137 55.9846 108.434Z" fill="#85B3FF"/>
<path d="M55.8012 122.51C54.6115 123.178 50.0796 122.717 50.0796 122.717C50.0796 122.717 52.4421 118.371 53.6293 117.703C54.1963 117.417 54.8402 117.386 55.4268 117.618C56.0133 117.849 56.4972 118.325 56.7774 118.945C57.0576 119.566 57.1125 120.283 56.9306 120.948C56.7487 121.613 56.3441 122.173 55.8012 122.512V122.51Z" fill="#85B3FF"/>
<path d="M53.5232 133.13C52.4517 134.014 47.9151 134.413 47.9151 134.413C47.9151 134.413 49.5849 129.684 50.6564 128.8C51.1719 128.415 51.8 128.268 52.4105 128.387C53.021 128.506 53.5671 128.883 53.9356 129.439C54.3042 129.996 54.4669 130.69 54.3902 131.377C54.3134 132.064 54.0029 132.691 53.5232 133.13Z" fill="#85B3FF"/>
<path d="M46.069 112.127C47.0343 113.163 51.472 114.238 51.472 114.238C51.472 114.238 50.3837 109.302 49.4281 108.266C49.2049 108 48.9357 107.787 48.6367 107.641C48.3378 107.494 48.0153 107.417 47.6889 107.414C47.3625 107.411 47.0388 107.481 46.7376 107.622C46.4363 107.762 46.1637 107.97 45.9362 108.231C45.7088 108.493 45.5312 108.803 45.4142 109.144C45.2973 109.484 45.2433 109.848 45.2558 110.212C45.2682 110.577 45.3467 110.935 45.4864 111.264C45.6262 111.594 45.8244 111.888 46.069 112.13V112.127Z" fill="#85B3FF"/>
<path d="M43.5449 124.583C44.7346 125.252 49.2664 124.791 49.2664 124.791C49.2664 124.791 46.904 120.445 45.7167 119.776C45.4325 119.598 45.1192 119.487 44.7954 119.448C44.4717 119.409 44.1442 119.444 43.8329 119.551C43.5215 119.657 43.2326 119.833 42.9836 120.067C42.7346 120.301 42.5306 120.59 42.384 120.915C42.2373 121.239 42.151 121.594 42.1303 121.957C42.1095 122.32 42.1547 122.684 42.2632 123.027C42.3716 123.37 42.5411 123.685 42.7614 123.953C42.9816 124.221 43.2482 124.436 43.5449 124.586V124.583Z" fill="#85B3FF"/>
<path d="M42.5796 137.066C43.6511 137.95 48.1877 138.349 48.1877 138.349C48.1877 138.349 46.5179 133.62 45.4464 132.736C44.9309 132.352 44.3028 132.204 43.6923 132.323C43.0818 132.442 42.5357 132.819 42.1672 133.375C41.7986 133.932 41.6359 134.626 41.7127 135.313C41.7894 136 42.0999 136.628 42.5796 137.066Z" fill="#85B3FF"/>
<path d="M240.106 105.983C237.435 102.362 234.199 98.202 234.653 93.3841C235.019 89.4829 234.141 85.8755 234.315 81.9608C234.556 76.3988 233.557 72.0446 229.971 68.4804C227.876 66.3964 224.375 64.7598 223.333 65.1777C221.267 66.0027 219.013 65.6873 216.887 66.2562C215.273 66.6768 214.199 67.3346 213.533 68.1434C212.194 69.4915 212.172 71.3787 212.782 73.3873C212.25 74.4775 211.928 75.6808 211.838 76.9189C211.749 78.1571 211.894 79.4024 212.263 80.5741C212.632 81.7457 213.218 82.8174 213.982 83.7196C214.747 84.6218 215.672 85.3343 216.699 85.8108C215.21 86.5064 213.924 88.1079 213.422 91.3593C213.073 93.5923 212.546 95.7858 211.846 97.9135C211.532 98.0777 211.209 98.2226 210.881 98.3476C210.953 98.3799 211.028 98.4015 211.1 98.4312C210.944 98.4986 210.789 98.566 210.618 98.6253C210.903 98.7498 211.198 98.8454 211.499 98.9111C209.568 104.36 207.155 107.735 207.155 107.735C207.155 107.735 202.654 108.846 200.905 106.902C200.905 106.902 201.19 107.274 201.576 107.832C199.865 107.04 197.056 105.746 194.655 104.681C192.913 103.907 192.466 104.681 192.483 105.759C192.058 105.819 191.648 105.973 191.277 106.212C190.762 105.842 190.222 105.517 189.662 105.241C188.663 104.972 185.413 103.02 182.162 109.682C180.27 113.556 175.42 120.628 171.692 125.858C164.44 129.584 155 134.302 151.491 135.489H149.242C148.948 134.95 148.743 134.61 148.743 134.61L148.569 134.739L148.494 134.61C148.494 134.61 144.078 138.026 139.595 138.053C138.957 138.043 138.322 137.952 137.703 137.783C135.642 137.203 134.189 136.945 133.152 136.974C131.923 136.95 131.221 137.276 130.796 137.891C130.739 137.972 130.687 138.056 130.639 138.144C130.592 138.232 130.548 138.322 130.509 138.414C130.471 138.511 130.432 138.614 130.398 138.719C130.384 138.812 130.39 138.908 130.414 139C130.438 139.091 130.481 139.174 130.538 139.244C130.598 139.339 130.664 139.429 130.734 139.514L130.859 139.665C131.424 140.317 132.452 141.183 133.731 142.148C134.1 142.418 134.491 142.714 134.899 143.008L135.673 143.547L136.366 144.03L136.643 144.221L136.952 144.432L137.505 144.806L137.833 145.027L138.453 145.44L138.955 145.772C140.268 146.637 141.576 147.476 142.756 148.22L143.581 148.77L143.661 148.818L144.192 149.15L145.109 149.719L145.738 150.107L146.033 150.288L146.349 150.482L146.412 150.519L146.962 150.854C147.075 150.875 147.191 150.869 147.302 150.835C147.413 150.802 147.516 150.742 147.604 150.66C147.763 149.905 148.152 148.287 148.569 148.163C148.986 148.039 150.794 144.51 151.303 142.148H156.182C157.144 142.056 158.098 141.892 159.04 141.657C157.78 142.66 156.532 143.291 155.562 143.022C153.511 142.453 151.569 143.849 151.373 145.227C151.373 145.257 151.356 145.284 151.349 145.313C151.342 145.343 151.337 145.37 151.332 145.397C151.327 145.424 151.318 145.464 151.313 145.499C151.308 145.534 151.313 145.556 151.313 145.586C151.313 145.615 151.313 145.653 151.313 145.688C151.313 145.723 151.313 145.745 151.313 145.772C151.313 145.799 151.313 145.842 151.313 145.877C151.313 145.912 151.313 145.931 151.313 145.958C151.313 145.985 151.327 146.03 151.337 146.068C151.347 146.106 151.337 146.117 151.354 146.138C151.369 146.187 151.387 146.235 151.407 146.281L151.419 146.316C151.446 146.375 151.477 146.432 151.511 146.486L151.549 146.543C151.573 146.58 151.6 146.618 151.629 146.653L151.684 146.715C151.713 146.748 151.745 146.78 151.776 146.812L151.844 146.874L151.952 146.963L152.032 147.023L152.162 147.109L152.249 147.16L152.413 147.246L152.495 147.287C152.582 147.327 152.674 147.365 152.773 147.4C152.93 147.457 153.115 147.516 153.325 147.575L153.535 147.632L153.842 147.71L154.003 147.751C154.213 147.801 154.435 147.851 154.669 147.902L154.995 147.969L155.261 148.023L155.871 148.141C156.252 148.214 156.651 148.287 157.078 148.357L158.13 148.535L159.5 148.753L159.805 148.799L160.287 148.875L160.994 148.98L161.477 149.05L162.729 149.228L163.12 149.282L163.909 149.39C164.947 149.53 165.951 149.659 166.875 149.775L167.944 149.91L168.485 149.977L168.726 150.004L169.373 150.083L169.732 150.126L170.176 150.177L170.801 150.25H170.869L171.269 150.296C171.319 150.302 171.37 150.296 171.418 150.279C171.466 150.262 171.511 150.234 171.549 150.196C171.587 150.159 171.617 150.113 171.638 150.062C171.66 150.011 171.671 149.956 171.672 149.899C171.672 149.886 171.672 149.87 171.672 149.853C171.709 149.791 171.729 149.718 171.73 149.643C171.741 148.978 171.816 148.316 171.955 147.67C171.981 147.559 172.013 147.446 172.046 147.333L172.085 147.203C172.128 147.066 172.172 146.934 172.222 146.785C172.259 146.685 172.29 146.582 172.317 146.478C172.317 146.446 172.334 146.413 172.343 146.378C172.353 146.343 172.367 146.268 172.377 146.211C172.879 144.294 172.273 140.719 172.099 139.314C172.044 138.866 171.952 138.424 171.824 137.993C171.856 137.997 171.887 137.997 171.918 137.993C172.178 137.887 172.421 137.739 172.642 137.554C176.33 136.085 179.438 134.405 180.42 132.723C182.01 132.254 183.7 132.451 185.169 133.278C187.078 134.338 201.518 139.603 208.241 142.035C209.447 143.197 210.393 143.876 210.917 143.825C210.917 143.825 219.476 145.373 222.917 142.353C223.224 142.59 223.417 142.717 223.417 142.717C223.417 142.717 228.417 139.943 229.168 136.333C229.409 135.163 229.628 133.437 229.853 131.528C231.013 130.223 231.665 128.458 231.668 126.619C231.824 120.558 233.926 113.634 235.485 107.477C237.377 107.644 238.108 107.245 239.843 106.288L239.766 106.177C239.889 106.096 239.998 106.042 240.106 105.983ZM211.441 115.061L210.475 114.702C210.799 114.219 211.078 113.701 211.308 113.154L211.441 115.061ZM206.062 117.611L211.853 121.493L211.904 122.283C211.833 122.884 211.85 123.494 211.952 124.09C209.399 121.555 206.412 118.479 206.059 117.608L206.062 117.611ZM203.697 111.949C203.065 111.658 202.541 111.394 202.181 111.176C202.664 111.213 203.123 111.246 203.523 111.27C203.602 111.489 203.661 111.717 203.697 111.949ZM188.185 118.277C188.185 118.277 189.184 115.78 191.436 119.943C191.786 120.59 192.43 121.62 193.282 122.895L186.728 121.917C187.5 120.579 188.019 119.337 188.185 118.28V118.277Z" fill="url(#paint3_linear)"/>
<path d="M202.582 108.248C202.582 108.248 197.997 106.091 194.377 104.473C190.758 102.855 192.93 108.248 192.93 108.248C192.93 108.248 198.962 110.135 198.962 110.404C198.962 110.674 204.03 110.944 204.03 110.944L202.582 108.248Z" fill="#F7C4A7"/>
<path opacity="0.05" d="M202.582 108.248C202.582 108.248 197.997 106.091 194.377 104.473C190.758 102.855 192.93 108.248 192.93 108.248C192.93 108.248 198.962 110.135 198.962 110.404C198.962 110.674 204.03 110.944 204.03 110.944L202.582 108.248Z" fill="black"/>
<path d="M222.128 86.9486C222.128 86.9486 213.924 82.0956 212.476 91.5319C211.028 100.968 206.443 107.439 206.443 107.439C206.443 107.439 202.099 108.517 200.41 106.63C200.41 106.63 204.513 112.022 202.582 112.561C202.582 112.561 206.926 116.066 208.856 114.988C210.787 113.909 212.235 106.63 212.958 104.743C213.682 102.855 216.337 86.4094 222.128 86.9486Z" fill="#575988"/>
<path opacity="0.1" d="M222.128 86.9486C222.128 86.9486 213.924 82.0956 212.476 91.5319C211.028 100.968 206.443 107.439 206.443 107.439C206.443 107.439 202.099 108.517 200.41 106.63C200.41 106.63 204.513 112.022 202.582 112.561C202.582 112.561 206.926 116.066 208.856 114.988C210.787 113.909 212.235 106.63 212.958 104.743C213.682 102.855 216.337 86.4094 222.128 86.9486Z" fill="black"/>
<path d="M217.543 83.7132C217.543 83.7132 222.611 90.1838 222.852 95.5759C223.094 100.968 228.644 89.9142 229.126 89.6446C229.609 89.375 224.3 80.2083 223.818 77.2426C223.335 74.2769 217.543 83.7132 217.543 83.7132Z" fill="#F7C4A7"/>
<path d="M221.042 86.4767L217.845 89.712L219.353 96.5196L223.456 92.2059L222.973 87.8921L221.042 86.4767Z" fill="#F7C4A7"/>
<path d="M154.319 134.4H148.769L150.941 140.331L156.25 138.713L154.319 134.4Z" fill="#F7C4A7"/>
<path opacity="0.1" d="M150.053 133.545C150.053 133.545 144.305 138.018 139.394 136.626C134.484 135.235 133.149 135.756 132.577 137.551C132.049 139.204 146.293 147.945 148.564 149.325C148.599 149.347 148.639 149.359 148.679 149.361C148.719 149.362 148.759 149.354 148.795 149.336C148.832 149.317 148.865 149.29 148.89 149.255C148.916 149.221 148.934 149.18 148.943 149.136C149.097 148.403 149.472 146.831 149.872 146.71C150.393 146.553 152.768 141.587 152.638 139.635C152.507 137.683 150.053 133.545 150.053 133.545Z" fill="black"/>
<path d="M149.812 133.545C149.812 133.545 144.064 138.018 139.153 136.626C134.242 135.235 132.908 135.756 132.336 137.551C131.807 139.204 146.052 147.945 148.323 149.325C148.358 149.347 148.397 149.359 148.437 149.361C148.478 149.362 148.517 149.354 148.554 149.336C148.591 149.317 148.623 149.29 148.649 149.255C148.674 149.221 148.693 149.18 148.702 149.136C148.856 148.403 149.23 146.831 149.631 146.71C150.152 146.553 152.527 141.587 152.396 139.635C152.266 137.683 149.812 133.545 149.812 133.545Z" fill="#F3B5B7"/>
<path d="M197.273 122.806L181.105 120.38C181.105 120.38 154.802 134.399 151.665 134.669L152.389 140.87H157.215C159.146 140.87 177.968 136.287 180.623 131.703C182.158 131.247 183.791 131.439 185.208 132.243C187.621 133.591 210.787 141.949 210.787 141.949L197.273 122.806Z" fill="#575988"/>
<path opacity="0.1" d="M197.273 122.806L181.105 120.38C181.105 120.38 154.802 134.399 151.665 134.669L152.389 140.87H157.215C159.146 140.87 177.968 136.287 180.623 131.703C182.158 131.247 183.791 131.439 185.208 132.243C187.621 133.591 210.787 141.949 210.787 141.949L197.273 122.806Z" fill="black"/>
<path d="M168.557 131.164L165.903 134.939L168.557 136.556L172.418 133.321L168.557 131.164Z" fill="#F7C4A7"/>
<path d="M214.648 126.85C214.648 126.85 205.96 118.541 205.36 117.034C204.759 115.527 190.516 105.282 189.551 105.012C188.586 104.743 185.449 102.855 182.312 109.326C179.175 115.797 167.592 131.434 167.592 131.434C167.592 131.434 171.211 137.096 172.418 136.826C173.625 136.556 187.138 123.885 188.103 117.684C188.103 117.684 189.069 115.257 191.24 119.301C193.412 123.346 207.408 142.757 210.063 142.488C210.063 142.488 220.439 144.375 222.611 139.792C224.783 135.208 214.648 126.85 214.648 126.85Z" fill="#575988"/>
<path d="M219.595 87.353C219.595 87.353 216.578 88.8358 216.337 95.0368C216.096 101.238 210.787 111.752 210.787 111.752L211.269 124.154C211.269 124.154 217.061 130.625 217.543 134.669C218.026 138.713 222.128 141.409 222.128 141.409C222.128 141.409 226.955 138.713 227.679 135.208C228.403 131.703 228.885 123.076 230.092 119.841C231.298 116.605 230.574 96.3848 230.574 96.3848L226.955 89.375L225.024 86.9485L219.957 93.4191C219.957 93.4191 217.181 89.2402 219.595 87.353Z" fill="#DDDBE2"/>
<path opacity="0.1" d="M212.476 120.11C212.476 120.11 211.752 110.404 213.924 108.248L218.267 94.4975C218.267 94.4975 219.836 87.8921 219.595 87.3529C219.353 86.8137 213.924 92.6103 213.924 92.6103L210.304 106.899L211.269 121.998L212.476 120.11Z" fill="black"/>
<path d="M212.235 120.11C212.235 120.11 211.511 110.404 213.682 108.248L218.026 94.4975C218.026 94.4975 219.715 87.7573 219.474 87.2181C219.233 86.6789 213.682 92.6103 213.682 92.6103L210.063 106.9L211.028 121.998L212.235 120.11Z" fill="#575988"/>
<path d="M213.924 115.797C213.924 115.797 201.858 111.483 201.134 110.404C200.41 109.326 192.688 102.316 190.034 107.169C187.379 112.022 199.928 113.37 199.928 113.37L212.717 121.998L213.924 115.797Z" fill="#F7C4A7"/>
<path opacity="0.1" d="M169.081 134.914L165.509 134.197C165.509 134.197 159.66 142.569 156.612 141.719C153.564 140.87 150.76 144.534 153.979 145.71C156.887 146.772 169.445 148.257 171.836 148.532C171.885 148.538 171.934 148.532 171.98 148.516C172.026 148.499 172.069 148.472 172.106 148.436C172.142 148.4 172.172 148.356 172.192 148.307C172.213 148.257 172.224 148.204 172.225 148.15C172.243 147.107 172.431 146.078 172.78 145.111C173.424 143.345 172.78 139.552 172.601 138.101C172.503 137.251 172.265 136.428 171.899 135.675L169.081 134.914Z" fill="black"/>
<path d="M169.02 135.176L165.449 134.459C165.449 134.459 159.599 142.83 156.556 141.984C153.514 141.137 150.705 144.798 153.924 145.974C156.832 147.036 169.389 148.522 171.781 148.797C171.829 148.802 171.878 148.796 171.925 148.78C171.971 148.763 172.014 148.736 172.05 148.7C172.087 148.664 172.116 148.62 172.137 148.571C172.157 148.522 172.168 148.468 172.169 148.414C172.181 147.374 172.362 146.345 172.703 145.378C173.347 143.612 172.703 139.819 172.524 138.368C172.426 137.518 172.188 136.695 171.822 135.942L169.02 135.176Z" fill="#F3B5B7"/>
<path opacity="0.1" d="M219.353 86.8137C223.618 86.8137 227.075 82.9511 227.075 78.1863C227.075 73.4215 223.618 69.5588 219.353 69.5588C215.089 69.5588 211.631 73.4215 211.631 78.1863C211.631 82.9511 215.089 86.8137 219.353 86.8137Z" fill="black"/>
<path d="M218.629 86.8137C222.894 86.8137 226.351 82.9511 226.351 78.1863C226.351 73.4215 222.894 69.5588 218.629 69.5588C214.365 69.5588 210.907 73.4215 210.907 78.1863C210.907 82.9511 214.365 86.8137 218.629 86.8137Z" fill="#F7C4A7"/>
<path d="M226.231 86.6789C226.231 86.6789 235.401 90.1838 235.401 97.4632C235.401 104.743 230.333 116.336 230.092 125.772C229.85 135.208 216.578 133.86 216.578 133.86C216.578 133.86 214.648 102.047 216.578 99.6201C218.509 97.1936 227.196 87.7573 226.231 86.6789Z" fill="#575988"/>
<path opacity="0.1" d="M224.541 101.777C224.541 101.777 221.163 118.493 213.2 115.527C213.2 115.527 209.097 122.267 211.993 125.233C211.993 125.233 218.991 127.12 223.576 121.998C228.161 116.875 231.54 114.988 232.263 108.787C232.987 102.586 233.47 93.9583 231.057 94.7671C228.644 95.576 224.541 101.777 224.541 101.777Z" fill="black"/>
<path d="M224.783 101.507C224.783 101.507 221.404 118.223 213.441 115.257C213.441 115.257 209.339 121.998 212.235 124.963C212.235 124.963 219.233 126.85 223.818 121.728C228.403 116.605 231.781 114.718 232.505 108.517C233.229 102.316 233.711 93.6887 231.298 94.4975C228.885 95.3064 224.783 101.507 224.783 101.507Z" fill="#575988"/>
<path d="M172.91 144.51C172.91 144.534 172.896 144.564 172.889 144.585C172.722 145.046 172.595 145.524 172.51 146.012C172.568 145.801 172.635 145.586 172.712 145.37C172.807 145.093 172.874 144.804 172.91 144.51Z" fill="#DDDBE2"/>
<path d="M154.1 145.187C153.106 144.823 152.688 144.224 152.671 143.593C152.261 144.472 152.519 145.459 153.924 145.971C156.832 147.033 169.392 148.519 171.781 148.794C171.829 148.8 171.879 148.794 171.925 148.777C171.972 148.76 172.015 148.733 172.051 148.697C172.088 148.66 172.117 148.616 172.137 148.566C172.158 148.517 172.169 148.463 172.169 148.408C172.171 148.309 172.14 148.213 172.081 148.139C172.023 148.065 171.941 148.017 171.853 148.007C169.233 147.694 156.969 146.233 154.1 145.187Z" fill="#DDDBE2"/>
<path d="M132.669 137.077C132.733 136.878 132.814 136.687 132.91 136.505C132.65 136.799 132.456 137.158 132.343 137.551C131.815 139.204 146.059 147.945 148.33 149.325C148.366 149.347 148.405 149.359 148.445 149.36C148.485 149.362 148.525 149.353 148.562 149.335C148.599 149.316 148.631 149.288 148.657 149.253C148.682 149.218 148.7 149.177 148.709 149.134C148.722 149.071 148.717 149.006 148.694 148.948C148.671 148.889 148.631 148.841 148.581 148.81C146.071 147.276 132.148 138.711 132.669 137.077Z" fill="#DDDBE2"/>
<path d="M149.961 146.238C149.834 146.276 149.708 146.467 149.59 146.729L149.628 146.713C149.735 146.68 149.916 146.443 150.135 146.092C150.088 146.155 150.029 146.205 149.961 146.238Z" fill="#DDDBE2"/>
<path opacity="0.1" d="M217.558 85.7811C216.877 87.4581 216.735 89.3481 216.236 91.1059C215.244 94.5919 212.756 97.4767 209.776 98.5902C212.283 99.7064 215.241 98.3422 217.179 96.0775C219.117 93.8128 220.253 90.7985 221.342 87.8652C224.155 89.9789 223.813 94.8373 224.759 98.6199C225.165 100.266 225.882 101.795 226.862 103.104C227.843 104.413 229.063 105.472 230.442 106.209C231.815 106.898 233.308 107.237 234.813 107.203C236.319 107.169 237.798 106.763 239.146 106.013C236.566 102.508 232.893 97.6735 233.33 92.9932C233.685 89.2025 231.25 86.3069 231.417 82.5027C231.658 77.1105 229.809 74.3713 226.349 70.9096C224.327 68.8848 227.51 66.0297 224.901 66.8654C223.875 67.1944 222.794 65.9676 221.788 66.3721C219.795 67.1809 217.618 66.8681 215.567 67.4074C204.906 70.2059 218.552 83.3331 217.558 85.7811Z" fill="black"/>
<path d="M217.799 85.5115C217.119 87.1885 216.976 89.0784 216.477 90.8363C215.485 94.3223 212.997 97.2071 210.017 98.3206C212.524 99.4368 215.483 98.0726 217.42 95.8078C219.358 93.5431 220.495 90.5289 221.583 87.5956C224.397 89.7093 224.054 94.5677 225 98.3503C225.406 99.996 226.123 101.525 227.104 102.834C228.084 104.144 229.305 105.203 230.683 105.94C232.056 106.628 233.55 106.968 235.055 106.934C236.56 106.9 238.04 106.493 239.387 105.743C236.807 102.238 233.376 98.2128 233.813 93.5324C234.167 89.7417 233.639 85.8458 233.813 82.0444C234.054 76.6522 231.687 71.4434 228.224 67.9816C226.202 65.9569 223.043 65.698 222.034 66.0944C220.041 66.9032 217.864 66.5904 215.813 67.1297C205.147 69.9363 218.793 83.0635 217.799 85.5115Z" fill="#FC6681"/>
</g>
<defs>
<linearGradient id="paint0_linear" x1="143.111" y1="124.564" x2="143.111" y2="25.9551" gradientUnits="userSpaceOnUse">
<stop stop-color="#808080" stop-opacity="0.25"/>
<stop offset="0.54" stop-color="#808080" stop-opacity="0.12"/>
<stop offset="1" stop-color="#808080" stop-opacity="0.1"/>
</linearGradient>
<linearGradient id="paint1_linear" x1="28883.7" y1="57275.3" x2="28883.7" y2="27202.5" gradientUnits="userSpaceOnUse">
<stop stop-color="#808080" stop-opacity="0.25"/>
<stop offset="0.54" stop-color="#808080" stop-opacity="0.12"/>
<stop offset="1" stop-color="#808080" stop-opacity="0.1"/>
</linearGradient>
<linearGradient id="paint2_linear" x1="11540.3" y1="46698.6" x2="11540.3" y2="28332.6" gradientUnits="userSpaceOnUse">
<stop stop-color="#808080" stop-opacity="0.25"/>
<stop offset="0.54" stop-color="#808080" stop-opacity="0.12"/>
<stop offset="1" stop-color="#808080" stop-opacity="0.1"/>
</linearGradient>
<linearGradient id="paint3_linear" x1="93353.6" y1="60406.6" x2="93353.6" y2="33123.2" gradientUnits="userSpaceOnUse">
<stop stop-color="#808080" stop-opacity="0.25"/>
<stop offset="0.54" stop-color="#808080" stop-opacity="0.12"/>
<stop offset="1" stop-color="#808080" stop-opacity="0.1"/>
</linearGradient>
<clipPath id="clip0">
<rect width="250" height="165" fill="white"/>
</clipPath>
</defs>
</svg>
