<svg width="250" height="208" viewBox="0 0 250 208" fill="none" xmlns="http://www.w3.org/2000/svg">
<g clip-path="url(#clip0)">
<path d="M150.903 198.193C205.633 198.193 250 153.826 250 99.0967C250 44.3671 205.633 0 150.903 0C96.1737 0 51.8066 44.3671 51.8066 99.0967C51.8066 153.826 96.1737 198.193 150.903 198.193Z" fill="#F2F2F2"/>
<path d="M242.295 194.474C242.295 198.582 188.056 207.226 121.148 207.226C54.2397 207.226 -7.62939e-06 198.582 -7.62939e-06 194.474C-7.62939e-06 190.366 54.2397 192.349 121.148 192.349C188.056 192.349 242.295 190.366 242.295 194.474Z" fill="#3F3D56"/>
<path opacity="0.1" d="M242.295 194.474C242.295 198.582 188.056 207.226 121.148 207.226C54.2397 207.226 -7.62939e-06 198.582 -7.62939e-06 194.474C-7.62939e-06 190.366 54.2397 192.349 121.148 192.349C188.056 192.349 242.295 190.366 242.295 194.474Z" fill="black"/>
<path d="M121.148 201.913C188.056 201.913 242.295 198.582 242.295 194.474C242.295 190.366 188.056 187.035 121.148 187.035C54.2397 187.035 0 190.366 0 194.474C0 198.582 54.2397 201.913 121.148 201.913Z" fill="#3F3D56"/>
<path d="M191.867 159.249C191.867 176.041 202.402 189.628 215.42 189.628L191.867 159.249Z" fill="#3F3D56"/>
<path d="M215.42 189.628C215.42 172.648 227.175 158.907 241.703 158.907L215.42 189.628Z" fill="#85B3FF"/>
<path d="M200.401 160.771C200.401 176.721 207.118 189.628 215.42 189.628L200.401 160.771Z" fill="#85B3FF"/>
<path d="M215.42 189.628C215.42 167.931 229.008 150.374 245.799 150.374L215.42 189.628Z" fill="#3F3D56"/>
<path d="M210.465 189.842C210.465 189.842 213.805 189.74 214.812 189.023C215.818 188.306 219.95 187.45 220.2 188.6C220.449 189.749 225.219 194.317 221.448 194.348C217.677 194.378 212.686 193.76 211.681 193.148C210.677 192.536 210.465 189.842 210.465 189.842Z" fill="#A8A8A8"/>
<path opacity="0.2" d="M221.515 193.947C217.744 193.978 212.753 193.36 211.749 192.748C210.983 192.282 210.679 190.61 210.577 189.838C210.506 189.841 210.465 189.842 210.465 189.842C210.465 189.842 210.677 192.536 211.681 193.148C212.686 193.76 217.677 194.378 221.448 194.348C222.537 194.339 222.913 193.952 222.892 193.378C222.741 193.724 222.326 193.941 221.515 193.947Z" fill="black"/>
<path d="M152.135 62.5175C152.135 62.5175 155.533 69.6546 154.174 73.0532C152.815 76.4518 159.272 80.1902 159.272 80.1902L167.768 75.4322V69.3147L166.409 66.5958C166.409 66.5958 160.971 63.5371 161.651 58.7791C162.331 54.021 152.135 62.5175 152.135 62.5175Z" fill="#FFB9B9"/>
<path opacity="0.1" d="M152.135 62.5175C152.135 62.5175 155.533 69.6546 154.174 73.0532C152.815 76.4518 159.272 80.1902 159.272 80.1902L167.768 75.4322V69.3147L166.409 66.5958C166.409 66.5958 160.971 63.5371 161.651 58.7791C162.331 54.021 152.135 62.5175 152.135 62.5175Z" fill="black"/>
<path d="M145.677 92.4252C145.677 92.4252 144.998 99.9021 144.998 100.922C144.998 101.941 143.978 105.34 143.978 105.34C143.978 105.34 140.24 122.673 137.861 124.372C135.482 126.071 134.122 136.607 137.861 135.927C141.599 135.247 142.619 126.071 142.619 126.071L150.357 111.46L151.455 93.7846L145.677 92.4252Z" fill="#FFB9B9"/>
<path d="M148.396 77.4713H145.677C145.677 77.4713 142.959 93.7846 145.677 94.4643C148.396 95.144 153.494 95.144 153.494 95.144L148.396 77.4713Z" fill="#575A89"/>
<path d="M163.69 182.488L165.049 188.945L167.768 186.906L166.409 181.129L163.69 182.148V182.488Z" fill="#FFB9B9"/>
<path d="M151.455 113.496L149.416 114.856C149.416 114.856 148.396 126.751 150.775 135.927C153.154 145.103 154.854 155.979 154.854 155.979C154.854 155.979 158.932 183.168 159.951 183.847C160.971 184.527 167.428 184.867 167.768 183.508C168.108 182.148 165.389 156.659 165.389 156.659C165.389 156.659 163.35 135.247 165.049 132.529C165.049 132.529 170.487 155.979 172.186 158.358C172.186 158.358 174.565 184.187 175.925 184.867C177.284 185.547 183.742 185.887 184.081 184.527C184.421 183.168 182.042 153.94 181.023 151.561C180.003 149.182 179.663 113.836 177.284 114.176C174.905 114.516 151.455 113.496 151.455 113.496Z" fill="#2F2E41"/>
<path d="M155.533 65.5762C159.85 65.5762 163.35 62.0765 163.35 57.7594C163.35 53.4423 159.85 49.9426 155.533 49.9426C151.216 49.9426 147.717 53.4423 147.717 57.7594C147.717 62.0765 151.216 65.5762 155.533 65.5762Z" fill="#FFB9B9"/>
<path d="M158.592 75.0924L156.893 72.0336C156.893 72.0336 154.854 69.3147 153.834 69.9945C152.814 70.6742 152.814 73.0532 152.814 73.0532C152.814 73.0532 144.998 75.7721 145.677 79.5105C146.357 83.249 150.775 89.7063 150.775 89.7063C150.775 89.7063 151.455 95.1441 150.775 96.5035C150.096 97.863 148.736 98.8826 149.756 100.242C150.775 101.601 151.115 101.941 150.775 103.641C150.435 105.34 149.756 106.02 150.435 106.699C151.115 107.379 150.096 114.516 149.416 114.856C148.736 115.196 171.167 118.594 172.866 117.575C174.565 116.555 179.324 116.555 178.984 115.536C178.644 114.516 177.284 108.399 177.284 107.379C177.284 106.359 177.284 101.941 176.944 101.601C176.605 101.262 177.284 96.1637 177.284 96.1637L175.585 81.8896L181.023 73.3931C181.023 73.3931 179.663 68.635 173.206 67.9553C166.749 67.2756 164.962 65.5763 164.962 65.5763C164.962 65.5763 164.37 68.635 163.01 69.3148C161.651 69.9945 158.592 75.0924 158.592 75.0924Z" fill="#575A89"/>
<path d="M183.402 84.2684L185.441 99.5621L181.023 121.653C181.023 121.653 179.324 134.228 175.925 133.888C172.526 133.548 175.925 120.294 175.925 120.294L178.644 99.5621C178.644 99.5621 174.226 89.0265 175.245 87.667C176.265 86.3076 183.402 84.2684 183.402 84.2684Z" fill="#FFB9B9"/>
<path d="M166.749 185.887C166.749 185.887 162.331 183.508 161.311 183.847C160.291 184.187 159.272 188.945 159.272 188.945C159.272 188.945 151.455 194.723 156.553 196.082C161.651 197.442 163.69 194.383 163.69 194.383C163.69 194.383 168.788 191.664 168.788 190.985C168.788 190.305 168.108 185.887 168.108 185.887H166.749Z" fill="#2F2E41"/>
<path d="M176.944 184.187C176.944 184.187 174.905 195.403 176.265 196.082C177.624 196.762 183.402 197.782 184.082 196.082C184.761 194.383 184.761 190.305 184.421 188.945C184.082 187.586 183.062 184.187 183.062 184.187H176.944Z" fill="#2F2E41"/>
<path d="M154.17 45.3956C153.866 45.3043 153.543 45.2945 153.234 45.3672C152.843 45.4946 152.587 45.8551 152.29 46.1376C151.51 46.8776 150.397 47.1091 149.381 47.4597C148.365 47.8103 147.296 48.4306 147.042 49.4748C146.98 49.8951 146.943 50.3185 146.931 50.743C146.779 51.9749 145.84 53.0841 146.008 54.3138C146.118 55.1172 146.69 55.7988 146.808 56.601C146.939 57.4955 146.487 58.4265 146.739 59.2947C146.986 60.1455 147.822 60.664 148.592 61.1022C148.922 59.0062 149.319 56.9222 149.782 54.85C149.834 54.4756 149.98 54.1204 150.205 53.8169C150.889 53.0428 152.229 53.4837 153.116 52.9548C153.453 52.7539 153.703 52.4224 154.057 52.2533C155.081 51.7636 156.189 52.8485 157.325 52.8586C157.826 52.8631 158.375 52.6641 158.799 52.9322C158.986 53.069 159.134 53.2515 159.23 53.4624C159.634 54.2218 159.857 55.0752 160.329 55.7948C160.801 56.5143 161.646 57.1014 162.482 56.8998C162.355 56.251 162.863 55.6673 163.066 55.038C163.416 53.9555 162.844 52.7804 162.982 51.6511C163.111 50.5907 163.802 49.346 163.044 48.5933C162.785 48.3746 162.478 48.2203 162.148 48.1432C159.465 47.2919 156.988 45.8652 154.17 45.3956Z" fill="#2F2E41"/>
<path d="M177.624 72.0336L181.023 73.393C181.023 73.393 185.441 87.6671 184.421 87.6671C183.402 87.6671 174.226 90.0461 174.226 89.0266C174.226 88.007 174.905 72.0336 177.624 72.0336Z" fill="#575A89"/>
<path d="M123.804 43.0393H18.5972V77.577H22.5824V86.61L31.6153 77.577H123.804V43.0393Z" fill="#3F3D56"/>
<path d="M123.804 136.026H18.5972V170.563H22.5824V179.596L31.6153 170.563H123.804V136.026Z" fill="#3F3D56"/>
<path d="M37.1945 89.7981H142.402V124.336H138.417V133.369L129.384 124.336H37.1945V89.7981Z" fill="#3F3D56"/>
<path opacity="0.3" d="M111.583 48.7513H30.8183V51.9394H111.583V48.7513Z" fill="#85B3FF"/>
<path opacity="0.3" d="M71.2008 54.8619H30.8183V58.05H71.2008V54.8619Z" fill="#85B3FF"/>
<path opacity="0.3" d="M35.3347 71.8651C37.8291 71.8651 39.8512 69.843 39.8512 67.3486C39.8512 64.8542 37.8291 62.8322 35.3347 62.8322C32.8404 62.8322 30.8183 64.8542 30.8183 67.3486C30.8183 69.843 32.8404 71.8651 35.3347 71.8651Z" fill="#85B3FF"/>
<path d="M127.524 94.9788H46.7588V98.1669H127.524V94.9788Z" fill="#85B3FF"/>
<path d="M87.1413 101.089H46.7588V104.277H87.1413V101.089Z" fill="#85B3FF"/>
<path d="M51.2752 118.092C53.7696 118.092 55.7917 116.07 55.7917 113.576C55.7917 111.082 53.7696 109.06 51.2752 109.06C48.7809 109.06 46.7588 111.082 46.7588 113.576C46.7588 116.07 48.7809 118.092 51.2752 118.092Z" fill="#85B3FF"/>
<path opacity="0.3" d="M111.583 141.738H30.8183V144.926H111.583V141.738Z" fill="#85B3FF"/>
<path opacity="0.3" d="M71.2008 147.848H30.8183V151.036H71.2008V147.848Z" fill="#85B3FF"/>
<path opacity="0.3" d="M35.3347 164.851C37.8291 164.851 39.8512 162.829 39.8512 160.335C39.8512 157.84 37.8291 155.818 35.3347 155.818C32.8404 155.818 30.8183 157.84 30.8183 160.335C30.8183 162.829 32.8404 164.851 35.3347 164.851Z" fill="#85B3FF"/>
</g>
<defs>
<clipPath id="clip0">
<rect width="250" height="207.226" fill="white"/>
</clipPath>
</defs>
</svg>
