<svg width="250" height="187" viewBox="0 0 250 187" fill="none" xmlns="http://www.w3.org/2000/svg">
<g clip-path="url(#clip0)">
<path d="M87.3627 57.1912H119.623" stroke="#3F3D56" stroke-width="2" stroke-miterlimit="10"/>
<path d="M48.9301 92.7956C50.675 88.2304 50.9278 84.0855 49.4946 83.5377C48.0614 82.9899 45.4851 86.2467 43.7402 90.8119C41.9953 95.3771 41.7426 99.5219 43.1757 100.07C44.6089 100.618 47.1852 97.3607 48.9301 92.7956Z" fill="#2F2E41"/>
<path d="M248.974 114.098C252.484 140.218 247.705 166.366 223.397 176.548C199.089 186.73 171.129 175.279 160.947 150.971C150.765 126.663 174.789 112.118 186.525 88.521C210.356 40.6022 238.075 32.9845 248.974 114.098Z" fill="#F2F2F2"/>
<path d="M205.213 183.16C226.247 183.16 243.298 180.84 243.298 177.979C243.298 175.117 226.247 172.798 205.213 172.798C184.179 172.798 167.128 175.117 167.128 177.979C167.128 180.84 184.179 183.16 205.213 183.16Z" fill="#3F3D56"/>
<path d="M180.298 164.792L181.731 169.975L191.016 167.408L189.583 162.226L180.298 164.792Z" fill="#2F2E41"/>
<path d="M180.938 170.891C181.833 170.644 182.023 168.51 181.364 166.125C180.704 163.74 179.445 162.007 178.55 162.254C177.656 162.501 177.465 164.635 178.125 167.02C178.784 169.405 180.044 171.138 180.938 170.891Z" fill="#2F2E41"/>
<path d="M209.605 146.968C210.262 142.125 209.561 138.032 208.041 137.826C206.521 137.62 204.756 141.379 204.1 146.222C203.443 151.065 204.144 155.158 205.664 155.364C207.184 155.57 208.949 151.811 209.605 146.968Z" fill="#2F2E41"/>
<path d="M205.12 180.861C214.895 180.861 222.818 172.937 222.818 163.162C222.818 153.388 214.895 145.464 205.12 145.464C195.345 145.464 187.421 153.388 187.421 163.162C187.421 172.937 195.345 180.861 205.12 180.861Z" fill="#2F2E41"/>
<path d="M180.298 161.656L181.731 166.838L191.016 164.272L189.583 159.089L180.298 161.656Z" fill="#2F2E41"/>
<path d="M180.938 167.755C181.833 167.508 182.023 165.374 181.364 162.988C180.704 160.603 179.445 158.87 178.55 159.117C177.656 159.365 177.465 161.499 178.125 163.884C178.784 166.269 180.044 168.002 180.938 167.755Z" fill="#2F2E41"/>
<path d="M209.767 159.072C213.108 159.072 215.816 156.364 215.816 153.023C215.816 149.683 213.108 146.974 209.767 146.974C206.427 146.974 203.718 149.683 203.718 153.023C203.718 156.364 206.427 159.072 209.767 159.072Z" fill="white"/>
<path d="M211.702 152.368C212.815 152.368 213.718 151.465 213.718 150.351C213.718 149.238 212.815 148.335 211.702 148.335C210.588 148.335 209.685 149.238 209.685 150.351C209.685 151.465 210.588 152.368 211.702 152.368Z" fill="#3F3D56"/>
<path d="M225.558 175.324C232.108 174.997 237.124 168.871 236.762 161.641C236.4 154.412 230.798 148.818 224.248 149.145C217.699 149.473 216.671 154.615 217.033 161.844C217.394 169.073 219.009 175.652 225.558 175.324Z" fill="#85B3FF"/>
<path d="M197.887 155.674C196.821 155.76 195.764 155.419 194.95 154.726C194.135 154.033 193.629 153.045 193.543 151.98C193.457 150.914 193.797 149.857 194.49 149.043C195.182 148.228 196.17 147.721 197.236 147.635C199.456 147.455 200.061 149.218 200.241 151.437C200.421 153.657 200.106 155.494 197.887 155.674Z" fill="white"/>
<path d="M11.0815 80.8811H110.214L125.583 88.3687L150.071 100.299L166.082 70.3207H211.39" stroke="#3F3D56" stroke-width="2" stroke-miterlimit="10"/>
<path d="M49.9168 87.0836C51.6101 87.0836 52.9828 85.7109 52.9828 84.0176C52.9828 82.3243 51.6101 80.9517 49.9168 80.9517C48.2235 80.9517 46.8509 82.3243 46.8509 84.0176C46.8509 85.7109 48.2235 87.0836 49.9168 87.0836Z" fill="#85B3FF"/>
<path d="M78.5324 83.9471C80.2257 83.9471 81.5983 82.5744 81.5983 80.8811C81.5983 79.1879 80.2257 77.8152 78.5324 77.8152C76.8391 77.8152 75.4664 79.1879 75.4664 80.8811C75.4664 82.5744 76.8391 83.9471 78.5324 83.9471Z" fill="#85B3FF"/>
<path d="M125.544 91.4416C127.237 91.4416 128.61 90.0689 128.61 88.3756C128.61 86.6824 127.237 85.3097 125.544 85.3097C123.85 85.3097 122.478 86.6824 122.478 88.3756C122.478 90.0689 123.85 91.4416 125.544 91.4416Z" fill="#85B3FF"/>
<path d="M191.632 73.3865C193.325 73.3865 194.698 72.0139 194.698 70.3206C194.698 68.6273 193.325 67.2546 191.632 67.2546C189.939 67.2546 188.566 68.6273 188.566 70.3206C188.566 72.0139 189.939 73.3865 191.632 73.3865Z" fill="#85B3FF"/>
<path d="M159.61 85.3096C161.303 85.3096 162.676 83.937 162.676 82.2437C162.676 80.5504 161.303 79.1777 159.61 79.1777C157.917 79.1777 156.544 80.5504 156.544 82.2437C156.544 83.937 157.917 85.3096 159.61 85.3096Z" fill="#85B3FF"/>
<path d="M95.7904 133.567C97.6161 133.567 99.0962 132.087 99.0962 130.261C99.0962 128.435 97.6161 126.955 95.7904 126.955C93.9647 126.955 92.4847 128.435 92.4847 130.261C92.4847 132.087 93.9647 133.567 95.7904 133.567Z" stroke="#3F3D56" stroke-width="2" stroke-miterlimit="10"/>
<path d="M38.0854 186.521C59.1194 186.521 76.1708 184.201 76.1708 181.339C76.1708 178.478 59.1194 176.158 38.0854 176.158C17.0514 176.158 0 178.478 0 181.339C0 184.201 17.0514 186.521 38.0854 186.521Z" fill="#3F3D56"/>
<path d="M36.0253 173.722C45.7999 173.722 53.7238 165.798 53.7238 156.024C53.7238 146.249 45.7999 138.325 36.0253 138.325C26.2507 138.325 18.3268 146.249 18.3268 156.024C18.3268 165.798 26.2507 173.722 36.0253 173.722Z" fill="#2F2E41"/>
<path d="M33.3369 169.914H27.9602V179.547H33.3369V169.914Z" fill="#2F2E41"/>
<path d="M44.0904 169.914H38.7137V179.547H44.0904V169.914Z" fill="#2F2E41"/>
<path d="M32.4408 181.339C34.9154 181.339 36.9214 180.587 36.9214 179.659C36.9214 178.731 34.9154 177.979 32.4408 177.979C29.9662 177.979 27.9602 178.731 27.9602 179.659C27.9602 180.587 29.9662 181.339 32.4408 181.339Z" fill="#2F2E41"/>
<path d="M43.1943 181.115C45.6689 181.115 47.6749 180.363 47.6749 179.435C47.6749 178.507 45.6689 177.755 43.1943 177.755C40.7197 177.755 38.7137 178.507 38.7137 179.435C38.7137 180.363 40.7197 181.115 43.1943 181.115Z" fill="#2F2E41"/>
<path d="M36.4734 157.592C39.8141 157.592 42.5222 154.884 42.5222 151.543C42.5222 148.202 39.8141 145.494 36.4734 145.494C33.1327 145.494 30.4245 148.202 30.4245 151.543C30.4245 154.884 33.1327 157.592 36.4734 157.592Z" fill="white"/>
<path d="M36.4734 153.559C37.5869 153.559 38.4897 152.657 38.4897 151.543C38.4897 150.43 37.5869 149.527 36.4734 149.527C35.3598 149.527 34.4571 150.43 34.4571 151.543C34.4571 152.657 35.3598 153.559 36.4734 153.559Z" fill="#3F3D56"/>
<path d="M18.8572 139.565C17.4281 133.165 21.9963 126.698 29.0605 125.12C36.1247 123.543 43.0098 127.452 44.4389 133.852C45.868 140.252 41.1863 142.613 34.1221 144.19C27.0579 145.768 20.2862 145.965 18.8572 139.565Z" fill="#85B3FF"/>
<path d="M29.9765 122.867C39.7511 122.867 47.6749 114.943 47.6749 105.169C47.6749 95.394 39.7511 87.4701 29.9765 87.4701C20.2018 87.4701 12.278 95.394 12.278 105.169C12.278 114.943 20.2018 122.867 29.9765 122.867Z" fill="#2F2E41"/>
<path d="M27.2881 119.059H21.9113V128.692H27.2881V119.059Z" fill="#2F2E41"/>
<path d="M38.0416 119.059H32.6648V128.692H38.0416V119.059Z" fill="#2F2E41"/>
<path d="M26.3919 130.484C28.8665 130.484 30.8726 129.732 30.8726 128.804C30.8726 127.876 28.8665 127.124 26.3919 127.124C23.9174 127.124 21.9113 127.876 21.9113 128.804C21.9113 129.732 23.9174 130.484 26.3919 130.484Z" fill="#2F2E41"/>
<path d="M37.1455 130.26C39.6201 130.26 41.6261 129.508 41.6261 128.58C41.6261 127.652 39.6201 126.9 37.1455 126.9C34.6709 126.9 32.6648 127.652 32.6648 128.58C32.6648 129.508 34.6709 130.26 37.1455 130.26Z" fill="#2F2E41"/>
<path d="M30.4245 106.737C33.7652 106.737 36.4734 104.029 36.4734 100.688C36.4734 97.3473 33.7652 94.6392 30.4245 94.6392C27.0838 94.6392 24.3757 97.3473 24.3757 100.688C24.3757 104.029 27.0838 106.737 30.4245 106.737Z" fill="white"/>
<path d="M30.4245 102.704C31.5381 102.704 32.4408 101.801 32.4408 100.688C32.4408 99.5744 31.5381 98.6716 30.4245 98.6716C29.311 98.6716 28.4082 99.5744 28.4082 100.688C28.4082 101.801 29.311 102.704 30.4245 102.704Z" fill="#3F3D56"/>
<path d="M12.8083 88.7095C11.3792 82.3094 15.9474 75.8425 23.0116 74.2651C30.0758 72.6877 36.961 76.5973 38.39 82.9973C39.8191 89.3974 35.1374 91.7578 28.0732 93.3352C21.009 94.9125 14.2374 95.1095 12.8083 88.7095Z" fill="#85B3FF"/>
<path d="M18.0376 100.749C18.6951 99.3623 15.6483 96.5407 11.2325 94.4464C6.8167 92.352 2.70398 91.778 2.0465 93.1643C1.38902 94.5505 4.43575 97.3721 8.85157 99.4665C13.2674 101.561 17.3801 102.135 18.0376 100.749Z" fill="#2F2E41"/>
<path d="M21.283 111.554C21.283 113.286 25.7432 116.706 30.6923 116.706C35.6415 116.706 40.2819 111.83 40.2819 110.097C40.2819 108.365 35.6415 110.433 30.6923 110.433C25.7432 110.433 21.283 109.821 21.283 111.554Z" fill="white"/>
<path d="M215.43 126.513H187.173V140.887H215.43V126.513Z" fill="#85B3FF"/>
<path d="M213.218 128.847H184.961V143.221H213.218V128.847Z" stroke="#3F3D56" stroke-width="2" stroke-miterlimit="10"/>
<path d="M58.8315 44.5823H50.7663V52.6474H58.8315V44.5823Z" fill="#FF6584"/>
<path d="M56.8152 41.8939H48.75V49.959H56.8152V41.8939Z" stroke="#3F3D56" stroke-width="2" stroke-miterlimit="10"/>
<path d="M202.984 60.1458C212.759 60.1458 220.683 52.2219 220.683 42.4473C220.683 32.6727 212.759 24.7488 202.984 24.7488C193.21 24.7488 185.286 32.6727 185.286 42.4473C185.286 52.2219 193.21 60.1458 202.984 60.1458Z" fill="#2F2E41"/>
<path d="M209.819 65.1145L215.11 64.1567L213.394 54.6774L208.103 55.6352L209.819 65.1145Z" fill="#2F2E41"/>
<path d="M199.238 67.031L204.529 66.0732L202.813 56.594L197.522 57.5517L199.238 67.031Z" fill="#2F2E41"/>
<path d="M202.047 69.0259C203.935 67.4266 204.98 65.5561 204.38 64.8479C203.781 64.1398 201.764 64.8622 199.875 66.4615C197.987 68.0607 196.942 69.9312 197.542 70.6394C198.142 71.3475 200.159 70.6251 202.047 69.0259Z" fill="#2F2E41"/>
<path d="M212.408 67.1503C214.297 65.551 215.341 63.6805 214.742 62.9724C214.142 62.2642 212.125 62.9866 210.236 64.5859C208.348 66.1851 207.303 68.0556 207.903 68.7638C208.503 69.4719 210.52 68.7495 212.408 67.1503Z" fill="#2F2E41"/>
<path d="M201.745 44.1669C205.086 44.1669 207.794 41.4588 207.794 38.1181C207.794 34.7774 205.086 32.0692 201.745 32.0692C198.405 32.0692 195.696 34.7774 195.696 38.1181C195.696 41.4588 198.405 44.1669 201.745 44.1669Z" fill="white"/>
<path d="M199.259 37.9663C200.373 37.9663 201.276 37.0636 201.276 35.95C201.276 34.8364 200.373 33.9337 199.259 33.9337C198.146 33.9337 197.243 34.8364 197.243 35.95C197.243 37.0636 198.146 37.9663 199.259 37.9663Z" fill="#3F3D56"/>
<path d="M216.946 23.1932C217.212 16.641 211.565 11.0912 204.333 10.7974C197.101 10.5036 191.022 15.5771 190.756 22.1294C190.49 28.6816 195.517 30.1704 202.749 30.4641C209.981 30.7579 216.68 29.7455 216.946 23.1932Z" fill="#85B3FF"/>
<path d="M195.268 41.2C195.611 39.7045 192.027 37.607 187.263 36.5151C182.499 35.4231 178.359 35.7503 178.017 37.2458C177.674 38.7413 181.258 40.8388 186.022 41.9307C190.785 43.0227 194.925 42.6955 195.268 41.2Z" fill="#2F2E41"/>
<path d="M230.009 46.9775C230.352 45.482 226.768 43.3845 222.004 42.2925C217.241 41.2006 213.101 41.5278 212.758 43.0233C212.415 44.5187 215.999 46.6163 220.763 47.7082C225.527 48.8001 229.666 48.473 230.009 46.9775Z" fill="#2F2E41"/>
<path d="M207.845 49.422C207.94 49.9431 207.93 50.4777 207.818 50.9952C207.706 51.5128 207.493 52.0031 207.191 52.4383C206.889 52.8735 206.505 53.2449 206.059 53.5315C205.614 53.8181 205.117 54.0141 204.595 54.1085C204.074 54.2028 203.54 54.1936 203.022 54.0813C202.505 53.9691 202.014 53.756 201.579 53.4542C201.144 53.1524 200.773 52.7679 200.486 52.3226C200.199 51.8772 200.003 51.3798 199.909 50.8587C199.512 48.6672 201.207 47.8917 203.398 47.495C205.59 47.0983 207.449 47.2305 207.845 49.422Z" fill="white"/>
<path d="M159.646 22.1791L180.033 37.8613" stroke="#3F3D56" stroke-width="2" stroke-miterlimit="10"/>
<path d="M150.012 30.4683C158.426 30.4683 165.247 23.6477 165.247 15.2342C165.247 6.82056 158.426 0 150.012 0C141.599 0 134.778 6.82056 134.778 15.2342C134.778 23.6477 141.599 30.4683 150.012 30.4683Z" fill="#FF6584"/>
<path d="M202.962 151.174C203.619 146.331 202.919 142.238 201.398 142.032C199.878 141.825 198.113 145.584 197.457 150.427C196.8 155.27 197.501 159.364 199.021 159.57C200.541 159.776 202.306 156.017 202.962 151.174Z" fill="#2F2E41"/>
<path d="M15.4159 179.16C17.1092 179.16 18.4819 177.788 18.4819 176.095C18.4819 174.401 17.1092 173.029 15.4159 173.029C13.7227 173.029 12.35 174.401 12.35 176.095C12.35 177.788 13.7227 179.16 15.4159 179.16Z" fill="#85B3FF"/>
<path d="M65.5524 172.504H57.4873V180.57H65.5524V172.504Z" fill="#FF6584"/>
<path d="M57.5339 180.953C59.2272 180.953 60.5998 179.58 60.5998 177.887C60.5998 176.193 59.2272 174.821 57.5339 174.821C55.8406 174.821 54.4679 176.193 54.4679 177.887C54.4679 179.58 55.8406 180.953 57.5339 180.953Z" fill="#85B3FF"/>
<path d="M103.493 60.1998C105.186 60.1998 106.559 58.8271 106.559 57.1338C106.559 55.4405 105.186 54.0679 103.493 54.0679C101.8 54.0679 100.427 55.4405 100.427 57.1338C100.427 58.8271 101.8 60.1998 103.493 60.1998Z" fill="#85B3FF"/>
<path d="M163.032 153.638C163.841 153.638 164.497 152.983 164.497 152.174C164.497 151.365 163.841 150.71 163.032 150.71C162.224 150.71 161.568 151.365 161.568 152.174C161.568 152.983 162.224 153.638 163.032 153.638Z" fill="#FF6584"/>
<path d="M170.206 176.475V159.805" stroke="#3F3D56" stroke-width="2" stroke-miterlimit="10"/>
<path d="M170.206 162.162C171.508 162.162 172.563 161.107 172.563 159.805C172.563 158.503 171.508 157.447 170.206 157.447C168.904 157.447 167.848 158.503 167.848 159.805C167.848 161.107 168.904 162.162 170.206 162.162Z" fill="#3F3D56"/>
<path d="M170.206 170.079C170.206 170.079 169.869 162.836 162.965 163.678L170.206 170.079Z" fill="#3F3D56"/>
</g>
<defs>
<clipPath id="clip0">
<rect width="250" height="186.521" fill="white"/>
</clipPath>
</defs>
</svg>
