<svg width="34" height="34" viewBox="0 0 34 34" fill="none" xmlns="http://www.w3.org/2000/svg">
<path d="M17 0.53125C7.89843 0.53125 0.53125 7.89697 0.53125 17C0.53125 26.1016 7.89697 33.4688 17 33.4688C20.1977 33.4688 23.3313 32.5298 25.9919 30.7977C26.7891 30.2787 26.9631 29.1848 26.3606 28.4488L25.6848 27.6231C25.1754 27.0008 24.2784 26.8484 23.6014 27.2825C21.6431 28.5385 19.3451 29.2188 17 29.2188C10.2626 29.2188 4.78125 23.7374 4.78125 17C4.78125 10.2626 10.2626 4.78125 17 4.78125C23.6499 4.78125 29.2188 8.60751 29.2188 15.4062C29.2188 17.9819 27.818 20.7016 25.3559 20.964C24.2038 20.9338 24.233 20.1102 24.461 18.9702L26.0171 10.9277C26.2074 9.94434 25.454 9.03125 24.4524 9.03125H21.4654C21.2449 9.03125 21.032 9.11243 20.8675 9.25932C20.703 9.40621 20.5983 9.60852 20.5735 9.82766L20.5728 9.83377C19.5968 8.64503 17.8868 8.38777 16.5903 8.38777C11.6378 8.38777 7.4375 12.5205 7.4375 18.4457C7.4375 22.7822 9.88025 25.4761 13.8125 25.4761C15.6044 25.4761 17.6222 24.4377 18.7924 22.9305C19.4247 25.1953 21.4893 25.1952 23.488 25.1952C30.7201 25.1952 33.4688 20.4397 33.4688 15.4062C33.4688 6.35196 26.1656 0.53125 17 0.53125ZM15.5603 20.7473C14.0828 20.7473 13.165 19.7098 13.165 18.0399C13.165 15.052 15.209 13.2102 17.0584 13.2102C18.5388 13.2102 19.4226 14.2223 19.4226 15.9176C19.4226 18.9099 17.1731 20.7473 15.5603 20.7473Z" fill="#444444"/>
</svg>
