<svg width="250" height="189" viewBox="0 0 250 189" fill="none" xmlns="http://www.w3.org/2000/svg">
<g clip-path="url(#clip0)">
<path d="M175.857 121.621C175.857 121.621 180.791 155.421 209.657 166.652L151.218 166.732L92.7795 166.812C121.615 155.504 126.463 121.68 126.463 121.68L175.857 121.621Z" fill="#E0E0E0"/>
<path d="M210.175 166.648L92.198 166.812L92.208 173.954L210.185 173.789L210.175 166.648Z" fill="url(#paint0_linear)"/>
<path d="M209.659 166.648L92.7844 166.811L92.7921 172.319L209.667 172.156L209.659 166.648Z" fill="#F5F5F5"/>
<path d="M246.036 3.96416e-06L55.9642 0.260976C53.8611 0.260976 52.1571 2.05092 52.1602 4.25228L52.3075 115.146V118.83C52.3075 127.255 58.8563 134.077 66.9065 134.065L235.441 133.832C243.494 133.832 250.012 126.982 250 118.557V114.873L249.853 3.97903C249.849 1.77767 248.139 -0.00306627 246.036 3.96416e-06Z" fill="url(#paint1_linear)"/>
<path d="M57.7787 3.62288H244.093C244.968 3.62288 245.808 3.97061 246.427 4.58957C247.046 5.20853 247.393 6.04803 247.393 6.92338V112.932H54.4751V6.92338C54.4751 6.04803 54.8228 5.20853 55.4418 4.58957C56.0608 3.97061 56.9003 3.62288 57.7756 3.62288H57.7787Z" fill="white"/>
<path d="M234.996 130.556L67.3609 130.786C65.7005 130.79 64.0555 130.467 62.52 129.836C60.9844 129.204 59.5885 128.276 58.412 127.104C57.2355 125.932 56.3014 124.54 55.6633 123.007C55.0252 121.474 54.6955 119.831 54.6931 118.17V112.776L247.611 112.509V117.906C247.615 121.256 246.289 124.471 243.923 126.843C241.557 129.215 238.346 130.551 234.996 130.556Z" fill="#F5F5F5"/>
<path d="M238.672 12.0583L64.0923 12.3021L64.2155 100.544L238.795 100.3L238.672 12.0583Z" fill="#CF4647"/>
<path d="M115.682 45.5144L35.3463 45.6265C32.4349 45.6306 30.078 47.9941 30.0821 50.9055L30.264 181.237C30.2681 184.148 32.6316 186.505 35.543 186.501L115.879 186.389C118.79 186.385 121.147 184.021 121.143 181.11L120.961 50.7786C120.957 47.8672 118.593 45.5103 115.682 45.5144Z" fill="url(#paint2_linear)"/>
<path d="M114.932 56.2766L36.4512 56.3862L36.6161 174.541L115.097 174.431L114.932 56.2766Z" fill="url(#paint3_linear)"/>
<path d="M112.922 47.6489L38.1156 47.7534C35.2042 47.7575 32.8473 50.1209 32.8514 53.0323L33.0243 176.876C33.0283 179.788 35.3918 182.145 38.3032 182.14L113.109 182.036C116.021 182.032 118.378 179.668 118.374 176.757L118.201 52.9132C118.197 50.0018 115.833 47.6449 112.922 47.6489Z" fill="white"/>
<path d="M112.395 58.1564H38.6912V170.871H112.395V58.1564Z" fill="#CF4647"/>
<path d="M75.7396 179.578C77.4166 179.578 78.776 178.186 78.776 176.468C78.776 174.75 77.4166 173.358 75.7396 173.358C74.0626 173.358 72.7031 174.75 72.7031 176.468C72.7031 178.186 74.0626 179.578 75.7396 179.578Z" fill="#DBDBDB"/>
<path d="M62.9257 54.1479C63.4853 54.1472 63.9382 53.6819 63.9374 53.1088C63.9366 52.5357 63.4824 52.0717 62.9228 52.0725C62.3633 52.0733 61.9103 52.5385 61.9111 53.1116C61.9119 53.6848 62.3662 54.1487 62.9257 54.1479Z" fill="#DBDBDB"/>
<path d="M80.7062 52.4621L68.4222 52.4793C68.1797 52.4796 67.9834 52.6765 67.9838 52.919L67.984 53.0786C67.9843 53.3211 68.1812 53.5174 68.4236 53.5171L80.7076 53.4999C80.9501 53.4996 81.1464 53.3027 81.1461 53.0602L81.1459 52.9006C81.1455 52.6581 80.9487 52.4618 80.7062 52.4621Z" fill="#DBDBDB"/>
<path d="M57.0877 79.3043L3.06388 79.3797C1.36824 79.3821 -0.00442837 80.7586 -0.0020608 82.4542L0.142359 185.887C0.144727 187.583 1.52124 188.956 3.21688 188.953L57.2407 188.878C58.9363 188.875 60.309 187.499 60.3066 185.803L60.1622 82.3702C60.1598 80.6746 58.7833 79.3019 57.0877 79.3043Z" fill="url(#paint4_linear)"/>
<path d="M55.7087 81.1115L4.45427 81.1831C2.75862 81.1854 1.38595 82.5619 1.38832 84.2576L1.52667 183.346C1.52904 185.042 2.90555 186.415 4.60119 186.412L55.8556 186.341C57.5513 186.338 58.924 184.962 58.9216 183.266L58.7832 84.1774C58.7809 82.4818 57.4044 81.1091 55.7087 81.1115Z" fill="white"/>
<path d="M52.308 88.5554L7.87256 88.6175L7.99213 174.252L52.4276 174.19L52.308 88.5554Z" fill="#CF4647"/>
<path d="M29.901 184.143C31.8577 184.143 33.444 182.519 33.444 180.514C33.444 178.51 31.8577 176.885 29.901 176.885C27.9442 176.885 26.3579 178.51 26.3579 180.514C26.3579 182.519 27.9442 184.143 29.901 184.143Z" fill="#DBDBDB"/>
<path d="M23.3572 85.3292C23.7489 85.3287 24.066 85.0038 24.0655 84.6036C24.0649 84.2035 23.7469 83.8795 23.3552 83.88C22.9635 83.8806 22.6464 84.2054 22.647 84.6056C22.6476 85.0058 22.9655 85.3297 23.3572 85.3292Z" fill="#DBDBDB"/>
<path d="M37.0642 84.039L27.003 84.0531C26.7487 84.0534 26.5428 84.2599 26.5431 84.5142L26.5434 84.6831C26.5437 84.9374 26.7502 85.1433 27.0045 85.143L37.0657 85.1289C37.32 85.1286 37.5259 84.9221 37.5256 84.6678L37.5253 84.4989C37.525 84.2446 37.3185 84.0387 37.0642 84.039Z" fill="#DBDBDB"/>
<g clip-path="url(#clip1)">
<path d="M38.0657 145.022L36.6276 147.504L36.1584 155.598C36.1584 156.496 33.2719 157.222 29.7224 157.222C26.1729 157.222 23.2864 156.496 23.2864 155.598L22.6948 147.585L21.1751 145.022C25.3773 146.768 34.0266 146.707 38.0657 145.022V145.022ZM18.0744 119.461L19.4615 132.126C20.0633 130.107 21.5831 127.383 23.5414 126.555C24.184 126.283 24.8368 126.283 25.4487 126.646C25.9791 126.949 26.4279 127.585 26.4789 127.837C26.6013 128.493 26.2749 128.755 26.0199 128.755C25.7139 128.755 25.4793 128.291 25.3263 128.018C24.9081 127.282 24.2758 127.252 23.6026 127.736C22.8988 128.24 22.2868 129.088 21.8585 129.825C21.3383 130.713 20.8997 131.692 20.6345 132.67C20.4815 133.236 20.3387 134.144 20.5733 134.679C20.6753 134.901 20.8283 135.042 21.0731 135.042C21.5831 135.042 22.3276 134.376 22.6846 134.023C23.1436 133.569 23.7352 132.862 23.9596 132.408L24.49 130.844C24.7552 130.158 25.4997 130.279 25.4997 130.844C25.4997 131.873 25.1223 132.216 24.4798 134.346C23.8882 136.313 23.7046 136.949 23.7046 136.949C23.6332 137.232 23.3578 137.706 23.062 137.706C22.9396 137.706 22.8478 137.666 22.7968 137.585C22.6948 137.444 22.705 137.05 22.7152 136.949C22.7356 136.626 23.3578 134.709 23.4598 134.406C23.2558 134.628 23.0416 134.85 22.807 135.072C22.2562 135.587 21.3689 136.263 20.6141 136.263C20.2673 136.263 20.0429 136.172 19.8287 136.021L20.6039 144.053C20.8079 144.558 24.6022 145.779 29.6 145.779C34.608 145.779 38.4023 144.548 38.5961 144.053L39.7078 134.507C39.1265 135.032 38.4533 135.678 37.7087 136.001C37.1579 136.233 35.934 136.384 35.934 135.425C35.934 134.901 36.8621 133.932 37.4027 133.256C37.5455 133.084 37.8821 132.66 37.8821 132.438C37.8821 132.146 37.2701 132.216 36.6888 132.691C36.3624 132.963 36.0564 133.326 35.8014 133.67C35.3628 134.275 35.1282 134.8 34.9344 135.234C34.302 136.667 34.5162 136.101 34.0062 137.454C33.4963 138.796 33.5779 138.644 33.4759 138.866C33.3841 139.058 33.2515 139.22 33.0679 139.321C32.8741 139.421 32.6089 139.411 32.4457 139.29C32.3539 139.23 32.3131 139.099 32.3131 138.917C32.3131 138.826 32.3233 138.735 32.3437 138.644C32.4967 138.029 33.1393 136.818 33.8736 135.183C34.0368 134.81 33.9756 134.921 33.9552 134.951C33.3229 135.557 32.8435 135.849 32.4865 136.011C31.8949 136.273 31.1605 136.273 31.0075 135.597C30.9973 135.557 30.9973 135.516 30.9871 135.476C29.7836 136.404 28.5086 136.656 28.9472 134.658C28.478 135.486 27.6621 136.162 26.6625 136.162C26.2443 136.162 25.9383 136.021 25.7853 135.647C25.5507 135.092 25.9179 134.144 26.2545 133.246C26.4279 132.792 26.6625 132.247 26.9787 131.611C27.1419 131.268 27.4071 131.066 27.7539 131.157C27.8151 131.177 27.866 131.197 27.917 131.227C28.1822 131.409 28.0802 131.682 27.9476 131.954C27.5601 132.711 27.2235 133.266 26.9991 134.053C26.9073 134.386 26.7951 134.961 27.1521 134.961C27.3969 134.961 27.6315 134.88 27.8558 134.719C28.325 134.376 28.7024 133.861 28.988 133.357C29.192 132.993 29.4368 132.519 29.5592 132.115C29.6102 131.944 29.6714 131.782 29.7428 131.631C29.855 131.379 30.008 131.116 30.2732 131.116C30.4058 131.116 30.518 131.167 30.5996 131.268C30.773 131.49 30.7322 131.722 30.6404 131.964C30.4364 132.529 30.161 133.034 29.9366 133.649C29.804 134.003 29.6612 134.457 29.6612 134.83C29.6612 135.173 30.0386 135.092 30.3548 134.951C30.5996 134.84 30.8443 134.669 31.0483 134.497C31.1707 134.003 31.1401 134.114 33.741 127.615C33.8736 127.282 34.1184 127.141 34.3632 127.141C34.4856 127.141 34.5876 127.181 34.6896 127.252C34.863 127.383 34.863 127.665 34.7916 127.877C34.7202 128.069 34.7304 128.008 34.3326 128.937C33.8022 130.158 33.4555 131.036 32.9863 132.156C32.7925 132.62 32.2009 134.063 32.0989 134.406C32.0377 134.628 31.9663 134.991 32.2009 134.991C32.7517 134.991 34.1694 133.67 34.557 133.276C34.5774 133.246 34.608 133.236 34.6488 133.215C34.71 133.024 34.7712 132.842 34.8222 132.66C34.965 132.277 35.0976 131.833 35.3628 131.52C35.4444 131.419 35.5362 131.359 35.6382 131.359C35.9238 131.359 36.0666 131.48 36.0666 131.762C36.0666 131.873 35.9952 132.277 35.9544 132.388C36.0972 132.237 36.2502 132.085 36.4134 131.934C37.9433 130.531 39.0347 131.248 39.0347 131.954C39.0347 132.701 38.1269 133.74 37.6271 134.315C37.4639 134.507 37.1273 134.86 37.1171 134.961C37.1171 135.092 37.2089 135.143 37.3415 135.143C37.5455 135.143 37.9943 134.79 38.1575 134.669C38.6675 134.275 39.3611 133.67 39.8506 133.246L41.3602 119.441C38.2493 121.167 21.2057 121.177 18.0744 119.461V119.461ZM41.503 118.603C41.503 120.723 17.9214 120.723 17.9214 118.603C17.9214 117.715 23.2048 116.999 29.7122 116.999C30.6302 116.999 31.5277 117.009 32.3947 117.039L33.6799 112.125L39.9322 105.616C40.075 105.475 40.5238 105.596 40.942 105.969C41.3602 106.343 41.6152 106.767 41.4826 106.908L41.4724 106.918L35.628 113.023L34.608 117.13C38.6777 117.393 41.503 117.948 41.503 118.603ZM34.4244 119.068C34.4244 118.987 34.3326 118.916 34.1694 118.856L34.149 118.936C34.149 119.068 33.6391 119.179 33.0169 119.179C32.3947 119.179 31.8847 119.068 31.8847 118.936C31.8847 118.926 31.8847 118.916 31.8949 118.906L31.9153 118.836C31.7317 118.896 31.6093 118.977 31.6093 119.068C31.6093 119.28 32.2417 119.441 33.0067 119.441C33.792 119.451 34.4244 119.28 34.4244 119.068V119.068Z" fill="white" fill-opacity="0.75"/>
</g>
<g clip-path="url(#clip2)">
<path d="M85.0412 128.903L83.3582 131.839L82.8092 141.412C82.8092 142.474 79.4313 143.333 75.2777 143.333C71.1241 143.333 67.7462 142.474 67.7462 141.412L67.054 131.935L65.2755 128.903C70.1931 130.968 80.3146 130.896 85.0412 128.903V128.903ZM61.6471 98.6697L63.2703 113.649C63.9745 111.262 65.753 108.039 68.0446 107.061C68.7966 106.738 69.5605 106.738 70.2766 107.168C70.8973 107.526 71.4224 108.278 71.4821 108.576C71.6254 109.352 71.2434 109.663 70.945 109.663C70.5869 109.663 70.3124 109.113 70.1334 108.791C69.644 107.92 68.904 107.884 68.1162 108.457C67.2927 109.054 66.5765 110.056 66.0752 110.928C65.4665 111.978 64.9533 113.136 64.6429 114.294C64.4639 114.962 64.2968 116.036 64.5713 116.669C64.6907 116.931 64.8697 117.099 65.1562 117.099C65.753 117.099 66.6243 116.311 67.042 115.893C67.5791 115.356 68.2714 114.52 68.534 113.983L69.1547 112.133C69.465 111.322 70.3363 111.465 70.3363 112.133C70.3363 113.351 69.8947 113.757 69.1427 116.275C68.4504 118.602 68.2356 119.354 68.2356 119.354C68.152 119.689 67.8298 120.25 67.4836 120.25C67.3404 120.25 67.233 120.202 67.1733 120.106C67.054 119.939 67.0659 119.474 67.0778 119.354C67.1017 118.972 67.8298 116.705 67.9491 116.347C67.7104 116.609 67.4598 116.872 67.1852 117.134C66.5407 117.743 65.5023 118.543 64.6191 118.543C64.2132 118.543 63.9507 118.435 63.7 118.256L64.6071 127.757C64.8458 128.354 69.2859 129.798 75.1345 129.798C80.9949 129.798 85.435 128.342 85.6618 127.757L86.9628 116.466C86.2825 117.087 85.4947 117.85 84.6234 118.232C83.9789 118.507 82.5466 118.686 82.5466 117.552C82.5466 116.931 83.6327 115.786 84.2653 114.986C84.4324 114.783 84.8263 114.282 84.8263 114.019C84.8263 113.673 84.1102 113.757 83.4298 114.317C83.0479 114.64 82.6898 115.069 82.3914 115.475C81.8782 116.191 81.6037 116.812 81.3769 117.325C80.6369 119.02 80.8875 118.352 80.2907 119.951C79.6939 121.539 79.7894 121.36 79.6701 121.622C79.5626 121.849 79.4075 122.04 79.1926 122.159C78.9659 122.279 78.6555 122.267 78.4645 122.123C78.3571 122.052 78.3094 121.897 78.3094 121.682C78.3094 121.574 78.3213 121.467 78.3452 121.36C78.5242 120.632 79.2762 119.199 80.1356 117.266C80.3265 116.824 80.2549 116.955 80.231 116.991C79.491 117.707 78.93 118.053 78.5123 118.244C77.82 118.555 76.9606 118.555 76.7816 117.755C76.7697 117.707 76.7697 117.66 76.7577 117.612C75.3493 118.71 73.8573 119.008 74.3706 116.645C73.8215 117.624 72.8667 118.423 71.697 118.423C71.2076 118.423 70.8495 118.256 70.6705 117.815C70.396 117.158 70.8257 116.036 71.2195 114.974C71.4224 114.437 71.697 113.792 72.067 113.04C72.2579 112.635 72.5683 112.396 72.9741 112.503C73.0457 112.527 73.1054 112.551 73.1651 112.587C73.4754 112.802 73.356 113.124 73.2009 113.446C72.7473 114.341 72.3534 114.998 72.0908 115.929C71.9834 116.323 71.8521 117.003 72.2699 117.003C72.5563 117.003 72.8309 116.908 73.0935 116.717C73.6425 116.311 74.0841 115.702 74.4183 115.105C74.657 114.676 74.9435 114.115 75.0867 113.637C75.1464 113.434 75.218 113.243 75.3016 113.064C75.4329 112.766 75.6119 112.456 75.9222 112.456C76.0774 112.456 76.2087 112.515 76.3042 112.635C76.5071 112.897 76.4593 113.172 76.3519 113.458C76.1132 114.127 75.7909 114.723 75.5284 115.451C75.3732 115.869 75.2061 116.406 75.2061 116.848C75.2061 117.254 75.6477 117.158 76.0177 116.991C76.3042 116.86 76.5906 116.657 76.8293 116.454C76.9726 115.869 76.9368 116 79.9804 108.314C80.1356 107.92 80.422 107.753 80.7085 107.753C80.8517 107.753 80.9711 107.801 81.0904 107.884C81.2933 108.039 81.2933 108.373 81.2098 108.624C81.1262 108.851 81.1382 108.779 80.6727 109.877C80.052 111.322 79.6462 112.36 79.0971 113.685C78.8704 114.234 78.1781 115.941 78.0587 116.347C77.9871 116.609 77.9036 117.039 78.1781 117.039C78.8226 117.039 80.4817 115.475 80.9353 115.01C80.9591 114.974 80.9949 114.962 81.0427 114.938C81.1143 114.711 81.1859 114.497 81.2456 114.282C81.4127 113.828 81.5678 113.303 81.8782 112.933C81.9737 112.814 82.0811 112.742 82.2004 112.742C82.5346 112.742 82.7017 112.885 82.7017 113.219C82.7017 113.351 82.6182 113.828 82.5705 113.959C82.7376 113.78 82.9166 113.601 83.1076 113.422C84.8979 111.763 86.1751 112.611 86.1751 113.446C86.1751 114.329 85.1128 115.559 84.5279 116.239C84.3369 116.466 83.9431 116.884 83.9311 117.003C83.9311 117.158 84.0386 117.218 84.1937 117.218C84.4324 117.218 84.9576 116.8 85.1486 116.657C85.7454 116.191 86.557 115.475 87.1299 114.974L88.8964 98.6458C85.256 100.687 65.3113 100.699 61.6471 98.6697V98.6697ZM89.0635 97.6552C89.0635 100.162 61.468 100.162 61.468 97.6552C61.468 96.6048 67.6507 95.7574 75.2658 95.7574C76.34 95.7574 77.3903 95.7693 78.4049 95.8051L79.9088 89.9924L87.2254 82.2938C87.3925 82.1267 87.9177 82.27 88.407 82.7116C88.8964 83.1532 89.1948 83.6545 89.0396 83.8216L89.0277 83.8336L82.1885 91.0547L80.9949 95.9125C85.7573 96.2229 89.0635 96.8793 89.0635 97.6552ZM80.7801 98.2042C80.7801 98.1087 80.6727 98.0252 80.4817 97.9536L80.4578 98.049C80.4578 98.2042 79.861 98.3355 79.133 98.3355C78.4049 98.3355 77.8081 98.2042 77.8081 98.049C77.8081 98.0371 77.8081 98.0252 77.82 98.0132L77.8439 97.9297C77.629 98.0013 77.4858 98.0968 77.4858 98.2042C77.4858 98.4549 78.2258 98.6458 79.121 98.6458C80.0401 98.6578 80.7801 98.4549 80.7801 98.2042V98.2042Z" fill="white" fill-opacity="0.75"/>
</g>
<g clip-path="url(#clip3)">
<path d="M162.827 75.4614L160.808 78.9848L160.149 90.4718C160.149 91.7465 156.096 92.7778 151.111 92.7778C146.127 92.7778 142.073 91.7465 142.073 90.4718L141.243 79.0994L139.109 75.4614C145.01 77.9392 157.155 77.8533 162.827 75.4614V75.4614ZM134.754 39.1814L136.702 57.1567C137.547 54.2921 139.681 50.4249 142.431 49.2504C143.334 48.8637 144.25 48.8637 145.11 49.3793C145.855 49.809 146.485 50.7114 146.556 51.0694C146.728 52.0004 146.27 52.3728 145.912 52.3728C145.482 52.3728 145.153 51.714 144.938 51.3273C144.351 50.2817 143.463 50.2387 142.517 50.9262C141.529 51.6424 140.67 52.8455 140.068 53.8911C139.338 55.1515 138.722 56.5408 138.349 57.9301C138.135 58.7322 137.934 60.0213 138.264 60.7804C138.407 61.0955 138.622 61.296 138.965 61.296C139.681 61.296 140.727 60.3507 141.228 59.8494C141.873 59.2049 142.704 58.2023 143.019 57.5577L143.764 55.3377C144.136 54.3637 145.181 54.5356 145.181 55.3377C145.181 56.7986 144.652 57.2856 143.749 60.3077C142.918 63.1007 142.661 64.003 142.661 64.003C142.56 64.4041 142.174 65.0773 141.758 65.0773C141.586 65.0773 141.458 65.02 141.386 64.9054C141.243 64.7049 141.257 64.1463 141.271 64.003C141.3 63.5447 142.174 60.8233 142.317 60.3937C142.03 60.7088 141.73 61.0239 141.4 61.339C140.627 62.0694 139.381 63.0291 138.321 63.0291C137.834 63.0291 137.519 62.9002 137.218 62.6853L138.306 74.0864C138.593 74.8025 143.921 76.5356 150.939 76.5356C157.972 76.5356 163.3 74.7882 163.572 74.0864L165.133 60.5369C164.317 61.2817 163.372 62.1983 162.326 62.6567C161.553 62.9861 159.834 63.201 159.834 61.8403C159.834 61.0955 161.137 59.7205 161.896 58.7608C162.097 58.5174 162.569 57.9158 162.569 57.6007C162.569 57.1853 161.71 57.2856 160.894 57.9588C160.435 58.3455 160.006 58.8611 159.648 59.3481C159.032 60.2075 158.702 60.9523 158.43 61.5681C157.542 63.602 157.843 62.7999 157.127 64.7192C156.411 66.6241 156.525 66.4093 156.382 66.7244C156.253 66.9965 156.067 67.2257 155.809 67.3689C155.537 67.5122 155.165 67.4978 154.935 67.326C154.806 67.24 154.749 67.0538 154.749 66.796C154.749 66.6671 154.764 66.5382 154.792 66.4093C155.007 65.5356 155.909 63.8168 156.941 61.4965C157.17 60.9666 157.084 61.1241 157.055 61.1671C156.167 62.0265 155.494 62.4418 154.993 62.671C154.162 63.0434 153.131 63.0434 152.916 62.0838C152.902 62.0265 152.902 61.9692 152.887 61.9119C151.197 63.2296 149.407 63.5877 150.023 60.7517C149.364 61.9262 148.218 62.8858 146.814 62.8858C146.227 62.8858 145.797 62.6853 145.583 62.1554C145.253 61.3676 145.769 60.0213 146.241 58.7465C146.485 58.102 146.814 57.3286 147.258 56.4262C147.487 55.9392 147.86 55.6528 148.347 55.7817C148.433 55.8103 148.504 55.839 148.576 55.8819C148.948 56.1398 148.805 56.5265 148.619 56.9132C148.075 57.9874 147.602 58.7752 147.287 59.8924C147.158 60.365 147 61.1814 147.502 61.1814C147.846 61.1814 148.175 61.0668 148.49 60.8377C149.149 60.3507 149.679 59.6202 150.08 58.9041C150.366 58.3885 150.71 57.7153 150.882 57.1424C150.954 56.8989 151.04 56.6697 151.14 56.4549C151.297 56.0968 151.512 55.7244 151.885 55.7244C152.071 55.7244 152.228 55.796 152.343 55.9392C152.586 56.2543 152.529 56.5838 152.4 56.9275C152.114 57.7296 151.727 58.4457 151.412 59.3194C151.226 59.8207 151.025 60.4653 151.025 60.9952C151.025 61.4822 151.555 61.3676 151.999 61.1671C152.343 61.0095 152.687 60.7661 152.973 60.5226C153.145 59.8207 153.102 59.9783 156.754 50.7543C156.941 50.2817 157.284 50.0812 157.628 50.0812C157.8 50.0812 157.943 50.1384 158.086 50.2387C158.33 50.4249 158.33 50.8259 158.23 51.1267C158.129 51.3989 158.144 51.3129 157.585 52.6306C156.84 54.3637 156.353 55.6098 155.694 57.1996C155.422 57.8585 154.592 59.9067 154.448 60.3937C154.362 60.7088 154.262 61.2244 154.592 61.2244C155.365 61.2244 157.356 59.3481 157.9 58.7895C157.929 58.7465 157.972 58.7322 158.029 58.7036C158.115 58.4314 158.201 58.1736 158.273 57.9158C158.473 57.3715 158.659 56.7413 159.032 56.2973C159.146 56.1541 159.275 56.0681 159.418 56.0681C159.819 56.0681 160.02 56.24 160.02 56.6411C160.02 56.7986 159.92 57.3715 159.862 57.5291C160.063 57.3142 160.278 57.0994 160.507 56.8845C162.655 54.8937 164.188 55.9106 164.188 56.9132C164.188 57.9731 162.913 59.4483 162.211 60.2648C161.982 60.5369 161.51 61.0382 161.495 61.1814C161.495 61.3676 161.624 61.4392 161.81 61.4392C162.097 61.4392 162.727 60.9379 162.956 60.7661C163.672 60.2075 164.646 59.3481 165.334 58.7465L167.454 39.1528C163.085 41.602 139.152 41.6163 134.754 39.1814V39.1814ZM167.654 37.964C167.654 40.9718 134.54 40.9718 134.54 37.964C134.54 36.7036 141.959 35.6866 151.097 35.6866C152.386 35.6866 153.646 35.7009 154.864 35.7439L156.668 28.7687L165.448 19.5304C165.649 19.3299 166.279 19.5017 166.866 20.0317C167.454 20.5616 167.812 21.1632 167.625 21.3637L167.611 21.378L159.404 30.0434L157.972 35.8728C163.687 36.2452 167.654 37.033 167.654 37.964ZM157.714 38.6228C157.714 38.5082 157.585 38.408 157.356 38.322L157.327 38.4366C157.327 38.6228 156.611 38.7804 155.737 38.7804C154.864 38.7804 154.148 38.6228 154.148 38.4366C154.148 38.4223 154.148 38.408 154.162 38.3937L154.191 38.2934C153.933 38.3793 153.761 38.4939 153.761 38.6228C153.761 38.9236 154.649 39.1528 155.723 39.1528C156.826 39.1671 157.714 38.9236 157.714 38.6228V38.6228Z" fill="white" fill-opacity="0.75"/>
</g>
</g>
<defs>
<linearGradient id="paint0_linear" x1="151.206" y1="173.865" x2="151.196" y2="166.721" gradientUnits="userSpaceOnUse">
<stop stop-color="#808080" stop-opacity="0.25"/>
<stop offset="0.54" stop-color="#808080" stop-opacity="0.12"/>
<stop offset="1" stop-color="#808080" stop-opacity="0.1"/>
</linearGradient>
<linearGradient id="paint1_linear" x1="135590" y1="80664.2" x2="135590" y2="21998.7" gradientUnits="userSpaceOnUse">
<stop stop-color="#808080" stop-opacity="0.25"/>
<stop offset="0.54" stop-color="#808080" stop-opacity="0.12"/>
<stop offset="1" stop-color="#808080" stop-opacity="0.1"/>
</linearGradient>
<linearGradient id="paint2_linear" x1="40079.9" y1="107655" x2="39989.2" y2="42720.8" gradientUnits="userSpaceOnUse">
<stop stop-color="#808080" stop-opacity="0.25"/>
<stop offset="0.54" stop-color="#808080" stop-opacity="0.12"/>
<stop offset="1" stop-color="#808080" stop-opacity="0.1"/>
</linearGradient>
<linearGradient id="paint3_linear" x1="75.8613" y1="175.493" x2="75.6955" y2="56.7944" gradientUnits="userSpaceOnUse">
<stop stop-opacity="0.09"/>
<stop offset="0.55" stop-opacity="0.07"/>
<stop offset="1" stop-opacity="0.02"/>
</linearGradient>
<linearGradient id="paint4_linear" x1="17619.4" y1="84675.4" x2="17564.6" y2="45443.6" gradientUnits="userSpaceOnUse">
<stop stop-color="#808080" stop-opacity="0.25"/>
<stop offset="0.54" stop-color="#808080" stop-opacity="0.12"/>
<stop offset="1" stop-color="#808080" stop-opacity="0.1"/>
</linearGradient>
<clipPath id="clip0">
<rect width="250" height="188.955" fill="white"/>
</clipPath>
<clipPath id="clip1">
<rect width="26.1111" height="51.6667" fill="white" transform="translate(16.6667 105.556)"/>
</clipPath>
<clipPath id="clip2">
<rect width="30.5556" height="61.1111" fill="white" transform="translate(60 82.2222)"/>
</clipPath>
<clipPath id="clip3">
<rect width="36.6667" height="73.3333" fill="white" transform="translate(132.778 19.4444)"/>
</clipPath>
</defs>
</svg>
