<svg width="250" height="170" viewBox="0 0 250 170" fill="none" xmlns="http://www.w3.org/2000/svg">
<g clip-path="url(#clip0)">
<path opacity="0.4" d="M169.404 105.22C179.718 105.22 188.079 96.8593 188.079 86.5456C188.079 76.232 179.718 67.8711 169.404 67.8711C159.09 67.8711 150.729 76.232 150.729 86.5456C150.729 96.8593 159.09 105.22 169.404 105.22Z" fill="#85B3FF"/>
<path d="M169.83 112.385H65.6937V140.609H169.83V112.385Z" fill="#3F3D56"/>
<path d="M163.16 42.459L159.002 44.427L162.682 41.6751C162.084 40.7415 161.412 39.8574 160.673 39.031L142.64 43.5133L158.929 37.2995C158.185 36.6428 157.394 36.0403 156.564 35.4966L129.085 39.9227C126.167 43.571 124.577 48.1029 124.575 52.7744H165.937C165.936 49.1514 164.978 45.5931 163.16 42.459Z" fill="#F2F2F2"/>
<path d="M166.454 12.2132C149.925 4.15146 131.772 -0.025918 113.382 0.000120987C75.9542 0.000120987 42.4913 16.9716 20.2652 43.6375C58.3253 35.2981 124.591 20.8623 166.454 12.2132Z" fill="#F2F2F2"/>
<path d="M248.176 168.833H0V169.32H248.176V168.833Z" fill="#2F2E41"/>
<path d="M144.98 52.7745L130.901 31.8618C130.901 31.8618 152.222 39.3053 149.803 52.7745H144.98Z" fill="#3F3D56"/>
<path d="M145.532 52.7745L159.611 31.8618C159.611 31.8618 138.29 39.3053 140.71 52.7745H145.532Z" fill="#85B3FF"/>
<path d="M169.952 169.32H65.572V13.6016H169.952V169.32ZM66.0587 168.833H169.465V14.0882H66.0587V168.833Z" fill="#2F2E41"/>
<path d="M169.83 17.2954H65.937V17.782H169.83V17.2954Z" fill="#2F2E41"/>
<path d="M68.6134 16.5212C69.1509 16.5212 69.5867 16.0855 69.5867 15.5479C69.5867 15.0104 69.1509 14.5747 68.6134 14.5747C68.0759 14.5747 67.6402 15.0104 67.6402 15.5479C67.6402 16.0855 68.0759 16.5212 68.6134 16.5212Z" fill="#85B3FF"/>
<path d="M71.2898 16.5212C71.8273 16.5212 72.2631 16.0855 72.2631 15.5479C72.2631 15.0104 71.8273 14.5747 71.2898 14.5747C70.7523 14.5747 70.3166 15.0104 70.3166 15.5479C70.3166 16.0855 70.7523 16.5212 71.2898 16.5212Z" fill="#85B3FF"/>
<path d="M73.9662 16.5212C74.5037 16.5212 74.9395 16.0855 74.9395 15.5479C74.9395 15.0104 74.5037 14.5747 73.9662 14.5747C73.4287 14.5747 72.993 15.0104 72.993 15.5479C72.993 16.0855 73.4287 16.5212 73.9662 16.5212Z" fill="#85B3FF"/>
<path d="M73.9662 20.6572H69.5867V23.0903H73.9662V20.6572Z" fill="#85B3FF"/>
<path d="M90.9979 39.8789H69.5867V42.312H90.9979V39.8789Z" fill="#85B3FF"/>
<path d="M145.743 23.0903L167.154 23.0903V20.6572L145.743 20.6572V23.0903Z" fill="#F2F2F2"/>
<path d="M105.597 44.0151H69.5867V45.475H105.597V44.0151Z" fill="#F2F2F2"/>
<path d="M103.65 47.1782H69.5867V48.6381H103.65V47.1782Z" fill="#F2F2F2"/>
<path d="M94.4043 50.3413H69.5867V51.8012H94.4043V50.3413Z" fill="#F2F2F2"/>
<path d="M91.9712 93.6504H77.8592V95.1102H91.9712V93.6504Z" fill="#F2F2F2"/>
<path d="M91.2084 96.8135H77.8592V98.2733H91.2084V96.8135Z" fill="#F2F2F2"/>
<path d="M87.585 99.9766H77.8592V101.436H87.585V99.9766Z" fill="#F2F2F2"/>
<path d="M124.818 93.6504H110.706V95.1102H124.818V93.6504Z" fill="#F2F2F2"/>
<path d="M124.055 96.8135H110.706V98.2733H124.055V96.8135Z" fill="#F2F2F2"/>
<path d="M120.432 99.9766H110.706V101.436H120.432V99.9766Z" fill="#F2F2F2"/>
<path d="M158.881 93.6504H144.769V95.1102H158.881V93.6504Z" fill="#F2F2F2"/>
<path d="M158.119 96.8135H144.769V98.2733H158.119V96.8135Z" fill="#F2F2F2"/>
<path d="M154.495 99.9766H144.769V101.436H154.495V99.9766Z" fill="#F2F2F2"/>
<path d="M121.168 148.882H99.7571V151.315H121.168V148.882Z" fill="#85B3FF"/>
<path d="M135.767 153.018H99.7571V154.478H135.767V153.018Z" fill="#F2F2F2"/>
<path d="M133.82 156.181H99.7571V157.641H133.82V156.181Z" fill="#F2F2F2"/>
<path d="M124.575 159.344H99.7571V160.804H124.575V159.344Z" fill="#F2F2F2"/>
<path opacity="0.3" d="M160.706 66.1562H76.0344V66.6429H160.706V66.1562Z" fill="#85B3FF"/>
<path opacity="0.3" d="M93.9177 74.6724H75.9127V90.7308H93.9177V74.6724Z" fill="#85B3FF"/>
<path d="M126.765 74.6724H108.76V90.7308H126.765V74.6724Z" fill="#3F3D56"/>
<path d="M160.828 74.6724H142.823V90.7308H160.828V74.6724Z" fill="#3F3D56"/>
<path d="M115.416 90.6633L115.179 90.6586C115.184 90.3956 115.332 84.196 117.773 82.4824L117.909 82.6768C115.567 84.3212 115.417 90.6 115.416 90.6633Z" fill="#85B3FF"/>
<path d="M119.029 82.4042C119.685 82.4042 120.216 81.8724 120.216 81.2165C120.216 80.5605 119.685 80.0288 119.029 80.0288C118.373 80.0288 117.841 80.5605 117.841 81.2165C117.841 81.8724 118.373 82.4042 119.029 82.4042Z" fill="#85B3FF"/>
<path d="M118.789 85.4101C118.171 85.6041 117.513 85.6325 116.881 85.4925C117.282 84.9814 117.823 84.5973 118.437 84.3864C119.052 84.1756 119.715 84.1469 120.345 84.304C119.932 84.8027 119.395 85.1841 118.789 85.4101Z" fill="#85B3FF"/>
<path d="M149.48 90.6633L149.242 90.6586C149.247 90.3956 149.396 84.196 151.836 82.4824L151.973 82.6768C149.631 84.3212 149.481 90.6 149.48 90.6633Z" fill="#85B3FF"/>
<path d="M153.092 82.4042C153.748 82.4042 154.28 81.8724 154.28 81.2165C154.28 80.5605 153.748 80.0288 153.092 80.0288C152.436 80.0288 151.904 80.5605 151.904 81.2165C151.904 81.8724 152.436 82.4042 153.092 82.4042Z" fill="#85B3FF"/>
<path d="M152.852 85.4101C152.234 85.6041 151.576 85.6325 150.944 85.4925C151.346 84.9814 151.886 84.5973 152.501 84.3864C153.116 84.1756 153.778 84.1469 154.409 84.304C153.996 84.8027 153.459 85.1841 152.852 85.4101Z" fill="#85B3FF"/>
<path d="M90.9979 121.388H69.5867V123.821H90.9979V121.388Z" fill="#85B3FF"/>
<path d="M105.597 125.524H69.5867V126.984H105.597V125.524Z" fill="#F2F2F2"/>
<path d="M103.65 128.687H69.5867V130.147H103.65V128.687Z" fill="#F2F2F2"/>
<path d="M94.4043 131.85H69.5867V133.31H94.4043V131.85Z" fill="#F2F2F2"/>
<path opacity="0.4" d="M148.845 132.348C153.044 132.348 156.448 128.944 156.448 124.746C156.448 120.547 153.044 117.143 148.845 117.143C144.646 117.143 141.243 120.547 141.243 124.746C141.243 128.944 144.646 132.348 148.845 132.348Z" fill="#85B3FF"/>
<path opacity="0.4" d="M134.774 133.71C137.72 133.71 140.108 131.322 140.108 128.377C140.108 125.431 137.72 123.043 134.774 123.043C131.829 123.043 129.441 125.431 129.441 128.377C129.441 131.322 131.829 133.71 134.774 133.71Z" fill="#85B3FF"/>
<path d="M40.7544 160.926C51.3702 160.926 59.9759 152.32 59.9759 141.704C59.9759 131.089 51.3702 122.483 40.7544 122.483C30.1387 122.483 21.5329 131.089 21.5329 141.704C21.5329 152.32 30.1387 160.926 40.7544 160.926Z" fill="#2F2E41"/>
<path d="M37.8347 156.79H31.9953V167.252H37.8347V156.79Z" fill="#2F2E41"/>
<path d="M49.5136 156.79H43.6741V167.252H49.5136V156.79Z" fill="#2F2E41"/>
<path d="M36.8615 169.198C39.549 169.198 41.7277 168.381 41.7277 167.374C41.7277 166.366 39.549 165.549 36.8615 165.549C34.1739 165.549 31.9953 166.366 31.9953 167.374C31.9953 168.381 34.1739 169.198 36.8615 169.198Z" fill="#2F2E41"/>
<path d="M48.5403 168.955C51.2279 168.955 53.4065 168.138 53.4065 167.13C53.4065 166.122 51.2279 165.305 48.5403 165.305C45.8528 165.305 43.6741 166.122 43.6741 167.13C43.6741 168.138 45.8528 168.955 48.5403 168.955Z" fill="#2F2E41"/>
<path d="M41.241 143.407C44.8692 143.407 47.8104 140.466 47.8104 136.838C47.8104 133.21 44.8692 130.269 41.241 130.269C37.6129 130.269 34.6717 133.21 34.6717 136.838C34.6717 140.466 37.6129 143.407 41.241 143.407Z" fill="white"/>
<path d="M41.241 136.108C42.4504 136.108 43.4308 135.128 43.4308 133.918C43.4308 132.709 42.4504 131.729 41.241 131.729C40.0317 131.729 39.0513 132.709 39.0513 133.918C39.0513 135.128 40.0317 136.108 41.241 136.108Z" fill="#3F3D56"/>
<path d="M22.1089 123.829C20.5568 116.878 25.5181 109.854 33.1902 108.141C40.8623 106.428 48.3399 110.674 49.892 117.625C51.444 124.576 46.3594 127.139 38.6874 128.853C31.0153 130.566 23.6609 130.78 22.1089 123.829Z" fill="#85B3FF"/>
<path d="M58.0348 121.706C60.2715 116.893 60.8597 112.422 59.3486 111.719C57.8375 111.017 54.7992 114.35 52.5625 119.164C50.3257 123.977 49.7375 128.449 51.2486 129.151C52.7597 129.853 55.798 126.52 58.0348 121.706Z" fill="#2F2E41"/>
<path d="M24.5148 134.769C25.9875 133.989 25.1684 129.554 22.6852 124.863C20.2021 120.172 16.9952 117.001 15.5225 117.78C14.0498 118.56 14.8689 122.995 17.3521 127.686C19.8352 132.377 23.0421 135.548 24.5148 134.769Z" fill="#2F2E41"/>
<path d="M202.971 136.378C204.526 135.778 204.239 131.278 202.33 126.325C200.421 121.372 197.613 117.843 196.059 118.442C194.504 119.042 194.791 123.542 196.7 128.495C198.609 133.448 201.417 136.977 202.971 136.378Z" fill="#2F2E41"/>
<path d="M217.322 161.096C227.938 161.096 236.543 152.491 236.543 141.875C236.543 131.259 227.938 122.653 217.322 122.653C206.706 122.653 198.1 131.259 198.1 141.875C198.1 152.491 206.706 161.096 217.322 161.096Z" fill="#2F2E41"/>
<path d="M220.312 167.413L226.152 167.397L226.123 156.935L220.283 156.951L220.312 167.413Z" fill="#2F2E41"/>
<path d="M208.634 167.447L214.474 167.431L214.444 156.968L208.605 156.985L208.634 167.447Z" fill="#2F2E41"/>
<path d="M221.292 169.358C223.979 169.351 226.156 168.528 226.153 167.52C226.15 166.512 223.969 165.701 221.282 165.709C218.594 165.716 216.418 166.539 216.421 167.547C216.423 168.555 218.604 169.366 221.292 169.358Z" fill="#2F2E41"/>
<path d="M209.612 169.147C212.3 169.14 214.476 168.317 214.473 167.309C214.471 166.301 212.29 165.49 209.602 165.498C206.915 165.505 204.738 166.328 204.741 167.336C204.744 168.344 206.925 169.155 209.612 169.147Z" fill="#2F2E41"/>
<path d="M216.822 143.58C220.45 143.58 223.391 140.638 223.391 137.01C223.391 133.382 220.45 130.441 216.822 130.441C213.194 130.441 210.252 133.382 210.252 137.01C210.252 140.638 213.194 143.58 216.822 143.58Z" fill="white"/>
<path d="M216.822 139.2C218.031 139.2 219.011 138.219 219.011 137.01C219.011 135.801 218.031 134.82 216.822 134.82C215.612 134.82 214.632 135.801 214.632 137.01C214.632 138.219 215.612 139.2 216.822 139.2Z" fill="#3F3D56"/>
<path d="M235.917 123.947C237.45 116.992 232.469 109.983 224.792 108.291C217.115 106.599 209.65 110.866 208.117 117.821C206.584 124.777 211.676 127.326 219.353 129.017C227.03 130.709 234.385 130.902 235.917 123.947Z" fill="#85B3FF"/>
<path d="M240.247 135.618C245.037 133.33 248.337 130.256 247.619 128.753C246.9 127.249 242.436 127.885 237.646 130.173C232.857 132.461 229.556 135.535 230.275 137.038C230.993 138.542 235.458 137.906 240.247 135.618Z" fill="#2F2E41"/>
<path d="M226.783 148.783C226.788 150.664 221.955 154.393 216.579 154.408C211.204 154.423 206.15 149.14 206.145 147.259C206.139 145.378 211.185 147.61 216.56 147.595C221.935 147.58 226.778 146.902 226.783 148.783Z" fill="white"/>
<path opacity="0.4" d="M223.176 140.864C237.99 140.864 250 128.854 250 114.04C250 99.225 237.99 87.2153 223.176 87.2153C208.361 87.2153 196.351 99.225 196.351 114.04C196.351 128.854 208.361 140.864 223.176 140.864Z" fill="#85B3FF"/>
<path d="M46.3274 104.037C56.9432 104.037 65.5489 95.431 65.5489 84.8152C65.5489 74.1995 56.9432 65.5938 46.3274 65.5938C35.7117 65.5938 27.1059 74.1995 27.1059 84.8152C27.1059 95.431 35.7117 104.037 46.3274 104.037Z" fill="#2F2E41"/>
<path d="M40.7672 99.1393L35.0212 98.0991L33.1575 108.394L38.9035 109.434L40.7672 99.1393Z" fill="#2F2E41"/>
<path d="M52.2592 101.22L46.5132 100.18L44.6495 110.475L50.3955 111.515L52.2592 101.22Z" fill="#2F2E41"/>
<path d="M52.2381 115.434C52.8894 114.665 51.7548 112.633 49.704 110.896C47.6531 109.16 45.4625 108.375 44.8112 109.144C44.1599 109.913 45.2944 111.945 47.3453 113.682C49.3962 115.418 51.5867 116.203 52.2381 115.434Z" fill="#2F2E41"/>
<path d="M40.9854 113.397C41.6368 112.628 40.5022 110.596 38.4513 108.859C36.4005 107.122 34.2099 106.338 33.5586 107.107C32.9072 107.876 34.0418 109.908 36.0927 111.644C38.1435 113.381 40.3341 114.166 40.9854 113.397Z" fill="#2F2E41"/>
<path d="M47.673 86.6832C51.3012 86.6832 54.2424 83.742 54.2424 80.1138C54.2424 76.4856 51.3012 73.5444 47.673 73.5444C44.0449 73.5444 41.1037 76.4856 41.1037 80.1138C41.1037 83.742 44.0449 86.6832 47.673 86.6832Z" fill="white"/>
<path d="M50.373 79.9489C51.5824 79.9489 52.5628 78.9685 52.5628 77.7591C52.5628 76.5497 51.5824 75.5693 50.373 75.5693C49.1636 75.5693 48.1832 76.5497 48.1832 77.7591C48.1832 78.9685 49.1636 79.9489 50.373 79.9489Z" fill="#3F3D56"/>
<path d="M31.1643 63.9044C30.8753 56.7883 37.0083 50.761 44.8629 50.4419C52.7174 50.1228 59.3191 55.6329 59.6082 62.749C59.8972 69.8651 54.4373 71.4819 46.5828 71.801C38.7282 72.12 31.4534 71.0205 31.1643 63.9044Z" fill="#85B3FF"/>
<path d="M64.7499 84.2545C69.9236 83.0686 73.8159 80.7905 73.4436 79.1664C73.0713 77.5422 68.5754 77.1869 63.4017 78.3728C58.228 79.5587 54.3357 81.8367 54.708 83.4609C55.0803 85.0851 59.5762 85.4404 64.7499 84.2545Z" fill="#2F2E41"/>
<path d="M27.0188 90.5294C32.1925 89.3435 36.0848 87.0654 35.7125 85.4413C35.3402 83.8171 30.8443 83.4618 25.6706 84.6477C20.4969 85.8336 16.6046 88.1116 16.9769 89.7358C17.3492 91.36 21.8451 91.7153 27.0188 90.5294Z" fill="#2F2E41"/>
<path d="M41.0482 92.3904C40.8413 93.5334 41.0969 94.7117 41.7588 95.6662C42.4207 96.6207 43.4347 97.2732 44.5776 97.4801C45.7206 97.687 46.8989 97.4314 47.8534 96.7695C48.8079 96.1076 49.4604 95.0937 49.6673 93.9507C50.0982 91.5706 48.258 90.7284 45.8779 90.2976C43.4978 89.8667 41.4791 90.0104 41.0482 92.3904Z" fill="white"/>
<path d="M91.5863 69.2018L74.3398 64.0312L69.7282 79.4133L86.9748 84.5838L91.5863 69.2018Z" fill="#3F3D56"/>
<path d="M76.1239 81.2601L75.8977 81.1874C75.9781 80.9369 77.9007 75.0411 80.7306 74.1006L80.8054 74.326C78.0897 75.2285 76.1432 81.1998 76.1239 81.2601Z" fill="#85B3FF"/>
<path d="M82.2971 74.4364C82.953 74.4364 83.4848 73.9047 83.4848 73.2487C83.4848 72.5928 82.953 72.061 82.2971 72.061C81.6412 72.061 81.1094 72.5928 81.1094 73.2487C81.1094 73.9047 81.6412 74.4364 82.2971 74.4364Z" fill="#85B3FF"/>
<path d="M80.8628 77.1967C80.2153 77.2052 79.5769 77.0435 79.0116 76.7278C79.5429 76.3535 80.171 76.1408 80.8204 76.1154C81.4698 76.0899 82.1127 76.2528 82.6716 76.5844C82.1327 76.9433 81.509 77.1545 80.8628 77.1967Z" fill="#85B3FF"/>
</g>
<defs>
<clipPath id="clip0">
<rect width="250" height="169.358" fill="white"/>
</clipPath>
</defs>
</svg>
